<?xml version="1.0" encoding="UTF-8"?>
<svg width="896px" height="896px" viewBox="0 0 896 896" version="1.1" xmlns="http://www.w3.org/2000/svg" xmlns:xlink="http://www.w3.org/1999/xlink">
    <title>049ios-闭眼</title>
    <g id="049ios-闭眼" stroke="none" stroke-width="1" fill="none" fill-rule="evenodd">
        <path d="M448,0 C695.423568,0 896,200.576432 896,448 C896,695.423568 695.423568,896 448,896 C200.576432,896 0,695.423568 0,448 C0,200.576432 200.576432,0 448,0 Z M448,59.7333333 C233.566241,59.7333333 59.7333333,233.566241 59.7333333,448 C59.7333333,662.433759 233.566241,836.266667 448,836.266667 C662.433759,836.266667 836.266667,662.433759 836.266667,448 C836.266667,233.566241 662.433759,59.7333333 448,59.7333333 Z M160.28802,395.017218 C173.054697,384.57242 191.871317,386.454675 202.316115,399.221353 C257.086789,466.167553 350.127143,507.733333 452.41018,507.733333 C520.111828,507.733333 583.764088,489.52261 634.949348,457.794799 C635.272067,457.439764 635.604866,457.090623 635.947744,456.747744 C639.314775,453.380713 643.285721,450.985666 647.511908,449.562605 C668.465623,435.056011 687.015233,418.153575 702.504246,399.221353 C712.949044,386.454675 731.765663,384.57242 744.532341,395.017218 C757.299019,405.462017 759.181274,424.278636 748.736476,437.045314 C735.34989,453.407739 720.188867,468.471126 703.532559,482.094714 L703.532559,482.094714 L741.542357,520.104512 C753.206016,531.768171 753.206016,550.678698 741.542357,562.342357 C729.878698,574.006016 710.968171,574.006016 699.304512,562.342357 L699.304512,562.342357 L653.285581,516.323426 C637.118128,525.43153 620.075044,533.425851 602.32297,540.222361 L602.32297,540.222361 L634.75561,603.875002 C642.24414,618.572069 636.400466,636.557049 621.703398,644.045579 C607.006331,651.534109 589.021351,645.690435 581.532821,630.993367 L581.532821,630.993367 L544.135912,557.597801 C522.642185,562.31535 500.469743,565.397149 477.866667,567.466667 L477.866667,567.466667 L477.866667,657.066667 C477.866667,673.561571 464.494905,686.933333 448,686.933333 C431.505095,686.933333 418.133333,673.561571 418.133333,657.066667 L418.133333,657.066667 L418.133333,567.466667 C418.133333,567.014247 418.143393,566.564176 418.1633,566.116667 C395.82953,564.349017 373.959889,560.865448 352.788308,555.783919 L352.788308,555.783919 L314.467179,630.993367 C306.978649,645.690435 288.993669,651.534109 274.296602,644.045579 C259.599534,636.557049 253.75586,618.572069 261.24439,603.875002 L261.24439,603.875002 L295.152924,537.325756 C277.995351,530.358873 261.537328,522.258572 245.934506,513.103339 L245.934506,513.103339 L196.695488,562.342357 C185.031829,574.006016 166.121302,574.006016 154.457643,562.342357 C142.793984,550.678698 142.793984,531.768171 154.457643,520.104512 L154.457643,520.104512 L196.477406,478.084749 C181.703365,465.532973 168.170371,451.818626 156.083885,437.045314 C145.639087,424.278636 147.521342,405.462017 160.28802,395.017218 Z" id="ios-闭眼" fill="#333333"></path>
    </g>
</svg>