<?xml version="1.0" encoding="UTF-8"?>
<svg width="896px" height="896px" viewBox="0 0 896 896" version="1.1" xmlns="http://www.w3.org/2000/svg" xmlns:xlink="http://www.w3.org/1999/xlink">
    <title>0177正品</title>
    <g id="0177正品" stroke="none" stroke-width="1" fill="none" fill-rule="evenodd">
        <path d="M448,0 C695.423568,0 896,200.576432 896,448 C896,695.423568 695.423568,896 448,896 C200.576432,896 0,695.423568 0,448 C0,200.576432 200.576432,0 448,0 Z M448,56 C231.504378,56 56,231.504378 56,448 C56,664.495622 231.504378,840 448,840 C664.495622,840 840,664.495622 840,448 C840,231.504378 664.495622,56 448,56 Z M471.308038,261.740667 C473.713111,263.056771 477.556857,265.634811 482.371288,268.936601 C494.123233,277.03208 515.978799,292.096271 532.993019,295.551743 C551.773119,299.38244 572.049695,300.0004 582.734847,300.016402 L583.168535,300.016727 C588.634805,300.016727 592.294699,299.896474 593.180959,299.830475 C594.754199,299.764649 595.625888,299.754449 596.520719,299.754449 C607.494401,299.754449 617.954583,303.165093 625.967779,309.373627 C634.880949,316.264427 640,326.028201 640,336.15505 L640,391.896518 C640,609.683427 462.537578,638.352223 454.98474,639.469477 C452.48787,639.829896 449.940516,640.018033 447.393161,640.018033 C444.857806,640.018033 442.360164,639.829895 439.851379,639.457906 C432.34774,638.352224 256,609.746854 256,391.896519 L256,336.15505 C256,326.016887 261.107138,316.253028 270.004622,309.373628 C278.800795,302.649966 290.361946,299.238464 302.230287,299.797477 C303.511666,299.893724 307.035007,300.010063 312.369852,300.016452 L312.831551,300.016728 C323.54784,300.016728 344.352665,299.434916 363.379313,295.551743 C378.870606,292.414263 398.857055,281.365841 419.660594,264.439731 C422.542824,262.125341 423.61705,261.64107 424.063181,261.432533 C437.035233,254.270198 457.312587,254.005434 471.308038,261.740667 Z" id="Oval-Copy-2" fill="#333333" fill-rule="nonzero"></path>
    </g>
</svg>