<?xml version="1.0" encoding="UTF-8"?>
<svg width="758px" height="896px" viewBox="0 0 758 896" version="1.1" xmlns="http://www.w3.org/2000/svg" xmlns:xlink="http://www.w3.org/1999/xlink">
    <title>016活动报名</title>
    <g id="016活动报名" stroke="none" stroke-width="1" fill="none" fill-rule="evenodd">
        <path d="M551.384615,0 C603.134427,1.1631038e-12 650.838646,14.6782213 693.405403,39.0020825 C718.938839,53.5926172 737.426066,68.3823989 748.060295,79.0166278 C754.523087,85.47942 758.153846,94.2448471 758.153846,103.384615 L758.153846,103.384615 L758.153846,585.846154 C758.153846,616.548106 721.033878,631.9237 699.32432,610.214141 C692.72778,603.617601 678.907315,592.561229 659.209981,581.30561 C626.392123,562.552548 590.096342,551.384615 551.384615,551.384615 C514.047724,551.384615 487.032168,559.103345 426.337156,583.381351 C357.801399,610.795653 324.509262,620.307692 275.692308,620.307692 C225.952718,620.307692 186.201324,608.673138 128.15769,582.875967 C99.4839938,570.132102 81.7582834,562.440635 68.9230769,557.85385 L68.9230769,557.85385 L68.9230769,861.538462 C68.9230769,907.487179 0,907.487179 0,861.538462 L0,861.538462 L0,34.4615385 C0,15.4289563 15.4289563,6.4276789e-13 34.4615385,0 C69.5851956,3.83824254e-11 82.4740355,4.68685086 156.150003,37.4317251 C206.106368,59.6345541 237.842154,68.9230769 275.692308,68.9230769 C313.029199,68.9230769 340.044755,61.2043468 400.739767,36.9263417 C469.275524,9.51203915 502.567661,-1.10188781e-12 551.384615,0 Z M551.384615,68.9230769 C514.047724,68.9230769 487.032168,76.641807 426.337156,100.919812 C357.801399,128.334115 324.509262,137.846154 275.692308,137.846154 C225.952718,137.846154 186.201324,126.2116 128.15769,100.414429 C99.4839938,87.6705638 81.7582834,79.9790967 68.9230769,75.3923115 L68.9230769,75.3923115 L68.9230769,485.659904 C87.7602457,489.905387 110.061448,499.409462 156.150003,519.893264 C206.106368,542.096093 237.842154,551.384615 275.692308,551.384615 C313.029199,551.384615 340.044755,543.665885 400.739767,519.38788 C469.275524,491.973578 502.567661,482.461538 551.384615,482.461538 C601.449289,482.461538 647.727555,496.199385 689.230769,519.118237 L689.230769,519.118237 L689.230769,118.915488 C681.811652,113.027533 671.690503,105.975798 659.209981,98.8440714 C626.392123,80.0910095 590.096342,68.9230769 551.384615,68.9230769 Z" id="Combined-Shape" fill="#333333"></path>
        <path d="M68.9230769,516.923077 L34.4615385,551.384615 C45.6855558,551.384615 53.997909,552.520197 68.9230769,557.85385 L68.9230769,516.923077 Z" id="Path" fill="#333333"></path>
    </g>
</svg>