<?xml version="1.0" encoding="UTF-8"?>
<svg width="597px" height="896px" viewBox="0 0 597 896" version="1.1" xmlns="http://www.w3.org/2000/svg" xmlns:xlink="http://www.w3.org/1999/xlink">
    <title>0214大头针</title>
    <g id="0214大头针" stroke="none" stroke-width="1" fill="none" fill-rule="evenodd">
        <path d="M298.5,-2.27373675e-13 C463.356998,-2.27373675e-13 597,138.328574 597,308.965517 C597,458.552602 494.295778,583.310808 357.89321,611.814889 L358.266186,611.806668 C351.813695,615.363425 328.35,644.091072 328.35,649.059389 L328.35,866.15 C328.35,882.6357 314.9857,896 298.5,896 C282.0143,896 268.65,882.6357 268.65,866.15 L268.65,649.059389 L268.65,649.059389 C268.65,644.055116 245.186592,615.363425 238.764188,611.806668 L239.10679,611.814889 C102.704222,583.310808 0,458.552602 0,308.965517 C0,138.328574 133.643002,-2.27373675e-13 298.5,-2.27373675e-13 Z M298.5,185.37931 C232.557201,185.37931 179.1,240.71074 179.1,308.965517 C179.1,377.220295 232.557201,432.551724 298.5,432.551724 C364.442799,432.551724 417.9,377.220295 417.9,308.965517 C417.9,240.71074 364.442799,185.37931 298.5,185.37931 Z" id="形状结合" fill="#222222" fill-rule="nonzero"></path>
    </g>
</svg>