<?xml version="1.0" encoding="UTF-8"?>
<svg width="807px" height="896px" viewBox="0 0 807 896" version="1.1" xmlns="http://www.w3.org/2000/svg" xmlns:xlink="http://www.w3.org/1999/xlink">
    <title>0205申请退款</title>
    <g id="0205申请退款" stroke="none" stroke-width="1" fill="none" fill-rule="evenodd">
        <g id="申请退款" fill="#333333" fill-rule="nonzero">
            <path d="M472.030545,11.8094546 C487.776486,27.555394 487.776486,53.0846059 472.030545,68.8305453 C410.345731,130.51536 327.782057,166.52106 240.949862,169.967418 L227.206465,170.24 L199.608889,170.24 C136.43129,170.24 84.7556483,219.485734 80.8740567,281.685109 L80.64,289.208889 L80.64,696.391109 C80.64,759.56871 129.885734,811.244354 192.085109,815.125942 L199.608889,815.36 L606.791109,815.36 C669.96871,815.36 721.644354,766.114268 725.525942,703.914893 L725.76,696.391109 L725.76,289.208889 C725.76,226.03129 676.514268,174.355648 614.314893,170.474057 L606.791109,170.24 L566.968891,170.24 C544.700769,170.24 526.648891,152.188121 526.648891,129.92 C526.648891,109.364811 542.030371,92.4021603 561.911235,89.9141501 L566.968891,89.6 L606.791109,89.6 C713.882315,89.6 801.27622,173.934157 806.182738,279.81238 L806.4,289.208889 L806.4,696.391109 C806.4,803.482315 722.065841,890.87622 616.187618,895.782738 L606.791109,896 L199.608889,896 C92.5176851,896 5.12377882,811.665841 0.217262721,705.787618 L1.76214598e-12,696.391109 L1.76214598e-12,289.208889 C1.76214598e-12,182.117685 84.3341574,94.7237787 190.21238,89.8172625 L199.608889,89.6 L227.206465,89.6 C297.64625,89.6 365.201005,61.6179043 415.009455,11.8094546 C430.755394,-3.93648486 456.284604,-3.93648486 472.030545,11.8094546 Z M403.2,264.320347 C423.755189,264.320347 440.71784,279.70183 443.20585,299.582692 L443.52,304.640347 L443.52,367.360693 L488.32,367.360347 C510.588122,367.360347 528.64,385.412226 528.64,407.680347 C528.64,428.235536 513.258516,445.198186 493.377656,447.686197 L488.32,448.000345 L443.52,448.000694 L443.52,501.760694 L510.72,501.760345 C532.988122,501.760345 551.04,519.812227 551.04,542.080345 C551.04,562.635535 535.658516,579.598186 515.777656,582.086198 L510.72,582.400345 L453.4208,582.400694 L513.809619,649.50769 C528.706205,666.059453 527.364423,691.553381 510.81266,706.449968 C495.640208,720.105174 472.953855,720.115635 457.803996,707.273477 L453.870381,703.453005 L403.2,647.136345 L352.52962,703.453005 C337.633032,720.004768 312.139106,721.346555 295.587342,706.449968 C280.414891,692.794762 278.023048,670.234849 289.203937,653.820617 L292.59038,649.50769 L353.024,582.400694 L295.68,582.400345 C273.411879,582.400345 255.36,564.348467 255.36,542.080345 C255.36,521.52516 270.741483,504.562509 290.622345,502.074496 L295.68,501.760345 L362.88,501.760694 L362.88,448.000694 L318.08,448.000345 C295.811879,448.000345 277.76,429.948468 277.76,407.680347 C277.76,387.125158 293.141483,370.162507 313.022345,367.674497 L318.08,367.360347 L362.88,367.360693 L362.88,304.640347 C362.88,282.372226 380.931879,264.320347 403.2,264.320347 Z" id="Path-Copy-4" transform="translate(403.200000, 448.000000) rotate(-180.000000) translate(-403.200000, -448.000000) "></path>
        </g>
    </g>
</svg>