<?xml version="1.0" encoding="UTF-8"?>
<svg width="897px" height="897px" viewBox="0 0 897 897" version="1.1" xmlns="http://www.w3.org/2000/svg" xmlns:xlink="http://www.w3.org/1999/xlink">
    <title>0240 修改订单</title>
    <g id="0240-修改订单" stroke="none" stroke-width="1" fill="none" fill-rule="evenodd">
        <g id="Group" fill="#333333" fill-rule="nonzero">
            <g id="填写单号">
                <g id="编组" transform="translate(429.570495, 429.570495) rotate(45.000000) translate(-429.570495, -429.570495) translate(256.470159, -151.821289)">
                    <path d="M173.100337,45.7155971 C77.4996607,45.7155971 0,123.215258 0,218.815934 L0,952.79613 C0,966.308462 4.38261204,979.456298 12.4900112,990.266164 L123.140292,1137.79987 C126.690843,1142.53394 130.896235,1146.73933 135.630303,1150.28988 C163.222474,1170.98401 202.366254,1165.39204 223.060382,1137.79987 L333.710663,990.266164 C341.818062,979.456298 346.200674,966.308462 346.200674,952.79613 L346.200674,218.815934 C346.200674,123.215258 268.701013,45.7155971 173.100337,45.7155971 Z M265.555,347.655597 L265.5296,946.694594 L173.0624,1069.98419 L80.64,946.739394 L80.639,347.655597 L265.555,347.655597 Z M173.100337,126.355597 L179.703477,126.587749 C227.686162,129.973518 265.560674,169.971693 265.560674,218.815934 L265.558,267.015597 L80.639,267.015597 L80.64,218.815934 C80.64,167.7515 122.035903,126.355597 173.100337,126.355597 Z" id="矩形"></path>
                    <path d="M84.522925,70.295562 C108.071822,55.4312646 143.395168,33.1348186 190.492962,3.40622389 C196.525887,-0.40181819 204.013485,-1.05761297 210.610625,1.64423595 C221.929415,6.27983021 227.366871,19.2616592 222.755523,30.6399625 L203.217983,78.848 C121.076994,75.0469164 81.5119745,72.1961037 84.522925,70.295562 Z" id="路径-13"></path>
                </g>
                <path d="M855.616282,815.36 C877.884403,815.36 895.936282,833.411879 895.936282,855.68 C895.936282,876.235189 880.554799,893.19784 860.673937,895.68585 L855.616282,896 L422.016,896 C399.747879,896 381.696,877.948121 381.696,855.68 C381.696,835.124811 397.077483,818.16216 416.958345,815.67415 L422.016,815.36 L855.616282,815.36 Z" id="直线-8"></path>
            </g>
        </g>
    </g>
</svg>