<?xml version="1.0" encoding="UTF-8"?>
<svg width="896px" height="896px" viewBox="0 0 896 896" version="1.1" xmlns="http://www.w3.org/2000/svg" xmlns:xlink="http://www.w3.org/1999/xlink">
    <title>0139加工中</title>
    <g id="0139加工中" stroke="none" stroke-width="1" fill="none" fill-rule="evenodd">
        <path d="M448,0 C695.423568,0 896,200.576432 896,448 C896,695.423568 695.423568,896 448,896 C200.576432,896 0,695.423568 0,448 C0,200.576432 200.576432,0 448,0 Z M423.453881,179.2 C437.552493,263.144186 375.871067,354.232558 315.951967,423.888372 C314.189641,389.953489 312.427314,368.52093 293.041724,334.586047 C291.138411,367.377861 275.873844,397.044808 260.01316,426.961744 L258.249057,430.287048 C257.660638,431.39594 257.072049,432.505347 256.483939,433.615439 L254.721697,436.947944 C242.991653,459.180651 231.712763,481.756279 226.073318,506.046511 C210.21238,591.776744 286.248704,703.19064 423.453881,715.013953 C346.96311,664.632802 344.149191,598.92093 374.108741,559.627907 C405.830617,514.976744 412.879923,472.111628 412.879923,472.111628 L412.911137,472.147963 C413.922515,473.333284 439.103341,503.438884 428.740861,550.697674 C472.799023,504.260464 479.848329,429.246511 474.561349,400.669767 C573.251631,466.753488 624.836334,637.426032 515.759449,715.013953 C847.693293,589.768607 634.933057,306.009302 594.399549,279.218605 C608.498161,307.795349 610.260487,354.232558 582.063263,375.665116 C536.242775,211.348837 423.453881,179.2 423.453881,179.2 Z" id="jiagongzhong" fill="#333333"></path>
    </g>
</svg>