<?xml version="1.0" encoding="UTF-8"?>
<svg width="896px" height="896px" viewBox="0 0 896 896" version="1.1" xmlns="http://www.w3.org/2000/svg" xmlns:xlink="http://www.w3.org/1999/xlink">
    <title>0259 分类</title>
    <g id="0259-分类" stroke="none" stroke-width="1" fill="none" fill-rule="evenodd">
        <g id="图标/分类" fill="#000000" fill-rule="nonzero">
            <path d="M121.679012,0 L276.54321,0 C343.744673,0 398.222222,54.4775495 398.222222,121.679012 L398.222222,276.54321 C398.222222,343.744673 343.744673,398.222222 276.54321,398.222222 L121.679012,398.222222 C54.4775495,398.222222 0,343.744673 0,276.54321 L0,121.679012 C0,54.4775495 54.4775495,0 121.679012,0 Z M121.679012,66.3703704 C91.1328928,66.3703704 66.3703704,91.1328928 66.3703704,121.679012 L66.3703704,276.54321 C66.3703704,307.089329 91.1328928,331.851852 121.679012,331.851852 L276.54321,331.851852 C307.089329,331.851852 331.851852,307.089329 331.851852,276.54321 L331.851852,121.679012 C331.851852,91.1328928 307.089329,66.3703704 276.54321,66.3703704 L121.679012,66.3703704 Z M680.296296,475.654321 C793.316938,475.654321 884.938272,567.275654 884.938272,680.296296 C884.938272,719.425921 873.955994,755.990497 854.905623,787.07584 L893.742634,864.572126 C899.224097,875.509203 894.379999,888.617421 882.923037,893.850151 C876.221654,896.910869 868.384206,896.69271 861.881026,893.264439 L788.017306,854.325149 C756.729831,873.732731 719.821661,884.938272 680.296296,884.938272 C567.275654,884.938272 475.654321,793.316938 475.654321,680.296296 C475.654321,567.275654 567.275654,475.654321 680.296296,475.654321 Z M680.296296,542.024691 C603.930998,542.024691 542.024691,603.930998 542.024691,680.296296 C542.024691,756.661595 603.930998,818.567901 680.296296,818.567901 C756.661595,818.567901 818.567901,756.661595 818.567901,680.296296 C818.567901,603.930998 756.661595,542.024691 680.296296,542.024691 Z M121.679012,481.185185 L276.54321,481.185185 C343.744673,481.185185 398.222222,535.662735 398.222222,602.864198 L398.222222,757.728395 C398.222222,824.929858 343.744673,879.407407 276.54321,879.407407 L121.679012,879.407407 C54.4775495,879.407407 0,824.929858 0,757.728395 L0,602.864198 C0,535.662735 54.4775495,481.185185 121.679012,481.185185 Z M121.679012,547.555556 C91.1328928,547.555556 66.3703704,572.318078 66.3703704,602.864198 L66.3703704,757.728395 C66.3703704,788.274515 91.1328928,813.037037 121.679012,813.037037 L276.54321,813.037037 C307.089329,813.037037 331.851852,788.274515 331.851852,757.728395 L331.851852,602.864198 C331.851852,572.318078 307.089329,547.555556 276.54321,547.555556 L121.679012,547.555556 Z M602.864198,0 L757.728395,0 C824.929858,0 879.407407,54.4775495 879.407407,121.679012 L879.407407,276.54321 C879.407407,343.744673 824.929858,398.222222 757.728395,398.222222 L602.864198,398.222222 C535.662735,398.222222 481.185185,343.744673 481.185185,276.54321 L481.185185,121.679012 C481.185185,54.4775495 535.662735,0 602.864198,0 Z M602.864198,66.3703704 C572.318078,66.3703704 547.555556,91.1328928 547.555556,121.679012 L547.555556,276.54321 C547.555556,307.089329 572.318078,331.851852 602.864198,331.851852 L757.728395,331.851852 C788.274515,331.851852 813.037037,307.089329 813.037037,276.54321 L813.037037,121.679012 C813.037037,91.1328928 788.274515,66.3703704 757.728395,66.3703704 L602.864198,66.3703704 Z" id="形状结合"></path>
        </g>
    </g>
</svg>