<?xml version="1.0" encoding="UTF-8"?>
<svg width="896px" height="896px" viewBox="0 0 896 896" version="1.1" xmlns="http://www.w3.org/2000/svg" xmlns:xlink="http://www.w3.org/1999/xlink">
    <title>0145存储空间</title>
    <g id="0145存储空间" stroke="none" stroke-width="1" fill="none" fill-rule="evenodd">
        <path d="M448,896 C200.576432,896 0,695.423568 0,448 C0,200.576432 200.576432,0 448,0 C695.423568,0 896,200.576432 896,448 C896,695.423568 695.423568,896 448,896 Z M448,819.2 C653.008099,819.2 819.2,653.008099 819.2,448 C819.2,242.991901 653.008099,76.8 448,76.8 C242.991901,76.8 76.8,242.991901 76.8,448 C76.8,653.008099 242.991901,819.2 448,819.2 Z M409.6,294.4 C409.6,273.192266 426.792266,256 448,256 C469.207734,256 486.4,273.192266 486.4,294.4 L486.4,606.669799 C486.4,627.877533 469.207734,645.069799 448,645.069799 C426.792266,645.069799 409.6,627.877533 409.6,606.669799 L409.6,294.4 Z M582.311368,469.347606 C598.16779,455.264215 622.438803,456.701542 636.522194,472.557964 C650.605584,488.414386 649.168257,512.685399 633.311835,526.768789 L473.500234,668.710592 C458.954555,681.629803 437.045445,681.629803 422.499766,668.710592 L262.688165,526.768789 C246.831743,512.685399 245.394416,488.414386 259.477806,472.557964 C273.561197,456.701542 297.83221,455.264215 313.688632,469.347606 L448,588.640557 L582.311368,469.347606 Z" id="cunchukongjian" fill="#333333" fill-rule="nonzero"></path>
    </g>
</svg>