<?xml version="1.0" encoding="UTF-8"?>
<svg width="896px" height="733px" viewBox="0 0 896 733" version="1.1" xmlns="http://www.w3.org/2000/svg" xmlns:xlink="http://www.w3.org/1999/xlink">
    <title>069md-不可选</title>
    <g id="069md-不可选" stroke="none" stroke-width="1" fill="none" fill-rule="evenodd">
        <path d="M80.51,185.41 L161.478,238.308 L161.478179,651.636364 L728.248968,651.636364 L728.248,608.588 L808.665968,661.126188 C804.006489,701.063829 770.328469,732.409303 729.58247,733.079941 L728.248968,733.090909 L161.478179,733.090909 C116.946188,733.090909 80.5109232,696.436364 80.5109232,651.636364 L80.5109232,651.636364 L80.51,185.41 Z M6.61844776,66.018298 C18.8690417,47.1540376 44.2588397,41.9005493 62.4742331,53.7297641 L62.4742331,53.7297641 L877.889092,583.266365 C896.486796,595.343856 901.717555,620.295583 889.381552,639.291361 C877.130958,658.155621 851.74116,663.40911 833.525767,651.579895 L833.525767,651.579895 L18.110908,122.043294 C-0.486796452,109.965803 -5.71755506,85.0140766 6.61844776,66.018298 Z M728.248968,0 C772.780958,0 809.216223,36.6545455 809.216223,81.4545455 L809.216223,81.4545455 L809.216,515.8 L728.248,462.903 L728.248968,81.4545455 L161.478179,81.4545455 L161.478,92.622 L88.9930915,45.2677634 C102.110385,18.8723227 129.072389,0.522386553 160.144676,0.0109678545 L161.478179,0 Z" id="md-d-Choice" fill="#333333"></path>
    </g>
</svg>