<?xml version="1.0" encoding="UTF-8"?>
<svg width="896px" height="896px" viewBox="0 0 896 896" version="1.1" xmlns="http://www.w3.org/2000/svg" xmlns:xlink="http://www.w3.org/1999/xlink">
    <title>046支付宝</title>
    <g id="046支付宝" stroke="none" stroke-width="1" fill="none" fill-rule="evenodd">
        <path d="M896,613.406338 L896,172.266767 C896,77.1728236 818.832,0 723.688,0 L172.256,1.84713017e-15 C77.1680003,1.84713017e-15 0,77.1728236 0,172.266767 L0,723.733233 C0,818.827176 77.1120003,896 172.256,896 L723.688,896 C808.416,896 878.92,834.732171 893.312,754.143134 C847.616,734.373898 649.6,648.856553 546.448001,599.629477 C467.936001,694.72342 385.728001,751.790987 261.800001,751.790987 C137.872,751.790987 55.1600002,675.458216 65.0720007,582.044377 C71.6240003,520.720545 113.680001,420.47428 296.352,437.667355 C392.616,446.683917 436.688,464.661041 515.2,490.590662 C535.528,453.348334 552.384,412.353772 565.208,368.727045 L217.056,368.727045 L217.056,334.22889 L389.312,334.22889 L389.312,272.289018 L179.2,272.289018 L179.2,234.318645 L389.312,234.318645 L389.312,144.937059 C389.312,144.937059 391.216,130.936184 406.671999,130.936184 L492.8,130.936184 L492.8,234.318645 L716.8,234.318645 L716.8,272.289018 L492.8,272.289018 L492.8,334.22889 L675.528,334.22889 C658.728,402.609164 633.248,465.445091 601.328,520.32852 C654.416,539.537722 896,613.406338 896,613.406338 L896,613.406338 L896,613.406338 Z M248.08,692.651291 C117.152,692.651291 96.4319999,609.990124 103.376,575.435965 C110.264,541.049815 148.176,496.191012 220.976,496.191012 C304.64,496.191012 379.568,517.584349 469.503999,561.379086 C406.336,643.648228 328.72,692.651291 248.08,692.651291 L248.08,692.651291 Z" id="zhifubao" fill="#333333"></path>
    </g>
</svg>