<?xml version="1.0" encoding="UTF-8"?>
<svg width="896px" height="784px" viewBox="0 0 896 784" version="1.1" xmlns="http://www.w3.org/2000/svg" xmlns:xlink="http://www.w3.org/1999/xlink">
    <title>0187优惠券</title>
    <g id="0187优惠券" stroke="none" stroke-width="1" fill="none" fill-rule="evenodd">
        <path d="M733.958465,1.13686838e-12 C823.451534,1.13686838e-12 896,76.5019084 896,170.872688 L896,170.872688 L896,283.260466 C896,297.812171 886.140858,310.287679 872.5683,312.917072 C836.689113,319.867898 810.213305,353.043598 810.213305,392 C810.213305,430.956402 836.689113,464.132102 872.5683,471.082928 C886.140858,473.712321 896,486.187829 896,500.739534 L896,500.739534 L896,613.128205 C896,707.498092 823.451534,784 733.958465,784 L733.958465,784 L162.047165,784 C72.5540961,784 5.1159077e-13,707.498092 5.1159077e-13,613.129798 L5.1159077e-13,613.129798 L5.1159077e-13,500.743722 C5.1159077e-13,486.190106 9.85639749,473.712677 23.4309496,471.084164 L23.4309496,471.084164 L25.8089783,470.582326 C60.4769234,462.658704 85.7923247,430.093166 85.7923247,392 C85.7923247,353.041081 59.3131472,319.863899 23.4309496,312.915836 L23.4309496,312.915836 L21.7539364,312.536538 C9.05208461,309.243933 5.1159077e-13,297.203493 5.1159077e-13,283.256278 L5.1159077e-13,283.256278 L5.1159077e-13,170.871795 C5.1159077e-13,76.5019084 72.5540961,1.13686838e-12 162.047165,1.13686838e-12 L162.047165,1.13686838e-12 Z M733.958465,60.3076923 L162.047165,60.3076923 C104.139885,60.3076923 57.1967597,109.808927 57.1967596,170.873388 L57.1967596,170.873388 L57.1815981,260.509128 C106.915161,280.547813 141.677003,330.702941 142.947437,388.708436 L142.947437,388.708436 L142.983455,392 C142.983455,451.393684 107.852799,503.074468 57.1815981,523.480821 L57.1815981,523.480821 L57.1967597,613.128205 C57.1967597,673.221821 102.661454,722.117927 159.298106,723.655044 L159.298106,723.655044 L162.047165,723.692308 L733.958465,723.692308 C791.865745,723.692308 838.80887,674.191073 838.80887,613.129098 L838.80887,613.129098 L838.80887,523.470769 C789.085908,503.445927 754.328461,453.293126 753.058188,395.291352 L753.058188,395.291352 L753.022175,392 C753.022175,332.610159 788.148356,280.931841 838.80887,260.519179 L838.80887,260.519179 L838.80887,170.871795 C838.80887,110.778179 793.344175,61.8820731 736.707523,60.3449565 L736.707523,60.3449565 L733.958465,60.3076923 Z M374.546935,196.992809 L375.90026,198.341147 L447.63581,273.98584 L519.371359,198.341147 C531.053956,186.092008 549.843317,185.818262 561.842378,197.722377 C573.841439,209.626492 574.727148,229.419625 563.844413,242.462296 L562.565754,243.889369 L512.044739,297.163468 L559.635106,297.163468 C575.832851,297.161958 589.215753,310.492533 590.136248,327.545353 L590.182914,329.375942 C590.182914,346.456364 577.542664,360.56855 561.371095,361.539207 L559.635106,361.588417 L478.183618,361.578574 L478.183618,425.107912 L559.635106,425.107912 C576.125348,425.170301 589.592163,439.022473 590.060965,456.404414 C590.529767,473.786356 577.83132,488.423229 561.371095,489.473809 L559.635106,489.53286 L478.183618,489.523019 L478.183618,555.73919 C478.18505,572.819612 465.543368,586.931799 449.371799,587.902455 L447.63581,587.951664 C439.534027,587.951664 431.764073,584.55786 426.035248,578.516849 C420.306422,572.475838 417.088002,564.282469 417.088002,555.73919 L417.088002,489.523019 L335.636513,489.523019 C319.146272,489.46063 305.679456,475.608458 305.210654,458.226517 C304.741852,440.844575 317.4403,426.207702 333.900524,425.157122 L335.636513,425.107912 L417.088002,425.107912 L417.088002,361.578574 L335.636513,361.578574 C319.146272,361.516185 305.679456,347.664013 305.210654,330.282072 C304.741852,312.90013 317.4403,298.263257 333.900524,297.212677 L335.636513,297.163468 L383.226881,297.163468 L332.705866,243.889369 C321.089734,231.570143 320.830133,211.756878 332.119071,199.103943 C343.408009,186.451007 362.178279,185.517033 374.546935,196.992809 Z" id="优惠券" fill="#000000" fill-rule="nonzero"></path>
    </g>
</svg>