<?xml version="1.0" encoding="UTF-8"?>
<svg width="896px" height="896px" viewBox="0 0 896 896" version="1.1" xmlns="http://www.w3.org/2000/svg" xmlns:xlink="http://www.w3.org/1999/xlink">
    <title>0231线型-扫一扫</title>
    <g id="0231线型-扫一扫" stroke="none" stroke-width="1" fill="none" fill-rule="evenodd">
        <path d="M33.6,649.6 C50.6103703,649.6 64.668395,662.240494 66.8932716,678.640679 L67.2,683.2 L67.2,728 C67.2,781.350707 108.647239,825.020892 161.098613,828.567452 L168,828.8 L212.8,828.8 C231.356768,828.8 246.4,843.843232 246.4,862.4 C246.4,879.41037 233.759506,893.468395 217.359321,895.693272 L212.8,896 L168,896 C78.2091891,896 4.87093623,825.558225 0.232870819,736.922304 L-3.9238216e-15,728 L-1.18061277e-15,683.2 C-4.43384704e-17,664.643232 15.0432324,649.6 33.6,649.6 Z M862.4,649.6 C879.41037,649.6 893.468395,662.240494 895.693272,678.640679 L896,683.2 L896,728 C896,817.790811 825.558225,891.129064 736.922304,895.767129 L728,896 L683.2,896 C664.643232,896 649.6,880.956768 649.6,862.4 C649.6,845.38963 662.240494,831.331605 678.640679,829.106728 L683.2,828.8 L728,828.8 C781.350707,828.8 825.020892,787.352761 828.567452,734.901387 L828.8,728 L828.8,683.2 C828.8,664.643232 843.843232,649.6 862.4,649.6 Z M862.4,414.4 C880.956768,414.4 896,429.443232 896,448 C896,465.01037 883.359506,479.068395 866.959321,481.293272 L862.4,481.6 L33.6,481.6 C15.0432324,481.6 0,466.556768 0,448 C0,430.98963 12.6404939,416.931605 29.040679,414.706728 L33.6,414.4 L862.4,414.4 Z M212.8,0 C231.356768,0 246.4,15.0432324 246.4,33.6 C246.4,50.6103703 233.759506,64.668395 217.359321,66.8932716 L212.8,67.2 L168,67.2 C114.649293,67.2 70.9791078,108.647239 67.4325484,161.098613 L67.2,168 L67.2,212.8 C67.2,231.356768 52.1567676,246.4 33.6,246.4 C16.5896297,246.4 2.53160495,233.759506 0.306728397,217.359321 L0,212.8 L0,168 C0,78.2091891 70.4417751,4.87093623 159.077696,0.232870819 L168,0 L212.8,0 Z M728,-8.22962649e-15 C817.790811,8.26467789e-15 891.129064,70.4417751 895.767129,159.077696 L896,168 L896,212.8 C896,231.356768 880.956768,246.4 862.4,246.4 C845.38963,246.4 831.331605,233.759506 829.106728,217.359321 L828.8,212.8 L828.8,168 C828.8,114.649293 787.352761,70.9791078 734.901387,67.4325484 L728,67.2 L683.2,67.2 C664.643232,67.2 649.6,52.1567676 649.6,33.6 C649.6,16.5896297 662.240494,2.53160495 678.640679,0.306728397 L683.2,-1.6459253e-14 L728,-8.22962649e-15 Z" id="Combined-Shape" fill="#333333" fill-rule="nonzero"></path>
    </g>
</svg>