<?xml version="1.0" encoding="UTF-8"?>
<svg width="897px" height="832px" viewBox="0 0 897 832" version="1.1" xmlns="http://www.w3.org/2000/svg" xmlns:xlink="http://www.w3.org/1999/xlink">
    <title>0179保税仓</title>
    <g id="0179保税仓" stroke="none" stroke-width="1" fill="none" fill-rule="evenodd">
        <path d="M766.455651,1.89342855 C776.454066,6.55638554 780.84031,18.3641148 776.370265,28.402056 L776.221359,28.7287414 L756.027658,72.0285158 C746.306439,92.8729676 725.501373,106.273029 702.544087,106.538945 L701.847762,106.542977 L165.115063,106.542977 C153.356254,106.542977 143.823857,116.075375 143.823857,127.834183 C143.823857,138.07993 151.060927,146.635369 160.702034,148.667466 L815.763727,148.667509 C829.447608,148.667509 841.384145,157.959537 844.741334,171.225202 L896.078184,374.078655 C900.128346,390.082545 890.437935,406.339567 874.434044,410.389729 C872.036754,410.99642 869.573444,411.303282 867.100577,411.303282 L829.331,411.303 L829.331265,682.544198 C829.331265,765.086358 762.417623,832 679.875463,832 L672.692106,832 L672.692106,507.051276 C672.692106,482.298955 652.626386,462.233234 627.874065,462.233234 L269.126075,462.233234 C244.373754,462.233234 224.308033,482.298955 224.308033,507.051276 L224.308033,832 L217.112169,832 C134.570009,832 67.6563671,765.086358 67.6563671,682.544198 L67.656,411.303 L29.8922882,411.303282 C13.3838562,411.303282 0.00112781885,397.920554 0.00112781885,381.412122 C0.00112781885,378.937933 0.308318193,376.473316 0.915649953,374.074826 L70.0212598,101.161153 L70.0729204,101.160627 C79.3473736,62.043198 114.245026,32.8417916 156.060611,32.2616753 L157.329848,32.252876 L678.711387,32.252876 C688.533517,32.252876 698.200453,29.832835 706.859068,25.211754 L707.50656,24.8610493 L748.194615,2.49784042 C753.837153,-0.603444808 760.620392,-0.827959452 766.455651,1.89342855 Z M609.926482,693.337463 C619.827411,693.337463 627.853699,701.363751 627.853699,711.264679 L627.853699,814.072783 C627.853699,823.973712 619.827411,832 609.926482,832 L287.073657,832 C277.172729,832 269.146441,823.973712 269.146441,814.072783 L269.146441,711.264679 C269.146441,701.363751 277.172729,693.337463 287.073657,693.337463 L609.926482,693.337463 Z M609.926482,508.45408 C619.827411,508.45408 627.853699,516.480368 627.853699,526.381297 L627.853699,629.189401 C627.853699,639.090329 619.827411,647.116617 609.926482,647.116617 L287.073657,647.116617 C277.172729,647.116617 269.146441,639.090329 269.146441,629.189401 L269.146441,526.381297 C269.146441,516.480368 277.172729,508.45408 287.073657,508.45408 L609.926482,508.45408 Z" id="永辉门店" fill="#333333"></path>
    </g>
</svg>