<?xml version="1.0" encoding="UTF-8"?>
<svg width="896px" height="896px" viewBox="0 0 896 896" version="1.1" xmlns="http://www.w3.org/2000/svg" xmlns:xlink="http://www.w3.org/1999/xlink">
    <title>073md-京东支付</title>
    <g id="073md-京东支付" stroke="none" stroke-width="1" fill="none" fill-rule="evenodd">
        <path d="M448,0 C695.423568,0 896,200.576432 896,448 C896,695.423568 695.423568,896 448,896 C200.576432,896 0,695.423568 0,448 C0,200.576432 200.576432,0 448,0 Z M326.775461,473.523116 L290.297756,473.523116 L290.297756,502.232194 L179.2,502.232194 L179.2,522.148988 L290.297756,522.148988 L290.297756,557.137528 L198.578596,557.137528 L198.578596,579.386545 L363.348602,579.386545 C362.339343,581.632359 349.118487,609.513622 306.503312,634.854413 C268.075502,612.315057 259.433046,588.896039 259.433046,588.896039 L259.433046,588.896039 L213.660878,589.075773 C229.522696,615.539902 251.826872,635.237212 276.191794,649.953812 C251.273681,660.312722 219.773011,668.994402 179.989671,673.40653 L179.989671,673.40653 L179.989671,694.4 C179.98967,694.399999 240.97925,690.011202 302.914746,663.906541 C367.012333,692.660553 434.452719,693.143588 434.452719,693.143588 L434.452719,693.143588 L434.452719,672.150118 C391.731973,667.413086 359.18404,658.651045 334.443287,648.536677 C363.863788,631.986443 391.085879,609.606946 409.199313,579.386545 L409.199313,579.386545 L409.199313,557.137528 L326.774616,557.137528 L326.774616,522.148988 L439.100372,522.148988 L439.100372,502.232194 L326.775461,502.232194 L326.775461,473.523116 Z M683.567967,468.678935 L647.617272,468.858669 L647.617272,506.538902 L540.903665,506.538902 L540.903665,529.416124 L647.617272,529.416124 L647.617513,657.713046 C647.630607,657.977759 648.144809,669.262996 640.952792,675.203007 C633.675157,681.213733 623.152693,683.097486 623.152693,683.097486 L623.152693,683.097486 L623.152693,694.132127 C623.152693,694.132127 655.823933,697.317223 669.977191,680.226059 C685.058628,662.014148 683.567967,653.401598 683.567967,653.401598 L683.567967,653.401598 L683.567967,529.416124 L716.099008,529.416124 L716.099008,506.538902 L683.567967,506.538902 L683.567967,468.678935 Z M545.639998,469.577606 L507.233302,469.577606 C496.176228,535.64979 455.93682,546.103751 455.93682,546.103751 L455.93682,546.103751 L455.93682,562.880381 C468.957514,560.288926 480.088067,556.015918 489.651946,550.716353 L489.651946,550.716353 L488.818358,551.486272 L488.818358,694.131262 L521.438924,694.131262 L521.438924,523.629203 C541.846203,497.780317 545.639998,469.577606 545.639998,469.577606 L545.639998,469.577606 Z M587.727319,554.446701 L557.213104,554.446701 C564.84208,556.600054 579.046857,615.811231 579.046857,615.811231 L579.046857,615.811231 L609.297566,615.811231 C608.008876,578.09367 588.529953,555.368034 587.751312,554.474095 L587.727319,554.446701 Z M554.319616,201.6 L518.543748,201.6 L511.78552,216.941349 L455.935132,216.941349 L455.935132,236.859006 L503.01131,236.859006 L468.036091,316.255713 L468.117169,316.255713 L468.101968,316.290277 L571.154376,316.290277 L571.154376,389.103357 C571.154376,389.103357 569.83854,394.845346 562.560904,400.856072 C555.283268,406.866797 546.689796,405.879987 546.689796,405.879987 L546.689796,405.879987 L546.689796,425.527179 C546.689796,425.527179 579.361036,428.712276 593.514294,411.621111 C608.596576,393.409201 607.105915,384.79665 607.105915,384.79665 L607.105915,384.79665 L607.105915,316.289414 L704.788564,316.289414 L704.788564,296.642222 L607.106759,296.642222 L607.106759,251.750155 L571.15522,251.929889 L571.15522,296.643085 L512.451884,296.643085 L538.788024,236.858141 L715.836348,236.858141 L715.836348,216.941349 L547.561389,216.941349 L554.319616,201.6 Z M427.876074,252.135547 L189.843237,252.135547 L189.843237,316.302376 L291.262252,316.302376 L291.262252,316.315337 L291.251273,316.315337 L291.262252,389.103357 C291.262252,389.103357 289.946416,394.845346 282.66878,400.856072 C275.391144,406.866797 266.797672,405.879987 266.797672,405.879987 L266.797672,405.879987 L266.797672,425.527179 C266.797672,425.527179 299.468912,428.712276 313.62217,411.621111 C328.704452,393.409201 327.213791,384.79665 327.213791,384.79665 L327.213791,384.79665 L327.213791,316.344717 L327.125956,316.344717 L327.125956,316.302376 L427.876074,316.302376 L427.876074,252.135547 Z M678.744644,330.340651 L640.338791,330.340651 C640.338791,330.340651 652.264082,391.166844 694.879256,422.925354 L694.879256,422.925354 L716.8,422.925354 C716.8,422.925354 689.800873,396.412835 678.744644,330.340651 L678.744644,330.340651 Z M533.71302,330.339787 L495.306324,330.339787 C484.250094,396.411107 457.250968,422.92449 457.250968,422.92449 L457.250968,422.92449 L479.172556,422.92449 C521.787729,391.16598 533.71302,330.339787 533.71302,330.339787 L533.71302,330.339787 Z M400.957182,330.339787 L362.550485,330.339787 C362.550485,330.339787 374.475775,391.16598 417.09095,422.92449 L417.09095,422.92449 L439.012538,422.92449 L439.012538,422.92449 L438.9408,422.852554 C437.406939,421.298135 411.681724,394.429806 400.957182,330.339787 L400.957182,330.339787 Z M255.925557,330.339787 L217.518862,330.339787 C206.793499,394.429806 181.069055,421.298948 179.535241,422.852627 L179.463505,422.92449 L201.385093,422.92449 C244.000267,391.16598 255.925557,330.339787 255.925557,330.339787 L255.925557,330.339787 Z M393.85437,270.770005 L393.85437,297.145996 L223.86494,297.145996 L223.86494,270.770005 L393.85437,270.770005 Z M327.301626,201.6 L290.999591,201.6 L291.262252,218.018025 L182.093487,218.018025 L181.567323,237.933955 L436.73305,237.933955 L436.73305,218.286763 L327.564286,218.286763 L327.301626,201.6 Z" id="Combined-Shape" fill="#333333"></path>
    </g>
</svg>