<?xml version="1.0" encoding="UTF-8"?>
<svg width="896px" height="896px" viewBox="0 0 896 896" version="1.1" xmlns="http://www.w3.org/2000/svg" xmlns:xlink="http://www.w3.org/1999/xlink">
    <title>0249邀请好友</title>
    <g id="0249邀请好友" stroke="none" stroke-width="1" fill="none" fill-rule="evenodd">
        <g id="邀请" fill="#333333">
            <path d="M78.624,365.285301 C78.624,207.009325 200.781504,80.4058373 349.44,80.4058373 C498.09984,80.4058373 620.256,207.009325 620.256,365.285301 C620.256,488.220538 546.34944,592.399222 443.590336,632.486556 C432.218304,636.921788 423.497088,646.495618 419.973568,658.408026 C416.4496,670.324913 418.520256,683.236368 425.581184,693.374682 C444.536512,720.590882 482.20032,788.342418 499.82464,861.926957 C504.90496,883.135433 524.60352,898.470585 546.224,895.603364 C567.66528,892.758543 582.9152,873.082239 578.28288,851.949924 C564.82944,790.586915 539.57568,733.488896 517.46688,692.671317 C515.8496,689.696575 516.91584,685.978148 519.84128,684.266775 C626.91776,621.649356 698.88,502.02352 698.88,365.285301 C698.88,164.484854 543.33888,0 349.44,0 C155.540672,0 0,164.484854 0,365.285301 C0,502.682084 72.65888,622.800725 180.588352,685.167262 C183.456448,686.824874 184.550912,690.435781 183.045184,693.383642 C161.802816,735.007627 136.90656,792.817971 123.277952,851.645282 C118.396544,872.714877 133.41664,892.534542 154.82432,895.598884 C176.419264,898.690107 196.328832,883.561036 201.651072,862.401841 C219.249856,792.446128 255.584,721.921451 274.43808,691.645389 C280.783552,681.453315 282.311232,668.886823 278.598656,657.413458 C274.886528,645.944574 266.327488,636.791867 255.289664,632.486556 C152.529664,592.399222 78.624,488.220538 78.624,365.285301 Z M712.32,613.764499 C712.32,591.494255 730.36992,573.444203 752.64,573.444203 C774.91008,573.444203 792.96,591.494255 792.96,613.764499 L792.96,676.484958 L855.68,676.484958 C877.95008,676.484958 896,694.535011 896,716.805254 C896,739.075497 877.95008,757.125549 855.68,757.125549 L792.96,757.125549 L792.96,819.846009 C792.96,842.116252 774.91008,860.166305 752.64,860.166305 C730.36992,860.166305 712.32,842.116252 712.32,819.846009 L712.32,757.125549 L649.6,757.125549 C627.32992,757.125549 609.28,739.075497 609.28,716.805254 C609.28,694.535011 627.32992,676.484958 649.6,676.484958 L712.32,676.484958 L712.32,613.764499 Z" id="Shape"></path>
        </g>
    </g>
</svg>