<?xml version="1.0" encoding="UTF-8"?>
<svg width="896px" height="896px" viewBox="0 0 896 896" version="1.1" xmlns="http://www.w3.org/2000/svg" xmlns:xlink="http://www.w3.org/1999/xlink">
    <title>0255商品已送达</title>
    <g id="0255商品已送达" stroke="none" stroke-width="1" fill="none" fill-rule="evenodd">
        <path d="M726.899387,0 L168.732026,0.633869531 C75.5123535,0.741673943 0,76.3414046 0,169.56114 L0,701.866667 C0,809.083546 86.9164539,896 194.133333,896 L701.866667,896 C809.083546,896 896,809.083546 896,701.866667 L896,169.100613 C896,75.7089233 820.291077,0 726.899387,0 Z M168.835644,90.2338096 L726.807448,89.6000532 C770.806363,89.6000532 806.4,125.193637 806.4,169.100613 L806.4,701.866667 C806.4,759.598833 759.598833,806.4 701.866667,806.4 L194.133333,806.4 C136.401167,806.4 89.6,759.598833 89.6,701.866667 L89.6,169.56114 C89.6,125.785658 125.060192,90.284434 168.835644,90.2338096 Z M407.929662,203.964831 C418.99478,181.834594 445.904932,172.864544 468.035169,183.929662 C490.165406,194.99478 499.135456,221.904932 488.070338,244.035169 C451.630807,316.91423 378.797127,364.117407 297.982679,368.084263 L286.915727,368.355556 L89.6964707,368.355556 L89.6964707,278.755556 L286.915727,278.755556 C338.162713,278.755556 385.011313,249.801528 407.929662,203.964831 Z M608.695428,400.061701 C621.425266,378.845305 648.944125,371.96559 670.160521,384.695428 C689.744886,396.446047 697.113382,420.797963 688.11875,441.162152 L685.526794,446.160521 L536.193461,695.04941 C522.197865,718.375403 491.220427,723.629103 470.39639,707.470011 L466.099394,703.678384 L366.543838,604.122828 C349.04835,586.62734 349.04835,558.261549 366.543838,540.766061 C382.581369,524.72853 407.752974,523.392069 425.312851,536.756678 L429.900606,540.766061 L488.867556,599.722667 L608.695428,400.061701 Z" id="Path-4" fill="#333333" fill-rule="nonzero"></path>
    </g>
</svg>