<?xml version="1.0" encoding="UTF-8"?>
<svg width="896px" height="747px" viewBox="0 0 896 747" version="1.1" xmlns="http://www.w3.org/2000/svg" xmlns:xlink="http://www.w3.org/1999/xlink">
    <title>0130次日达分类</title>
    <g id="0130次日达分类" stroke="none" stroke-width="1" fill="none" fill-rule="evenodd">
        <path d="M49.7777778,647.4 C77.2692853,647.4 99.5555556,669.696219 99.5555556,697.2 C99.5555556,724.703781 77.2692853,747 49.7777778,747 C22.2862702,747 0,724.703781 0,697.2 C0,669.696219 22.2862702,647.4 49.7777778,647.4 Z M871.1,672.3 C884.85189,672.3 896,683.44811 896,697.2 C896,710.95189 884.85189,722.1 871.1,722.1 L224.011111,722.1 C210.259221,722.1 199.111111,710.95189 199.111111,697.2 C199.111111,683.44811 210.259221,672.3 224.011111,672.3 L871.1,672.3 Z M49.7777778,323.7 C77.2692853,323.7 99.5555556,345.996219 99.5555556,373.5 C99.5555556,401.003781 77.2692853,423.3 49.7777778,423.3 C22.2862702,423.3 0,401.003781 0,373.5 C0,345.996219 22.2862702,323.7 49.7777778,323.7 Z M871.1,348.6 C884.85189,348.6 896,359.74811 896,373.5 C896,387.25189 884.85189,398.4 871.1,398.4 L224.011111,398.4 C210.259221,398.4 199.111111,387.25189 199.111111,373.5 C199.111111,359.74811 210.259221,348.6 224.011111,348.6 L871.1,348.6 Z M49.7777778,0 C77.2692853,0 99.5555556,22.2962195 99.5555556,49.8 C99.5555556,77.3037805 77.2692853,99.6 49.7777778,99.6 C22.2862702,99.6 0,77.3037805 0,49.8 C0,22.2962195 22.2862702,0 49.7777778,0 Z M871.1,24.9 C884.85189,24.9 896,36.0481097 896,49.8 C896,63.5518903 884.85189,74.7 871.1,74.7 L224.011111,74.7 C210.259221,74.7 199.111111,63.5518903 199.111111,49.8 C199.111111,36.0481097 210.259221,24.9 224.011111,24.9 L871.1,24.9 Z" id="menu" fill="#333333"></path>
    </g>
</svg>