<?xml version="1.0" encoding="UTF-8"?>
<svg width="896px" height="348px" viewBox="0 0 896 348" version="1.1" xmlns="http://www.w3.org/2000/svg" xmlns:xlink="http://www.w3.org/1999/xlink">
    <title>094当日达</title>
    <g id="094当日达" stroke="none" stroke-width="1" fill="none" fill-rule="evenodd">
        <path d="M92.8355556,151.573333 L92.8355556,168.995556 L262.328889,168.995556 L262.328889,209.813333 L104.533333,209.813333 L104.533333,226.986667 L262.328889,226.986667 L262.328889,269.795556 L91.3422222,269.795556 L91.3422222,287.217778 L262.328889,287.217778 L262.328889,296.924444 L280.497778,296.924444 L280.497778,151.573333 L196.622222,151.573333 L196.622222,72.9244444 L177.706667,72.9244444 L177.706667,151.573333 L92.8355556,151.573333 Z M265.066667,83.6266667 C257.102222,100.053333 246.648889,116.48 233.706667,132.906667 L249.884444,141.368889 C262.826667,125.191111 273.28,108.515556 281.244444,91.0933333 L265.066667,83.6266667 Z M110.506667,85.8666667 L95.3244444,95.3244444 C108.764444,112.248889 119.217778,127.68 126.933333,141.617778 L142.115556,131.164444 C134.648889,118.222222 124.195556,103.04 110.506667,85.8666667 Z M518.205812,80.3911111 L364.392478,80.3911111 L364.392478,297.671111 L382.312478,297.671111 L382.312478,278.506667 L500.036923,278.506667 L500.036923,297.422222 L518.205812,297.422222 L518.205812,80.3911111 Z M382.312478,261.084444 L382.312478,186.168889 L500.036923,186.168889 L500.036923,261.084444 L382.312478,261.084444 Z M382.312478,168.746667 L382.312478,97.8133333 L500.036923,97.8133333 L500.036923,168.746667 L382.312478,168.746667 Z M596.624957,74.4177778 L584.180512,86.1155556 C602.59829,100.302222 616.784957,113.493333 627.23829,125.937778 L640.180512,112.746667 C628.233846,100.053333 613.79829,87.36 596.624957,74.4177778 Z M748.19829,294.186667 L800.962735,294.186667 L805.442735,276.017778 C799.220512,276.515556 790.509401,276.764444 779.309401,277.013333 C767.860512,277.013333 756.660512,277.262222 745.709401,277.262222 C725.300512,277.262222 708.376068,277.013333 694.687179,276.764444 C679.256068,276.266667 667.309401,274.524444 659.344957,271.288889 C652.127179,267.804444 645.407179,262.577778 638.936068,255.608889 C636.696068,253.12 634.704957,251.377778 632.713846,249.884444 L632.713846,156.302222 L579.700512,156.302222 L579.700512,173.724444 L615.540512,173.724444 L615.540512,248.888889 C605.087179,253.368889 593.389401,266.311111 579.949401,287.715556 L593.389401,299.662222 C607.327179,276.266667 617.531624,264.817778 623.504957,264.817778 C626.740512,264.817778 630.224957,266.808889 633.709401,271.04 C641.673846,280 650.633846,286.222222 661.087179,289.208889 C671.540512,291.946667 684.980512,293.44 701.904957,293.688889 C718.580512,293.937778 734.011624,294.186667 748.19829,294.186667 Z M846.229508,0 C873.716992,0 896,22.3268298 896,49.9235933 L896,298.520851 C896,326.09289 873.851562,348.444444 846.229508,348.444444 L49.7704922,348.444444 C22.2830084,348.444444 0,326.117615 0,298.520851 L0,49.9235933 C0,22.3515541 22.1484375,0 49.7704922,0 L846.229508,0 Z M846.229508,24.8888889 L49.7704922,24.8888889 C35.9682713,24.8888889 24.8888889,36.023148 24.8888889,49.9235933 L24.8888889,298.520851 C24.8888889,312.378505 36.0354756,323.555556 49.7704922,323.555556 L846.229508,323.555556 C860.031729,323.555556 871.111111,312.421296 871.111111,298.520851 L871.111111,49.9235933 C871.111111,36.0659393 859.964524,24.8888889 846.229508,24.8888889 Z M731.024957,70.6844444 L731.024957,82.1333333 C731.024957,97.5644444 730.029401,112.248889 728.536068,125.937778 L728.536068,125.937778 L790.260512,125.937778 L790.260512,143.36 L732.767179,143.36 C740.233846,175.715556 762.136068,208.817778 798.473846,242.417778 L798.473846,242.417778 L786.27829,255.36 C753.424957,223.253333 732.020512,191.395556 722.064957,160.035556 C711.113846,202.844444 690.456068,234.702222 659.593846,255.36 L659.593846,255.36 L648.642735,240.675556 C679.504957,221.013333 699.416068,188.657778 707.87829,143.36 L707.87829,143.36 L655.362735,143.36 L655.362735,125.937778 L710.616068,125.937778 C712.109401,113.244444 712.856068,99.8044444 713.104957,85.8666667 L713.104957,85.8666667 L713.104957,70.6844444 L731.024957,70.6844444 Z" id="当日达" fill="#333333"></path>
    </g>
</svg>