<?xml version="1.0" encoding="UTF-8"?>
<svg width="896px" height="806px" viewBox="0 0 896 806" version="1.1" xmlns="http://www.w3.org/2000/svg" xmlns:xlink="http://www.w3.org/1999/xlink">
    <title>086md-home</title>
    <g id="086md-home" stroke="none" stroke-width="1" fill="none" fill-rule="evenodd">
        <path d="M374.287973,559.790619 C374.319692,559.67104 374.367272,559.509867 374.430711,559.3175 C374.853638,558.01772 375.868664,555.974468 378.274064,553.562077 C383.185309,548.654111 399.579033,537.242049 445.725703,537.242049 C485.507314,537.242049 502.651735,546.179331 509.333989,551.503227 C515.260259,556.224025 516.259425,560.508097 516.412736,561.521925 L516.412736,750.343453 L374.287973,750.343453 L374.287973,559.790619 Z M886.273349,367.776833 L463.626106,6.80734509 C452.915469,-2.34310068 436.965818,-2.25991481 426.355626,7.00491153 L9.50248893,370.839113 C0.721458113,378.492213 -2.3236194,390.689342 1.84221581,401.477509 C6.00805102,412.265677 16.5177977,419.393666 28.2487474,419.393666 L86.8189102,419.393666 L86.8189102,705.449079 C85.7510184,715.571759 83.8372718,752.064361 107.605794,778.980189 C118.448596,791.260504 138.791405,805.906416 174.142852,805.906416 L701.81355,805.906416 C702.812716,805.953208 704.20309,806 705.937092,806 C718.646061,806 749.435179,803.494026 773.742933,781.39258 C787.255464,769.101867 803.363713,746.095775 803.363713,706.270539 L803.363713,418.364241 L868.557977,416.523754 C880.193768,416.19101 890.433898,408.881052 894.351263,398.098083 C898.268629,387.320314 895.059667,375.279159 886.273349,367.776833 L886.273349,367.776833 Z" id="Fill-1" fill="#333333"></path>
    </g>
</svg>