<?xml version="1.0" encoding="UTF-8"?>
<svg width="896px" height="896px" viewBox="0 0 896 896" version="1.1" xmlns="http://www.w3.org/2000/svg" xmlns:xlink="http://www.w3.org/1999/xlink">
    <title>012购物车</title>
    <g id="012购物车" stroke="none" stroke-width="1" fill="none" fill-rule="evenodd">
        <path d="M735.131322,770.686164 C769.594101,770.686164 797.654629,798.80041 797.654629,833.357002 C797.654629,867.884489 769.581471,896 735.131322,896 C700.65465,896 672.580229,867.888286 672.580229,833.357002 C672.580229,798.80041 700.64202,770.686164 735.131322,770.686164 Z M286.399064,770.686164 C320.875736,770.686164 348.937527,798.80041 348.937527,833.357002 C348.937527,867.884489 320.875736,896 286.399064,896 C251.936285,896 223.861864,867.888286 223.861864,833.357002 C223.861864,798.80041 251.933759,770.686164 286.399064,770.686164 Z M70.3114036,5.68434189e-14 C116.2803,5.68434189e-14 156.651489,36.0042539 162.263089,82.0345764 L162.263089,82.0345764 L193.124996,260.490499 L247.692536,645.517854 C249.568122,661.166265 263.497976,674.371115 278.111123,674.371115 L278.111123,674.371115 L798.697884,674.371115 C815.507424,674.371115 829.183411,688.073282 829.183411,704.887163 C829.183411,721.730148 815.507424,735.43105 798.697884,735.43105 L798.697884,735.43105 L278.107334,735.43105 C232.689115,735.43105 192.772614,699.426796 187.215323,653.450887 L187.215323,653.450887 L132.861234,269.967367 L101.936175,90.8673366 C99.9406027,74.7355276 85.4600721,61.0865088 70.3114036,61.0865088 L70.3114036,61.0865088 L29.4842641,61.0865088 C12.6747235,61.0865088 -1,47.3856071 -1,30.5426217 C-1,13.7009018 12.6747235,5.68434189e-14 29.4842641,5.68434189e-14 L29.4842641,5.68434189e-14 Z M808.783103,96.3112527 C832.812069,96.3112527 854.912402,106.324667 870.959079,124.520406 L870.959079,124.520406 C889.362551,145.346991 897.812159,174.750719 894.169607,205.106055 L894.169607,205.106055 L843.632366,494.610526 C838.157172,539.608251 798.321503,574.859569 752.835081,574.859569 L752.835081,574.859569 L320.405893,606.878957 C319.655658,606.948556 318.892794,606.973865 318.169083,606.973865 C302.284074,606.973865 288.944051,594.53334 287.792176,578.644495 C287.203608,570.511522 289.800379,562.632903 295.132851,556.474014 C300.435012,550.288551 307.817367,546.598533 315.933537,546.007573 L315.933537,546.007573 L750.627321,513.881888 C766.793984,513.788245 781.486703,501.066793 783.362288,485.647426 L783.362288,485.647426 L833.85785,196.142955 C835.237068,184.65657 831.887538,172.428639 825.31099,164.981534 C820.891681,159.96154 815.333127,157.399027 808.783103,157.399027 L808.783103,157.399027 L253.837131,157.399027 C237.026328,157.399027 223.351604,143.698125 223.351604,126.85514 C223.351604,110.012154 237.026328,96.3112527 253.837131,96.3112527 L253.837131,96.3112527 Z" id="Combined-Shape" fill="#333333"></path>
    </g>
</svg>