<?xml version="1.0" encoding="UTF-8"?>
<svg width="807px" height="896px" viewBox="0 0 807 896" version="1.1" xmlns="http://www.w3.org/2000/svg" xmlns:xlink="http://www.w3.org/1999/xlink">
    <title>0120指纹</title>
    <g id="0120指纹" stroke="none" stroke-width="1" fill="none" fill-rule="evenodd">
        <path d="M663.865452,110.656264 C660.280122,110.656264 656.918547,109.760614 653.556972,108.191915 C567.724404,63.8399501 493.097437,44.800315 403.904345,44.800315 C314.933957,44.800315 231.119385,66.0806484 154.250667,107.968266 C143.469156,113.076871 130.57271,108.885253 124.859272,98.415439 C119.145834,87.9456253 122.602266,74.8385208 132.736587,68.5439465 C216.328454,23.072682 307.538492,0 403.904345,0 C499.373078,0 582.74014,21.0566835 674.174983,68.3202966 C685.155778,73.9199423 689.413423,87.5846316 683.811148,98.560273 C679.777258,106.175917 671.933232,110.656264 663.865452,110.656264 L663.865452,110.656264 Z M22.4769235,345.85608 C17.9955237,345.85608 13.5130734,344.512081 9.47918332,341.824083 C4.62821888,338.413527 1.33466686,333.213511 0.325559842,327.371908 C-0.683547181,321.530305 0.674767281,315.527457 4.10066316,310.688457 C48.4734544,247.967806 105.171671,198.688195 172.403173,163.967872 C313.365572,91.1682788 493.545997,90.9446289 634.732151,163.520572 C701.739899,198.016195 758.21436,246.848507 802.810906,309.119759 C809.982617,319.199751 807.740866,333.08809 797.656141,340.256434 C787.571416,347.423729 773.4528,345.18408 766.28214,335.104088 C725.943239,278.656132 674.847298,234.304167 614.338946,203.392191 C485.701972,137.312593 321.433352,137.536243 193.021184,203.840541 C132.289077,235.199816 80.9683302,279.776481 40.8542344,336.671737 C36.3717841,342.719732 29.4248791,345.85608 22.4769235,345.85608 L22.4769235,345.85608 Z M302.832287,886.367308 C297.006257,886.367308 291.402931,884.127659 286.921532,879.647313 C248.151015,840.447693 227.085495,815.583713 196.831319,761.600105 C165.904828,706.496148 149.544462,639.071501 149.544462,566.943907 C149.544462,433.888011 263.390506,325.472446 403.455785,325.472446 C543.521064,325.472446 657.367107,433.664361 657.367107,566.943907 C657.367107,579.263547 647.282382,589.34354 634.955906,589.34354 C622.629431,589.34354 612.545756,579.263547 612.545756,566.943907 C612.545756,458.528342 518.870213,370.271711 403.455785,370.271711 C288.266162,370.271711 194.365814,458.528342 194.365814,566.943907 C194.365814,631.455857 208.708184,691.04016 235.82559,739.647772 C264.735136,791.168082 284.007466,813.344065 318.520337,848.063337 C327.260433,856.799331 327.260433,871.136019 318.295532,879.647313 C314.261642,884.351309 308.435612,886.367308 302.832287,886.367308 Z M623.975111,803.487722 C570.63847,803.487722 523.800173,790.047733 485.029657,763.839753 C418.47047,718.592139 378.580129,645.119496 378.580129,567.167557 C378.580129,554.847917 388.664854,544.767924 400.990279,544.767924 C413.315705,544.767924 423.40148,554.847917 423.40148,567.167557 C423.40148,630.111858 455.896356,689.696161 510.353873,726.656132 C541.952679,748.160115 579.15376,758.687407 623.975111,758.687407 C634.732151,758.687407 652.884657,757.568108 670.813408,754.431761 C682.915078,752.192112 694.568188,760.479756 696.808888,772.575746 C699.050638,784.671737 690.758053,796.319378 678.656383,798.560076 C652.436097,803.264072 630.249701,803.487722 623.975111,803.487722 Z M533.661144,896 C531.644199,896 529.627254,895.7753 527.834063,895.103301 C456.344916,875.615316 409.730375,849.183687 361.323693,801.023374 C298.968429,739.194124 264.015494,654.95886 264.286576,567.167557 C264.286576,494.367964 326.139557,435.23201 402.33491,435.23201 C478.531312,435.23201 540.384294,494.367964 540.384294,567.167557 C540.384294,615.104219 582.29158,654.303839 633.611276,654.303839 C684.930973,654.303839 726.839309,615.327869 726.839309,567.167557 C726.839309,398.272039 581.170705,260.960496 402.111155,260.960496 C274.595056,260.960496 158.284557,331.744091 105.843986,441.503655 C88.3637954,477.791627 79.6237002,520.127594 79.6237002,567.167557 C79.6237002,602.11153 82.7615204,657.215487 109.430366,728.672131 C113.688011,740.319772 107.860931,753.087762 96.2078208,757.568108 C84.5547107,761.823755 71.7807253,755.999409 67.298275,744.351768 C45.3356342,685.439465 34.5785939,627.64751 34.5785939,567.167557 C34.5785939,513.407599 44.8881245,464.576337 65.2813299,422.24037 C125.117367,297.248468 257.339671,216.383831 401.8874,216.383831 C605.598851,216.383831 771.435855,373.856408 771.435855,567.392257 C771.435855,640.19185 709.359119,699.327804 633.387521,699.327804 C557.415924,699.327804 495.339188,640.19185 495.339188,567.392257 C495.339188,519.455594 453.430851,480.255975 402.111155,480.255975 C350.791458,480.255975 308.883122,519.231944 308.883122,567.392257 C308.883122,643.775497 338.689788,715.679441 392.698744,769.439399 C435.054591,811.551716 476.289562,834.848048 539.487173,852.095334 C551.365089,855.455332 558.536799,867.776022 555.175224,879.647313 C552.485964,889.503655 543.521064,896 533.661144,896 L533.661144,896 Z" id="Shape" fill="#333333" fill-rule="nonzero"></path>
    </g>
</svg>