<?xml version="1.0" encoding="UTF-8"?>
<svg width="896px" height="802px" viewBox="0 0 896 802" version="1.1" xmlns="http://www.w3.org/2000/svg" xmlns:xlink="http://www.w3.org/1999/xlink">
    <title>098相机</title>
    <g id="098相机" stroke="none" stroke-width="1" fill="none" fill-rule="evenodd">
        <path d="M178.342707,127.013867 C190.923566,127.013867 201.122368,137.212669 201.122368,149.793529 C201.122368,162.374388 190.923566,172.57319 178.342707,172.57319 L178.342707,172.57319 L100.105435,172.57319 C69.7079941,172.57319 45.559322,195.724294 45.559322,223.861813 L45.559322,223.861813 L45.559322,705.272239 C45.559322,733.519514 69.5485158,756.560863 99.7505341,756.560863 L99.7505341,756.560863 L796.249466,756.560863 C826.412617,756.560863 850.440678,733.424486 850.440678,705.272239 L850.440678,705.272239 L850.440678,223.861813 C850.440678,195.660936 826.193422,172.57319 795.577803,172.57319 L795.577803,172.57319 L409.343606,172.57319 C396.762746,172.57319 386.563945,162.374388 386.563945,149.793529 C386.563945,137.212669 396.762746,127.013867 409.343606,127.013867 L409.343606,127.013867 L795.577803,127.013867 C850.869356,127.013867 896,169.986354 896,223.861813 L896,223.861813 L896,705.272239 C896,758.97975 851.196917,802.120185 796.249466,802.120185 L796.249466,802.120185 L99.7505341,802.120185 C44.7885381,802.120185 0,759.101301 0,705.272239 L0,705.272239 L0,223.861813 C0,170.122559 44.9662206,127.013867 100.105435,127.013867 L100.105435,127.013867 Z M448,278.878274 C544.33408,278.878274 622.644068,357.188262 622.644068,453.522342 C622.644068,549.856422 544.33408,628.16641 448,628.16641 C351.66592,628.16641 273.355932,549.856422 273.355932,453.522342 C273.355932,357.188262 351.66592,278.878274 448,278.878274 Z M448,324.437596 C376.827639,324.437596 318.915254,382.349981 318.915254,453.522342 C318.915254,524.694703 376.827639,582.607088 448,582.607088 C519.172361,582.607088 577.084746,524.694703 577.084746,453.522342 C577.084746,382.349981 519.172361,324.437596 448,324.437596 Z M759.322034,210.539291 C780.290133,210.539291 797.288136,227.537294 797.288136,248.505393 C797.288136,269.473492 780.290133,286.471495 759.322034,286.471495 C738.353935,286.471495 721.355932,269.473492 721.355932,248.505393 C721.355932,227.537294 738.353935,210.539291 759.322034,210.539291 Z M357.60452,0 C416.078926,0 455.59322,30.3667762 455.59322,89.0477658 C455.59322,101.628625 445.394419,111.827427 432.813559,111.827427 C420.2327,111.827427 410.033898,101.628625 410.033898,89.0477658 C410.033898,58.5375669 393.14616,45.559322 357.60452,45.559322 L357.60452,45.559322 L244.648165,45.559322 C209.004451,45.559322 192.361582,58.4229798 192.361582,89.0477658 C192.361582,101.628625 182.16278,111.827427 169.581921,111.827427 C157.001062,111.827427 146.80226,101.628625 146.80226,89.0477658 C146.80226,30.3232535 186.034176,0 244.648165,0 L244.648165,0 Z" id="Combined-Shape" fill="#333333" fill-rule="nonzero"></path>
    </g>
</svg>