<?xml version="1.0" encoding="UTF-8"?>
<svg width="807px" height="896px" viewBox="0 0 807 896" version="1.1" xmlns="http://www.w3.org/2000/svg" xmlns:xlink="http://www.w3.org/1999/xlink">
    <title>0207再来一单</title>
    <g id="0207再来一单" stroke="none" stroke-width="1" fill="none" fill-rule="evenodd">
        <g id="再来一单" fill="#333333" fill-rule="nonzero">
            <path d="M472.030545,11.8094546 C487.776486,27.555394 487.776486,53.0846059 472.030545,68.8305453 C410.345731,130.51536 327.782057,166.52106 240.949862,169.967418 L227.206465,170.24 L199.608889,170.24 C136.43129,170.24 84.7556483,219.485734 80.8740567,281.685109 L80.64,289.208889 L80.64,696.391109 C80.64,759.56871 129.885734,811.244354 192.085109,815.125942 L199.608889,815.36 L606.791109,815.36 C669.96871,815.36 721.644354,766.114268 725.525942,703.914893 L725.76,696.391109 L725.76,289.208889 C725.76,226.03129 676.514268,174.355648 614.314893,170.474057 L606.791109,170.24 L566.968891,170.24 C544.700769,170.24 526.648891,152.188121 526.648891,129.92 C526.648891,109.364811 542.030371,92.4021603 561.911235,89.9141501 L566.968891,89.6 L606.791109,89.6 C713.882315,89.6 801.27622,173.934157 806.182738,279.81238 L806.4,289.208889 L806.4,696.391109 C806.4,803.482315 722.065841,890.87622 616.187618,895.782738 L606.791109,896 L199.608889,896 C92.5176851,896 5.12377882,811.665841 0.217262721,705.787618 L1.76214598e-12,696.391109 L1.76214598e-12,289.208889 C1.76214598e-12,182.117685 84.3341574,94.7237787 190.21238,89.8172625 L199.608889,89.6 L227.206465,89.6 C297.64625,89.6 365.201005,61.6179043 415.009455,11.8094546 C430.755394,-3.93648486 456.284604,-3.93648486 472.030545,11.8094546 Z M403.2,336 C423.755189,336 440.71784,351.381483 443.20585,371.262345 L443.52,376.32 L443.4752,452.48 L519.68,452.48 C541.948122,452.48 560,470.531878 560,492.8 C560,513.35519 544.618516,530.317841 524.737656,532.805849 L519.68,533.12 L443.4752,533.12 L443.52,609.28 C443.52,631.548122 425.468121,649.6 403.2,649.6 C382.644811,649.6 365.68216,634.218516 363.19415,614.337656 L362.88,609.28 L362.8352,533.12 L286.72,533.12 C264.451879,533.12 246.4,515.068122 246.4,492.8 C246.4,472.24481 261.781483,455.282159 281.662345,452.794151 L286.72,452.48 L362.8352,452.48 L362.88,376.32 C362.88,354.051879 380.931879,336 403.2,336 Z" id="Path-Copy-2" transform="translate(403.200000, 448.000000) rotate(-180.000000) translate(-403.200000, -448.000000) "></path>
        </g>
    </g>
</svg>