<?xml version="1.0" encoding="UTF-8"?>
<svg width="896px" height="896px" viewBox="0 0 896 896" version="1.1" xmlns="http://www.w3.org/2000/svg" xmlns:xlink="http://www.w3.org/1999/xlink">
    <title>080md-支付宝</title>
    <g id="080md-支付宝" stroke="none" stroke-width="1" fill="none" fill-rule="evenodd">
        <path d="M152.732778,579.058439 C152.732778,540.266366 175.810764,498.107793 270.242771,492.006717 C364.674779,485.909736 492.204384,558.24288 492.204384,558.24288 C492.204384,558.24288 398.012037,671.786202 287.030206,671.786202 C176.048375,671.786202 152.732778,617.851537 152.732778,579.058439 Z M611.632678,521.420318 C611.632678,521.420318 631.789685,491.579632 653.287351,433.063782 C674.778872,374.554077 677.850407,342.382344 677.850407,342.382344 L508.234945,340.983306 L508.234945,283.635029 L713.653905,282.232918 L713.653905,241.669004 L508.234946,241.669004 L508.234946,149.352965 L407.59125,149.352965 L407.59125,241.669004 L215.962956,241.669004 L215.962956,282.231894 L407.590225,280.83388 L407.590225,342.381321 L253.871156,342.38132 L253.871156,374.553053 L570.270922,374.553053 C570.270922,374.553053 566.812245,400.617565 554.688954,433.062758 C542.566687,465.513071 530.077762,493.899413 530.077762,493.899413 C530.077762,493.899413 381.504203,442.411529 303.196982,442.411529 C224.888736,442.411529 129.686541,473.567271 120.473987,563.92609 C111.266554,654.278765 164.816125,703.220522 240.244359,721.265656 C315.668496,739.315912 385.333635,721.040336 445.994131,691.668726 C506.652577,662.294044 566.13321,595.551932 566.13321,595.551932 L809.462419,712.579535 C727.942325,823.76313 596.432732,896.000001 448.000512,896.000001 C200.576608,896.000001 0,695.422369 0,447.999489 C0,200.576608 200.575583,0 447.999488,0 C695.423392,0 896,200.577632 896,448.000512 C896,503.805341 885.715123,557.185921 867.070839,606.461563 L611.632678,521.420318 Z" id="Shape" fill="#333333"></path>
    </g>
</svg>