<?xml version="1.0" encoding="UTF-8"?>
<svg width="896px" height="478px" viewBox="0 0 896 478" version="1.1" xmlns="http://www.w3.org/2000/svg" xmlns:xlink="http://www.w3.org/1999/xlink">
    <title>048Applepay</title>
    <g id="048Applepay" stroke="none" stroke-width="1" fill="none" fill-rule="evenodd">
        <path d="M14.9333333,59.5559336 L14.9333333,418.310733 C14.9333333,442.927154 34.9029452,462.933333 59.4829619,462.933333 L836.517038,462.933333 C861.003658,462.933333 881.066667,442.888558 881.066667,418.310733 L881.066667,59.5559336 C881.066667,34.9395122 861.097055,14.9333333 836.517038,14.9333333 L59.4829619,14.9333333 C34.9963416,14.9333333 14.9333333,34.9781082 14.9333333,59.5559336 Z M836.517038,0 C869.368571,0 896,26.7161442 896,59.5559336 L896,418.310733 C896,451.202567 869.1845,477.866667 836.517038,477.866667 L59.4829619,477.866667 C26.6314292,477.866667 0,451.150522 0,418.310733 L0,59.5559336 C0,26.6640997 26.8155003,0 59.4829619,0 L836.517038,0 Z M718.488322,191.072374 L688.586668,191.072374 L733.085979,310.678991 C734.26321,313.268897 734.498656,314.91702 734.498656,316.329697 C734.498656,319.861388 724.374474,346.231351 696.120943,356.355533 L703.184326,379.42925 C709.54137,378.016574 721.549121,373.543098 733.321426,362.712577 C748.860868,347.644027 759.691388,323.628526 774.995384,281.012783 L806.309715,191.072374 L777.585291,191.072374 L756.630589,264.060664 C754.276128,272.772169 751.686221,282.425459 749.802652,289.959734 L749.096314,289.959734 C747.212745,282.425459 744.622838,272.536723 742.032931,264.060664 L718.488322,191.072374 Z M205.992259,173.716888 C194.911659,173.716888 177.764533,162.023343 159.615742,162.321671 C135.745068,162.652259 113.745488,175.241425 101.458482,195.135783 C76.6679113,235.165333 95.1150295,294.490671 119.276685,326.982819 L119.63172,327.459928 L119.63172,327.459928 L120.345926,328.417219 L120.345926,328.417219 L121.065733,329.377789 C132.507542,344.607573 146.093648,360.700123 163.64572,360.079288 C171.536039,359.789617 177.250426,357.652908 183.039707,355.362634 L184.033309,354.968827 C190.999536,352.206074 198.258821,349.361536 209.700592,349.361536 C220.877564,349.361536 227.880092,352.24834 234.663542,354.979261 L235.655138,355.377442 C241.600835,357.755613 247.526385,359.899174 256.109368,359.748381 C273.153558,359.46098 284.644575,346.866985 295.227514,332.861395 L295.939648,331.915183 L295.939648,331.915183 L296.649346,330.965436 C297.47603,329.855624 298.298388,328.740109 299.11868,327.624191 C312.681084,309.173559 318.260512,291.302654 318.59621,290.403199 C318.166925,290.210916 281.251608,277.045537 280.86736,237.474976 C280.516969,204.328679 309.906064,188.437148 311.226179,187.634794 C294.707969,165.157699 268.973226,162.072213 259.821533,161.720225 C237.936941,159.651416 217.102883,173.716888 205.992259,173.716888 Z M620.542746,188.247021 C603.119735,188.247021 587.815739,193.191389 578.633342,199.077542 L584.284048,217.206891 C592.524661,211.791631 604.296966,208.259939 615.833824,208.259939 C641.44565,208.259939 641.957887,226.801979 641.968132,236.629259 L641.968341,237.219809 L641.968341,237.219809 C597.469029,237.219809 569.450944,253.230143 569.450944,285.486258 C569.450944,305.499176 583.342263,323.39308 607.593211,323.39308 C623.838992,323.39308 636.553081,315.858805 643.85191,305.734623 L644.558248,305.734623 L646.441817,320.803173 L671.163657,320.803173 C669.564008,312.576409 669.29516,301.688045 669.280729,290.936676 L669.280088,240.986946 C669.280088,213.439753 658.685014,188.247021 620.542746,188.247021 Z M485.86758,139.274234 C467.267339,139.274234 452.905127,140.922356 442.074607,142.805925 L442.074607,320.803173 L469.150907,320.803173 L469.150907,250.169344 C473.624383,251.111128 478.804197,251.346575 484.454904,251.346575 C516.946465,251.346575 551.792487,236.278025 551.792487,192.485051 C551.792487,176.003824 545.670888,162.347951 535.546706,153.636445 C524.716186,143.983155 507.999513,139.274234 485.86758,139.274234 Z M642.674679,255.584604 L642.674679,277.010199 C642.674679,292.078749 630.431482,303.380162 615.598378,303.380162 C605.474196,303.380162 596.527245,297.023117 596.527245,282.660905 C596.527245,259.587188 621.249085,255.584604 642.674679,255.584604 Z M487.515703,160.699828 C509.41219,160.699828 524.48074,171.765795 524.48074,193.662281 C524.48074,216.735999 509.41219,229.685534 484.454904,229.685534 C478.097859,229.685534 473.153491,229.450088 469.150907,228.272857 L469.150907,162.347951 C472.682599,161.641613 479.039643,160.699828 487.515703,160.699828 Z M260.103252,98.4374165 C245.964635,98.9689122 228.846256,107.185057 218.69258,118.245854 C209.598062,128.059999 201.647984,143.694726 203.772689,158.736949 C219.55083,159.881071 235.647421,151.26822 245.47051,140.216367 C255.279864,129.143113 261.906313,113.757845 260.103252,98.4374165 Z" id="Combined-Shape" fill="#333333" fill-rule="nonzero"></path>
    </g>
</svg>