<?xml version="1.0" encoding="UTF-8"?>
<svg width="896px" height="784px" viewBox="0 0 896 784" version="1.1" xmlns="http://www.w3.org/2000/svg" xmlns:xlink="http://www.w3.org/1999/xlink">
    <title>0105点餐-实色</title>
    <g id="0105点餐-实色" stroke="none" stroke-width="1" fill="none" fill-rule="evenodd">
        <path d="M55.7818015,602.728289 L840.264405,602.728289 C855.517763,602.728289 868.630209,596.849622 879.560669,585.05383 C890.501398,573.258038 896,558.934969 896,542.156045 C896,525.377121 890.501398,511.021087 879.560669,499.25826 C868.604538,487.467962 855.456154,481.539848 840.264405,481.539848 L835.28948,481.539848 C824.672198,400.018673 794.175751,327.969294 743.687188,265.441157 C693.265368,202.863574 631.558836,160.152588 558.505982,137.264246 L558.505982,136.159935 C559.851112,129.056089 560.549347,123.671889 560.549347,120.062278 C560.549347,86.4879484 549.593216,58.0725611 527.696356,34.8435862 C505.80463,11.5981292 479.230621,0.000124043662 448.041073,0.000124043662 C416.856658,-0.043828605 390.467477,11.5926351 368.9146,34.8435862 C347.361724,58.1110196 336.569883,86.526407 336.549347,120.062278 C336.549347,123.688371 336.883062,129.396722 337.535091,137.264246 C264.518176,160.152588 202.780839,202.847092 152.333349,265.441157 C101.906395,327.969294 71.3688746,400.018673 60.7515929,481.539848 L55.7766674,481.539848 C48.4657346,481.539848 41.3190924,483.138626 34.3880816,486.385628 C27.4108641,489.63263 21.4296585,493.896037 16.4136603,499.25826 C11.4387348,504.609495 7.45468714,511.021087 4.50772404,518.591931 C1.51968829,526.096846 0.0205363282,534.123698 0,542.699959 C0,559.13825 5.47806555,573.230568 16.4136603,585.05383 C27.3903278,596.794681 40.4976392,602.728289 55.7355948,602.728289 L55.7818015,602.728289 L55.7818015,602.728289 Z M448,60.0669125 C463.263626,60.0669125 476.38634,65.9510733 487.321934,77.7468654 C498.2832,89.5371634 503.735595,103.678928 503.761265,120.095242 L503.761265,123.386197 L502.749851,124.408096 C493.500639,122.990617 484.209562,121.90584 474.892322,121.1556 C465.941923,120.479007 456.972669,120.127184 448,120.100736 C439.364474,120.100736 430.410635,120.479828 421.138483,121.1556 C411.813664,121.897034 402.515467,122.981843 393.260417,124.408096 L392.269539,123.386197 L392.269539,120.095242 C392.269539,103.678928 397.742471,89.5591397 408.703736,77.7468654 C419.644465,65.9510733 432.746642,60.0669125 448,60.0669125 L448,60.0669125 Z M212.078661,382.888129 C229.991474,351.434514 252.725189,324.260789 280.269539,301.394424 C307.623878,278.601543 338.918616,261.819646 372.354435,252.013623 C373.709833,251.293899 375.029292,250.953266 376.338483,250.953266 C378.361311,250.277494 380.004217,249.898402 381.308274,249.898402 C389.276369,249.898402 396.084162,252.964099 401.731653,259.051541 C407.384277,265.160959 410.197754,272.429628 410.197754,281.038854 C410.197754,286.065938 409.18634,290.71393 407.189182,294.977337 C405.21729,299.234059 402.310549,302.915832 398.717946,305.707278 C395.072748,308.613646 391.258125,310.399223 387.294614,311.031042 C369.758782,316.60712 352.891897,324.356879 337.037085,334.122665 C321.543621,343.715308 307.170123,355.243952 294.21884,368.466166 C281.461311,381.419641 270.255258,396.01725 260.857575,411.924347 C259.499823,415.531463 257.471993,418.806119 254.896906,421.549977 C252.339639,424.317186 249.296795,426.516619 245.943067,428.022005 C242.616182,429.461454 238.970983,430.164696 234.961265,430.164696 C226.99317,430.164696 220.380472,427.30228 215.071831,421.59393 C209.73752,415.847121 207.0832,408.693827 207.0832,400.128555 C207.0832,393.70048 208.767179,388.0196 212.052991,382.965046 L212.052991,382.893623 L212.078661,382.893623 L212.078661,382.888129 Z M840.243869,662.800571 L55.7818015,662.800571 C40.5233096,662.800571 27.4159982,668.734179 16.4855375,680.529971 C5.52427229,692.320269 0.0718771488,706.648832 0.0513408205,723.422262 C0.0256704103,740.223162 5.50887004,754.540737 16.4855375,766.336529 C27.4622049,778.110345 40.5489801,784 55.7818015,784 L840.264405,784 C855.517763,784 868.630209,778.110345 879.560669,766.336529 C890.521934,754.546231 896,740.223162 896,723.422262 C896,706.648832 890.542471,692.325763 879.560669,680.529971 C868.609672,668.734179 855.456154,662.800571 840.243869,662.800571 Z" id="diancan" fill="#333333"></path>
    </g>
</svg>