<?xml version="1.0" encoding="UTF-8"?>
<svg width="896px" height="158px" viewBox="0 0 896 158" version="1.1" xmlns="http://www.w3.org/2000/svg" xmlns:xlink="http://www.w3.org/1999/xlink">
    <title>058iOS-更多</title>
    <g id="058iOS-更多" stroke="none" stroke-width="1" fill="none" fill-rule="evenodd">
        <path d="M79.0588235,0 C122.721806,0 158.117647,35.395841 158.117647,79.0588235 C158.117647,122.721806 122.721806,158.117647 79.0588235,158.117647 C35.395841,158.117647 0,122.721806 0,79.0588235 C0,35.395841 35.395841,0 79.0588235,0 Z M448,0 C491.662983,0 527.058824,35.395841 527.058824,79.0588235 C527.058824,122.721806 491.662983,158.117647 448,158.117647 C404.337017,158.117647 368.941176,122.721806 368.941176,79.0588235 C368.941176,35.395841 404.337017,0 448,0 Z M816.941176,0 C860.604159,0 896,35.395841 896,79.0588235 C896,122.721806 860.604159,158.117647 816.941176,158.117647 C773.278194,158.117647 737.882353,122.721806 737.882353,79.0588235 C737.882353,35.395841 773.278194,0 816.941176,0 Z" id="more" fill="#333333"></path>
    </g>
</svg>