<?xml version="1.0" encoding="UTF-8"?>
<svg width="896px" height="896px" viewBox="0 0 896 896" version="1.1" xmlns="http://www.w3.org/2000/svg" xmlns:xlink="http://www.w3.org/1999/xlink">
    <title>0184售后-退款-会员中心</title>
    <g id="0184售后-退款-会员中心" stroke="none" stroke-width="1" fill="none" fill-rule="evenodd">
        <path d="M448,0 C695.423568,0 896,200.576432 896,448 C896,695.423568 695.423568,896 448,896 C200.576432,896 0,695.423568 0,448 C0,200.576432 200.576432,0 448,0 Z M573.380616,292.073929 C560.367443,279.060756 539.268921,279.060756 526.255748,292.073929 L526.255748,292.073929 L448,370.329677 L369.744252,292.073929 L369.351448,291.687438 C356.309917,279.062058 335.502425,279.190888 322.619384,292.073929 L322.619384,292.073929 L322.232893,292.466734 C309.607512,305.508264 309.736343,326.315757 322.619384,339.198798 L322.619384,339.198798 L377.734868,394.31405 L325.818182,394.31405 L325.267136,394.318514 C307.11789,394.612776 292.495868,409.416992 292.495868,427.636364 L292.495868,427.636364 L292.500332,428.187409 C292.794594,446.336656 307.59881,460.958678 325.818182,460.958678 L325.818182,460.958678 L414.676868,460.95805 L414.676868,526.67705 L325.818182,526.677686 L325.267136,526.68215 C307.11789,526.976413 292.495868,541.780628 292.495868,560 L292.495868,560 L292.500332,560.551045 C292.794594,578.700292 307.59881,593.322314 325.818182,593.322314 L325.818182,593.322314 L414.676868,593.32205 L414.677686,651.636364 L414.68215,652.187409 C414.976413,670.336656 429.780628,684.958678 448,684.958678 L448,684.958678 L448.551045,684.954213 C466.700292,684.659951 481.322314,669.855735 481.322314,651.636364 L481.322314,651.636364 L481.321868,593.32205 L570.181818,593.322314 L570.732864,593.31785 C588.88211,593.023587 603.504132,578.219372 603.504132,560 L603.504132,560 L603.499668,559.448955 C603.205406,541.299708 588.40119,526.677686 570.181818,526.677686 L570.181818,526.677686 L481.321868,526.67705 L481.321868,460.95805 L570.181818,460.958678 L570.732864,460.954213 C588.88211,460.659951 603.504132,445.855735 603.504132,427.636364 L603.504132,427.636364 L603.499668,427.085318 C603.205406,408.936071 588.40119,394.31405 570.181818,394.31405 L570.181818,394.31405 L518.263868,394.31405 L573.380616,339.198798 L573.767107,338.805993 C586.392488,325.764463 586.263657,304.956971 573.380616,292.073929 Z M448,61.0909091 C431.130211,61.0909091 417.454545,74.7665749 417.454545,91.6363636 C417.454545,100.866958 421.548929,109.141257 428.020636,114.742203 L428.020636,114.742203 L427.953924,114.768244 L495.077223,176.068115 C503.381795,183.652206 516.262101,183.068141 523.846191,174.763569 C528.323202,169.861246 530.129371,163.084254 528.68597,156.604055 L528.68597,156.604055 L522.949944,130.839263 C658.18498,162.672477 760.934355,278.809763 772.691935,420.694729 C774.085108,437.506892 788.843449,450.006453 805.655613,448.61328 C822.467776,447.220107 834.967337,432.461765 833.574164,415.649602 C818.017681,227.921242 668.517309,78.2490581 480.822502,62.465247 C469.946758,61.5506736 458.999399,61.0909091 448,61.0909091 Z" id="形状结合" fill="#333333"></path>
    </g>
</svg>