<?xml version="1.0" encoding="UTF-8"?>
<svg width="896px" height="896px" viewBox="0 0 896 896" version="1.1" xmlns="http://www.w3.org/2000/svg" xmlns:xlink="http://www.w3.org/1999/xlink">
    <title>02编辑</title>
    <g id="02编辑" stroke="none" stroke-width="1" fill="none" fill-rule="evenodd">
        <path d="M81.4541381,896 C36.465168,896 0,859.536628 0,814.603142 L0,82.0269386 C0,37.0994137 36.465168,0.630080132 81.4541381,0.630080132 L488.727815,0.630080132 L543.032564,0.630080132 L570.181955,0.630080132 C585.195182,0.630080132 597.331346,12.7636719 597.331346,27.766341 C597.331346,42.7690101 585.195182,54.8966405 570.181955,54.8966405 L543.032564,54.8966405 L488.727815,54.8966405 L108.603529,54.8966391 C78.629277,54.8966391 54.3047483,79.2100253 54.3047483,109.163199 L54.3047483,787.471352 C54.3047483,817.427506 78.6292784,841.739402 108.603529,841.739402 L787.396471,841.739402 C817.372214,841.739402 841.695252,817.426016 841.695252,787.471352 L841.695252,353.353778 L841.695252,304.023522 L841.695252,299.087217 C841.695252,284.084548 853.837382,271.956918 868.850609,271.956918 C883.863835,271.956918 896,284.084548 896,299.087217 L896,353.353778 L896,814.60314 C896,859.536628 859.510968,896 814.545862,896 L81.4541381,896 Z M332.850369,536.57831 C322.235513,525.970919 322.235513,508.819049 332.850369,498.211658 L820.762346,7.96001407 C831.383167,-2.65333802 848.541141,-2.65333802 859.155996,7.96001407 C869.770851,18.5674048 869.770851,35.7431218 859.155996,46.3207041 L371.244019,536.57831 C360.653028,547.1857 343.465224,547.1857 332.850369,536.57831 Z" id="edit" fill="#333333"></path>
    </g>
</svg>