<?xml version="1.0" encoding="UTF-8"?>
<svg width="896px" height="896px" viewBox="0 0 896 896" version="1.1" xmlns="http://www.w3.org/2000/svg" xmlns:xlink="http://www.w3.org/1999/xlink">
    <title>052iOS-分类-选中</title>
    <g id="052iOS-分类-选中" stroke="none" stroke-width="1" fill="none" fill-rule="evenodd">
        <path d="M448.00089,0 C200.575806,0 0,200.575806 0,447.99911 C0,695.427753 200.575806,896.004449 448.00089,896.004449 C695.421525,896.004449 896,695.427753 896,447.99911 C896.00089,200.576696 695.422414,0 448.00089,0 Z M200.231918,643.88966 C179.591127,643.88966 162.862013,627.494759 162.862013,607.260692 C162.862013,587.036514 179.591127,570.63634 200.231918,570.63634 C220.87205,570.63634 237.60446,587.036514 237.60446,607.260692 C237.605119,627.494759 220.87205,643.88966 200.231918,643.88966 Z M200.231918,476.224172 C179.591127,476.224172 162.862013,459.493458 162.862013,438.854629 C162.862013,418.212438 179.591127,401.481725 200.231918,401.481725 C220.87205,401.481725 237.60446,418.211766 237.60446,438.854629 C237.605119,459.493458 220.87205,476.224172 200.231918,476.224172 Z M200.231918,305.601785 C179.591127,305.601785 162.862013,289.206884 162.862013,268.97084 C162.862013,248.743365 179.591127,232.348464 200.231918,232.348464 C220.87205,232.348464 237.60446,248.743365 237.60446,268.97084 C237.605119,289.20161 220.87205,305.601785 200.231918,305.601785 Z M712.016127,637.978395 L352.951632,637.978395 C341.874623,637.978395 332.893962,629.002183 332.893962,617.923395 C332.893962,606.848166 341.875513,597.868394 352.951632,597.868394 L712.016127,597.868394 C723.090467,597.868394 732.066679,606.848166 732.066679,617.923395 C732.066679,629.002183 723.090467,637.978395 712.016127,637.978395 Z M712.016127,470.200286 L352.951632,470.200286 C341.874623,470.200286 332.893962,461.220515 332.893962,450.140837 C332.893962,439.066498 341.875513,430.084057 352.951632,430.084057 L712.016127,430.084057 C723.090467,430.084057 732.066679,439.065608 732.066679,450.140837 C732.066679,461.220515 723.090467,470.200286 712.016127,470.200286 Z M712.016127,301.254772 L352.951632,301.254772 C341.874623,301.254772 332.893962,292.27767 332.893962,281.198882 C332.893962,270.124543 341.875513,261.144772 352.951632,261.144772 L712.016127,261.144772 C723.090467,261.144772 732.066679,270.123653 732.066679,281.198882 C732.066679,292.27767 723.090467,301.254772 712.016127,301.254772 Z" id="classity-active" fill="#333333"></path>
    </g>
</svg>