<?xml version="1.0" encoding="UTF-8"?>
<svg width="896px" height="896px" viewBox="0 0 896 896" version="1.1" xmlns="http://www.w3.org/2000/svg" xmlns:xlink="http://www.w3.org/1999/xlink">
    <title>0250查看券包</title>
    <g id="0250查看券包" stroke="none" stroke-width="1" fill="none" fill-rule="evenodd">
        <path d="M672.2912,69.4314909 C644.68992,2.33397982 561.55456,-21.2153955 502.86656,21.4400733 L386.42464,106.069827 L333.900224,80.5302429 C272.592768,50.7203229 199.097472,82.1336349 178.276224,147.046595 L136.294592,277.931139 C60.401152,281.614595 0,344.313539 0,421.120003 L0,489.135363 C0,506.002563 13.675648,519.680003 30.5454464,519.680003 L67.2,519.680003 C104.313664,519.680003 134.4,549.767683 134.4,586.880003 C134.4,623.992323 104.313664,654.080003 67.2,654.080003 L30.5454464,654.080003 C13.675648,654.080003 0,667.757443 0,684.624643 L0,752.640003 C0,831.815043 64.184512,896 143.36,896 L752.64,896 C831.81504,896 896,831.815043 896,752.640003 L896,684.624643 C896,667.757443 882.32256,654.080003 865.45536,654.080003 L828.8,654.080003 C791.68768,654.080003 761.6,623.992323 761.6,586.880003 C761.6,549.767683 791.68768,519.680003 828.8,519.680003 L865.45536,519.680003 C882.32256,519.680003 896,506.002563 896,489.135363 L896,421.120003 C896,343.748611 834.70912,280.692611 758.02944,277.859459 L672.2912,69.4314909 Z M653.60512,235.984003 L597.71712,100.108739 C589.98464,81.3214109 566.70656,74.7277469 550.27392,86.6709789 L468.60352,146.029187 L653.60512,235.984003 Z M298.637696,153.051587 C281.47168,144.704899 260.8928,153.500483 255.062976,171.676291 L221.036032,277.760003 L555.11232,277.760003 L298.637696,153.051587 Z M752.64,358.400003 L143.36,358.400003 C108.72064,358.400003 80.64,386.480643 80.64,421.120003 L80.64,427.359299 C80.64,434.314499 85.968512,440.054723 92.820224,441.251779 C162.258432,453.384963 215.04,513.968003 215.04,586.880003 C215.04,659.792003 162.258432,720.375043 92.820224,732.506883 C85.968512,733.703043 80.64,739.446403 80.64,746.399363 L80.64,752.640003 C80.64,787.279363 108.72064,815.360003 143.36,815.360003 L752.64,815.360003 C787.27936,815.360003 815.36,787.279363 815.36,752.640003 L815.36,746.399363 C815.36,739.446403 810.03328,733.703043 803.17888,732.506883 C733.74336,720.375043 680.96,659.792003 680.96,586.880003 C680.96,513.968003 733.74336,453.384963 803.17888,441.251779 C810.03328,440.054723 815.36,434.314499 815.36,427.359299 L815.36,421.120003 C815.36,386.480643 787.27936,358.400003 752.64,358.400003 Z M340.48,663.040003 C340.48,640.769923 358.531712,622.720003 380.8,622.720003 L515.2,622.720003 C537.47008,622.720003 555.52,640.769923 555.52,663.040003 C555.52,685.310083 537.47008,703.360003 515.2,703.360003 L380.8,703.360003 C358.531712,703.360003 340.48,685.310083 340.48,663.040003 Z M380.8,470.400003 C358.531712,470.400003 340.48,488.449923 340.48,510.720003 C340.48,532.990083 358.531712,551.040003 380.8,551.040003 L515.2,551.040003 C537.47008,551.040003 555.52,532.990083 555.52,510.720003 C555.52,488.449923 537.47008,470.400003 515.2,470.400003 L380.8,470.400003 Z" id="Shape" fill="#333333"></path>
    </g>
</svg>