<?xml version="1.0" encoding="UTF-8"?>
<svg width="896px" height="891px" viewBox="0 0 896 891" version="1.1" xmlns="http://www.w3.org/2000/svg" xmlns:xlink="http://www.w3.org/1999/xlink">
    <title>04待评价</title>
    <g id="04待评价" stroke="none" stroke-width="1" fill="none" fill-rule="evenodd">
        <path d="M761.706667,0 C835.989981,0 896,61.5547602 896,137.203168 L896,568.397495 C896,652.580071 829.269981,721.027814 746.666667,721.027814 L648.995152,721.027814 L508.160003,865.488255 C474.99798,899.503915 421.00202,899.503915 387.839997,865.488255 L247.004848,721.027814 L149.333333,721.027814 C66.7300189,721.027814 0,652.580071 0,568.397495 L0,181.383901 C0,81.6866445 79.6366856,0 177.365333,0 L761.706667,0 Z M761.706667,42.6708418 L177.365333,42.6708418 C103.445981,42.6708418 42.6666667,105.0147 42.6666667,181.383901 L42.6666667,568.397495 C42.6666667,629.252016 90.5393144,678.356972 149.333333,678.356972 L264.995152,678.356972 L418.389336,835.699735 C434.80598,852.538966 461.19402,852.538966 477.610664,835.699735 L631.004848,678.356972 L746.666667,678.356972 C805.460686,678.356972 853.333333,629.252016 853.333333,568.397495 L853.333333,137.203168 C853.333333,84.8828158 812.180686,42.6708418 761.706667,42.6708418 Z M597.333333,415.767176 L597.333333,458.438018 L277.333333,458.438018 L277.333333,415.767176 L597.333333,415.767176 Z M661.333333,262.589796 L661.333333,305.260637 L213.333333,305.260637 L213.333333,262.589796 L661.333333,262.589796 Z" id="待评价" fill="#333333" fill-rule="nonzero"></path>
    </g>
</svg>