<?xml version="1.0" encoding="UTF-8"?>
<svg width="734px" height="897px" viewBox="0 0 734 897" version="1.1" xmlns="http://www.w3.org/2000/svg" xmlns:xlink="http://www.w3.org/1999/xlink">
    <title>0223新人礼</title>
    <g id="0223新人礼" stroke="none" stroke-width="1" fill="none" fill-rule="evenodd">
        <path d="M400.933048,2.12490211 C416.459397,8.21514431 424.187641,25.6245189 418.371607,41.1894716 L418.191212,41.6605587 L402.603226,81.4004009 C588.585568,99.3641115 734,256.600533 734,447.913557 C734,582.230591 662.322868,699.750714 555.252482,764.06907 L360.576859,891.02822 C352.314991,896.41634 341.957654,897.476927 332.775218,893.875098 C317.248869,887.784856 309.520625,870.375481 315.336659,854.810528 L315.517054,854.339441 L331.181231,814.405831 C145.302093,796.341503 0,639.152669 0,447.913557 C0,313.72801 71.5368679,196.306503 178.433179,131.947086 L373.131407,4.97178045 C381.393276,-0.416339747 391.750612,-1.47692737 400.933048,2.12490211 Z M539.320615,319.363624 L194.61763,319.363624 C180.685745,319.363624 169.384615,330.606137 169.384615,344.486416 L169.384615,344.486416 L169.384615,435.271632 C169.384615,449.113497 180.685745,460.368815 194.605279,460.368815 L194.605279,460.368815 L194.605279,623.701489 C194.605279,637.594572 205.881707,648.811476 219.838293,648.811476 L219.838293,648.811476 L514.124654,648.811476 C528.044187,648.811476 539.320615,637.594572 539.320615,623.688684 L539.320615,623.688684 L539.320615,485.286732 L539.345317,460.368815 C553.314255,460.368815 564.615385,449.113497 564.615385,435.258828 L564.615385,435.258828 L564.615385,344.601658 C564.578332,344.576048 564.578332,344.512025 564.578332,344.473611 C564.578332,330.644551 553.277202,319.363624 539.320615,319.363624 L539.320615,319.363624 Z M462.719952,460.215159 C471.246511,460.215159 478.158654,467.381225 478.158654,476.221015 C478.158654,485.060806 471.246511,492.226872 462.719952,492.226872 L462.719952,492.226872 L271.280048,492.226872 C262.753489,492.226872 255.841346,485.060806 255.841346,476.221015 C255.841346,467.381225 262.753489,460.215159 271.280048,460.215159 L271.280048,460.215159 Z M252.732383,235.601745 L252.232,235.888 C240.470249,243.990832 231.139423,261.47503 231.139423,275.690631 L231.139423,301.684142 L354.649039,301.684142 L354.649039,299.200033 C354.649039,292.128311 351.828281,285.371395 346.855582,280.530802 L307.925351,242.654544 C293.944186,229.066468 269.643555,226.080569 252.732383,235.601745 Z M481.267617,235.416318 C464.356445,225.895142 440.055814,228.881041 426.074649,242.469116 L426.074649,242.469116 L387.144418,280.345375 C382.171719,285.185968 379.350961,291.942884 379.350961,299.014606 L379.350961,299.014606 L379.350961,301.498714 L502.860577,301.498714 L502.860577,275.505204 C502.860577,261.289602 493.529751,243.805405 481.773852,235.70678 L481.768,235.702 Z" id="形状结合" fill="#333333" fill-rule="nonzero"></path>
    </g>
</svg>