<?xml version="1.0" encoding="UTF-8"?>
<svg width="896px" height="805px" viewBox="0 0 896 805" version="1.1" xmlns="http://www.w3.org/2000/svg" xmlns:xlink="http://www.w3.org/1999/xlink">
    <title>032退款</title>
    <g id="032退款" stroke="none" stroke-width="1" fill="none" fill-rule="evenodd">
        <path d="M402.279522,0 C606.521203,0 775.212872,152.291117 801.112073,349.572119 L862.846792,242.639736 L896.026247,261.795904 L822.713747,388.776879 C810.271852,410.326874 782.745244,417.710689 761.207053,405.275609 L634.295635,332.003268 L653.462302,298.805627 L764.094808,362.670814 C744.26618,180.284448 589.841,38.3333333 402.279522,38.3333333 C201.265996,38.3333333 38.3123354,201.376304 38.3123354,402.5 C38.3123354,603.623696 201.265996,766.666667 402.279522,766.666667 C532.545388,766.666667 650.816334,697.643078 715.879092,587.456656 L748.864737,606.955339 C676.978243,728.698038 546.235905,805 402.279522,805 C180.106677,805 0,624.794612 0,402.5 C0,180.205388 180.106677,0 402.279522,0 Z M522.82724,197.280453 L549.918152,224.386213 L421.435,352.939 L421.435,383.333 L536.372696,383.333333 L536.372696,421.666667 L421.435,421.666 L421.435,479.166 L536.372696,479.166667 L536.372696,517.5 L421.435,517.5 L421.43569,632.5 L383.123354,632.5 L383.123,517.5 L268.186348,517.5 L268.186348,479.166667 L383.123,479.166 L383.123,421.666 L268.186348,421.666667 L268.186348,383.333333 L383.123,383.333 L383.123,352.939 L254.640892,224.386213 L281.731804,197.280453 L402.279522,317.89424 L522.82724,197.280453 Z" id="退款" fill="#333333" fill-rule="nonzero"></path>
    </g>
</svg>