<?xml version="1.0" encoding="UTF-8"?>
<svg width="896px" height="896px" viewBox="0 0 896 896" version="1.1" xmlns="http://www.w3.org/2000/svg" xmlns:xlink="http://www.w3.org/1999/xlink">
    <title>023切换</title>
    <g id="023切换" stroke="none" stroke-width="1" fill="none" fill-rule="evenodd">
        <path d="M853.374628,558.290644 L42.8921977,558.290644 C25.4818344,558.290644 9.87254318,568.398142 3.26861227,584.451228 C-3.33531864,600.504313 0.266825491,618.341075 12.2739726,630.23225 L268.026206,883.514267 C284.836212,900.161911 311.852293,900.161911 328.061942,883.514267 C344.871948,866.866622 344.871948,840.11148 328.061942,824.058394 L144.952948,642.717983 L852.77427,642.717983 C876.188207,642.717983 895.399643,623.692104 895.399643,600.504313 C896,577.316523 876.788565,558.290644 853.374628,558.290644 L853.374628,558.290644 Z M42.8921977,296.090246 L853.374628,296.090246 C870.784991,296.090246 886.394282,285.982747 892.998213,269.929662 C895.399643,264.578633 896,259.227605 896,253.876576 C896,243.174519 891.797499,231.877903 883.392496,224.14864 L670.265634,12.4857332 C653.455628,-4.16191108 626.439547,-4.16191108 610.229899,12.4857332 C593.419893,29.1333776 593.419893,55.8885202 610.229899,71.9416058 L750.71352,211.068348 L42.8921977,211.068348 C19.4782609,211.068348 0.266825491,230.094227 0.266825491,253.282017 C0.266825491,276.469808 19.4782609,296.090246 42.8921977,296.090246 L42.8921977,296.090246 Z" id="Shape" fill="#333333"></path>
    </g>
</svg>