<?xml version="1.0" encoding="UTF-8"?>
<svg width="896px" height="812px" viewBox="0 0 896 812" version="1.1" xmlns="http://www.w3.org/2000/svg" xmlns:xlink="http://www.w3.org/1999/xlink">
    <title>0181待收货-会员中心</title>
    <g id="0181待收货-会员中心" stroke="none" stroke-width="1" fill="none" fill-rule="evenodd">
        <path d="M706.918188,0 C782.699402,-1.39207833e-14 845.829438,58.089267 852.121112,133.608849 L895.492252,654.19691 C902.173308,734.390271 842.579809,804.8159 762.386448,811.496955 C758.362787,811.832173 754.32693,812 750.289328,812 L145.702575,812 C65.2313901,812 -0.00339445973,746.765215 -0.00339445973,666.29403 C-0.00339445973,662.256429 0.164432124,658.220572 0.49965073,654.19691 L43.870791,133.608849 C50.1624651,58.089267 113.292501,-1.45009262e-14 189.073715,0 L706.918188,0 Z M604.10949,166.564103 C586.865665,166.564103 572.886783,180.546594 572.886783,197.794872 C572.886783,266.787982 516.971253,322.717949 447.995952,322.717949 C379.02065,322.717949 323.105121,266.787982 323.105121,197.794872 C323.105121,180.546594 309.126238,166.564103 291.882413,166.564103 C274.638588,166.564103 260.659705,180.546594 260.659705,197.794872 C260.659705,266.993523 298.159163,327.431445 353.940337,359.885933 L353.940337,359.885933 L328.596682,411.87997 L328.374206,412.345923 C321.170711,427.753027 327.63643,446.146503 342.981785,453.626632 C352.083947,458.063502 362.772548,457.810723 371.654793,452.948531 L371.654793,452.948531 L529.237539,366.689964 C535.034097,363.895173 540.664753,360.810614 546.110724,357.455075 L546.110724,357.455075 L548.963013,355.888997 L548.648339,355.863403 C600.769167,322.588355 635.332198,264.22897 635.332198,197.794872 C635.332198,180.546594 621.353316,166.564103 604.10949,166.564103 Z" id="形状结合" fill="#333333"></path>
    </g>
</svg>