<?xml version="1.0" encoding="UTF-8"?>
<svg width="896px" height="896px" viewBox="0 0 896 896" version="1.1" xmlns="http://www.w3.org/2000/svg" xmlns:xlink="http://www.w3.org/1999/xlink">
    <title>0180城市</title>
    <g id="0180城市" stroke="none" stroke-width="1" fill="none" fill-rule="evenodd">
        <path d="M92.5997631,569.340628 L239.200391,618.247567 L238.763435,618.353896 C254.372198,623.371984 266.587136,636.677005 269.182216,653.738886 C272.843048,677.807771 255.973858,700.238498 231.503825,703.839316 C179.131176,711.546066 138.465775,722.27529 112.481146,734.790851 C101.710932,739.978352 94.425169,745.024375 90.6706372,749.185168 C90.2952812,749.60114 90.0486767,749.854042 89.8873861,749.97669 L89.884,749.978 L89.9014575,750.009362 C92.7713681,754.929207 116.265955,769.202269 166.084878,781.738946 L167.666865,782.134251 C234.751244,798.779436 332.248812,807.868852 448,807.868852 C563.751188,807.868852 661.248756,798.779436 728.333135,782.134251 C779.18084,769.51776 803.145391,755.013115 806.088843,750.025892 L806.112,749.982 L806.083039,749.960709 C805.946194,749.848787 805.753643,749.652751 805.483552,749.355944 L805.362988,749.222522 C801.664275,745.103649 794.473108,740.096984 783.828863,734.940597 C758.103639,722.478538 717.808827,711.768278 665.878911,704.043889 C641.41471,700.404927 624.581685,677.94793 628.281297,653.884782 C631.980909,629.821634 654.812189,613.26456 679.276389,616.903523 C815.333868,637.141586 896,676.218646 896,749.114754 C896,852.906352 722.321512,896 448,896 C173.678488,896 0,852.906352 0,749.114754 C0,704.62903 30.0412551,672.727513 84.4023543,650.021861 L59.0312785,615.290356 C49.3011019,601.970989 52.2107155,583.285642 65.5300825,573.555465 C73.3388355,567.850949 83.4262952,566.280298 92.5997631,569.340628 Z M448,0 C612.949045,0 746.666667,132.577733 746.666667,296.120656 C746.666667,487.865545 484.949045,705.04918 448,705.04918 C411.050955,705.04918 149.333333,487.865545 149.333333,296.120656 C149.333333,132.577733 283.050955,0 448,0 Z M448,190.95082 C390.267834,190.95082 343.466667,236.984755 343.466667,293.770492 C343.466667,350.556229 390.267834,396.590164 448,396.590164 C505.732166,396.590164 552.533333,350.556229 552.533333,293.770492 C552.533333,236.984755 505.732166,190.95082 448,190.95082 Z" id="地址" fill="#333333"></path>
    </g>
</svg>