<?xml version="1.0" encoding="UTF-8"?>
<svg width="896px" height="896px" viewBox="0 0 896 896" version="1.1" xmlns="http://www.w3.org/2000/svg" xmlns:xlink="http://www.w3.org/1999/xlink">
    <title>0176包邮</title>
    <g id="0176包邮" stroke="none" stroke-width="1" fill="none" fill-rule="evenodd">
        <path d="M448,0 C695.423568,0 896,200.576432 896,448 C896,695.423568 695.423568,896 448,896 C200.576432,896 0,695.423568 0,448 C0,200.576432 200.576432,0 448,0 Z M448,56 C231.504378,56 56,231.504378 56,448 C56,664.495622 231.504378,840 448,840 C664.495622,840 840,664.495622 840,448 C840,231.504378 664.495622,56 448,56 Z M659.129753,225.956957 C666.198998,225.956957 671.929753,231.687712 671.929753,238.756957 L671.929753,392.245559 C670.567724,413.123504 663.822439,425.503781 651.661468,429.416439 C665.152039,438.556408 671.929753,451.609036 671.929753,468.543022 L671.929753,603.530358 C673.259353,633.51697 655.715126,647.85295 619.232212,646.5696 L567.088899,646.5696 C560.066488,646.5696 554.373699,652.262389 554.373699,659.2848 C554.373699,666.307211 548.68091,672 541.658499,672 L504.341365,672 C497.272121,672 491.541365,666.269245 491.541365,659.2 L491.541365,238.756957 C491.541365,231.687712 497.272121,225.956957 504.341365,225.956957 L659.129753,225.956957 Z M359.159131,224 C366.228376,224 371.959131,229.730755 371.959131,236.8 L371.959131,240.545563 C371.959131,247.614808 377.689887,253.345563 384.759131,253.345563 L454.420721,253.345563 C461.489966,253.345563 467.220721,259.076319 467.220721,266.145563 L467.220721,628.960758 C468.550321,653.72006 456.389349,665.458035 430.737808,664.174683 L236.8,664.174683 C229.730755,664.174683 224,658.443928 224,651.374683 L224,266.145563 C224,259.076319 229.730755,253.345563 236.8,253.345563 L302.407933,253.345563 C309.477178,253.345563 315.207933,247.614808 315.207933,240.545563 L315.207933,236.8 C315.207933,229.730755 320.938688,224 328.007933,224 L359.159131,224 Z M310.834112,478.322788 L289.177378,478.322788 C285.642756,478.322788 282.777378,481.188166 282.777378,484.722788 L282.777378,604.95317 C282.777378,608.487793 285.642756,611.35317 289.177378,611.35317 L310.834112,611.35317 C314.368735,611.35317 317.234112,608.487793 317.234112,604.95317 L317.234112,484.722788 C317.234112,481.188166 314.368735,478.322788 310.834112,478.322788 Z M402.042045,478.322788 L382.412789,478.322788 C378.878166,478.322788 376.012789,481.188166 376.012789,484.722788 L376.012789,604.95317 C376.012789,608.487793 378.878166,611.35317 382.412789,611.35317 L402.362208,611.35317 C405.052539,611.35317 407.080016,609.397468 408.442045,605.484809 L408.442045,484.722788 C408.442045,481.188166 405.576668,478.322788 402.042045,478.322788 Z M600.990107,447.021522 L560.772402,447.021522 C557.23778,447.021522 554.372402,449.8869 554.372402,453.421522 L554.372402,587.345581 C554.372402,590.880204 557.23778,593.745581 560.772402,593.745581 L600.990107,593.745581 C605.043764,593.745581 607.735392,591.147576 609.097421,585.921517 L609.097421,452.891135 C607.735392,448.978477 605.043764,447.021522 600.990107,447.021522 Z M310.834112,308.12278 L289.177378,308.12278 C285.642756,308.12278 282.777378,310.988158 282.777378,314.52278 L282.777378,413.234167 C282.777378,416.76879 285.642756,419.634167 289.177378,419.634167 L310.834112,419.634167 C314.368735,419.634167 317.234112,416.76879 317.234112,413.234167 L317.234112,314.52278 C317.234112,310.988158 314.368735,308.12278 310.834112,308.12278 Z M402.042045,306.167078 L382.412789,306.167078 C378.878166,306.167078 376.012789,309.032455 376.012789,312.567078 L376.012789,413.234167 C376.012789,416.76879 378.878166,419.634167 382.412789,419.634167 L402.042045,419.634167 C405.576668,419.634167 408.442045,416.76879 408.442045,413.234167 L408.442045,312.567078 C408.442045,309.032455 405.576668,306.167078 402.042045,306.167078 Z M602.697421,282.691127 L560.772402,282.691127 C557.23778,282.691127 554.372402,285.556505 554.372402,289.091127 L554.372402,387.802514 C554.372402,391.337136 557.23778,394.202514 560.772402,394.202514 L600.990107,394.202514 C605.043764,394.202514 607.735392,392.245558 609.097421,388.332901 L609.097421,289.091127 C609.097421,285.556505 606.232044,282.691127 602.697421,282.691127 Z" id="Oval-Copy-2" fill="#333333" fill-rule="nonzero"></path>
    </g>
</svg>