<?xml version="1.0" encoding="UTF-8"?>
<svg width="896px" height="896px" viewBox="0 0 896 896" version="1.1" xmlns="http://www.w3.org/2000/svg" xmlns:xlink="http://www.w3.org/1999/xlink">
    <title>0137全局删除</title>
    <g id="0137全局删除" stroke="none" stroke-width="1" fill="none" fill-rule="evenodd">
        <path d="M448,896 C200.576432,896 0,695.423568 0,448 C0,200.576432 200.576432,0 448,0 C695.423568,0 896,200.576432 896,448 C896,695.423568 695.423568,896 448,896 Z M652.977778,243.022222 C663.269241,253.313686 663.269241,269.999446 652.977778,280.290909 L485.268,448 L652.977778,615.709091 C663.269241,626.000554 663.269241,642.686314 652.977778,652.977778 C642.686314,663.269241 626.000554,663.269241 615.709091,652.977778 L448,485.268 L280.290909,652.977778 C269.999446,663.269241 253.313686,663.269241 243.022222,652.977778 C232.730759,642.686314 232.730759,626.000554 243.022222,615.709091 L410.732,448 L243.022222,280.290909 C232.730759,269.999446 232.730759,253.313686 243.022222,243.022222 C253.313686,232.730759 269.999446,232.730759 280.290909,243.022222 L448,410.732 L615.709091,243.022222 C626.000554,232.730759 642.686314,232.730759 652.977778,243.022222 Z" id="全局删除" fill="#333333"></path>
    </g>
</svg>