<?xml version="1.0" encoding="UTF-8"?>
<svg width="896px" height="805px" viewBox="0 0 896 805" version="1.1" xmlns="http://www.w3.org/2000/svg" xmlns:xlink="http://www.w3.org/1999/xlink">
    <title>0109选择城市</title>
    <g id="0109选择城市" stroke="none" stroke-width="1" fill="none" fill-rule="evenodd">
        <path d="M896,0 L896,626.344409 C896,725.013167 816.485977,805 716.834497,805 L716.834497,805 L0,805 L0,178.655591 C0,79.9868326 79.5140228,0 179.165503,0 L179.165503,0 L896,0 Z M661.958298,281.422264 C644.974477,264.467929 616.367103,263.687534 599.204781,280.820061 L599.204781,280.820061 L440.209611,439.539197 L344.882321,344.377405 C327.165463,326.691306 299.31318,327.203923 281.817692,344.669037 C264.833871,361.623372 264.191409,390.320128 281.525553,407.624178 L281.525553,407.624178 L408.823366,534.700988 C417.579981,543.442401 428.812542,547.738116 440.046831,547.738602 L440.046831,547.738602 L440.035435,547.495561 C451.39091,547.619323 462.752271,543.52922 471.284744,535.01156 L471.284744,535.01156 L662.561548,344.066834 C680.011342,326.647335 679.453786,298.887378 661.958298,281.422264 Z" id="city-selected" fill="#333333"></path>
    </g>
</svg>