<?xml version="1.0" encoding="UTF-8"?>
<svg width="896px" height="896px" viewBox="0 0 896 896" version="1.1" xmlns="http://www.w3.org/2000/svg" xmlns:xlink="http://www.w3.org/1999/xlink">
    <title>0248拼团详情</title>
    <g id="0248拼团详情" stroke="none" stroke-width="1" fill="none" fill-rule="evenodd">
        <path d="M275.744,365.285301 C275.744,207.009325 397.901504,80.4058373 546.56,80.4058373 C695.21984,80.4058373 817.376,207.009325 817.376,365.285301 C817.376,488.220538 743.46944,592.399222 640.71168,632.486556 C629.33696,636.921788 620.61888,646.495618 617.09312,658.408026 C613.56736,670.324913 615.6416,683.236368 622.70208,693.374682 C641.65696,720.590882 679.32032,788.342418 696.94464,861.926957 C702.02496,883.135433 721.72352,898.470585 743.344,895.603364 C764.78528,892.758543 780.0352,873.082239 775.40288,851.949924 C761.94944,790.586915 736.69568,733.488896 714.58688,692.671317 C712.9696,689.696575 714.03584,685.978148 716.96128,684.266775 C824.03776,621.649356 896,502.02352 896,365.285301 C896,164.484854 740.45888,0 546.56,0 C352.660672,0 197.12,164.484854 197.12,365.285301 C197.12,502.682084 269.77888,622.800725 377.708352,685.167262 C380.576448,686.824874 381.670912,690.435781 380.165184,693.383642 C358.922816,735.007627 334.02656,792.817971 320.397952,851.645282 C315.516544,872.714877 330.53664,892.534542 351.94432,895.598884 C373.539264,898.690107 393.448832,883.561036 398.771072,862.401841 C416.369856,792.446128 452.704,721.921451 471.56032,691.645389 C477.904,681.453315 479.43168,668.886823 475.71776,657.413458 C472.00832,645.944574 463.44704,636.791867 452.40832,632.486556 C349.649664,592.399222 275.744,488.220538 275.744,365.285301 Z M158.060224,261.395132 C175.045696,246.911634 177.14144,221.32079 162.741376,204.236633 C148.341312,187.152028 122.898496,185.044172 105.913024,199.52767 C38.875648,256.691545 0,343.2301 0,438.362253 C0,549.82099 54.483072,649.152278 142.01152,703.253154 C145.015808,705.107888 146.147008,708.947276 144.56736,712.105699 C128.52448,744.182734 110.78592,786.017281 99.876672,829.106237 C94.416896,850.673115 109.892608,871.079665 131.923456,874.161927 C154.003584,877.25315 174.349056,861.765676 180.361216,840.297359 C195.369216,786.702726 222.964672,733.847299 237.665792,710.492888 C244.129088,700.220172 245.672448,687.57752 241.871168,676.041435 C238.069888,664.50535 229.32448,655.289923 218.042496,650.935331 C136.786944,619.579581 80.64,537.58154 80.64,438.362253 C80.64,365.510647 110.23936,302.172839 158.060224,261.395132 Z" id="Shape" fill="#333333"></path>
    </g>
</svg>