<?xml version="1.0" encoding="UTF-8"?>
<svg width="896px" height="872px" viewBox="0 0 896 872" version="1.1" xmlns="http://www.w3.org/2000/svg" xmlns:xlink="http://www.w3.org/1999/xlink">
    <title>0118付款码</title>
    <g id="0118付款码" stroke="none" stroke-width="1" fill="none" fill-rule="evenodd">
        <path d="M167.252477,286.685463 L191.145687,286.685463 C197.736953,286.685463 203.091783,281.330268 203.091783,274.73981 L203.091783,11.9456527 C203.091783,5.35519441 197.736954,0 191.145687,0 L167.252477,0 C160.661212,0 155.306381,5.35519441 155.306381,11.9456527 L155.306381,274.73981 C155.306381,281.330269 160.661211,286.685463 167.252477,286.685463 Z M298.666667,286.685463 L370.346299,286.685463 C376.938585,286.685463 382.293415,281.330268 382.293415,274.73981 L382.293415,11.9456527 C382.293415,5.35519441 376.938585,0 370.346299,0 L298.666667,0 C292.075401,0 286.719551,5.35519441 286.719551,11.9456527 L286.719551,274.73981 C286.719551,281.330269 292.07438,286.685463 298.666667,286.685463 Z M704.852272,286.685463 L728.746503,286.685463 C735.336749,286.685463 740.691579,281.330268 740.691579,274.73981 L740.691579,11.9456527 C740.691579,5.35519441 735.33675,0 728.746504,0 L704.852273,0 C698.261007,0 692.906177,5.35519441 692.906177,11.9456527 L692.906177,274.73981 C692.906177,281.330269 698.261006,286.685463 704.852272,286.685463 Z M609.279429,430.027174 L609.279429,645.040762 C609.279429,664.825398 625.343918,680.876699 645.119755,680.876699 C664.895592,680.876699 680.960081,664.826418 680.960081,645.040762 L680.960081,430.027174 C680.960081,410.242538 664.895592,394.191237 645.119755,394.191237 C625.343918,394.191237 609.279429,410.242538 609.279429,430.027174 Z M812.372231,286.685463 L872.106789,286.685463 C878.698054,286.685463 884.052884,281.330268 884.052884,274.73981 L884.052884,11.9456527 C884.052884,5.35519441 878.698055,0 872.106789,0 L812.372231,0 C805.781986,0 800.426135,5.35519441 800.426135,11.9456527 L800.426135,274.73981 C800.426135,281.330269 805.781986,286.685463 812.372231,286.685463 Z M633.17264,274.73981 L633.17264,11.9456527 C633.17264,5.35519441 627.816789,0 621.226544,0 L549.545892,0 C542.954626,0 537.599796,5.35519441 537.599796,11.9456527 L537.599796,274.73981 C537.599796,281.330268 542.954625,286.685463 549.545892,286.685463 L621.226545,286.685463 C627.81679,286.685463 633.17264,281.330269 633.17264,274.73981 Z M456.621388,394.191237 L21.2448711,394.191237 C9.50790876,394.191237 0,403.697981 0,415.433506 L0,850.756713 C0,862.491218 9.50790876,871.998982 21.2448711,871.998982 L456.621388,871.998982 C468.357331,871.998982 477.865238,862.491218 477.865238,850.756713 L477.865238,415.433505 C477.865238,403.69798 468.35733,394.191237 456.621388,394.191237 Z M406.185606,800.328125 L71.6796333,800.328125 L71.6796333,465.862092 L406.185606,465.862092 L406.185606,800.328125 Z M860.159674,585.315558 C840.372615,585.315558 824.319348,601.365839 824.319348,621.151496 L824.319348,800.328125 L645.119755,800.328125 C625.343917,800.328125 609.279429,816.379426 609.279429,836.164062 C609.279429,855.948699 625.343918,872 645.119755,872 L860.159674,872 C879.946733,872 896,855.948699 896,836.164062 L896,621.151496 C896,601.365839 879.945712,585.315558 860.159674,585.315558 Z M23.8932114,286.685463 L83.6257291,286.685463 C90.2180154,286.685463 95.5728447,281.330268 95.5728447,274.73981 L95.5728447,11.9456527 C95.5728447,5.35519441 90.2180144,0 83.6257281,0 L23.8932114,0 C17.301946,0 11.9460958,5.35519441 11.9460958,11.9456527 L11.9460958,274.73981 C11.9460958,281.330269 17.3009252,286.685463 23.8932114,286.685463 Z M860.159674,394.191237 C840.372615,394.191237 824.319348,410.242538 824.319348,430.027174 L824.319348,477.807745 C824.319348,497.592381 840.372615,513.643682 860.159674,513.643682 C879.946733,513.643682 896,497.592381 896,477.807745 L896,430.027174 C896,410.242538 879.945712,394.191237 860.159674,394.191237 Z M191.146707,704.766984 L286.719551,704.766984 C299.915345,704.766984 310.612761,694.057616 310.612761,680.875678 L310.612761,585.314537 C310.612761,572.1326 299.914324,561.423232 286.719551,561.423232 L191.146707,561.423232 C177.950913,561.423232 167.253497,572.1326 167.253497,585.314537 L167.253497,680.875678 C167.253497,694.057617 177.950914,704.766984 191.146707,704.766984 Z M459.946096,286.685463 C469.838605,286.685463 477.865238,281.330268 477.865238,274.73981 L477.865238,11.9456527 C477.865238,5.35519441 469.838605,0 459.946096,0 C450.053586,0 442.026952,5.35519441 442.026952,11.9456527 L442.026952,274.73981 C442.026952,281.330269 450.053585,286.685463 459.946096,286.685463 Z" id="Shape" fill="#333333" fill-rule="nonzero"></path>
    </g>
</svg>