<?xml version="1.0" encoding="UTF-8"?>
<svg width="745px" height="896px" viewBox="0 0 745 896" version="1.1" xmlns="http://www.w3.org/2000/svg" xmlns:xlink="http://www.w3.org/1999/xlink">
    <title>0143全民合伙人</title>
    <g id="0143全民合伙人" stroke="none" stroke-width="1" fill="none" fill-rule="evenodd">
        <path d="M595.341736,224.290288 C686.078915,292.383736 745,400.653937 745,523.028054 C745,729.314002 578.304314,896.458348 372.5,896.458348 C166.695686,896.458348 2.84217094e-14,729.281654 2.84217094e-14,523.028054 C2.84217094e-14,400.686285 58.9210845,292.383736 149.658264,224.290288 L149.658264,224.290288 Z M282.265299,299.053916 L224.047242,299.053916 L332.316782,503.639626 L243.541226,503.639626 L243.541226,548.844792 L347.595531,548.844792 L347.595531,611.148661 L243.540637,611.148661 L243.540637,656.933762 L347.595531,656.933762 L347.595531,747.635682 L399.226843,747.635682 L399.226843,656.933762 L499.593703,656.933762 L499.593703,611.148013 L399.227432,611.148013 L399.227432,548.844792 L499.594292,548.844792 L499.594292,503.639626 L413.453552,503.639626 L522.776899,299.053916 L467.719679,299.053916 L405.814177,424.528641 C389.304315,458.532952 379.206839,481.135535 375.519393,492.337686 L374.465585,492.337686 C363.57466,465.098211 332.843391,400.672231 282.265299,299.053916 Z M522.39271,0.458348169 C542.882792,0.458348169 552.143663,15.5003689 543.011863,33.874278 L543.011863,33.874278 L485.155617,149.843405 L261.668524,149.843405 L203.812279,33.874278 C194.680479,15.4680204 203.94135,0.458348169 224.431432,0.458348169 L224.431432,0.458348169 Z" id="Combined-Shape" fill="#333333" fill-rule="nonzero"></path>
    </g>
</svg>