<?xml version="1.0" encoding="UTF-8"?>
<svg width="738px" height="896px" viewBox="0 0 738 896" version="1.1" xmlns="http://www.w3.org/2000/svg" xmlns:xlink="http://www.w3.org/1999/xlink">
    <title>0185全部订单-会员中心</title>
    <g id="0185全部订单-会员中心" stroke="none" stroke-width="1" fill="none" fill-rule="evenodd">
        <path d="M568.459459,157.92537 C661.157768,157.92537 736.480109,232.328252 737.977286,324.679109 L738,327.483055 L738,726.442315 C738,819.149997 663.604642,894.479956 571.263122,895.977284 L568.459459,896 L169.540541,896 C76.8422321,896 1.51989059,821.597118 0.0227135885,729.246261 L0,726.442315 L0,128.003426 L0.012024841,126.518984 C0.804647958,77.6273533 40.6811817,38.2375924 89.7567568,38.2375924 L89.7567568,38.2375924 L484.448775,38.2375924 C496.077334,38.2375924 507.45399,34.8496555 517.188043,28.4879284 L517.188043,28.4879284 L555.684145,3.32865725 C561.210571,-0.283158814 568.14161,-1.00211841 574.291706,1.39848711 C584.803698,5.50169837 589.999041,17.3496614 585.89583,27.8616531 L585.89583,27.8616531 L573.351906,59.9978554 C564.387662,82.9632966 542.257396,98.0814813 517.604421,98.0814813 L517.604421,98.0814813 L89.7567568,98.0814813 C73.2329941,98.0814813 59.8378378,111.477992 59.8378378,128.003426 C59.8378378,144.528859 73.2329941,157.92537 89.7567568,157.92537 L89.7567568,157.92537 L568.459459,157.92537 Z M438.810811,606.754537 L199.459459,606.754537 C182.935697,606.754537 169.540541,620.151048 169.540541,636.676481 C169.540541,653.201915 182.935697,666.598426 199.459459,666.598426 L438.810811,666.598426 C455.334573,666.598426 468.72973,653.201915 468.72973,636.676481 C468.72973,620.151048 455.334573,606.754537 438.810811,606.754537 Z M538.540541,387.326944 L199.459459,387.326944 C182.935697,387.326944 169.540541,400.723455 169.540541,417.248889 C169.540541,433.774322 182.935697,447.170833 199.459459,447.170833 L538.540541,447.170833 C555.064303,447.170833 568.459459,433.774322 568.459459,417.248889 C568.459459,400.723455 555.064303,387.326944 538.540541,387.326944 Z" id="Combined-Shape" fill="#333333"></path>
    </g>
</svg>