<svg viewBox="0 0 896 784" width="896" height="784" version="1.1" xmlns="http://www.w3.org/2000/svg">
    <path fill="currentColor" d="M631.7323 33.5443c5.8785 6.566 10.8693 13.8755 14.8448 21.741 45.4729 89.9842 68.2094 202.7189 68.2094 338.2042S692.05 641.7094 646.5771 731.6937c-25.0799 49.623-85.6385 69.5195-135.2617 44.4399-7.8655-3.9753-15.175-8.9661-21.7389-14.847l-11.3743-10.1832c-63.1397-56.5284-136.8115-100.0447-216.7954-128.0563l-2.8458-0.9961 1.1603 101.4049c0.1908 16.6792-13.1756 30.355-29.8548 30.5458-9.822 0.1124-19.0851-4.5587-24.8342-12.5232L95.844 590.216l-0.7577-0.0417C41.7388 587.2087 0 543.0852 0 489.6553V297.3236c0-53.4299 41.7388-97.5534 95.0863-100.519l86.1272-4.7878 80.1933-28.085c79.9839-28.0116 153.6557-71.5279 216.7954-128.0563l11.3743-10.1832c41.4226-37.0893 105.0689-33.5728 142.1558 7.852zM740.0351 197.673c8.7948-14.182 27.4141-18.5447 41.5874-9.7444C852.1581 231.7247 896 308.8536 896 393.4895c0 84.8324-44.0466 162.115-114.8472 205.8517-14.1933 8.7679-32.8026 4.3626-41.5651-9.8395s-4.3598-32.8229 9.8335-41.5908c53.1585-32.8383 86.1743-90.7667 86.1743-154.4214 0-63.5076-32.862-121.3201-85.822-154.2034-14.1732-8.8002-18.5333-27.4311-9.7384-41.6131zM181.2135 252.4586c-16.6803 0-30.2023 13.522-30.2023 30.2023v221.6572c0 16.6802 13.522 30.2022 30.2023 30.2022s30.2022-13.522 30.2022-30.2022V282.6609c0-16.6803-13.522-30.2023-30.2022-30.2023z"/>
</svg>

