<?xml version="1.0" encoding="UTF-8"?>
<svg width="565px" height="896px" viewBox="0 0 565 896" version="1.1" xmlns="http://www.w3.org/2000/svg" xmlns:xlink="http://www.w3.org/1999/xlink">
    <title>0124手电筒-关</title>
    <g id="0124手电筒-关" stroke="none" stroke-width="1" fill="none" fill-rule="evenodd">
        <path d="M282.500438,475.76374 C296.648867,475.76374 308.120566,488.365727 308.120566,503.908907 L308.120566,575.178155 C308.120566,590.72221 296.648867,603.323323 282.500438,603.323323 C268.352008,603.323323 256.88031,590.721335 256.88031,575.178155 L256.88031,503.908907 C256.88031,488.365727 268.352008,475.76374 282.500438,475.76374 Z M55.1997864,0 L509.800214,0 C540.23653,0 565,24.7481865 565,55.1880445 L565,148.199548 C565,308.596035 477.327692,405.126997 438.361541,438.723258 L438.361541,840.315049 C438.361541,871.012109 413.474692,896 382.776739,896 L181.082216,896 C150.387764,896 126.638459,871.011234 126.638459,840.315049 L126.638459,438.76175 C87.6723079,405.326459 0,309.555728 0,148.199548 L0,55.1880445 C0,24.7481865 24.7634699,0 55.1997864,0 Z M368.3588,833.279633 L368.3588,754.544549 L196.642075,754.544549 L196.642075,833.279633 L368.3588,833.279633 Z M499.483559,205.148633 L65.4543129,205.148633 C86.3658818,326.65174 178.801877,398.293667 179.850167,399.011031 C190.945602,406.609841 189.442293,416.518213 189.442293,429.610109 L189.442293,711.410846 L375.563832,711.410846 L375.563832,429.611858 C375.563832,416.575079 373.394622,406.710447 384.412179,399.101139 C388.579967,396.159071 478.634993,326.650865 499.483559,205.148633 L499.483559,205.148633 Z M65.3869358,60.363564 L65.3869358,152.263153 L499.613939,152.263153 L499.613939,60.363564 L65.3869358,60.363564 Z" id="Shape" fill="#333333" fill-rule="nonzero"></path>
    </g>
</svg>