<?xml version="1.0" encoding="UTF-8"?>
<svg width="986px" height="896px" viewBox="0 0 986 896" version="1.1" xmlns="http://www.w3.org/2000/svg" xmlns:xlink="http://www.w3.org/1999/xlink">
    <title>0206修改配送时间</title>
    <g id="0206修改配送时间" stroke="none" stroke-width="1" fill="none" fill-rule="evenodd">
        <g id="修改配送时间" fill="#333333" fill-rule="nonzero">
            <path d="M447.58831,0 C657.076614,0 832.950953,144.050871 881.732911,338.588216 L883.557409,346.408081 L913.135225,309.426561 C926.093732,293.213525 948.908509,289.53992 966.143759,300.122411 L970.327402,303.06603 C986.525537,316.036459 990.195768,338.87222 979.622999,356.123324 L976.682085,360.310812 L886.260207,473.442126 C862.232435,503.504467 813.796928,486.49858 813.796928,448 C813.796928,245.562535 649.839747,81.4545455 447.58831,81.4545455 C245.336876,81.4545455 81.3796928,245.562535 81.3796928,448 C81.3796928,650.437464 245.336876,814.545455 447.58831,814.545455 C568.136948,814.545455 678.765445,755.869354 747.002422,659.107819 C759.961552,640.731491 785.350263,636.349647 803.709702,649.320694 C822.06914,662.291737 826.446961,687.703802 813.487835,706.080131 C730.160364,824.240314 594.863938,896 447.58831,896 C200.392112,896 0,695.423568 0,448 C0,200.576432 200.392112,0 447.58831,0 Z M448,228.48 C468.55519,228.48 485.517841,243.861483 488.005849,263.742345 L488.32,268.8 L488.32,431.3792 L566.094605,509.073524 C580.53645,523.499231 581.751928,546.153001 569.732612,561.963611 L566.126476,566.094605 C551.700769,580.53645 529.046999,581.751928 513.236389,569.732612 L509.105395,566.126476 L419.505395,476.626582 C413.196047,470.324284 409.190199,462.147249 408.030176,453.403731 L407.68,448.100106 L407.68,268.8 C407.68,246.531879 425.731879,228.48 448,228.48 Z" id="Path"></path>
        </g>
    </g>
</svg>