<?xml version="1.0" encoding="UTF-8"?>
<svg width="896px" height="851px" viewBox="0 0 896 851" version="1.1" xmlns="http://www.w3.org/2000/svg" xmlns:xlink="http://www.w3.org/1999/xlink">
    <title>0165下滑收起</title>
    <g id="0165下滑收起" stroke="none" stroke-width="1" fill="none" fill-rule="evenodd">
        <path d="M828.815789,716.631579 C865.920604,716.631579 896,746.710975 896,783.815789 C896,820.920604 865.920604,851 828.815789,851 L67.1842105,851 C30.0793956,851 4.54402928e-15,820.920604 0,783.815789 C-4.54402928e-15,746.710975 30.0793956,716.631579 67.1842105,716.631579 L828.815789,716.631579 Z M20.6213101,21.4849717 C47.9082149,-6.87963755 91.705271,-7.34092168 119.146742,21.1843585 L119.146742,21.1843585 L447.976327,363.001166 L776.805911,21.1843585 C803.9331,-7.01422667 847.854199,-7.07739039 875.331343,21.4849717 C902.618248,49.8495809 903.062006,95.3764147 875.620535,123.901695 L875.620535,123.901695 L498.141549,516.289326 C484.663665,530.299523 467.040197,537.36448 449.347612,537.424087 C430.827609,538.138147 412.101592,531.144221 397.811104,516.289326 L397.811104,516.289326 L20.3321186,123.901695 C-6.79507009,95.7031097 -6.85583393,50.0473337 20.6213101,21.4849717 Z" id="形状结合" fill="#333333"></path>
    </g>
</svg>