<?xml version="1.0" encoding="UTF-8"?>
<svg width="896px" height="896px" viewBox="0 0 896 896" version="1.1" xmlns="http://www.w3.org/2000/svg" xmlns:xlink="http://www.w3.org/1999/xlink">
    <title>013关闭</title>
    <g id="013关闭" stroke="none" stroke-width="1" fill="none" fill-rule="evenodd">
        <path d="M13.8369584,13.8369584 C32.2782282,-4.60431154 62.2992564,-4.48248939 80.2069251,13.4251792 L80.2069251,13.4251792 L448,381.219 L815.793075,13.4251792 C833.824787,-4.60653282 863.65722,-4.07756424 881.622302,13.3050553 L882.163042,13.8369584 C900.604312,32.2782282 900.482489,62.2992564 882.574821,80.2069251 L882.574821,80.2069251 L514.781,448 L882.574821,815.793075 C900.606533,833.824787 900.077564,863.65722 882.694945,881.622302 L882.163042,882.163042 C863.721772,900.604312 833.700744,900.482489 815.793075,882.574821 L815.793075,882.574821 L448,514.781 L80.2069251,882.574821 C62.175213,900.606533 32.3427804,900.077564 14.3776979,882.694945 L13.8369584,882.163042 C-4.60431154,863.721772 -4.48248939,833.700744 13.4251792,815.793075 L13.4251792,815.793075 L381.219,448 L13.4251792,80.2069251 C-4.60653282,62.175213 -4.07756424,32.3427804 13.3050553,14.3776979 Z" id="关闭" fill="#333333"></path>
    </g>
</svg>