<?xml version="1.0" encoding="UTF-8"?>
<svg width="846px" height="896px" viewBox="0 0 846 896" version="1.1" xmlns="http://www.w3.org/2000/svg" xmlns:xlink="http://www.w3.org/1999/xlink">
    <title>0172收货</title>
    <g id="0172收货" stroke="none" stroke-width="1" fill="none" fill-rule="evenodd">
        <path d="M391.303815,5.16526119 C399.139749,-0.18750625 409.160869,-1.46778739 418.14473,1.73611162 C433.333003,7.15267905 441.145936,23.5590349 435.595405,38.3807331 L435.595405,38.3807331 L432.140582,47.6014397 C586.889635,53.5043839 710.487561,177.793996 710.487561,330.254714 C710.487561,427.6515 660.046465,513.55148 583.266205,564.434428 L583.266665,564.423812 C701.734487,588.208482 785.766176,642.02997 832.013367,726.395124 C862.778381,782.517209 841.097133,852.351172 783.586983,882.373605 C767.674541,890.680491 750.039731,895.309593 732.041407,895.928511 L727.882113,896 L651.440226,896 C633.65244,896 619.232589,881.928178 619.232589,864.569706 C619.232589,847.83118 632.640843,834.148735 649.547783,833.192768 L651.440226,833.139413 L727.882113,833.139413 C736.715926,833.139413 745.41321,831.011904 753.202521,826.945594 C779.343505,813.29903 789.198615,781.556328 775.214508,756.046274 C723.647647,661.976858 607.591082,613.127357 425.986765,613.127357 C244.680671,613.127357 128.127502,660.898558 71.8398568,754.17388 C66.9788054,762.229221 64.4152746,771.40725 64.4152746,780.75559 C64.4152746,808.925048 87.2001051,831.901249 115.766169,833.091015 L118.09467,833.139413 L189.797425,833.139413 C207.585212,833.139413 222.005063,847.211234 222.005063,864.569706 C222.005063,881.308233 208.596809,894.990678 191.689869,895.946645 L189.797425,896 L118.09467,896 C52.8727936,896 4.54747351e-13,844.403334 4.54747351e-13,780.75559 C4.54747351e-13,760.189253 5.63976461,739.9976 16.3340717,722.275861 C64.8941924,641.805965 146.692541,589.936412 260.208721,565.899081 C182.173559,515.215288 130.75009,428.595358 130.75009,330.254714 C130.75009,230.892566 183.247419,143.495892 262.651451,93.0376795 Z M527.977617,665.51118 C557.623928,665.51118 581.657012,688.964216 581.657012,717.895002 L581.657012,717.895002 L581.657012,843.616177 C581.657012,872.546964 557.623928,896 527.977617,896 L527.977617,896 L313.260035,896 C283.613723,896 259.580639,872.546964 259.580639,843.616177 L259.580639,843.616177 L259.580639,717.895002 C259.580639,688.964216 283.613723,665.51118 313.260035,665.51118 L313.260035,665.51118 Z M517.241738,728.371767 L323.995914,728.371767 L323.995914,833.139413 L517.241738,833.139413 L517.241738,728.371767 Z M420.618826,110.242658 C296.104318,110.242658 195.165365,208.745411 195.165365,330.254714 C195.165365,451.764017 296.104318,550.266769 420.618826,550.266769 C545.133334,550.266769 646.072287,451.764017 646.072287,330.254714 C646.072287,208.745411 545.133334,110.242658 420.618826,110.242658 Z M510.330741,410.776638 C524.068803,416.209286 530.69275,431.481424 525.12574,444.887913 C508.021929,486.07736 466.938385,513.598094 420.618826,513.598094 C374.30931,513.598094 333.232856,486.089263 316.122363,444.913074 C310.551946,431.507933 317.17201,416.234193 330.908691,410.798219 C344.07301,405.588745 358.9959,411.304829 365.119345,423.58856 L365.867285,425.227673 C374.832401,446.802115 396.352772,461.214271 420.618826,461.214271 C444.890117,461.214271 466.414237,446.795856 475.375817,425.214555 C480.942826,411.808066 496.592679,405.343991 510.330741,410.776638 Z" id="Combined-Shape" fill="#222222" fill-rule="nonzero"></path>
    </g>
</svg>