<?xml version="1.0" encoding="UTF-8"?>
<svg width="896px" height="896px" viewBox="0 0 896 896" version="1.1" xmlns="http://www.w3.org/2000/svg" xmlns:xlink="http://www.w3.org/1999/xlink">
    <title>0151面容支付</title>
    <g id="0151面容支付" stroke="none" stroke-width="1" fill="none" fill-rule="evenodd">
        <path d="M20.6060606,624 C31.9864736,624 41.2121212,633.225648 41.2121212,644.606061 L41.2121212,644.606061 L41.2121212,741.288715 C41.2121212,803.970884 92.0477216,854.787879 154.760383,854.787879 L154.760383,854.787879 L251.393939,854.787879 C262.774352,854.787879 272,864.013526 272,875.393939 C272,886.774352 262.774352,896 251.393939,896 L251.393939,896 L154.760383,896 C69.290272,896 -1.66289004e-13,826.735087 -1.61056923e-13,741.288715 L-1.61056923e-13,741.288715 L-1.55136817e-13,644.606061 C-1.54439968e-13,633.225648 9.22564758,624 20.6060606,624 Z M875.393939,624 C886.774352,624 896,633.225648 896,644.606061 L896,644.606061 L896,741.239617 C896,826.709728 826.735087,896 741.288715,896 L741.288715,896 L644.606061,896 C633.225648,896 624,886.774352 624,875.393939 C624,864.013526 633.225648,854.787879 644.606061,854.787879 L644.606061,854.787879 L741.288715,854.787879 C803.970884,854.787879 854.787879,803.952278 854.787879,741.239617 L854.787879,741.239617 L854.787879,644.606061 C854.787879,633.225648 864.013526,624 875.393939,624 Z M251.393939,0 C262.774352,0 272,9.22564758 272,20.6060606 C272,31.9864736 262.774352,41.2121212 251.393939,41.2121212 L251.393939,41.2121212 L154.711285,41.2121212 C92.0291164,41.2121212 41.2121212,92.0477216 41.2121212,154.760383 L41.2121212,154.760383 L41.2121212,251.393939 C41.2121212,262.774352 31.9864736,272 20.6060606,272 C9.22564758,272 0,262.774352 0,251.393939 L0,251.393939 L0,154.760383 C0,69.290272 69.2649126,0 154.711285,0 L154.711285,0 Z M741.239617,-1.73976483e-13 C826.709728,-1.58275878e-13 896,69.2649126 896,154.711285 L896,154.711285 L896,251.393939 C896,262.774352 886.774352,272 875.393939,272 C864.013526,272 854.787879,262.774352 854.787879,251.393939 L854.787879,251.393939 L854.787879,154.711285 C854.787879,92.0291164 803.952278,41.2121212 741.239617,41.2121212 L741.239617,41.2121212 L644.606061,41.2121212 C633.225648,41.2121212 624,31.9864736 624,20.6060606 C624,9.22564758 633.225648,-1.93818327e-13 644.606061,-1.91727779e-13 L644.606061,-1.91727779e-13 Z M412,600 C431.882251,600 448,616.117749 448,636 C448,655.882251 431.882251,672 412,672 L340,672 C320.117749,672 304,655.882251 304,636 C304,616.117749 320.117749,600 340,600 L412,600 Z M473.23191,415 C508.596463,415 541.475862,432.515717 560.271216,461.368117 L560.271216,461.368117 L572.854574,480.684599 C578.886684,489.944379 575.982911,502.160691 566.368814,507.970495 C556.754718,513.780299 544.070962,510.98354 538.038852,501.72376 L538.038852,501.72376 L525.455493,482.407278 C514.178281,465.095838 494.450642,454.586408 473.23191,454.586408 L473.23191,454.586408 L324.55057,454.586408 C313.200804,454.586408 304,445.724689 304,434.793204 C304,423.861719 313.200804,415 324.55057,415 L324.55057,415 Z M412,232.020001 C431.871205,232.020001 447.979999,248.128795 447.979999,268 C447.979999,287.871205 431.871205,303.979999 412,303.979999 L339.959998,303.979999 C320.088793,303.979999 303.979999,287.871205 303.979999,268 C303.979999,248.128795 320.088793,232.020001 339.959998,232.020001 L412,232.020001 Z M641.49328,290.794641 C650.891058,284.991571 663.214725,287.904128 669.01896,297.300018 L669.01896,297.300018 L685.582923,324.113743 C730.950377,397.554531 730.93595,490.315805 685.545656,563.742484 L685.545656,563.742484 L669.015691,590.482571 C663.208534,599.876656 650.883962,602.785381 641.487989,596.979389 C632.092017,591.173398 629.182708,578.851301 634.989865,569.457216 L634.989865,569.457216 L651.51983,542.717129 C688.946915,482.172324 688.95881,405.684958 651.550559,345.128518 L651.550559,345.128518 L634.986596,318.314793 C629.182361,308.918903 632.095502,296.597711 641.49328,290.794641 Z" id="Rectangle-5" fill="#333333" fill-rule="nonzero" transform="translate(448.000000, 448.000000) rotate(-270.000000) translate(-448.000000, -448.000000) "></path>
    </g>
</svg>