<?xml version="1.0" encoding="UTF-8"?>
<svg width="672px" height="896px" viewBox="0 0 672 896" version="1.1" xmlns="http://www.w3.org/2000/svg" xmlns:xlink="http://www.w3.org/1999/xlink">
    <title>0260右箭头到底</title>
    <g id="0260右箭头到底" stroke="none" stroke-width="1" fill="none" fill-rule="evenodd">
        <path d="M83.5150019,14.5788643 L405.100311,342.356148 C462.299896,400.655315 462.299896,495.196118 405.100311,553.505238 L83.5052356,881.272569 C71.1860385,893.935372 53.1612167,898.91265 36.2552181,894.319936 C19.3492196,889.727223 6.14612963,876.266515 1.64482158,859.034224 C-2.85648647,841.801934 2.03201323,823.432019 14.4594668,810.879585 L336.044776,483.122208 C345.204981,473.788372 350.351335,461.127495 350.351335,447.925717 C350.351335,434.723938 345.204981,422.063062 336.044776,412.729225 L14.4497004,84.9718484 C-4.62215592,65.5333626 -4.62215592,34.0173501 14.4497004,14.5788643 C33.5215568,-4.85962145 64.4431455,-4.85962145 83.5150019,14.5788643 L83.5150019,14.5788643 Z M627.2,22.4 C651.942357,22.4 672,42.4576432 672,67.2 L672,828.8 C672,853.542357 651.942357,873.6 627.2,873.6 C602.457643,873.6 582.4,853.542357 582.4,828.8 L582.4,67.2 C582.4,42.4576432 602.457643,22.4 627.2,22.4 Z" id="路径-2" fill="#000000" fill-rule="nonzero" transform="translate(336.000000, 448.000000) scale(-1, 1) translate(-336.000000, -448.000000) "></path>
    </g>
</svg>