<?xml version="1.0" encoding="UTF-8"?>
<svg width="840px" height="896px" viewBox="0 0 840 896" version="1.1" xmlns="http://www.w3.org/2000/svg" xmlns:xlink="http://www.w3.org/1999/xlink">
    <title>0101彩食鲜-订单</title>
    <g id="0101彩食鲜-订单" stroke="none" stroke-width="1" fill="none" fill-rule="evenodd">
        <path d="M728.102241,27.4042553 L672.185892,27.4042553 C656.719668,27.4042553 638.874025,36.9361702 638.874025,52.4255319 C638.874025,67.9148936 656.719668,83.4042553 672.185892,83.4042553 L728.102241,83.4042553 C761.414108,83.4042553 784.018589,106.042553 784.018589,139.404255 L784.018589,784 C784.018589,817.361702 761.414108,840 728.102241,840 L126.109212,840 C92.7973444,840 55.9163485,817.361702 55.9163485,784 L55.9163485,139.404255 C55.9163485,106.042553 78.5208299,83.4042553 111.832697,83.4042553 L182.02556,83.4042553 C197.491784,83.4042553 203.440332,67.9148936 203.440332,52.4255319 C203.440332,36.9361702 197.491784,27.4042553 182.02556,27.4042553 L111.832697,27.4042553 C33.3118672,27.4042553 0,76.2553191 0,140.595745 L0,778.042553 C0,847.148936 41.639834,896 117.781245,896 L722.153693,896 C798.295104,896 839.934938,855.489362 839.934938,778.042553 L839.934938,140.595745 C839.934938,76.2553191 800.674523,27.4042553 728.102241,27.4042553 Z M182.02556,280 C182.02556,295.489362 195.112365,308.595745 210.578589,308.595745 L630.546058,308.595745 C646.012282,308.595745 659.099087,295.489362 659.099087,280 C659.099087,264.510638 646.012282,251.404255 630.546058,251.404255 L210.578589,251.404255 C195.112365,251.404255 182.02556,264.510638 182.02556,280 Z M629.356349,406.297872 L210.578589,406.297872 C195.112365,406.297872 182.02556,419.404255 182.02556,434.893617 C182.02556,450.382979 195.112365,463.489362 210.578589,463.489362 L630.546058,463.489362 C646.012282,463.489362 659.099087,450.382979 659.099087,434.893617 C657.909378,418.212766 644.822573,406.297872 629.356349,406.297872 Z M629.356349,574.297872 L210.578589,574.297872 C195.112365,574.297872 182.02556,587.404255 182.02556,602.893617 C182.02556,618.382979 195.112365,631.489362 210.578589,631.489362 L630.546058,631.489362 C646.012282,631.489362 659.099087,618.382979 659.099087,602.893617 C657.909378,586.212766 644.822573,574.297872 629.356349,574.297872 Z M323.600996,97.7021277 L518.713361,97.7021277 C541.317842,97.7021277 560.353195,75.0638298 560.353195,48.8510638 C560.353195,22.6382979 541.317842,1.98422838e-14 517.523651,1.98422838e-14 L323.600996,0 C299.806805,0 280.771452,22.6382979 280.771452,48.8510638 C280.771452,75.0638298 299.806805,97.7021277 323.600996,97.7021277 Z" id="Shape" fill="#333333"></path>
    </g>
</svg>