<?xml version="1.0" encoding="UTF-8"?>
<svg width="896px" height="896px" viewBox="0 0 896 896" version="1.1" xmlns="http://www.w3.org/2000/svg" xmlns:xlink="http://www.w3.org/1999/xlink">
    <title>017加号</title>
    <g id="017加号" stroke="none" stroke-width="1" fill="none" fill-rule="evenodd">
        <path d="M448,0 C478.927946,1.18616356e-12 504,25.072054 504,56 L504,56 L504,391.999 L840,392 C870.927946,392 896,417.072054 896,448 C896,478.927946 870.927946,504 840,504 L503.999,503.999 L504,840 C504,870.618667 479.42688,895.497973 448.926062,895.992498 L448,896 C417.072054,896 392,870.927946 392,840 L392,840 L391.999,504 L56,504 C25.072054,504 1.13686838e-12,478.927946 0,448 C-1.25055521e-12,417.072054 25.072054,392 56,392 L392,392 L392,56 C392,25.3813335 416.57312,0.502026669 447.073938,0.00750240004 Z" id="形状结合" fill="#222222" fill-rule="nonzero"></path>
    </g>
</svg>