<?xml version="1.0" encoding="UTF-8"?>
<svg width="751px" height="896px" viewBox="0 0 751 896" version="1.1" xmlns="http://www.w3.org/2000/svg" xmlns:xlink="http://www.w3.org/1999/xlink">
    <title>0168火</title>
    <g id="0168火" stroke="none" stroke-width="1" fill="none" fill-rule="evenodd">
        <path d="M497.693609,175.432218 C526.205059,228.374483 542.388889,288.938072 542.388889,353.28157 C542.388889,363.094081 542.012504,372.818683 541.268583,382.439465 C569.692227,363.037726 594.752976,339.072671 615.396149,311.598972 C619.19618,306.541565 623.682234,299.85088 628.854312,291.526916 L628.85384,291.526623 C634.934883,281.740981 647.797373,278.737811 657.583014,284.818854 C659.395489,285.945172 661.024419,287.342917 662.412946,288.963303 C670.113662,297.952897 676.155575,305.492563 680.537487,311.58333 C724.882748,373.222321 751,448.861059 751,530.599765 C751,708.082489 627.864256,856.805522 462.3622,896 L470.650018,776.889167 C472.249788,753.902382 454.912057,733.97105 431.92511,732.371291 C418.374417,731.428241 405.212904,737.140759 396.647269,747.683006 L278.265487,893.385926 C118.017127,850.544961 0,704.354454 0,530.599765 C0,412.354726 54.6559973,306.875189 140.082865,238.046114 L139.299305,238.697447 C202.596179,186.492238 248.000837,113.37163 264.934584,29.9133631 C265.525051,27.0032349 266.190894,23.1517043 266.932112,18.3587715 L267.03377,17.6993724 C268.780433,6.31135061 279.428198,-1.50451512 290.81622,0.242147705 C292.29387,0.468785416 293.742877,0.853601204 295.138272,1.38996379 C322.830449,12.0399306 343.752722,21.5529585 357.904426,29.930776 C415.092646,63.7862382 462.522414,112.379189 494.96552,170.479918 L497.693609,175.432218 L497.693609,175.432218 Z" id="形状结合" fill="#222222"></path>
    </g>
</svg>