<?xml version="1.0" encoding="UTF-8"?>
<svg width="899px" height="840px" viewBox="0 0 899 840" version="1.1" xmlns="http://www.w3.org/2000/svg" xmlns:xlink="http://www.w3.org/1999/xlink">
    <title>0188展开全部-下</title>
    <g id="0188展开全部-下" stroke="none" stroke-width="1" fill="none" fill-rule="evenodd">
        <path d="M390.702749,767.867036 L392.718271,767.92413 C411.396828,768.985142 426.221181,784.701411 426.221181,803.933518 C426.221181,823.852486 410.319037,840 390.702749,840 L390.702749,840 L35.5184317,840 L33.5029093,839.942906 C14.8243526,838.881894 1.53477231e-12,823.165625 1.53477231e-12,803.933518 C1.53477231e-12,784.01455 15.9021435,767.867036 35.5184317,767.867036 L35.5184317,767.867036 L390.702749,767.867036 Z M839.097878,627.12381 C853.263374,614.81244 874.897459,615.325414 888.440572,628.662732 C902.525409,642.533542 902.525409,665.022569 888.440572,678.893379 L888.440572,678.893379 L758.466594,806.892331 L756.236541,809.009145 C723.840768,838.644551 673.172735,837.938946 641.64707,806.892331 L641.64707,806.892331 L511.673091,678.893379 L510.110424,677.255635 C497.609089,663.305393 498.129978,642.000049 511.673091,628.662732 C525.757929,614.791921 548.593962,614.791921 562.678799,628.662732 L562.678799,628.662732 L692.652778,756.661683 L693.725054,757.584539 C697.829249,760.660726 703.712502,760.353108 707.460886,756.661683 L707.460886,756.661683 L837.434864,628.662732 Z M860.462652,383.933518 L862.478175,383.990612 C881.156731,385.051624 895.981084,400.767893 895.981084,420 C895.981084,439.918968 880.078941,456.066482 860.462652,456.066482 L860.462652,456.066482 L35.5184317,456.066482 L33.5029093,456.009388 C14.8243526,454.948376 0,439.232107 0,420 C0,400.081032 15.9021435,383.933518 35.5184317,383.933518 L35.5184317,383.933518 L860.462652,383.933518 Z M860.462652,0 L862.478175,0.0570936758 C881.156731,1.11810614 895.981084,16.834375 895.981084,36.066482 C895.981084,55.98545 880.078941,72.132964 860.462652,72.132964 L860.462652,72.132964 L35.5184317,72.132964 L33.5029093,72.0758703 C14.8243526,71.0148578 0,55.298589 0,36.066482 C0,16.147514 15.9021435,0 35.5184317,0 L35.5184317,0 L860.462652,0 Z" id="Combined-Shape" fill="#333333" fill-rule="nonzero"></path>
    </g>
</svg>