<?xml version="1.0" encoding="UTF-8"?>
<svg width="896px" height="774px" viewBox="0 0 896 774" version="1.1" xmlns="http://www.w3.org/2000/svg" xmlns:xlink="http://www.w3.org/1999/xlink">
    <title>068md-闭眼</title>
    <g id="068md-闭眼" stroke="none" stroke-width="1" fill="none" fill-rule="evenodd">
        <path d="M448.203729,162.983174 C560.662119,162.983174 651.932697,254.253752 651.932697,366.712142 C651.932697,393.196908 646.635744,418.051842 637.264211,441.276944 L756.241928,560.254661 C817.768076,508.914961 866.255571,442.499318 896,366.712142 C825.509777,187.838108 651.525239,61.1186903 447.796271,61.1186903 C390.75216,61.1186903 336.152797,71.3051387 285.628013,89.6407458 L373.638927,177.65166 C396.864029,168.280127 421.718963,162.983174 448.203729,162.983174 L448.203729,162.983174 Z M40.7457935,51.7471578 L133.646203,144.647567 L152.389268,163.390632 C84.7512506,215.952706 31.781719,286.035471 5.68434189e-14,366.712142 C70.4902228,545.586176 244.474761,672.305593 448.203729,672.305593 C511.359709,672.305593 571.663483,660.081855 626.670305,638.079127 L643.783538,655.19236 L763.168713,774.170077 L814.915871,722.42292 L92.4929513,0 L40.7457935,51.7471578 L40.7457935,51.7471578 Z M266.070032,277.071396 L329.226012,340.227376 C327.188722,348.783993 325.966348,357.748067 325.966348,366.712142 C325.966348,434.350159 380.565712,488.949523 448.203729,488.949523 C457.167804,488.949523 466.131878,487.727149 474.688495,485.689859 L537.844475,548.845839 C510.544793,562.291951 480.392906,570.44111 448.203729,570.44111 C335.745339,570.44111 244.474761,479.170532 244.474761,366.712142 C244.474761,334.522965 252.62392,304.371078 266.070032,277.071396 L266.070032,277.071396 Z M441.684402,245.289677 L570.033652,373.638927 L570.848568,367.1196 C570.848568,299.481583 516.249204,244.882219 448.611187,244.882219 L441.684402,245.289677 L441.684402,245.289677 Z" id="md-close-eye" fill="#333333"></path>
    </g>
</svg>