<?xml version="1.0" encoding="UTF-8"?>
<svg width="896px" height="896px" viewBox="0 0 896 896" version="1.1" xmlns="http://www.w3.org/2000/svg" xmlns:xlink="http://www.w3.org/1999/xlink">
    <title>029提示</title>
    <g id="029提示" stroke="none" stroke-width="1" fill="none" fill-rule="evenodd">
        <path d="M448,0 C695.423568,0 896,200.576432 896,448 C896,695.423568 695.423568,896 448,896 C200.576432,896 0,695.423568 0,448 C0,200.576432 200.576432,0 448,0 Z M448,40.7272727 C223.069484,40.7272727 40.7272727,223.069484 40.7272727,448 C40.7272727,672.930516 223.069484,855.272727 448,855.272727 C672.930516,855.272727 855.272727,672.930516 855.272727,448 C855.272727,223.069484 672.930516,40.7272727 448,40.7272727 Z M488.727273,346.181818 L488.727273,672 L529.454545,672 L529.454545,692.363636 L366.545455,692.363636 L366.545455,672 L407.272727,672 L407.272727,366.545455 L366.545455,366.545455 L366.545455,346.181818 L488.727273,346.181818 Z M437.818182,183.272727 C465.934496,183.272727 488.727273,206.065504 488.727273,234.181818 C488.727273,262.298133 465.934496,285.090909 437.818182,285.090909 C409.701867,285.090909 386.909091,262.298133 386.909091,234.181818 C386.909091,206.065504 409.701867,183.272727 437.818182,183.272727 Z" id="Detail-Disclosure" fill="#333333"></path>
    </g>
</svg>