<?xml version="1.0" encoding="UTF-8"?>
<svg width="896px" height="702px" viewBox="0 0 896 702" version="1.1" xmlns="http://www.w3.org/2000/svg" xmlns:xlink="http://www.w3.org/1999/xlink">
    <title>0138星球</title>
    <g id="0138星球" stroke="none" stroke-width="1" fill="none" fill-rule="evenodd">
        <path d="M456.766663,0 C551.145016,0 636.819517,37.282355 699.878397,97.9290519 L699.884893,97.6545736 C750.016736,99.8438865 792.583101,107.773126 824.955997,121.323361 C861.263449,136.520471 885.334078,159.060685 893.269368,188.675588 C900.664173,216.273378 892.823858,245.647034 872.382831,274.866558 C857.364998,296.333873 835.391516,317.966639 807.412035,339.173902 C807.54367,343.099623 807.609147,347.042161 807.609147,351 C807.609147,544.851947 650.531617,702 456.766663,702 C321.752226,702 204.550383,625.70098 145.890321,513.850412 C113.814869,509.348096 86.1805954,501.887591 63.9170912,491.4943 C31.6048805,476.409963 10.12814,454.891789 2.73333456,427.293999 C-5.41126977,396.897922 4.87701482,364.496137 30.1032222,332.371301 C50.4215819,306.496465 80.6898766,280.447153 119.103202,255.382505 C160.7144,108.001034 296.133695,0 456.766663,0 Z M762.093064,369.95931 L760.928794,370.667743 C689.784574,414.121426 596.394634,452.755841 494.134578,480.156341 C388.736005,508.397803 285.530906,521.592585 200.714316,518.500619 C255.346765,601.933768 349.62409,657.041171 456.766663,657.041171 C619.348487,657.041171 752.306701,530.150471 762.093064,369.95931 Z M489.507681,538.221409 C508.121881,538.221409 523.211671,553.317974 523.211671,571.940531 C523.211671,590.563087 508.121881,605.659652 489.507681,605.659652 C470.893482,605.659652 455.803691,590.563087 455.803691,571.940531 C455.803691,553.317974 470.893482,538.221409 489.507681,538.221409 Z M456.766663,44.9588289 C287.820642,44.9588289 150.862831,181.978128 150.862831,351 C150.862831,393.965004 159.712575,434.862112 175.687896,471.966382 C176.71765,472.051395 177.747329,472.136667 178.782439,472.21915 C262.480493,478.888657 370.971382,466.613015 482.498377,436.729447 C592.720247,407.195586 691.774835,364.250352 760.828621,317.276769 C744.053351,164.121265 614.319701,44.9588289 456.766663,44.9588289 Z M107.349203,319.149055 L107.31811,319.18536 C60.9779105,356.275976 39.5638825,391.117852 46.1407402,415.66302 C51.7696881,436.670539 79.1317608,454.199276 124.645245,464.391835 C112.505852,428.823845 105.924178,390.680884 105.924178,351 C105.924178,340.263611 106.406004,329.639808 107.349203,319.149055 Z M319.06179,328.84172 C338.916936,328.84172 355.012712,344.944723 355.012712,364.808783 C355.012712,384.672844 338.916936,400.775846 319.06179,400.775846 C299.206644,400.775846 283.110867,384.672844 283.110867,364.808783 C283.110867,344.944723 299.206644,328.84172 319.06179,328.84172 Z M505.878191,202.413541 C529.224352,202.413541 548.150155,221.347841 548.150155,244.704483 C548.150155,268.061126 529.224352,286.995425 505.878191,286.995425 C482.53203,286.995425 463.606227,268.061126 463.606227,244.704483 C463.606227,221.347841 482.53203,202.413541 505.878191,202.413541 Z M741.839562,146.365615 L743.076091,148.085836 C771.769134,188.534345 792.113281,235.326637 801.59547,285.948521 C839.20238,252.73569 855.739088,222.240299 849.861962,200.306567 C843.054295,174.900009 804.66629,154.83605 741.839562,146.365615 Z" id="Combined-Shape" fill="#333333" fill-rule="nonzero"></path>
    </g>
</svg>