<?xml version="1.0" encoding="UTF-8"?>
<svg width="896px" height="754px" viewBox="0 0 896 754" version="1.1" xmlns="http://www.w3.org/2000/svg" xmlns:xlink="http://www.w3.org/1999/xlink">
    <title>0212卡</title>
    <g id="0212卡" stroke="none" stroke-width="1" fill="none" fill-rule="evenodd">
        <g id="card" fill="#222222" fill-rule="nonzero">
            <path d="M743.272727,0 C827.62167,0 896,68.3783296 896,152.727273 L896,152.727273 L896,600.727273 C896,685.076216 827.62167,753.454545 743.272727,753.454545 L743.272727,753.454545 L152.727273,753.454545 C68.3783296,753.454545 0,685.076216 0,600.727273 L0,600.727273 L0,152.727273 C0,68.3783296 68.3783296,0 152.727273,0 L152.727273,0 L743.272727,0 Z M834.909091,274.909091 L61.0909091,274.909091 L61.0909091,600.727273 C61.0909091,650.4329 100.665739,690.895331 150.025402,692.324568 L152.727273,692.363636 L743.272727,692.363636 C793.882093,692.363636 834.909091,651.336638 834.909091,600.727273 L834.909091,600.727273 L834.909091,274.909091 Z M641.454545,560 C652.701071,560 661.818182,569.117111 661.818182,580.363636 L661.818182,621.090909 C661.818182,632.337435 652.701071,641.454545 641.454545,641.454545 L600.727273,641.454545 C589.480747,641.454545 580.363636,632.337435 580.363636,621.090909 L580.363636,580.363636 C580.363636,569.117111 589.480747,560 600.727273,560 L641.454545,560 Z M519.272727,560 C530.519253,560 539.636364,569.117111 539.636364,580.363636 L539.636364,621.090909 C539.636364,632.337435 530.519253,641.454545 519.272727,641.454545 L478.545455,641.454545 C467.298929,641.454545 458.181818,632.337435 458.181818,621.090909 L458.181818,580.363636 C458.181818,569.117111 467.298929,560 478.545455,560 L519.272727,560 Z M763.636364,560 C774.882889,560 784,569.117111 784,580.363636 L784,621.090909 C784,632.337435 774.882889,641.454545 763.636364,641.454545 L722.909091,641.454545 C711.662565,641.454545 702.545455,632.337435 702.545455,621.090909 L702.545455,580.363636 C702.545455,569.117111 711.662565,560 722.909091,560 L763.636364,560 Z M743.272727,61.0909091 L152.727273,61.0909091 C102.117907,61.0909091 61.0909091,102.117907 61.0909091,152.727273 L61.0909091,152.727273 L61.0909091,213.818182 L834.909091,213.818182 L834.909091,152.727273 C834.909091,103.021645 795.334261,62.5592148 745.974598,61.1299777 L743.272727,61.0909091 Z" id="Combined-Shape"></path>
        </g>
    </g>
</svg>