<?xml version="1.0" encoding="UTF-8"?>
<svg width="846px" height="896px" viewBox="0 0 846 896" version="1.1" xmlns="http://www.w3.org/2000/svg" xmlns:xlink="http://www.w3.org/1999/xlink">
    <title>0170配送到家</title>
    <g id="0170配送到家" stroke="none" stroke-width="1" fill="none" fill-rule="evenodd">
        <path d="M345.726976,4.96181343 C353.382301,-0.271455938 363.098326,-1.44351169 371.773235,1.81982197 C386.498697,7.3592567 393.957224,23.8186014 388.432322,38.5827972 L388.432322,38.5827972 L386.204635,44.5174809 C397.586148,43.5978103 409.08548,43.129437 420.683637,43.129437 C655.579378,43.129437 846,234.050951 846,469.564573 C846,704.758396 656.096165,895.481129 421.640274,895.998654 C421.435071,895.997142 421.230452,895.999567 421.025366,896 L309.484982,895.99971 C159.846182,895.99971 38.2566409,775.590658 35.8398139,626.135704 L35.8031484,621.59797 L35.8031326,439.937437 L31.0710307,439.938208 C15.2180928,439.938208 2.13850629,428.032844 0.241025764,412.652991 C-0.111352075,409.842077 -0.0843740858,406.935251 0.368331764,403.995818 C19.5831708,279.23326 92.1361523,173.517753 192.985053,109.365678 Z M420.683637,105.426048 C253.333233,105.426048 110.05161,219.654478 69.1544244,377.640735 L314.228829,377.641596 C387.216723,377.641596 446.385101,436.965615 446.385101,510.1455 C446.385101,544.03264 433.438315,576.581421 410.291168,601.143942 L407.677425,603.839908 L349.725467,661.944306 C310.536353,701.236506 310.536353,764.941749 349.725467,804.233949 C368.637291,823.195519 393.725985,833.503522 419.917701,833.700512 L420.692,833.703 L426.689535,833.654314 C624.499967,830.438683 783.866827,668.661646 783.866827,469.564573 C783.866827,268.456419 621.264174,105.426048 420.683637,105.426048 Z M97.9361326,439.937437 L97.9363214,621.59797 C97.9363214,732.953218 183.52279,824.266094 292.339718,833.016562 C243.46569,770.079998 247.069575,679.458714 303.147303,620.605445 L305.790679,617.89395 L363.742637,559.789552 C376.874516,546.623131 384.251928,528.765631 384.251928,510.1455 C384.251928,472.196071 354.221387,441.2791 316.687123,439.980664 L314.228829,439.938208 L97.9361326,439.937437 Z M562.209198,555.098809 C610.005375,555.098809 648.751832,593.947187 648.751832,641.869089 C648.751832,689.790992 610.005375,728.639369 562.209198,728.639369 C514.413021,728.639369 475.666564,689.790992 475.666564,641.869089 C475.666564,593.947187 514.413021,555.098809 562.209198,555.098809 Z M562.209198,607.012652 C543.009024,607.012652 527.444208,622.618411 527.444208,641.869089 C527.444208,661.119768 543.009024,676.725527 562.209198,676.725527 C581.409371,676.725527 596.974187,661.119768 596.974187,641.869089 C596.974187,622.618411 581.409371,607.012652 562.209198,607.012652 Z" id="Combined-Shape" fill="#222222" fill-rule="nonzero"></path>
    </g>
</svg>