<?xml version="1.0" encoding="UTF-8"?>
<svg width="896px" height="896px" viewBox="0 0 896 896" version="1.1" xmlns="http://www.w3.org/2000/svg" xmlns:xlink="http://www.w3.org/1999/xlink">
    <title>08点击进详情</title>
    <g id="08点击进详情" stroke="none" stroke-width="1" fill="none" fill-rule="evenodd">
        <path d="M448,0 C695.423568,0 896,200.576432 896,448 C896,695.423568 695.423568,896 448,896 C200.576432,896 0,695.423568 0,448 C0,200.576432 200.576432,0 448,0 Z M433.908079,240.389209 C412.766894,219.20441 380.228848,219.583701 359.926533,239.9279 C339.482673,260.413935 339.830327,293.463097 360.386892,314.06207 L360.386892,314.06207 L494.715375,448.667673 L360.386892,583.273276 C339.245707,604.458075 339.624217,637.063247 359.926533,657.407446 C380.370392,677.893481 413.351514,677.545109 433.908079,656.946137 L433.908079,656.946137 L604.997155,485.504103 C615.143008,475.33732 620.168065,462.076332 620.307692,448.292582 C620.243201,435.04868 615.074631,421.929508 604.536796,411.369933 L604.536796,411.369933 Z" id="点击进详情" fill="#333333" fill-rule="nonzero"></path>
    </g>
</svg>