<?xml version="1.0" encoding="UTF-8"?>
<svg width="733px" height="896px" viewBox="0 0 733 896" version="1.1" xmlns="http://www.w3.org/2000/svg" xmlns:xlink="http://www.w3.org/1999/xlink">
    <title>09新分享-面</title>
    <g id="09新分享-面" stroke="none" stroke-width="1" fill="none" fill-rule="evenodd">
        <path d="M366.5,0 C568.912361,0 733,164.10799 733,366.545455 C733,476.944798 676.18692,603.54815 586.196615,719.581692 C507.609831,820.911528 417.420998,896 366.5,896 C315.579002,896 225.390169,820.911528 146.803385,719.581692 C56.8130795,603.54815 0,476.944798 0,366.545455 C0,164.10799 164.087639,0 366.5,0 Z M366.5,244.363636 C299.029213,244.363636 244.333333,299.0663 244.333333,366.545455 C244.333333,434.024609 299.029213,488.727273 366.5,488.727273 C433.970787,488.727273 488.666667,434.024609 488.666667,366.545455 C488.666667,299.0663 433.970787,244.363636 366.5,244.363636 Z" id="形状结合" fill="#222222" fill-rule="nonzero"></path>
    </g>
</svg>