<?xml version="1.0" encoding="UTF-8"?>
<svg width="896px" height="896px" viewBox="0 0 896 896" version="1.1" xmlns="http://www.w3.org/2000/svg" xmlns:xlink="http://www.w3.org/1999/xlink">
    <title>0108勾</title>
    <g id="0108勾" stroke="none" stroke-width="1" fill="none" fill-rule="evenodd">
        <path d="M448,0 C695.423568,0 896,200.576432 896,448 C896,695.423568 695.423568,896 448,896 C200.576432,896 0,695.423568 0,448 C0,200.576432 200.576432,0 448,0 Z M448,61.0909091 C234.31601,61.0909091 61.0909091,234.31601 61.0909091,448 C61.0909091,661.68399 234.31601,834.909091 448,834.909091 C661.68399,834.909091 834.909091,661.68399 834.909091,448 C834.909091,234.31601 661.68399,61.0909091 448,61.0909091 Z M663.98898,304.730946 C675.491696,316.233661 675.902507,334.628003 665.221414,346.622977 L663.98898,347.928742 L448,563.917722 C420.746138,591.171584 376.911676,591.739373 348.966956,565.621089 L347.205142,563.917722 L232.01102,448.7236 C220.082278,436.794858 220.082278,417.454545 232.01102,405.525803 C243.513735,394.023088 261.908076,393.612277 273.903051,404.29337 L275.208816,405.525803 L390.402939,520.719926 C394.095168,524.412156 399.917594,524.675887 403.914137,521.511118 L404.802204,520.719926 L620.791184,304.730946 C632.719926,292.802204 652.060238,292.802204 663.98898,304.730946 Z" id="Combined-Shape" fill="#333333" fill-rule="nonzero"></path>
    </g>
</svg>