<?xml version="1.0" encoding="UTF-8"?>
<svg width="896px" height="896px" viewBox="0 0 896 896" version="1.1" xmlns="http://www.w3.org/2000/svg" xmlns:xlink="http://www.w3.org/1999/xlink">
    <title>097md-余额</title>
    <g id="097md-余额" stroke="none" stroke-width="1" fill="none" fill-rule="evenodd">
        <path d="M448,0 C695.423568,0 896,200.576432 896,448 C896,695.423568 695.423568,896 448,896 C200.576432,896 0,695.423568 0,448 C0,200.576432 200.576432,0 448,0 Z M513.580615,315.747844 L379.137406,315.747844 C373.984657,322.533507 367.997308,329.682039 361.211645,337.229728 C355.65974,344.015391 348.692642,351.490505 340.310353,359.655073 C331.928064,367.81964 322.566027,376.492225 312.224241,385.63654 C300.28583,396.014613 289.218305,407.771589 279.057955,420.907471 C268.897604,434.043353 260.442741,448.485565 253.657079,464.234108 C246.871416,479.946364 242.190397,496.783517 239.614023,514.709278 C237.037648,532.635039 237.545666,551.359113 241.138075,570.881501 C244.295041,588.408105 250.899269,606.007284 260.841898,623.75161 C270.820813,641.495936 284.246991,657.534775 301.193004,671.868127 C318.10273,686.201478 338.713727,697.849594 363.025994,706.812475 C387.301974,715.775355 415.20665,720.274939 446.66745,720.274939 C477.329936,720.274939 504.726595,716.392234 528.784854,708.626823 C552.879399,700.825125 573.708117,690.374479 591.234722,677.238598 C608.761326,664.102716 622.804382,648.680756 633.363889,630.936429 C643.923396,613.22839 650.999354,594.395455 654.591764,574.47391 C658.58333,550.161643 659.055061,528.135455 656.07953,508.431633 C653.103998,488.691523 647.842388,471.27378 640.258413,456.142115 C632.674437,441.01045 623.820417,427.765708 613.660067,416.407887 C603.499716,405.050067 593.629661,395.216299 584.086189,386.83401 C572.510647,377.290538 562.386584,368.218797 553.605138,359.655073 C544.859979,351.091349 537.493725,343.434799 531.506376,336.649136 C524.321557,329.101448 518.370494,322.13435 513.580615,315.747844 Z M472.939213,177.131635 C468.149334,179.091131 463.395741,182.284384 458.605862,186.675107 C454.650582,190.666673 451.457329,193.460769 449.06239,195.057396 C447.86492,195.855709 446.885172,196.254866 446.086858,196.254866 C443.691919,195.057396 441.478414,193.642204 439.482631,192.045578 C437.523134,190.848108 435.599925,189.578064 433.821864,188.162872 C432.043803,186.783968 430.338315,185.07848 428.741689,183.082697 C425.548436,179.889444 420.794843,177.7848 414.408337,176.805052 C408.021831,175.825304 402.252204,176.913913 397.063168,180.107166 C390.313792,184.497889 385.523912,188.162872 382.729816,191.138404 C379.93572,194.113935 375.762719,196.218579 370.174526,197.416049 C366.981273,198.214362 363.497724,198.032927 359.72388,196.835457 C355.950035,195.637987 352.06733,194.440517 348.075764,193.243048 C344.084197,192.045578 340.310353,191.247264 336.717943,190.848108 C333.125534,190.448951 329.968568,191.247264 327.174471,193.243048 C321.586279,197.63377 319.808217,202.89538 321.767714,209.100452 C323.763497,215.269236 327.355906,220.131689 332.544942,223.724099 C337.334822,227.316508 342.197275,231.380649 347.16859,235.989093 C352.176191,240.561251 356.639488,245.822861 360.631054,251.81021 C362.626837,255.003463 365.021777,258.595873 367.779586,262.587439 C370.573683,266.542719 373.150057,270.534285 375.544997,274.525851 C378.339093,278.916574 381.13319,283.488732 383.927286,288.242324 L507.629552,288.242324 C510.423649,284.287045 513.000023,280.077757 515.394963,275.723321 C517.390746,272.130911 519.567964,268.538502 521.926617,264.873518 C524.321557,261.317395 526.498775,258.124142 528.494558,255.330046 C532.449837,249.77814 536.441403,244.480243 540.43297,239.508929 C544.424536,234.537615 550.194163,229.675161 557.778139,224.885282 C560.971392,222.889499 563.656628,220.313124 565.833846,217.119871 C568.011064,213.962905 569.426255,210.769652 570.006847,207.576399 C570.587438,204.383146 570.188282,201.298754 568.809377,198.323223 C567.430472,195.347692 564.745237,193.061613 560.75367,191.464986 C557.161261,190.267516 554.076869,189.86836 551.500494,190.267516 C548.92412,190.666673 546.311458,191.392412 543.735083,192.37216 C541.158709,193.388195 538.473473,194.476804 535.679377,195.674274 C532.885281,196.871744 529.510593,197.452336 525.519027,197.452336 C521.52746,197.452336 518.225346,196.726596 515.648972,195.347692 C513.03631,193.968787 510.641371,192.263299 508.464153,190.267516 C506.286935,188.271733 504.000856,186.167089 501.605916,183.989871 C499.247263,181.812653 496.05401,180.107166 492.062444,178.909696 C484.079312,175.75273 477.729093,175.172139 472.939213,177.131635 Z" id="Combined-Shape" fill="#333333"></path>
    </g>
</svg>