<?xml version="1.0" encoding="UTF-8"?>
<svg width="791px" height="896px" viewBox="0 0 791 896" version="1.1" xmlns="http://www.w3.org/2000/svg" xmlns:xlink="http://www.w3.org/1999/xlink">
    <title>0128新左箭头</title>
    <g id="0128新左箭头" stroke="none" stroke-width="1" fill="none" fill-rule="evenodd">
        <g id="返回安卓" fill="#222222" fill-rule="nonzero">
            <path d="M383.224384,9.15461599 C395.430538,-3.05153866 415.220625,-3.05153866 427.426779,9.15461599 C439.632934,21.3607705 439.632934,41.1508574 427.426779,53.3570115 L427.426779,53.3570115 L84.3532538,396.430538 C78.27268,402.511111 73.4902821,409.398268 70.0060601,416.747602 L759.55814,416.744186 C776.820248,416.744186 790.813953,430.737891 790.813953,448 C790.813953,465.262109 776.820248,479.255814 759.55814,479.255814 L70.0109839,479.262782 C73.4947882,486.60822 78.2755441,493.491753 84.3532538,499.569462 L84.3532538,499.569462 L427.426779,842.642989 C439.632934,854.849142 439.632934,874.63923 427.426779,886.845384 C415.220625,899.051538 395.430538,899.051538 383.224384,886.845384 L383.224384,886.845384 L40.1508577,543.771858 C-12.7424792,490.878522 -12.7424792,405.121478 40.1508577,352.228142 L40.1508577,352.228142 L383.224384,9.15461599 Z" id="Combined-Shape"></path>
        </g>
    </g>
</svg>