<?xml version="1.0" encoding="UTF-8"?>
<svg width="938px" height="896px" viewBox="0 0 938 896" version="1.1" xmlns="http://www.w3.org/2000/svg" xmlns:xlink="http://www.w3.org/1999/xlink">
    <title>0198催单</title>
    <g id="0198催单" stroke="none" stroke-width="1" fill="none" fill-rule="evenodd">
        <g id="催单" fill="#333333" fill-rule="nonzero">
            <path d="M465.074212,44.8 C700.1266,44.8 890.674212,235.347611 890.674212,470.4 C890.674212,582.12108 847.627061,683.78796 777.214404,759.718991 L828.073398,832.367509 C840.845869,850.608488 836.412765,875.749853 818.171791,888.522324 C799.930813,901.294791 774.789447,896.861692 762.016976,878.620714 L762.016976,878.620714 L716.62541,813.739127 C646.157729,865.455387 559.183009,896 465.074212,896 C374.106499,896 289.804578,867.460344 220.633863,818.846444 L178.783023,878.620714 C166.010553,896.861692 140.869187,901.294791 122.62821,888.522324 C104.387234,875.749853 99.9541325,850.608488 112.726602,832.367509 L159.082243,766.211761 C85.0352922,689.632671 39.4742128,585.337016 39.4742128,470.4 C39.4742128,235.347611 230.021823,44.8 465.074212,44.8 Z M465.074212,125.44 C274.558066,125.44 120.114213,279.883853 120.114213,470.4 C120.114213,660.916148 274.558066,815.36 465.074212,815.36 C655.59036,815.36 810.034212,660.916148 810.034212,470.4 C810.034212,279.883853 655.59036,125.44 465.074212,125.44 Z M465.074212,228.48 C485.629402,228.48 502.592052,243.861483 505.080061,263.742345 L505.394212,268.8 L505.394212,474.88 L621.874212,474.88 C642.429402,474.88 659.392052,490.261484 661.880061,510.142344 L662.194212,515.2 C662.194212,535.75519 646.812732,552.717841 626.931868,555.205849 L621.874212,555.52 L465.074212,555.52 C444.519024,555.52 427.556373,540.138516 425.068363,520.257656 L424.754213,515.2 L424.754213,268.8 C424.754213,246.531879 442.806092,228.48 465.074212,228.48 Z M213.776315,18.0012431 C226.105017,36.5450382 221.066688,61.5721416 202.522893,73.9008431 C151.867391,107.578769 108.021295,150.739441 73.5416138,200.856424 C60.9200529,219.202143 35.816112,223.84249 17.4703928,211.220929 C-0.87532652,198.599368 -5.51567363,173.495427 7.10588735,155.149708 C47.4137875,96.5612803 98.655523,46.1205808 157.876715,6.74782067 C176.42051,-5.58088084 201.447614,-0.54255199 213.776315,18.0012431 Z M723.547821,18.0012431 C735.876521,-0.54255199 760.903624,-5.58088084 779.44742,6.74782067 C838.668611,46.1205808 889.910349,96.5612803 930.218249,155.149708 C942.839811,173.495427 938.199463,198.599368 919.853742,211.220929 C901.508026,223.84249 876.404081,219.202143 863.782524,200.856424 C829.30284,150.739441 785.456744,107.578769 734.801245,73.9008431 C716.25745,61.5721416 711.219121,36.5450382 723.547821,18.0012431 Z" id="Oval"></path>
        </g>
    </g>
</svg>