<?xml version="1.0" encoding="UTF-8"?>
<svg width="652px" height="896px" viewBox="0 0 652 896" version="1.1" xmlns="http://www.w3.org/2000/svg" xmlns:xlink="http://www.w3.org/1999/xlink">
    <title>0111三道杠</title>
    <g id="0111三道杠" stroke="none" stroke-width="1" fill="none" fill-rule="evenodd">
        <path d="M285.268304,814.545455 C307.538844,814.545455 325.63485,832.411967 325.994543,854.599082 L326,855.272727 C326,877.765779 307.774282,896 285.268304,896 L40.7316959,896 C18.2362014,896 0,877.770725 0,855.272727 C0,832.779676 18.2257178,814.545455 40.7316959,814.545455 L285.268304,814.545455 Z M448.279981,407.272727 C470.544136,407.272727 488.634955,425.13924 488.994545,447.326355 L489,448 C489,470.493052 470.759858,488.727273 448.279981,488.727273 L40.7200188,488.727273 C18.2309734,488.727273 0,470.497997 0,448 C0,425.506948 18.2401416,407.272727 40.7200188,407.272727 L448.279981,407.272727 Z M611.276127,0 C633.542389,0 651.63492,17.8665129 651.994544,40.0536274 L652,40.7272727 C652,63.2203244 633.774074,81.4545455 611.276127,81.4545455 L40.7238733,81.4545455 C18.2326991,81.4545455 0,63.22527 0,40.7272727 C0,18.2342211 18.2259265,0 40.7238733,0 L611.276127,0 Z" id="Combined-Shape" fill="#333333"></path>
    </g>
</svg>