<?xml version="1.0" encoding="UTF-8"?>
<svg width="896px" height="896px" viewBox="0 0 896 896" version="1.1" xmlns="http://www.w3.org/2000/svg" xmlns:xlink="http://www.w3.org/1999/xlink">
    <title>065iOS-选中</title>
    <g id="065iOS-选中" stroke="none" stroke-width="1" fill="none" fill-rule="evenodd">
        <path d="M448,0 C695.423568,0 896,200.576432 896,448 C896,695.423568 695.423568,896 448,896 C200.576432,896 0,695.423568 0,448 C0,200.576432 200.576432,0 448,0 Z M620.791184,304.730946 L404.802204,520.719926 C400.825957,524.696174 394.379186,524.696174 390.402939,520.719926 L275.208816,405.525803 C263.280074,393.597061 243.939762,393.597061 232.01102,405.525803 C220.082278,417.454545 220.082278,436.794858 232.01102,448.7236 L347.205142,563.917722 C375.038874,591.751454 420.166269,591.751454 448,563.917722 L663.98898,347.928742 C675.917722,336 675.917722,316.659688 663.98898,304.730946 C652.060238,292.802204 632.719926,292.802204 620.791184,304.730946 Z" id="形状结合" fill="#333333"></path>
    </g>
</svg>