<?xml version="1.0" encoding="UTF-8"?>
<svg width="896px" height="896px" viewBox="0 0 896 896" version="1.1" xmlns="http://www.w3.org/2000/svg" xmlns:xlink="http://www.w3.org/1999/xlink">
    <title>060iOS-购物车</title>
    <g id="060iOS-购物车" stroke="none" stroke-width="1" fill="none" fill-rule="evenodd">
        <path d="M447.982415,34.6283804 C220.026445,34.6283804 34.6283379,220.026715 34.6283379,447.982965 C34.6283379,675.905144 220.060516,861.372719 448.017585,861.372719 C675.938385,861.372719 861.405732,675.939215 861.405732,447.982965 C861.371662,220.026715 675.904315,34.6283804 447.982415,34.6283804 M447.982415,0 C695.018701,0 896,200.946377 896,447.982965 C896,695.019553 695.018701,896 447.982415,896 C200.94613,896 0,695.019553 0,447.982965 C0,200.946377 200.94613,0 447.982415,0 Z M628.962835,668.345519 C607.365755,668.345519 589.793561,685.916923 589.793561,707.514793 C589.793561,729.096845 607.373664,746.666667 628.962835,746.666667 C650.535396,746.666667 668.114709,729.094472 668.114709,707.514793 C668.114709,685.916923 650.543305,668.345519 628.962835,668.345519 Z M347.968279,668.345519 C326.386227,668.345519 308.807706,685.916923 308.807706,707.514793 C308.807706,729.096845 326.387809,746.666667 347.968279,746.666667 C369.55745,746.666667 387.129644,729.094472 387.129644,707.514793 C387.129644,685.916923 369.55745,668.345519 347.968279,668.345519 Z M212.654949,186.666667 L187.089139,186.666667 C176.563064,186.666667 168,195.22973 168,205.755805 C168,216.282671 176.563064,224.845735 187.089139,224.845735 L212.654949,224.845735 C222.140992,224.845735 231.208649,233.376371 232.458269,243.458752 L251.823432,355.396271 L285.859771,595.073471 C289.339726,623.808414 314.335299,646.311073 342.776027,646.311073 L668.767991,646.311073 C679.294066,646.311073 687.857921,637.748009 687.857921,627.221143 C687.857921,616.712468 679.294066,608.148614 668.767991,608.148614 L342.7784,608.148614 C333.627698,608.148614 324.904873,599.895582 323.730388,590.115325 L289.560387,349.473228 L270.23477,237.938277 C266.720806,209.169325 241.44051,186.666667 212.654949,186.666667 Z M675.08332,246.8612 L327.578112,246.8612 C317.051246,246.8612 308.488182,255.424263 308.488182,265.951129 C308.488182,276.477995 317.051246,285.041058 327.578112,285.041058 L675.08332,285.041058 C679.184922,285.041058 682.665669,286.642629 685.433024,289.780125 C689.551235,294.434566 691.6487,302.077023 690.785038,309.256014 L659.164895,490.196308 C657.99041,499.833412 648.789882,507.78432 638.666375,507.842846 L366.462662,527.9214 C361.380345,528.29075 356.75754,530.597011 353.437346,534.462925 C350.09817,538.312231 348.472082,543.236368 348.840641,548.319476 C349.561941,558.250004 357.915416,566.025332 367.862553,566.025332 C368.315738,566.025332 368.793441,566.009514 369.263235,565.966015 L640.048866,545.953897 C668.532303,545.953897 693.477258,523.921823 696.905805,495.798245 L728.552048,314.857951 C730.833,295.885866 725.541886,277.508536 714.016905,264.49192 L714.017696,264.49192 C703.969324,253.119583 690.130174,246.8612 675.08332,246.8612 Z" id="Combined-Shape" fill="#333333"></path>
    </g>
</svg>