<?xml version="1.0" encoding="UTF-8"?>
<svg width="896px" height="896px" viewBox="0 0 896 896" version="1.1" xmlns="http://www.w3.org/2000/svg" xmlns:xlink="http://www.w3.org/1999/xlink">
    <title>075md-搜索</title>
    <g id="075md-搜索" stroke="none" stroke-width="1" fill="none" fill-rule="evenodd">
        <path d="M336.461573,0 C522.284169,0 672.923146,152.863548 672.923146,341.430291 C672.923146,424.419888 643.745217,500.493975 595.231502,559.665064 C613.553196,558.898272 634.005446,559.349519 634.005446,559.349519 C634.558202,559.359882 635.319306,559.684837 635.708978,560.074509 L635.708978,560.074509 L918.439651,842.805182 C918.824275,843.189806 918.831342,843.824619 918.444161,844.211801 L918.444161,844.211801 L846.641882,916.014079 C846.251296,916.404665 845.624936,916.399242 845.235264,916.00957 L845.235264,916.00957 L562.50459,633.278897 C562.119967,632.894274 561.795457,632.127142 561.791053,631.576738 C561.791053,631.576738 561.774256,630.002801 561.771502,627.333121 L561.771638,625.719012 C561.779932,618.654019 561.893656,606.239147 562.490988,594.33807 C502.766353,649.345617 423.470925,682.860581 336.461573,682.860581 C150.638977,682.860581 0,529.997033 0,341.430291 C0,152.863548 150.638977,0 336.461573,0 Z M336.461573,105.055474 C207.815161,105.055474 103.526638,210.884084 103.526638,341.430291 C103.526638,471.976497 207.815161,577.805107 336.461573,577.805107 C465.107986,577.805107 569.396508,471.976497 569.396508,341.430291 C569.396508,210.884084 465.107986,105.055474 336.461573,105.055474 Z" id="md-search" fill="#333333"></path>
    </g>
</svg>