<?xml version="1.0" encoding="UTF-8"?>
<svg width="768px" height="896px" viewBox="0 0 768 896" version="1.1" xmlns="http://www.w3.org/2000/svg" xmlns:xlink="http://www.w3.org/1999/xlink">
    <title>0236新-盾牌</title>
    <g id="0236新-盾牌" stroke="none" stroke-width="1" fill="none" fill-rule="evenodd">
        <path d="M337.854361,12.675017 C366.333056,-4.22500728 401.66681,-4.22500556 430.145504,12.6750215 C477.540972,40.800774 524.859385,64.3786959 572.101107,83.423596 C618.795784,102.247962 665.420382,116.645769 711.986262,126.632674 C744.647735,133.63754 768,162.708272 768,196.362982 L768,196.362982 L768,514.491728 C768,579.69097 743.182822,642.405905 698.663336,689.710722 C697.013111,691.464193 695.36646,693.206609 693.723374,694.937967 L693.723374,694.937967 L683.907585,705.193373 C682.278731,706.880477 680.653426,708.556513 679.031662,710.221475 L679.031662,710.221475 L669.343514,720.078337 L659.739973,729.669217 C656.552851,732.821821 653.379765,735.930056 650.22065,738.993885 L650.22065,738.993885 L640.785156,748.052113 C631.391447,756.977043 622.122897,765.501969 612.977755,773.625859 L612.977755,773.625859 L603.873684,781.616031 C516.264064,857.561397 440.131712,896 373.894737,896 C317.428727,896 255.874544,868.179703 188.341802,813.213729 L188.341802,813.213729 L180.042546,806.347575 C161.995821,791.177153 143.525723,774.097956 124.615625,755.122584 L124.615625,755.122584 L115.856584,746.230126 L107.034695,737.068663 C105.559122,735.519351 104.080916,733.958842 102.600068,732.387142 L102.600068,732.387142 L93.6832251,722.822689 L84.7026252,712.989921 L75.6579054,702.889112 C71.1194549,697.771743 66.5568233,692.553962 61.9698061,687.235923 C22.0075521,640.905025 0,581.582414 0,520.1928 L0,520.1928 L0,196.363118 C0,162.708342 23.3522095,133.637536 56.013749,126.632671 C102.579616,116.645769 149.204215,102.247962 195.898893,83.423596 C239.761103,65.7411031 283.689346,44.1509844 327.551459,18.718656 L327.551459,18.718656 Z M610.390103,306.630642 C598.458195,294.698733 579.188023,294.623458 567.348971,306.46251 L567.348971,306.46251 L352.983968,520.827513 L352.102202,521.61238 C348.13247,524.750115 342.330134,524.464679 338.636924,520.77147 L338.636924,520.77147 L223.41222,405.546766 L222.106394,404.313719 C210.113349,393.624677 191.787316,393.962405 180.371088,405.378634 C168.532035,417.217686 168.60731,436.487857 180.539219,448.419766 L180.539219,448.419766 L295.763923,563.64447 L297.525977,565.348516 C325.471007,591.480843 369.144286,591.085723 396.193232,564.036778 L396.193232,564.036778 L610.558235,349.671774 L611.781117,348.375542 C622.376787,336.465641 621.895873,318.136411 610.390103,306.630642 Z" id="Combined-Shape" fill="#222222" fill-rule="nonzero"></path>
    </g>
</svg>