<?xml version="1.0" encoding="UTF-8"?>
<svg width="672px" height="896px" viewBox="0 0 672 896" version="1.1" xmlns="http://www.w3.org/2000/svg" xmlns:xlink="http://www.w3.org/1999/xlink">
    <title>0186闪电</title>
    <g id="0186闪电" stroke="none" stroke-width="1" fill="none" fill-rule="evenodd">
        <path d="M354.961319,18.3127485 L10.9213658,489.297022 C0.00739091743,504.238049 -2.92919015,523.415973 3.02804194,540.845941 L3.76137897,542.867466 C14.7706221,571.531486 47.0141061,586.725209 76.8487466,576.901019 L247.350059,520.742255 L236.036824,850.643615 C235.533473,865.299242 242.523212,879.233381 254.664964,887.778377 C274.727946,901.898095 302.653611,897.380144 317.038681,877.687252 L661.078635,406.702979 C671.99261,391.761951 674.92919,372.584028 668.971958,355.154059 L668.238621,353.132533 C657.229378,324.468514 624.985894,309.274791 595.151254,319.098982 L424.619443,375.244855 L435.96313,45.3577467 C436.466526,30.7007581 429.476788,16.766619 417.335036,8.22162249 C397.272054,-5.8980949 369.34639,-1.38014393 354.961319,18.3127485 Z" id="Path" fill="#222222" fill-rule="nonzero"></path>
    </g>
</svg>