<?xml version="1.0" encoding="UTF-8"?>
<svg width="896px" height="896px" viewBox="0 0 896 896" version="1.1" xmlns="http://www.w3.org/2000/svg" xmlns:xlink="http://www.w3.org/1999/xlink">
    <title>085md-home-商家</title>
    <g id="085md-home-商家" stroke="none" stroke-width="1" fill="none" fill-rule="evenodd">
        <path d="M448,0 C695.423568,0 896,200.576432 896,448 C896,695.423568 695.423568,896 448,896 C200.576432,896 0,695.423568 0,448 C0,200.576432 200.576432,0 448,0 Z M443.623235,177.92721 L171.762493,415.328143 C166.035734,420.321772 164.049813,428.280369 166.766662,435.319622 C169.483512,442.358875 176.337694,447.009871 183.988314,447.009871 L222.186246,447.009871 L222.186246,633.660333 C221.489795,640.265358 220.241699,664.076692 235.742909,681.639204 C242.814301,689.65208 256.081351,699.208502 279.136642,699.208502 L623.269706,699.208502 C623.921336,699.239034 624.828102,699.269565 625.958973,699.269565 C634.247431,699.269565 654.32729,697.634423 670.180174,683.213283 C678.992694,675.193623 689.498074,660.182204 689.498074,634.196334 L689.498074,446.338173 L732.016072,445.13726 C739.604631,444.920146 746.282977,440.150415 748.83778,433.114555 C751.392584,426.082086 749.299783,418.225262 743.569576,413.330013 L467.930069,177.798298 C460.944871,171.827654 450.542925,171.881933 443.623235,177.92721 Z M456.255893,523.905655 C482.200422,523.905655 493.381566,529.73721 497.739558,533.211039 C501.604517,536.291348 502.256147,539.086695 502.356132,539.748215 L502.356132,662.953804 L409.666069,662.953804 L409.666069,538.618542 C410.034981,537.46173 410.696955,536.128512 412.265694,534.554433 C415.468679,531.351997 426.160239,523.905655 456.255893,523.905655 Z" id="md-s-home" fill="#333333"></path>
    </g>
</svg>