<?xml version="1.0" encoding="UTF-8"?>
<svg width="807px" height="896px" viewBox="0 0 807 896" version="1.1" xmlns="http://www.w3.org/2000/svg" xmlns:xlink="http://www.w3.org/1999/xlink">
    <title>0203确认收货</title>
    <g id="0203确认收货" stroke="none" stroke-width="1" fill="none" fill-rule="evenodd">
        <g id="确认收货" fill="#333333" fill-rule="nonzero">
            <path d="M472.030545,11.8094546 C487.776486,27.555394 487.776486,53.0846059 472.030545,68.8305453 C410.345731,130.51536 327.782057,166.52106 240.949862,169.967418 L227.206465,170.24 L199.608889,170.24 C136.43129,170.24 84.7556483,219.485734 80.8740567,281.685109 L80.64,289.208889 L80.64,696.391109 C80.64,759.56871 129.885734,811.244354 192.085109,815.125942 L199.608889,815.36 L606.791109,815.36 C669.96871,815.36 721.644354,766.114268 725.525942,703.914893 L725.76,696.391109 L725.76,289.208889 C725.76,226.03129 676.514268,174.355648 614.314893,170.474057 L606.791109,170.24 L566.968891,170.24 C544.700769,170.24 526.648891,152.188121 526.648891,129.92 C526.648891,109.364811 542.030371,92.4021603 561.911235,89.9141501 L566.968891,89.6 L606.791109,89.6 C713.882315,89.6 801.27622,173.934157 806.182738,279.81238 L806.4,289.208889 L806.4,696.391109 C806.4,803.482315 722.065841,890.87622 616.187618,895.782738 L606.791109,896 L199.608889,896 C92.5176851,896 5.12377882,811.665841 0.217262721,705.787618 L1.76214598e-12,696.391109 L1.76214598e-12,289.208889 C1.76214598e-12,182.117685 84.3341574,94.7237787 190.21238,89.8172625 L199.608889,89.6 L227.206465,89.6 C297.64625,89.6 365.201005,61.6179043 415.009455,11.8094546 C430.755394,-3.93648486 456.284604,-3.93648486 472.030545,11.8094546 Z M450.243248,348.870897 L454.110545,352.283361 L543.710545,441.883361 C559.456486,457.629299 559.456486,483.158511 543.710545,498.904452 C529.276769,513.338228 506.622323,514.541046 490.818433,502.512895 L486.689455,498.904452 L433.6192,445.843506 L325.774115,625.538377 C314.317261,644.633132 289.550287,650.824877 270.455531,639.36802 C252.829602,628.792465 246.197956,606.875741 254.293125,588.547971 L256.625885,584.049437 L391.025885,360.049438 C403.621921,339.056044 431.501616,334.327714 450.243248,348.870897 Z" id="Path-Copy-3" transform="translate(403.200000, 448.000000) rotate(-180.000000) translate(-403.200000, -448.000000) "></path>
        </g>
    </g>
</svg>