<?xml version="1.0" encoding="UTF-8"?>
<svg width="896px" height="896px" viewBox="0 0 896 896" version="1.1" xmlns="http://www.w3.org/2000/svg" xmlns:xlink="http://www.w3.org/1999/xlink">
    <title>0246专属客服</title>
    <g id="0246专属客服" stroke="none" stroke-width="1" fill="none" fill-rule="evenodd">
        <path d="M709.333333,406.246086 C709.333333,261.904346 592.330415,144.892247 448,144.892247 C306.676469,144.892247 191.553649,257.079629 186.818203,397.261124 L186.666667,406.246086 L186.666667,560.04417 C186.666667,595.304795 159.513632,624.222991 124.978111,627.026659 L119.466667,627.249443 L67.2,627.249443 C31.9421416,627.249443 3.02621416,600.094278 0.222766062,565.556047 L0,560.04417 L0,480.918611 C0,445.657986 27.1530345,417.496533 61.6885552,414.692865 L67.2,414.470082 L126.896,414.432746 L126.933333,406.246086 C126.933333,296.592674 181.894598,199.77716 265.769794,141.848921 C294.217352,122.201671 365.409721,75.8895563 479.3469,2.91257691 C487.914283,-2.57484271 499.307952,-0.0780443027 504.795375,8.48933588 C508.293774,13.9513009 508.661919,20.8506021 505.764627,26.653839 L483.128176,71.9943508 C480.36502,77.5290152 482.61223,84.2555743 488.147082,87.0183531 C489.2472,87.5674882 490.430227,87.9317395 491.648679,88.0966167 C491.719434,88.1061777 491.789489,88.1156953 491.858842,88.1251695 C645.322269,109.089425 764.26394,238.505241 768.92477,396.607276 L769.066667,406.246086 L769.066667,414.432746 L828.8,414.432746 L834.311445,414.655529 C868.846966,417.459197 896,445.657986 896,480.918611 L896,480.918611 L896,563.058389 L895.777234,568.570266 C892.973786,603.108497 864.057858,627.249443 828.8,627.249443 L828.8,627.249443 L776.533333,627.249443 L771.021889,627.026659 C736.486368,624.222991 709.333333,598.319014 709.333333,563.058389 L709.333333,563.058389 L709.333333,406.246086 Z M126.896,473.414022 L67.2,473.451359 C63.7635616,473.451359 60.8693353,475.773027 60.0000499,478.93352 L59.7333333,480.918611 L59.7333333,563.058389 C59.7333333,566.495097 62.0548198,569.38955 65.2150642,570.258904 L67.2,570.525642 L119.466667,570.525642 C122.903105,570.525642 125.797331,568.203973 126.666617,565.043481 L126.933333,563.058389 L126.896,473.414022 Z M769.066667,563.058389 L769.333383,565.043481 C770.202669,568.203973 773.096895,570.525642 776.533333,570.525642 L776.533333,570.525642 L828.8,570.525642 L830.784936,570.258904 C833.94518,569.38955 836.266667,566.495097 836.266667,563.058389 L836.266667,563.058389 L836.266667,480.918611 L835.99995,478.93352 C835.130665,475.773027 832.236438,473.451359 828.8,473.451359 L828.8,473.451359 L769.066667,473.451359 L769.066667,563.058389 Z M623.45467,727.598182 C625.920352,732.764126 627.2,738.415935 627.2,744.140143 L627.2,857.586024 C627.2,878.795428 610.006381,895.989047 588.796977,895.989047 C583.072767,895.989047 577.420956,894.709398 572.255011,892.243714 L493.285404,854.550321 C484.28382,870.083452 467.479277,880.531375 448.234491,880.531375 L447.765509,880.531375 C428.521138,880.531375 411.716905,870.083903 402.715179,854.551327 L323.744989,892.243714 C304.604075,901.37959 281.681208,893.268904 272.545332,874.12799 C270.079649,868.962045 268.8,863.310234 268.8,857.586024 L268.8,744.140143 C268.8,722.930739 285.993619,705.73712 307.203023,705.73712 C312.927231,705.73712 318.57904,707.016768 323.744983,709.482449 L406.576692,749.016746 C416.092828,736.708186 431.003563,728.782212 447.765509,728.782212 L448.234491,728.782212 C464.996437,728.782212 479.907172,736.708186 489.423308,749.016746 L572.255017,709.482449 C591.395932,700.346577 614.318798,708.457267 623.45467,727.598182 Z" id="Combined-Shape" fill="#000000" fill-rule="nonzero"></path>
    </g>
</svg>