<?xml version="1.0" encoding="UTF-8"?>
<svg width="896px" height="896px" viewBox="0 0 896 896" version="1.1" xmlns="http://www.w3.org/2000/svg" xmlns:xlink="http://www.w3.org/1999/xlink">
    <title>076md-微信支付</title>
    <g id="076md-微信支付" stroke="none" stroke-width="1" fill="none" fill-rule="evenodd">
        <path d="M448,0 C695.423568,0 896,200.576432 896,448 C896,695.423568 695.423568,896 448,896 C200.576432,896 0,695.423568 0,448 C0,200.576432 200.576432,0 448,0 Z M447.988515,246.4 C324.276817,246.4 224,333.818474 224,441.660605 C224,503.690684 257.204689,558.899433 308.924901,594.68229 L299.597672,648.087105 C299.597672,648.087105 295.050864,663.678239 310.808946,656.446822 C317.229536,653.49865 329.59818,645.996298 341.989819,638.141275 L343.912024,636.920143 C351.595024,632.028944 359.168814,627.0856 365.216569,623.094792 C390.834096,631.986725 418.743515,636.92401 448.00084,636.92401 C571.702454,636.92401 672,549.505537 672,441.661165 C672,410.424555 663.548407,380.925211 648.577445,354.740733 C578.580929,396.689455 415.772067,494.176899 394.790424,505.808345 C367.97625,520.698074 363.999195,497.449189 363.999195,497.449189 L330.393382,419.338336 C317.721382,382.963364 340.634441,401.810391 341.556032,402.578822 L341.584489,402.602657 L341.584489,402.602657 C341.584489,402.602657 353.539427,411.611009 366.17333,420.106914 L367.171949,420.776405 C370.837215,423.22603 374.53451,425.61172 377.990319,427.702534 C393.690137,437.206235 411.585487,430.492468 411.585487,430.492468 L631.284339,329.486234 C590.750752,279.248945 523.792911,246.4 447.988515,246.4 Z" id="Combined-Shape" fill="#333333"></path>
    </g>
</svg>