<?xml version="1.0" encoding="UTF-8"?>
<svg width="896px" height="896px" viewBox="0 0 896 896" version="1.1" xmlns="http://www.w3.org/2000/svg" xmlns:xlink="http://www.w3.org/1999/xlink">
    <title>0173扫码购-在线支付</title>
    <g id="0173扫码购-在线支付" stroke="none" stroke-width="1" fill="none" fill-rule="evenodd">
        <path d="M448,0 C695.423568,0 896,200.576432 896,448 C896,695.423568 695.423568,896 448,896 C200.576432,896 0,695.423568 0,448 C0,200.576432 200.576432,0 448,0 Z M448,61.0909091 C234.31601,61.0909091 61.0909091,234.31601 61.0909091,448 C61.0909091,661.68399 234.31601,834.909091 448,834.909091 C661.68399,834.909091 834.909091,661.68399 834.909091,448 C834.909091,234.31601 661.68399,61.0909091 448,61.0909091 Z M573.137828,260.136119 L574.630936,261.528475 C587.28715,274.059679 587.755899,294.088408 576.037182,307.174984 L574.630936,308.653343 L518.965093,363.767595 L571.400227,363.768595 C589.987224,363.768595 605.054963,378.687503 605.054963,397.090909 C605.054963,414.859715 591.008462,429.38019 573.309992,430.360474 L571.400227,430.413223 L481.654093,430.412595 L481.654093,496.131595 L571.400227,496.132231 C589.987224,496.132231 605.054963,511.05114 605.054963,529.454545 C605.054963,547.223351 591.008462,561.743826 573.309992,562.72411 L571.400227,562.77686 L481.654093,562.776595 L481.654264,631.272727 C481.654264,649.676133 466.586525,664.595041 447.999528,664.595041 C430.053461,664.595041 415.388131,650.687284 414.398068,633.163629 L414.344792,631.272727 L414.344093,562.776595 L324.598829,562.77686 C306.011832,562.77686 290.944093,547.857951 290.944093,529.454545 C290.944093,511.68574 304.990594,497.165265 322.689064,496.184981 L324.598829,496.132231 L414.344093,496.131595 L414.344093,430.412595 L324.598829,430.413223 C306.011832,430.413223 290.944093,415.494315 290.944093,397.090909 C290.944093,379.322103 304.990594,364.801629 322.689064,363.821345 L324.598829,363.768595 L377.032093,363.767595 L321.36812,308.653343 C308.225128,295.64017 308.225128,274.541648 321.36812,261.528475 C334.024335,248.997271 354.25287,248.533152 367.469997,260.136119 L368.963104,261.528475 L447.999528,339.777455 L527.035952,261.528475 C539.692166,248.997271 559.920701,248.533152 573.137828,260.136119 Z" id="Combined-Shape-Copy" fill="#333333" fill-rule="nonzero"></path>
    </g>
</svg>