<?xml version="1.0" encoding="UTF-8"?>
<svg width="697px" height="896px" viewBox="0 0 697 896" version="1.1" xmlns="http://www.w3.org/2000/svg" xmlns:xlink="http://www.w3.org/1999/xlink">
    <title>0146定位授权</title>
    <g id="0146定位授权" stroke="none" stroke-width="1" fill="none" fill-rule="evenodd">
        <path d="M348.5,746.666667 C216.857608,746.666667 0,525.019579 0,347.218391 C0,155.573107 155.907112,0 348.5,0 C541.092888,0 697,155.573107 697,347.218391 C697,525.019579 480.142392,746.666667 348.5,746.666667 Z M347.200654,672 C430.387627,672 621.022083,485.338927 621.022083,345.971014 C621.022083,196.012733 498.302284,74.6666667 347.200654,74.6666667 C196.099024,74.6666667 73.3792254,196.012733 73.3792254,345.971014 C73.3792254,485.338927 264.013681,672 347.200654,672 Z M273.821429,896 C253.199511,896 236.482143,879.285297 236.482143,858.666667 C236.482143,838.048036 253.199511,821.333333 273.821429,821.333333 L423.178571,821.333333 C443.800489,821.333333 460.517857,838.048036 460.517857,858.666667 C460.517857,879.285297 443.800489,896 423.178571,896 L273.821429,896 Z M348.5,448 C403.491782,448 448.071429,403.42746 448.071429,348.444444 C448.071429,293.461429 403.491782,248.888889 348.5,248.888889 C293.508218,248.888889 248.928571,293.461429 248.928571,348.444444 C248.928571,403.42746 293.508218,448 348.5,448 Z" id="dingweishouquan" fill="#333333" fill-rule="nonzero"></path>
    </g>
</svg>