<?xml version="1.0" encoding="UTF-8"?>
<svg width="896px" height="896px" viewBox="0 0 896 896" version="1.1" xmlns="http://www.w3.org/2000/svg" xmlns:xlink="http://www.w3.org/1999/xlink">
    <title>084md-classity</title>
    <g id="084md-classity" stroke="none" stroke-width="1" fill="none" fill-rule="evenodd">
        <path d="M316.630763,501.76 C359.494942,501.76 394.235025,536.510033 394.235025,579.369237 L394.235025,818.395738 C394.24,861.254942 359.494942,896 316.635738,896 L77.6042622,896 C34.7450585,896 0,861.254942 0,818.395738 L0,579.369237 C0,536.505058 34.7450585,501.76 77.6042622,501.76 L316.630763,501.76 Z M698.882487,501.76 C807.744367,501.76 896,590.010658 896,698.877513 C896,807.744367 807.744367,896 698.882487,896 C590.015633,896 501.76,807.744367 501.76,698.877513 C501.76,590.010658 590.015633,501.76 698.882487,501.76 Z M316.630763,0 C359.494942,0 394.24,34.7450585 394.24,77.6042622 L394.24,316.630763 C394.24,359.494942 359.494942,394.24 316.635738,394.24 L77.6042622,394.24 C34.7450585,394.24 0,359.489967 0,316.630763 L0,77.6042622 C0,34.7450585 34.7450585,0 77.6042622,0 L316.630763,0 Z M818.395738,0 C861.254942,0 896,34.7450585 896,77.6042622 L896,316.630763 C896,359.494942 861.254942,394.24 818.395738,394.24 L579.364262,394.24 C536.505058,394.24 501.76,359.489967 501.76,316.630763 L501.76,77.6042622 C501.76,34.7450585 536.505058,0 579.364262,0 L818.395738,0 Z" id="md-classify" fill="#333333"></path>
    </g>
</svg>