<?xml version="1.0" encoding="UTF-8"?>
<svg width="896px" height="811px" viewBox="0 0 896 811" version="1.1" xmlns="http://www.w3.org/2000/svg" xmlns:xlink="http://www.w3.org/1999/xlink">
    <title>047自提</title>
    <g id="047自提" stroke="none" stroke-width="1" fill="none" fill-rule="evenodd">
        <path d="M853.333333,661.605263 L853.333333,149.394737 C853.333333,90.4539193 805.583259,42.6842105 746.666667,42.6842105 L149.333333,42.6842105 C90.4167413,42.6842105 42.6666667,90.4539193 42.6666667,149.394737 L42.6666667,661.605263 C42.6666667,720.546081 90.4167413,768.315789 149.333333,768.315789 L746.666667,768.315789 C805.583259,768.315789 853.333333,720.546081 853.333333,661.605263 Z M746.666667,0 C829.147408,0 896,66.8800807 896,149.394737 L896,661.605263 C896,744.119919 829.147408,811 746.666667,811 L149.333333,811 C66.852592,811 0,744.119919 0,661.605263 L0,149.394737 C0,66.8800807 66.852592,0 149.333333,0 L746.666667,0 Z M234.666667,170.736842 L192,170.736842 C192,312.177051 306.617925,426.842105 448,426.842105 C589.382075,426.842105 704,312.177051 704,170.736842 L704,170.736842 L661.333333,170.736842 C661.333333,288.603212 565.817925,384.157895 448,384.157895 C330.182075,384.157895 234.666667,288.603212 234.666667,170.736842 L234.666667,170.736842 Z" id="自提" fill="#333333" fill-rule="nonzero"></path>
    </g>
</svg>