<?xml version="1.0" encoding="UTF-8"?>
<svg width="896px" height="896px" viewBox="0 0 896 896" version="1.1" xmlns="http://www.w3.org/2000/svg" xmlns:xlink="http://www.w3.org/1999/xlink">
    <title>044余额</title>
    <g id="044余额" stroke="none" stroke-width="1" fill="none" fill-rule="evenodd">
        <path d="M723.689344,0 L172.255104,0 C77.1635193,0 0,77.1778563 0,172.266752 L0,723.733248 C0,818.831105 77.1133443,896 172.255104,896 L723.689344,896 C808.418688,896 878.919552,834.73152 893.313792,754.14528 L896,613.406976 L896,172.266752 C896.000896,77.1697921 818.832,0 723.689344,0 L723.689344,0 L723.689344,0 Z M460.275989,143.919009 C457.384738,142.473384 454.712522,140.764918 452.303147,138.837418 C449.937579,137.391792 447.615817,135.858554 445.469283,134.150088 C443.322748,132.485428 441.263828,130.426508 439.336327,128.017132 C435.481327,124.162132 429.742633,121.621336 422.032633,120.438552 C414.322632,119.255768 407.357347,120.569973 401.092971,124.424973 C392.944902,129.725598 387.162402,134.150088 383.789276,137.742247 C380.416151,141.334406 375.378367,143.875202 368.632116,145.320827 C364.777116,146.284577 360.571661,146.065543 356.015751,144.619918 C351.459841,143.174293 346.772511,141.728668 341.953761,140.283043 C337.13501,138.837418 332.579101,137.873667 328.242226,137.391792 C323.90535,136.909917 320.094157,137.873667 316.721031,140.283043 C309.97478,145.583668 307.828246,151.935657 310.193815,159.426624 C312.60319,166.873784 316.940065,172.743898 323.204441,177.080774 C328.986941,181.417649 334.857056,186.324013 340.85859,191.88748 C346.903932,197.407139 352.292171,203.759129 357.110922,210.987254 C359.520297,214.842255 362.411547,219.17913 365.740866,223.997881 C369.113991,228.772824 372.224275,233.591575 375.115526,238.410325 C378.488651,243.710951 381.861776,249.23061 385.234902,254.969304 L534.57236,254.969304 C537.945485,250.19436 541.055769,245.112769 543.94702,239.85595 C546.356395,235.519075 548.984804,231.182199 551.832248,226.75771 C554.723498,222.464642 557.351907,218.609641 559.761283,215.236516 C564.536226,208.534072 569.354977,202.138276 574.173727,196.136741 C578.992478,190.135207 585.957763,184.265092 595.113388,178.482592 C598.968389,176.073217 602.210094,172.962932 604.838503,169.107932 C607.466912,165.296738 609.175378,161.441738 609.876288,157.586738 C610.577197,153.731737 610.095322,150.008157 608.430663,146.415998 C606.766003,142.823838 603.524298,140.064009 598.705548,138.136508 C594.368672,136.690883 590.645093,136.209008 587.534808,136.690883 C584.424524,137.172758 581.270433,138.048895 578.160148,139.231679 C575.049864,140.45827 571.808159,141.772475 568.435034,143.2181 C565.061908,144.663725 560.987874,145.364634 556.169123,145.364634 C551.350373,145.364634 547.363952,144.488498 544.253667,142.823838 C541.099576,141.159179 538.208326,139.100258 535.579917,136.690883 C532.951507,134.281508 530.191677,131.740712 527.300427,129.112303 C524.452984,126.483894 520.597983,124.424973 515.779233,122.979348 C506.141732,119.168154 498.475538,118.467245 492.693037,120.832813 C486.910537,123.198382 481.171843,127.053382 475.389342,132.354008 C470.614399,137.172758 466.759398,140.545884 463.868148,142.473384 C462.422523,143.437134 461.239739,143.919009 460.275989,143.919009 Z M541.756679,288.174876 L379.452401,288.174876 C373.231832,296.366751 366.003707,304.996695 357.811831,314.108515 C351.109387,322.30039 342.698477,331.324596 332.579101,341.181131 C322.459725,351.037666 311.157565,361.507497 298.67262,372.546816 C284.260176,385.075567 270.899095,399.268978 258.633184,415.127047 C246.367274,430.985117 236.160285,448.420232 227.968409,467.432393 C219.776533,486.400748 214.125453,506.727113 211.015168,528.367684 C207.904884,550.008254 208.518179,572.612574 212.855055,596.180645 C216.666248,617.33934 224.63909,638.585649 236.64216,660.007185 C248.689036,681.428722 264.89756,700.791337 285.355346,718.095032 C305.769326,735.398727 330.651601,749.460717 360.002172,760.281002 C389.308936,771.101287 422.996383,776.533333 460.976898,776.533333 C497.993663,776.533333 531.067814,771.846003 560.111737,762.471343 C589.199467,753.052876 614.344584,740.436512 635.503279,724.578442 C656.661974,708.720372 673.615214,690.102472 686.363,668.680936 C699.110785,647.303207 707.653116,624.567466 711.989991,600.51752 C716.808741,571.166949 717.37823,544.576208 713.786071,520.789103 C710.193911,496.958192 703.841922,475.930917 694.686296,457.663472 C685.53067,439.396027 674.841805,423.406537 662.575895,409.695001 C650.309985,395.983466 638.394529,384.111817 626.873335,373.992441 C612.898958,362.471247 600.676855,351.519541 590.075604,341.181131 C579.51816,330.842721 570.625375,321.599481 563.397249,313.407605 C554.723498,304.295786 547.539179,295.884876 541.756679,288.174876 Z" id="Balance-payment" fill="#333333"></path>
    </g>
</svg>