<?xml version="1.0" encoding="UTF-8"?>
<svg width="896px" height="896px" viewBox="0 0 896 896" version="1.1" xmlns="http://www.w3.org/2000/svg" xmlns:xlink="http://www.w3.org/1999/xlink">
    <title>0238瀑布流</title>
    <g id="0238瀑布流" stroke="none" stroke-width="1" fill="none" fill-rule="evenodd">
        <path d="M280,492.8 C348.041481,492.8 403.2,547.958519 403.2,616 L403.2,772.8 C403.2,840.841481 348.041481,896 280,896 L123.2,896 C55.1585188,896 0,840.841481 0,772.8 L0,616 C0,547.958519 55.1585188,492.8 123.2,492.8 L280,492.8 Z M280,560 L123.2,560 C92.272054,560 67.2,585.072054 67.2,616 L67.2,772.8 C67.2,803.727946 92.272054,828.8 123.2,828.8 L280,828.8 C310.927946,828.8 336,803.727946 336,772.8 L336,616 C336,585.072054 310.927946,560 280,560 Z M280,0 C348.041481,0 403.2,55.1585188 403.2,123.2 L403.2,280 C403.2,348.041481 348.041481,403.2 280,403.2 L123.2,403.2 C55.1585188,403.2 0,348.041481 0,280 L0,123.2 C0,55.1585188 55.1585188,0 123.2,0 L280,0 Z M280,67.2 L123.2,67.2 C92.272054,67.2 67.2,92.272054 67.2,123.2 L67.2,280 C67.2,310.927946 92.272054,336 123.2,336 L280,336 C310.927946,336 336,310.927946 336,280 L336,123.2 C336,92.272054 310.927946,67.2 280,67.2 Z M762.397873,503.204833 L863.195167,604.002127 C906.934944,647.741904 906.934944,718.658096 863.195167,762.397873 L762.397873,863.195167 C718.658096,906.934944 647.741904,906.934944 604.002127,863.195167 L503.204833,762.397873 C459.465056,718.658096 459.465056,647.741904 503.204833,604.002127 L604.002127,503.204833 C647.741904,459.465056 718.658096,459.465056 762.397873,503.204833 Z M647.200967,546.403673 L546.403673,647.200967 C526.521956,667.082684 526.521956,699.317316 546.403673,719.199033 L647.200967,819.996327 C667.082684,839.878044 699.317316,839.878044 719.199033,819.996327 L819.996327,719.199033 C839.878044,699.317316 839.878044,667.082684 819.996327,647.200967 L719.199033,546.403673 C699.317316,526.521956 667.082684,526.521956 647.200967,546.403673 Z M772.8,0 C840.841481,0 896,55.1585188 896,123.2 L896,280 C896,348.041481 840.841481,403.2 772.8,403.2 L616,403.2 C547.958519,403.2 492.8,348.041481 492.8,280 L492.8,123.2 C492.8,55.1585188 547.958519,0 616,0 L772.8,0 Z M772.8,67.2 L616,67.2 C585.072054,67.2 560,92.272054 560,123.2 L560,280 C560,310.927946 585.072054,336 616,336 L772.8,336 C803.727946,336 828.8,310.927946 828.8,280 L828.8,123.2 C828.8,92.272054 803.727946,67.2 772.8,67.2 Z" id="形状结合" fill="#222222" fill-rule="nonzero"></path>
    </g>
</svg>