<?xml version="1.0" encoding="UTF-8"?>
<svg width="896px" height="627px" viewBox="0 0 896 627" version="1.1" xmlns="http://www.w3.org/2000/svg" xmlns:xlink="http://www.w3.org/1999/xlink">
    <title>0253面性券</title>
    <g id="0253面性券" stroke="none" stroke-width="1" fill="none" fill-rule="evenodd">
        <path d="M136.294592,0.0727073489 C60.401152,3.80895624 0,67.4065288 0,145.313816 L0,214.304002 C0,231.41295 13.675648,245.286421 30.5454464,245.286421 L67.2,245.286421 C104.313664,245.286421 134.4,275.805331 134.4,313.449561 C134.4,351.093791 104.313664,381.6127 67.2,381.6127 L30.5454464,381.6127 C13.675648,381.6127 0,395.486171 0,412.595119 L0,481.585305 C0,561.895116 64.184512,627 143.36,627 L752.64,627 C831.81504,627 896,561.895116 896,481.585305 L896,412.595119 C896,395.486171 882.32256,381.6127 865.45536,381.6127 L828.8,381.6127 C791.68768,381.6127 761.6,351.093791 761.6,313.449561 C761.6,275.805331 791.68768,245.286421 828.8,245.286421 L865.45536,245.286421 C882.32256,245.286421 896,231.41295 896,214.304002 L896,145.313816 C896,66.833504 834.70912,2.87375797 758.02944,0 L136.294592,0.0727073489 Z M340.48,390.701119 C340.48,368.111854 358.531712,349.803235 380.8,349.803235 L515.2,349.803235 C537.47008,349.803235 555.52,368.111854 555.52,390.701119 C555.52,413.290383 537.47008,431.599003 515.2,431.599003 L380.8,431.599003 C358.531712,431.599003 340.48,413.290383 340.48,390.701119 Z M380.8,195.300119 C358.531712,195.300119 340.48,213.608738 340.48,236.198003 C340.48,258.787267 358.531712,277.095886 380.8,277.095886 L515.2,277.095886 C537.47008,277.095886 555.52,258.787267 555.52,236.198003 C555.52,213.608738 537.47008,195.300119 515.2,195.300119 L380.8,195.300119 Z" id="Shape-Copy" fill="#333333"></path>
    </g>
</svg>