<?xml version="1.0" encoding="UTF-8"?>
<svg width="896px" height="728px" viewBox="0 0 896 728" version="1.1" xmlns="http://www.w3.org/2000/svg" xmlns:xlink="http://www.w3.org/1999/xlink">
    <title>0106点餐-线条</title>
    <g id="0106点餐-线条" stroke="none" stroke-width="1" fill="none" fill-rule="evenodd">
        <path d="M860.565202,657.125 C879.939599,657.125 895.682335,672.67096 895.995253,691.97635 L896,692.5625 C896,712.134091 880.139599,728 860.565202,728 L35.4347984,728 C15.8646997,728 0,712.138394 0,692.5625 C0,672.990909 15.8604014,657.125 35.4347984,657.125 L860.565202,657.125 Z M448,0 C509.855892,0 560,50.1437431 560,111.999879 L560.005198,129.639079 C726.875056,178.198646 848.842105,332.515538 848.842105,515.375 C848.842105,523.307266 848.612595,531.185823 848.159865,539.004367 L860.565202,539 C879.939599,539 895.682335,554.54596 895.995253,573.85135 L896,574.4375 C896,594.009091 880.139599,609.875 860.565202,609.875 L35.4347984,609.875 C15.8646997,609.875 0,594.013394 0,574.4375 C0,554.865909 15.8604014,539 35.4347984,539 L47.8401351,539.004367 C47.3874051,531.185823 47.1578947,523.307266 47.1578947,515.375 C47.1578947,332.515173 169.125431,178.198029 335.995801,129.638788 L336,111.999879 C336,50.7626122 385.14999,1.00405226 446.147988,0.0150047839 L448,0 Z M448,184.625 C265.687897,184.625 117.894737,332.706819 117.894737,515.375 C117.894737,523.319708 118.174303,531.198992 118.724116,539.003515 L777.275884,539.003515 C777.825697,531.198992 778.105263,523.319708 778.105263,515.375 C778.105263,332.706819 630.312103,184.625 448,184.625 Z M398.225074,252 C406.19317,252 413.000963,255.065697 418.648453,261.153139 C424.301077,267.262557 427.114554,274.531227 427.114554,283.140452 C427.114554,288.167536 426.10314,292.815528 424.105982,297.078935 C422.134091,301.335657 419.227349,305.01743 415.634747,307.808876 C411.989548,310.715244 408.174926,312.500821 404.211414,313.13264 C386.675583,318.708718 369.808698,326.458477 353.953885,336.224263 C338.460422,345.816906 324.086923,357.34555 311.135641,370.567764 C298.378112,383.521239 287.172058,398.118848 277.774375,414.025945 C276.416623,417.633061 274.388793,420.907717 271.813706,423.651575 C269.25644,426.418784 266.213596,428.618217 262.859867,430.123603 C259.532982,431.563052 255.887784,432.266294 251.878066,432.266294 C243.90997,432.266294 237.297273,429.403878 231.988632,423.695528 C226.65432,417.948719 224,410.795425 224,402.230153 C224,395.802078 225.683979,390.121198 228.969791,385.066644 L228.969791,384.995221 L228.995462,384.995221 L228.995462,384.989727 C246.908274,353.536112 269.641989,326.362387 297.18634,303.496022 C324.540679,280.703141 355.835416,263.921244 389.271235,254.115221 C390.626633,253.395497 391.946092,253.054864 393.255283,253.054864 C395.278111,252.379092 396.921018,252 398.225074,252 Z M448,56 L447.073738,56.0075024 C416.566455,56.5020261 392,81.3813061 392,111.99994 L392,111.99994 L391.996492,117.638763 C410.297362,115.075323 428.99421,113.75 448,113.75 C467.006136,113.75 485.703319,115.075371 504.004507,117.638903 L504,111.99994 C504,81.0718715 478.927946,56 448,56 L448,56 Z" id="Combined-Shape" fill="#333333"></path>
    </g>
</svg>