<?xml version="1.0" encoding="UTF-8"?>
<svg width="896px" height="896px" viewBox="0 0 896 896" version="1.1" xmlns="http://www.w3.org/2000/svg" xmlns:xlink="http://www.w3.org/1999/xlink">
    <title>0163提交成功</title>
    <g id="0163提交成功" stroke="none" stroke-width="1" fill="none" fill-rule="evenodd">
        <path d="M448,0 C695.514863,0 896,200.48411 896,448 C896,695.514863 695.514863,896 448,896 C200.48411,896 0,695.514863 0,448 C0,200.48411 200.48411,0 448,0 Z M652.339376,260.368147 L351.927633,562.297541 L216.643964,427.162862 C204.14723,414.693871 183.886532,414.693871 171.389798,427.162862 C158.893064,439.686311 158.893064,459.866862 171.389798,472.389283 L329.778348,630.6011 C342.275082,643.070091 362.53578,643.070091 375.032514,630.6011 C376.53578,629.12455 377.848954,627.485651 378.983339,625.788183 L697.620257,305.593541 C710.089248,293.070092 710.089248,272.83611 697.620257,260.367119 C685.097835,247.899157 664.863853,247.899157 652.339376,260.368147 Z" id="Shape" fill="#333333" fill-rule="nonzero"></path>
    </g>
</svg>