<?xml version="1.0" encoding="UTF-8"?>
<svg width="834px" height="896px" viewBox="0 0 834 896" version="1.1" xmlns="http://www.w3.org/2000/svg" xmlns:xlink="http://www.w3.org/1999/xlink">
    <title>0166新购物车</title>
    <g id="0166新购物车" stroke="none" stroke-width="1" fill="none" fill-rule="evenodd">
        <path d="M202.028939,792.24004 C230.665958,792.24004 253.880849,815.467498 253.880849,844.12002 C253.880849,872.772542 230.665958,896 202.028939,896 C173.39192,896 150.177029,872.772542 150.177029,844.12002 C150.177029,815.467498 173.39192,792.24004 202.028939,792.24004 Z M668.696127,792.24004 C697.333146,792.24004 720.548037,815.467498 720.548037,844.12002 C720.548037,872.772542 697.333146,896 668.696127,896 C640.059108,896 616.844217,872.772542 616.844217,844.12002 C616.844217,815.467498 640.059108,792.24004 668.696127,792.24004 Z M48.1450431,5.07493039 L188.734,97.048 L678.444271,97.0483095 C764.355328,97.0483095 834,166.730684 834,252.688249 C834,260.877535 833.354009,269.054048 832.068045,277.141626 L799.071376,484.661546 C787.055825,560.228748 721.923727,615.848109 645.447601,615.848109 L228.316299,615.848109 C209.663189,615.848109 191.788772,612.030208 175.500026,605.083524 C184.945865,647.503844 222.651163,678.104084 266.588871,678.104084 L266.588871,678.104084 L720.548037,678.104084 C737.730248,678.104084 751.659183,692.040559 751.659183,709.232072 C751.659183,726.423585 737.730248,740.36006 720.548037,740.36006 L720.548037,740.36006 L266.588871,740.36006 C190.205967,740.36006 125.124269,684.872757 113.003975,609.41677 L113.003975,609.41677 L97.7949385,514.754834 C96.7322313,510.633732 95.8557883,506.430279 95.1756942,502.153087 L36.572,133.589 L36.4969945,133.115627 C36.4892276,133.067274 36.4815765,133.018929 36.474041,132.970592 L35.712,128.176 L35.6610232,128.176297 L2.14687367,42.4696337 C-4.11348763,26.4598382 3.78296824,8.40356174 19.7841015,2.13981138 C29.1558044,-1.52880424 39.7222425,-0.435266739 48.1450431,5.07493039 Z M678.444271,159.304285 L103.723,159.304 L158.697806,501.555064 C167.685068,532.051233 195.803962,553.592133 228.316299,553.592133 L645.447601,553.592133 C691.333276,553.592133 730.412536,520.220516 737.621866,474.880195 L770.618536,267.360275 C771.390114,262.507729 771.777708,257.601821 771.777708,252.688249 C771.777708,201.11371 729.990905,159.304285 678.444271,159.304285 Z" id="形状结合" fill="#222222" fill-rule="nonzero"></path>
    </g>
</svg>