<?xml version="1.0" encoding="UTF-8"?>
<svg width="896px" height="880px" viewBox="0 0 896 880" version="1.1" xmlns="http://www.w3.org/2000/svg" xmlns:xlink="http://www.w3.org/1999/xlink">
    <title>0102更新升级</title>
    <g id="0102更新升级" stroke="none" stroke-width="1" fill="none" fill-rule="evenodd">
        <path d="M867.235596,102.71826 C847.425646,98.316049 827.615696,110.055279 823.213485,129.865229 L807.072044,197.3658 C727.098541,76.3049932 589.896294,0 440.221115,0 C197.3658,0 0,197.3658 0,440.221115 C0,683.07643 197.3658,880.44223 440.221115,880.44223 C595.032207,880.44223 740.305175,797.53392 819.544975,664.000181 C829.816801,646.391337 823.947187,624.380281 806.338342,614.108455 C788.729497,603.836629 766.718442,609.706244 756.446616,627.315089 C690.413448,738.837771 569.352642,807.805746 440.221115,807.805746 C237.719402,807.805746 73.3701858,643.456529 73.3701858,440.954817 C73.3701858,238.453104 237.719402,74.1038877 440.221115,74.1038877 C569.352642,74.1038877 688.212343,143.071862 754.24551,250.926035 L664.000181,229.648682 C644.190231,225.24647 624.380281,236.9857 619.97807,256.79565 C615.575859,276.6056 627.315089,296.415551 647.125039,300.817762 L812.207957,339.70396 C815.142764,340.437662 818.077572,340.437662 820.278677,340.437662 C837.15382,340.437662 851.827857,328.698432 856.230068,311.82329 L895.116267,146.740372 C899.518478,126.930421 887.045546,107.120471 867.235596,102.71826 Z" id="Shape" fill="#333333"></path>
    </g>
</svg>