<?xml version="1.0" encoding="UTF-8"?>
<svg width="896px" height="896px" viewBox="0 0 896 896" version="1.1" xmlns="http://www.w3.org/2000/svg" xmlns:xlink="http://www.w3.org/1999/xlink">
    <title>061iOS-首页-选中</title>
    <g id="061iOS-首页-选中" stroke="none" stroke-width="1" fill="none" fill-rule="evenodd">
        <path d="M447.982415,0 C695.018701,0 896,200.946377 896,447.982965 C896,695.019553 695.018701,896 447.982415,896 C200.94613,896 0,695.019553 0,447.982965 C0,200.946377 200.94613,0 447.982415,0 Z M447.577255,164.230322 C429.033569,164.230322 411.70102,171.6344 398.761725,185.161145 L398.761725,185.161145 L190.247373,402.01291 C168.728,424.397537 171.496157,443.737302 175.059294,451.832047 C177.480471,457.368361 185.888157,471.96789 208.617569,472.971498 C208.617569,473.109851 208.548392,473.179027 208.548392,473.31738 L208.548392,473.31738 L241.831059,473.31738 L241.831059,507.429067 L241.865098,507.429067 C241.865098,507.498243 241.831059,507.56742 241.831059,507.636596 L241.831059,507.636596 L241.831059,644.985929 C241.831059,682.90342 272.587137,713.660596 310.505725,713.660596 L310.505725,713.660596 L379.145255,713.660596 L379.145255,541.95691 C379.145255,522.998165 394.505725,507.636596 413.464471,507.636596 L413.464471,507.636596 L482.139137,507.636596 C501.097882,507.636596 516.49349,522.998165 516.49349,541.95691 L516.49349,541.95691 L516.49349,713.660596 L585.168157,713.660596 C623.086745,713.660596 653.842824,682.90342 653.842824,644.985929 L653.842824,644.985929 L653.842824,473.282243 L688.162039,473.282243 C688.162039,473.040675 688.058824,472.867184 688.058824,472.659655 C709.473882,470.964282 717.708078,457.160831 720.095216,451.762871 C723.658353,443.668125 726.42651,424.328361 704.942275,401.943733 L704.942275,401.943733 L496.427922,185.091969 C483.45349,171.6344 466.156078,164.230322 447.577255,164.230322 Z M447.853961,198.550635 C456.398902,198.446322 464.633098,202.424518 470.861176,208.929302 L470.861176,208.929302 L679.375529,425.642714 C682.800314,429.171812 684.841569,434.430322 686.017569,436.506714 C685.498196,436.540753 684.944784,438.92789 684.357333,438.92789 L684.357333,438.92789 L653.876863,438.92789 C634.884078,438.92789 619.52251,454.288361 619.52251,473.248204 L619.52251,473.248204 L619.52251,644.950792 C619.52251,663.910635 604.162039,679.271106 585.203294,679.271106 L585.203294,679.271106 L550.847843,679.271106 L550.847843,541.921773 C550.847843,503.970243 520.091765,473.248204 482.174275,473.248204 L482.174275,473.248204 L413.499608,473.248204 C375.582118,473.248204 344.824941,504.004282 344.824941,541.921773 L344.824941,541.921773 L344.824941,679.271106 L310.505725,679.271106 C291.545882,679.271106 276.150275,663.910635 276.150275,644.950792 L276.150275,644.950792 L276.150275,478.57589 C276.462118,476.776204 277.223059,475.115969 277.223059,473.248204 C277.223059,454.288361 261.862588,438.92789 241.831059,438.92789 L241.831059,438.92789 L210.797176,438.92789 C210.209725,438.92789 209.621176,436.540753 209.136941,436.506714 C210.312941,434.430322 212.354196,429.171812 215.77898,425.642714 L215.77898,425.642714 L424.293333,208.929302 C430.521412,202.459655 439.343059,198.481459 447.853961,198.550635 Z" id="Combined-Shape" fill="#333333"></path>
    </g>
</svg>