<?xml version="1.0" encoding="UTF-8"?>
<svg width="896px" height="887px" viewBox="0 0 896 887" version="1.1" xmlns="http://www.w3.org/2000/svg" xmlns:xlink="http://www.w3.org/1999/xlink">
    <title>063新搜索</title>
    <g id="063新搜索" stroke="none" stroke-width="1" fill="none" fill-rule="evenodd">
        <path d="M439.87884,0 C682.817214,0 879.757679,196.863585 879.757679,439.707124 C879.757679,525.697449 855.064271,605.922571 812.37909,673.683471 L892.699657,839.660171 C900.63455,856.055587 893.770751,875.776688 877.368932,883.708484 C867.781373,888.344955 856.544357,888.069491 847.19568,882.968817 L693.417913,799.070937 C621.758744,849.68101 534.292433,879.414247 439.87884,879.414247 C196.940465,879.414247 0,682.550662 0,439.707124 C0,196.863585 196.940465,0 439.87884,0 Z M439.87884,65.9560685 C233.381221,65.9560685 65.9818259,233.290116 65.9818259,439.707124 C65.9818259,646.124131 233.381221,813.458179 439.87884,813.458179 C646.376458,813.458179 813.775853,646.124131 813.775853,439.707124 C813.775853,233.290116 646.376458,65.9560685 439.87884,65.9560685 Z" id="形状结合" fill="#222222" fill-rule="nonzero"></path>
    </g>
</svg>