<?xml version="1.0" encoding="UTF-8"?>
<svg width="896px" height="896px" viewBox="0 0 896 896" version="1.1" xmlns="http://www.w3.org/2000/svg" xmlns:xlink="http://www.w3.org/1999/xlink">
    <title>057iOS-个人中心</title>
    <g id="057iOS-个人中心" stroke="none" stroke-width="1" fill="none" fill-rule="evenodd">
        <path d="M34.6283379,447.982965 C34.6283379,675.905144 220.060516,861.372719 448.017585,861.372719 C675.938385,861.372719 861.405732,675.939215 861.405732,447.982965 C861.371662,220.026715 675.904315,34.6283804 447.982415,34.6283804 C220.026445,34.6283804 34.6283379,220.026715 34.6283379,447.982965 Z M447.982415,0 C695.018701,0 896,200.946377 896,447.982965 C896,695.019553 695.018701,896 447.982415,896 C200.94613,896 0,695.019553 0,447.982965 C0,200.946377 200.94613,0 447.982415,0 Z M448,205.333333 C355.216162,205.333333 280,280.549495 280,373.333333 C280,433.090614 311.199537,485.560852 358.197808,515.343244 L358.195215,515.333039 C224.566671,549.820364 155.588564,654.485487 127.748326,709.466649 C133.243306,715.479909 135.548428,718.374266 137.64907,720.917487 L137.955368,721.28748 C138.108133,721.471545 138.260584,721.654452 138.413889,721.837287 L138.721984,722.203181 C141.408027,725.378985 144.585037,728.750084 154.343582,737.963093 C168.581671,704.592392 246.796225,545.090627 442.457827,541.235791 L442.463495,541.243826 C444.301687,541.303345 446.147341,541.333333 448,541.333333 C450.183585,541.333333 452.35744,541.291675 454.520813,541.209108 L454.525335,541.196199 C651.991312,543.779696 728.035757,704.578631 741.718841,738.001585 C761.712565,718.969727 766.424805,709.466649 769.361521,709.29178 C742.232826,653.800593 674.243854,548.021176 539.142911,514.477916 L539.137559,514.488182 C585.39053,484.563104 616,432.522831 616,373.333333 C616,280.549495 540.783838,205.333333 448,205.333333 Z M448,242.666667 C520.165207,242.666667 578.666667,301.168126 578.666667,373.333333 C578.666667,445.498541 520.165207,504 448,504 C375.834793,504 317.333333,445.498541 317.333333,373.333333 C317.333333,301.168126 375.834793,242.666667 448,242.666667 Z" id="Combined-Shape" fill="#333333"></path>
    </g>
</svg>