<?xml version="1.0" encoding="UTF-8"?>
<svg width="896px" height="896px" viewBox="0 0 896 896" version="1.1" xmlns="http://www.w3.org/2000/svg" xmlns:xlink="http://www.w3.org/1999/xlink">
    <title>020客服电话</title>
    <g id="020客服电话" stroke="none" stroke-width="1" fill="none" fill-rule="evenodd">
        <path d="M660.507077,625.906612 L660.507077,556.982995 C639.429985,556.982995 627.762134,566.463665 594.687473,598.982421 C592.592268,601.046212 592.592268,601.046212 590.518798,603.100825 C567.530927,625.905794 560.951631,632.183433 560.977027,632.170826 C561.240152,632.041253 540.455556,630.649512 516.660705,622.71515 C477.821732,609.764345 436.145599,583.704886 394.887333,542.425582 C321.024996,468.639162 269.696,362.463654 269.696,331.795097 C269.696,340.151076 270.445134,339.031486 271.849998,337.565241 C277.140366,332.043726 284.775471,325.128967 295.953407,315.608336 C298.301185,313.612391 298.301185,313.612391 300.678511,311.603203 C308.471958,305.046974 313.090771,301.164753 316.176643,298.549126 C322.11442,293.516184 326.654357,289.576056 330.637458,285.961378 C346.842356,271.255373 353.052308,264.216821 355.55345,249.988142 C361.675303,215.161698 233.186239,0 192.381538,0 C155.176675,0 0,184.297044 0,218.175736 C0,246.927173 11.3879307,300.683958 37.8604467,363.606827 C78.9120135,461.182832 148.62378,564.24251 253.101956,668.696925 C353.179841,768.774519 446.94891,832.589505 533.347571,866.989243 C591.601545,890.183137 634.273592,896.682639 674.467225,895.944774 C676.841868,895.89952 676.841868,895.89952 677.578709,895.894206 C713.927368,895.996444 896,760.34545 896,723.621649 C896,686.320143 695.274182,556.982995 660.507077,556.982995 L660.507077,625.906612 C658.09982,625.906612 659.624925,627.310665 663.078283,629.447102 C666.44414,626.686801 667.789645,625.906612 660.507077,625.906612 Z M681.61188,639.841042 C700.576113,650.651812 724.667383,665.377746 748.366229,680.648035 C773.115665,696.595268 795.641319,711.972213 811.777103,724.007351 C798.26887,738.285082 777.929576,754.383541 755.967356,770.746225 C734.272488,786.909721 712.587696,802.14176 695.532567,813.173726 C684.817634,820.104591 672.045088,826.954908 677.869108,826.971268 C675.476291,826.986223 675.476291,826.986223 673.202175,827.032767 C641.596997,827.612968 607.874752,822.476636 558.842702,802.954462 C481.509278,772.16406 395.524018,713.646382 301.834933,619.957571 C132.999994,451.161028 68.9230769,298.855768 68.9230769,218.175736 C68.9230769,226.164378 69.9676282,224.111938 69.4768166,224.87489 C72.7487024,219.78884 77.7730908,212.690277 84.1563157,204.152474 C97.080076,186.866458 114.683519,164.859866 132.901399,143.223228 C151.978708,120.565882 170.333503,99.9622125 184.679357,85.1992293 C186.246172,83.5868568 187.755786,82.0539639 189.20365,80.6045913 C190.27396,82.0763134 191.382368,83.6225948 192.52597,85.240042 C204.466419,102.127964 219.541622,125.756316 235.182871,151.948411 C249.893955,176.582896 264.106713,201.828409 274.43295,221.630105 C277.408654,227.336344 279.996704,232.467637 282.131556,236.885709 C279.267533,239.431702 275.869435,242.362652 271.611805,245.971477 C268.657896,248.475251 264.18059,252.238532 256.217447,258.93777 C253.745894,261.026579 253.745894,261.026579 251.262883,263.13748 C211.634076,296.890691 200.772923,308.22639 200.772923,331.795097 C200.772923,382.353311 260.21777,505.316691 346.157874,591.168447 C435.553035,680.609206 544.635173,716.982502 591.49129,693.97138 C602.532615,688.490519 596.658668,694.09515 639.059537,652.03164 C641.040212,650.068992 641.040212,650.068992 643.008481,648.130245 C651.435438,639.844925 657.891413,633.809129 663.078283,629.447102 C667.498103,632.181447 675.076489,636.115471 681.61188,639.841042 Z" id="客服电话" fill="#333333" fill-rule="nonzero"></path>
    </g>
</svg>