<?xml version="1.0" encoding="UTF-8"?>
<svg width="896px" height="896px" viewBox="0 0 896 896" version="1.1" xmlns="http://www.w3.org/2000/svg" xmlns:xlink="http://www.w3.org/1999/xlink">
    <title>0131单选框</title>
    <g id="0131单选框" stroke="none" stroke-width="1" fill="none" fill-rule="evenodd">
        <path d="M448,851.2 C670.681211,851.2 851.2,670.681211 851.2,448 C851.2,225.318789 670.681211,44.8 448,44.8 C225.318789,44.8 44.8,225.318789 44.8,448 C44.8,670.681211 225.318789,851.2 448,851.2 Z M448,0 C695.423568,0 896,200.576432 896,448 C896,695.423568 695.423568,896 448,896 C200.576432,896 0,695.423568 0,448 C0,200.576432 200.576432,0 448,0 Z M448,134.4 C274.803502,134.4 134.4,274.803502 134.4,448 C134.4,621.196498 274.803502,761.6 448,761.6 C621.196498,761.6 761.6,621.196498 761.6,448 C761.6,274.803502 621.196498,134.4 448,134.4 Z" id="单选选中" fill="#333333" fill-rule="nonzero"></path>
    </g>
</svg>