<?xml version="1.0" encoding="UTF-8"?>
<svg width="896px" height="896px" viewBox="0 0 896 896" version="1.1" xmlns="http://www.w3.org/2000/svg" xmlns:xlink="http://www.w3.org/1999/xlink">
    <title>0159支付成功</title>
    <g id="0159支付成功" stroke="none" stroke-width="1" fill="none" fill-rule="evenodd">
        <path d="M436.507319,650.008443 C425.849693,650.008443 415.190983,645.898126 407.062635,637.678585 L235.823537,464.796968 C219.575504,448.377572 219.575504,421.773165 235.823537,405.35377 C252.067237,388.935469 278.432377,388.935469 294.684742,405.35377 L436.507319,548.567382 L824.94952,156.325314 C841.210551,139.907013 867.567026,139.907013 883.826974,156.325314 C900.057675,172.723928 900.057675,199.337086 883.826974,215.759762 L465.919507,637.690616 C457.799824,645.898126 447.132449,650.008443 436.507319,650.008443 Z M443.681773,896 C199.038397,896 0,695.027568 0,448.003828 C0,200.976808 199.038397,0 443.681773,0 C530.951038,0 615.428892,25.5708127 687.943861,73.9474339 C702.549759,83.6894774 706.561939,103.538876 696.926856,118.287019 C687.279858,133.027507 667.620822,137.099542 653.014924,127.3575 C590.883531,85.9065112 518.490963,63.9975787 443.681773,63.9975787 C233.976001,63.9975787 63.381408,236.254664 63.381408,448.002735 C63.381408,659.745337 233.977083,832.003517 443.681773,832.003517 C653.383212,832.003517 823.978888,659.745338 823.978888,448.002735 C823.978888,434.638187 823.306219,421.182859 821.952217,408.003155 C820.149768,390.417821 832.809152,374.699521 850.217294,372.888268 C867.608104,371.063891 883.199716,383.850938 884.993499,401.424241 C886.567392,416.779415 887.359213,432.441935 887.359213,448.002735 C887.359213,695.027567 688.324065,896 443.681773,896 Z" id="Shape-Copy" fill="#333333" fill-rule="nonzero"></path>
    </g>
</svg>