<?xml version="1.0" encoding="UTF-8"?>
<svg width="896px" height="869px" viewBox="0 0 896 869" version="1.1" xmlns="http://www.w3.org/2000/svg" xmlns:xlink="http://www.w3.org/1999/xlink">
    <title>0158人脸返回</title>
    <g id="0158人脸返回" stroke="none" stroke-width="1" fill="none" fill-rule="evenodd">
        <path d="M206.806859,183.422145 L553.234899,183.422145 C742.538837,183.422145 896,336.893976 896,526.211073 C896,715.52817 742.538837,869 553.234899,869 L42.0939597,869 C18.8461077,869 0,850.152582 0,826.903114 C0,803.653646 18.8461077,784.806228 42.0939597,784.806228 L553.234899,784.806228 C696.043133,784.806228 811.812081,669.029234 811.812081,526.211073 C811.812081,383.392912 696.043133,267.615917 553.234899,267.615917 L218.885552,267.615917 L318.357372,367.094651 C334.796085,383.534507 334.796085,410.188781 318.357372,426.628637 C301.918658,443.068493 275.266238,443.068493 258.827524,426.628637 L84.490109,252.279103 C75.4989404,243.287309 71.4254993,231.239819 72.2697855,219.479265 C71.4254993,207.71871 75.4989404,195.67122 84.490109,186.679426 L258.827524,12.3298922 C275.266238,-4.10996406 301.918658,-4.10996406 318.357372,12.3298922 C334.796085,28.7697484 334.796085,55.4240218 318.357372,71.863878 L206.806859,183.422145 Z" id="Combined-Shape" fill="#333333" fill-rule="nonzero"></path>
    </g>
</svg>