<?xml version="1.0" encoding="UTF-8"?>
<svg width="791px" height="896px" viewBox="0 0 791 896" version="1.1" xmlns="http://www.w3.org/2000/svg" xmlns:xlink="http://www.w3.org/1999/xlink">
    <title>06登录-密码</title>
    <g id="06登录-密码" stroke="none" stroke-width="1" fill="none" fill-rule="evenodd">
        <path d="M395.294118,579.764706 C424.402773,579.764706 448,603.361933 448,632.470588 C448,651.979135 437.40096,669.012143 421.64723,678.125263 L421.647059,790.091626 C421.647059,790.365896 421.423527,790.588235 421.142312,790.588235 L369.445923,790.588235 C369.167159,790.588235 368.941176,790.37242 368.941176,790.091626 L368.941025,678.125274 C353.187284,669.012157 342.588235,651.979143 342.588235,632.470588 C342.588235,603.361933 366.185463,579.764706 395.294118,579.764706 Z M52.7058824,497.29853 C52.7058824,484.65808 64.5862132,474.352941 79.4196203,474.352941 L711.168615,474.352941 C725.983499,474.352941 737.882353,484.666086 737.882353,497.29853 L737.882353,820.348529 C737.882353,832.988978 726.002022,843.294118 711.168615,843.294118 L79.4196203,843.294118 C64.6047364,843.294118 52.7058824,832.980973 52.7058824,820.348529 L52.7058824,497.29853 Z M395.294118,0 C555.294097,0 685.176471,129.983195 685.176471,289.882353 C685.176471,304.43668 673.377857,316.235294 658.823529,316.235294 C644.269202,316.235294 632.470588,304.43668 632.470588,289.882353 C632.470588,159.082699 526.176283,52.7058824 395.294118,52.7058824 C264.494463,52.7058824 158.117647,159.000188 158.117647,289.882353 L158.117647,289.882353 L158.117,421.647 L711.168615,421.647059 C754.542638,421.647059 789.875265,452.759351 790.57758,491.507044 L790.588235,492.68353 L790.588235,824.963529 C790.588235,864.255856 755.008408,896 711.168615,896 L711.168615,896 L79.4196203,896 C35.6074757,896 0,864.256002 0,824.963529 L0,824.963529 L0,492.68353 C0,453.391203 35.5798268,421.647059 79.4196203,421.647059 L79.4196203,421.647059 L105.411,421.647 L105.411765,289.882353 C105.411765,131.482373 232.808294,2.60065923 390.506218,0.0388649473 Z" id="登录-密码" fill="#333333"></path>
    </g>
</svg>