<?xml version="1.0" encoding="UTF-8"?>
<svg width="896px" height="896px" viewBox="0 0 896 896" version="1.1" xmlns="http://www.w3.org/2000/svg" xmlns:xlink="http://www.w3.org/1999/xlink">
    <title>074md-设置</title>
    <g id="074md-设置" stroke="none" stroke-width="1" fill="none" fill-rule="evenodd">
        <path d="M888.579117,567.466666 L784.071471,495.786666 C784.071471,482.346666 788.55037,468.906666 788.55037,450.986666 C788.55037,433.066666 788.55037,419.626666 784.071471,406.186666 L879.621319,330.026666 C888.579117,321.066666 888.579117,312.106666 884.100218,303.146666 L793.029269,143.36 C788.55037,138.88 779.592572,134.4 766.155874,138.88 L651.197464,183.68 C628.802969,165.76 600.436607,152.32 573.563213,138.88 L555.647616,22.4 C560.126516,8.96 545.196852,0 536.239053,0 L354.097157,0 C345.139358,0 331.702661,8.96 331.702661,17.92 L313.787065,138.88 C286.91367,147.84 263.026208,165.76 236.152813,183.68 L127.166268,138.88 C112.236605,134.4 103.278807,138.88 92.8280417,147.84 L1.75709382,306.133334 C-2.72180529,310.613334 1.75709382,324.053334 10.714892,333.013334 L106.26474,404.693334 C106.26474,418.133334 101.785841,431.573334 101.785841,449.493334 C101.785841,467.413334 101.785841,480.853334 106.26474,494.293334 L10.714892,570.453334 C1.75709382,579.413334 1.75709382,588.373334 6.23599293,597.333334 L97.3069417,755.626667 C103.278807,761.6 112.236605,766.08 125.673302,761.6 L240.631712,716.8 C263.026208,734.72 291.392569,748.16 318.265964,761.6 L336.18156,878.08 C336.18156,887.04 345.139358,896 358.576056,896 L540.717952,896 C549.675751,896 563.112448,887.04 563.112448,878.08 L582.521011,761.6 C609.394406,748.16 637.760767,734.72 660.155263,716.8 L775.113673,761.6 C784.071471,766.08 797.508168,761.6 801.987067,752.64 L893.058016,594.346666 C897.536915,585.386666 897.536915,571.946666 888.579117,567.466666 Z M445.168105,607.786666 C358.576056,607.786666 285.420704,536.106666 285.420704,449.493333 C285.420704,364.373333 358.576057,291.199999 445.168105,291.199999 C531.760154,291.199999 604.915507,362.879999 604.915507,449.493333 C604.915507,536.106666 531.760154,607.786666 445.168105,607.786666 Z" id="md-Set-up-" fill="#333333"></path>
    </g>
</svg>