<?xml version="1.0" encoding="UTF-8"?>
<svg width="896px" height="896px" viewBox="0 0 896 896" version="1.1" xmlns="http://www.w3.org/2000/svg" xmlns:xlink="http://www.w3.org/1999/xlink">
    <title>07第三方登录微信</title>
    <g id="07第三方登录微信" stroke="none" stroke-width="1" fill="none" fill-rule="evenodd">
        <path d="M448,896 C695.423568,896 896,695.423568 896,448 C896,200.576432 695.423568,0 448,0 C200.576432,0 0,200.576432 0,448 C0,695.423568 200.576432,896 448,896 Z M448,9.84615385 C689.985687,9.84615385 886.153846,206.014313 886.153846,448 C886.153846,689.985687 689.985687,886.153846 448,886.153846 C206.014313,886.153846 9.84615385,689.985687 9.84615385,448 C9.84615385,206.014313 206.014313,9.84615385 448,9.84615385 Z M550.075495,372.578239 C463.853489,372.578239 395.94489,433.926338 395.94489,509.184619 C395.94489,584.579082 463.853489,645.789159 550.075495,645.789159 C567.357432,645.789159 584.787701,641.449614 602.146534,636.940483 L604.460602,636.338627 L604.460602,636.338627 L654.157959,664.615385 L640.531712,617.573745 C676.911087,589.227669 704,551.637175 704,509.184619 C704,433.926338 631.506996,372.578239 550.075495,372.578239 Z M373.220699,231.384615 C273.607484,231.384615 192,301.917017 192,391.48053 C192,443.179345 219.147968,485.632515 264.523122,518.559086 L246.39928,575.188667 L309.735876,542.186643 C332.416367,546.851179 350.598082,551.637175 373.220108,551.637175 C378.904109,551.637175 384.545,551.348249 390.141599,550.891855 C386.595964,538.305459 384.545,525.125261 384.545,511.451863 C384.546181,429.20782 452.528008,362.465814 538.617731,362.465814 C544.493069,362.465814 550.295178,362.914233 556.06717,363.5841 C540.389958,287.732631 462.329882,231.384615 373.220699,231.384615 Z M500.114165,447.973315 C513.81364,447.973315 522.794655,457.417713 522.794655,466.799541 C522.794655,476.311416 513.813639,485.632514 500.114165,485.632514 C491.089448,485.632514 481.97615,476.311416 481.97615,466.799541 C481.97615,457.4171 491.089448,447.973315 500.114165,447.973315 Z M599.786435,447.973315 C613.368391,447.973315 622.465744,457.417713 622.465744,466.799541 C622.466335,476.311416 613.368391,485.632514 599.786435,485.632514 C590.819592,485.632514 581.780702,476.311416 581.780702,466.799541 C581.780702,457.4171 590.820183,447.973315 599.786435,447.973315 Z M441.172408,311.428279 C454.814009,311.428279 463.852899,320.74999 463.852899,334.918427 C463.852899,349.027361 454.813418,358.47728 441.172408,358.47728 C427.590452,358.47728 413.965386,349.026748 413.965386,334.918427 C413.965977,320.74999 427.591043,311.428279 441.172408,311.428279 Z M314.352171,311.428892 C327.933536,311.428892 336.973607,320.750603 336.973607,334.91904 C336.973607,349.027361 327.933536,358.477893 314.352171,358.477893 C300.769624,358.477893 287.056567,349.027361 287.056567,334.91904 C287.056567,320.750603 300.770214,311.428892 314.352171,311.428892 Z" id="第三方登录微信" fill="#333333" fill-rule="nonzero"></path>
    </g>
</svg>