<?xml version="1.0" encoding="UTF-8"?>
<svg width="896px" height="207px" viewBox="0 0 896 207" version="1.1" xmlns="http://www.w3.org/2000/svg" xmlns:xlink="http://www.w3.org/1999/xlink">
    <title>0209更多</title>
    <g id="0209更多" stroke="none" stroke-width="1" fill="none" fill-rule="evenodd">
        <g id="点点" fill="#000000">
            <path d="M103.384615,0 C160.482362,0 206.769231,46.2868689 206.769231,103.384615 C206.769231,160.482362 160.482362,206.769231 103.384615,206.769231 C46.2868689,206.769231 0,160.482362 0,103.384615 C0,46.2868689 46.2868689,0 103.384615,0 Z M448,0 C505.097746,0 551.384615,46.2868689 551.384615,103.384615 C551.384615,160.482362 505.097746,206.769231 448,206.769231 C390.902254,206.769231 344.615385,160.482362 344.615385,103.384615 C344.615385,46.2868689 390.902254,0 448,0 Z M792.615385,0 C849.713131,0 896,46.2868689 896,103.384615 C896,160.482362 849.713131,206.769231 792.615385,206.769231 C735.517638,206.769231 689.230769,160.482362 689.230769,103.384615 C689.230769,46.2868689 735.517638,0 792.615385,0 Z" id="形状结合"></path>
        </g>
    </g>
</svg>