<?xml version="1.0" encoding="UTF-8"?>
<svg width="896px" height="786px" viewBox="0 0 896 786" version="1.1" xmlns="http://www.w3.org/2000/svg" xmlns:xlink="http://www.w3.org/1999/xlink">
    <title>0103皇冠</title>
    <g id="0103皇冠" stroke="none" stroke-width="1" fill="none" fill-rule="evenodd">
        <path d="M840.161405,168.344587 C809.314297,168.344587 784.323882,193.341702 784.323882,224.199476 C784.323882,232.011544 785.885381,239.432043 788.749916,246.203503 L606.79134,321.717296 L478.84818,101.81435 C493.426101,91.6582327 502.927006,74.8636818 502.927006,55.8548893 C502.927006,24.9981874 477.937663,0 447.089483,0 C416.241303,0 391.251961,24.9971147 391.251961,55.8548893 C391.251961,74.733874 400.623098,91.3986171 414.939339,101.553661 L272.939473,321.587488 L106.989477,247.245183 C110.113546,240.214108 111.93458,232.532921 111.93458,224.330357 C111.93458,193.473655 86.9452376,168.475468 56.0970574,168.475468 C25.2488773,168.475468 0,193.342775 0,224.199476 C0,254.665682 24.3394329,279.403181 54.6663986,280.054366 L141.220189,653.330021 C144.475099,667.52198 157.099001,677.547216 171.676922,677.547216 L722.109525,677.547216 C736.687446,677.547216 749.311348,667.52198 752.566258,653.330021 L839.250888,280.054366 L840.162477,280.054366 C871.009585,280.054366 896,255.057251 896,224.199476 C896,193.341702 871.010658,168.344587 840.162477,168.344587 L840.161405,168.344587 Z M697.379717,615.050675 L196.536497,615.050675 L129.506803,325.881873 L271.768349,389.678638 C285.825055,395.927648 302.484617,391.109741 310.81547,378.091417 L445.657752,168.994699 L566.573095,376.789048 C574.382733,390.329822 591.042295,395.927648 605.489376,389.938253 L765.060393,323.667631 L697.378645,615.049602 L697.379717,615.050675 Z M716.25176,723.374724 L177.66231,723.505604 C160.350694,723.505604 146.424827,737.436875 146.424827,754.752802 C146.424827,772.06873 160.351766,786 177.66231,786 L716.25176,785.869119 C733.563376,785.869119 747.489242,771.937849 747.489242,754.621922 C747.489242,737.305994 733.562303,723.374724 716.25176,723.374724 Z" id="Shape" fill="#333333"></path>
    </g>
</svg>