<?xml version="1.0" encoding="UTF-8"?>
<svg width="896px" height="828px" viewBox="0 0 896 828" version="1.1" xmlns="http://www.w3.org/2000/svg" xmlns:xlink="http://www.w3.org/1999/xlink">
    <title>0242面型收藏</title>
    <g id="0242面型收藏" stroke="none" stroke-width="1" fill="none" fill-rule="evenodd">
        <path d="M610.241568,0.0470620237 C550.242942,1.17626444 496.463887,22.6156579 450.631181,63.2526683 C449.199491,64.5412742 447.025973,64.5410552 445.594543,63.2521608 L445.523387,63.1880898 L445.523387,63.1880898 C398.244783,21.4670109 342.909649,0 281.302326,0 C125.66748,0 0,134.618107 0,299.116493 C0,376.178665 21.0828789,427.445168 70.8910436,505.315389 L74.586919,511.061449 C127.254061,593.526306 219.931657,681.148284 330.556162,765.861112 L345.08541,776.89345 C349.96121,780.564955 354.869123,784.230298 359.807335,787.888815 L374.711055,798.843228 C377.209554,800.66533 379.715174,802.48556 382.227689,804.303834 L386.324011,807.339414 C403.806876,820.839515 424.861476,828 447.72093,828 C469.24408,828 490.005591,821.006982 508.643249,807.842459 L513.582965,804.194455 C526.365206,794.915324 538.970809,785.586641 551.370113,776.21921 L566.148354,764.960387 C676.214007,680.390091 768.608265,593.031356 821.706866,510.761174 L833.974483,491.533768 L838.592659,484.053587 L841.992859,478.405584 C877.162956,419.417098 896,364.630446 896,299.116493 C896,134.655142 770.556195,0 615.255814,0 L610.241568,0.0470620237 Z" id="Path" fill="#333333" fill-rule="nonzero"></path>
    </g>
</svg>