<?xml version="1.0" encoding="UTF-8"?>
<svg width="896px" height="832px" viewBox="0 0 896 832" version="1.1" xmlns="http://www.w3.org/2000/svg" xmlns:xlink="http://www.w3.org/1999/xlink">
    <title>026商家</title>
    <g id="026商家" stroke="none" stroke-width="1" fill="none" fill-rule="evenodd">
        <path d="M161.336977,832 C104.329143,832 57.9640808,784.599391 57.9640808,726.336693 L57.7469869,559.172696 C57.7314802,544.903309 69.0151959,533.321666 82.9557279,533.305794 L82.9867414,533.305794 C96.9117667,533.305794 108.20582,544.8504 108.226496,559.103915 L108.438421,726.304948 C108.438421,756.108233 132.163687,780.329685 161.32147,780.329685 L735.028377,779.959327 C764.098289,779.895837 787.777035,755.58444 787.777035,725.770574 L787.720177,555.559055 C787.715008,541.289667 799.009061,529.723897 812.949593,529.718606 L812.954762,529.718606 C826.895294,529.718606 838.189348,541.279085 838.194517,555.543182 L838.256544,725.759992 C838.256544,784.012108 791.979353,831.502661 735.095573,831.629641 L161.336977,832 Z M691.899049,276.361583 L204.109651,276.361583 C190.169119,276.361583 178.869896,264.795813 178.869896,250.526426 C178.869896,236.262329 190.169119,224.696559 204.109651,224.696559 L691.899049,224.696559 C705.834412,224.696559 717.133634,236.262329 717.133634,250.526426 C717.133634,264.795813 705.834412,276.361583 691.899049,276.361583 L691.899049,276.361583 Z M126.343502,457.68386 C145.111789,467.847558 167.544829,473.006124 193.027522,473.016706 C227.58164,472.895016 260.802181,460.059446 286.579502,436.869707 L304.324347,420.907251 C313.835129,412.351968 328.070288,412.330804 337.601746,420.864925 L355.387942,436.779763 C380.999857,459.70496 414.018811,472.461168 448.371342,472.704546 C482.418907,472.355351 515.15874,459.58327 540.584575,436.732145 L558.355265,420.759108 C567.876385,412.203824 582.116713,412.198534 591.643002,420.748526 L609.424029,436.705691 C635.227194,459.858394 668.556282,472.609311 703.265467,472.609311 C729.378766,472.471749 752.287345,466.995733 771.283064,456.339987 C817.084716,430.721754 845.518853,381.64395 845.524022,328.243531 L845.524022,328.116551 L845.524022,327.994862 C845.591217,313.63553 843.394433,298.805314 839.166271,285.086173 C835.889186,276.038842 793.648909,167.407375 765.742,95.7958958 C765.592102,95.4096647 765.452542,95.0181427 765.31815,94.62133 C756.577535,68.6009933 730.846734,51.7390956 699.766119,51.6650239 L198.284297,51.6650239 C167.286384,51.6650239 144.465676,66.6010569 135.678541,92.6372661 C135.502798,93.1663498 135.30638,93.6848518 135.094455,94.198063 C105.559342,166.227519 61.1636319,274.63677 57.0646917,284.996229 C52.6917995,299.323816 50.4795089,314.074669 50.4795089,328.836105 C50.531198,382.326468 79.0997261,431.414854 125.035769,456.921979 C125.206343,457.017214 125.382086,457.11774 125.552659,457.218266 L126.343502,457.68386 Z M193.03786,524.68702 C159.036815,524.671148 128.493765,517.412119 102.26675,503.095114 C102.039319,502.973425 101.811887,502.841154 101.589624,502.708883 L100.690235,502.18509 C38.6427206,467.598888 0.0723646452,401.214756 0,328.862559 C0,308.487546 3.09617304,288.207767 9.19547885,268.562889 L9.20581665,268.562889 C10.2292595,265.557694 16.8971447,248.949756 88.2538538,74.9235436 C96.2036269,51.9401474 110.661049,32.8772615 130.106463,19.7454039 C149.241743,6.83047064 172.817111,0 198.284297,0 L699.822977,0 C752.550959,0.121689252 796.812277,30.3958589 812.835878,77.1933127 C876.108422,239.55852 885.44863,264.14504 887.149199,269.144881 L887.175044,269.1343 C893.031411,287.985552 896.081064,308.397601 895.998362,328.164169 L895.998362,328.243531 C895.993193,400.553401 857.484864,467.001024 795.509714,501.666588 C769.101787,516.480932 738.12455,524.094447 703.461885,524.279626 L703.332663,524.279626 C656.300812,524.279626 611.155611,506.978589 576.14663,475.556307 L575.01464,474.540467 L573.887819,475.556307 C539.307856,506.634684 494.8036,523.972757 448.572929,524.374861 C448.376511,524.374861 448.174923,524.374861 447.978505,524.36957 C401.541079,524.036247 356.866248,506.745792 322.157063,475.677997 L321.025073,474.667447 L319.898252,475.683287 C284.935791,507.137314 239.909475,524.538877 193.120562,524.68702 L193.03786,524.68702 L193.03786,524.68702 Z" id="store" fill="#333333"></path>
    </g>
</svg>