<?xml version="1.0" encoding="UTF-8"?>
<svg width="896px" height="896px" viewBox="0 0 896 896" version="1.1" xmlns="http://www.w3.org/2000/svg" xmlns:xlink="http://www.w3.org/1999/xlink">
    <title>053iOS-分类</title>
    <g id="053iOS-分类" stroke="none" stroke-width="1" fill="none" fill-rule="evenodd">
        <path d="M447.982415,34.6283804 C220.026445,34.6283804 34.6283379,220.026715 34.6283379,447.982965 C34.6283379,675.905144 220.060516,861.372719 448.017585,861.372719 C675.938385,861.372719 861.405732,675.939215 861.405732,447.982965 C861.371662,220.026715 675.904315,34.6283804 447.982415,34.6283804 M447.982415,0 C695.018701,0 896,200.946377 896,447.982965 C896,695.019553 695.018701,896 447.982415,896 C200.94613,896 0,695.019553 0,447.982965 C0,200.946377 200.94613,0 447.982415,0 Z M205.333333,578.666667 C184.714703,578.666667 168,595.381369 168,616 C168,636.618631 184.714703,653.333333 205.333333,653.333333 C225.951964,653.333333 242.666667,636.618631 242.666667,616 C242.666667,595.381369 225.951964,578.666667 205.333333,578.666667 Z M699.713037,597.333333 L340.512035,597.333333 C330.203246,597.333333 321.852802,605.690685 321.852802,616 C321.852802,626.311582 330.206825,634.666667 340.512035,634.666667 L699.713037,634.666667 C710.021827,634.666667 718.372271,626.309315 718.372271,616 C718.372271,605.688418 710.018247,597.333333 699.713037,597.333333 Z M205.333333,410.666667 C184.714703,410.666667 168,427.381369 168,448 C168,468.618631 184.714703,485.333333 205.333333,485.333333 C225.951964,485.333333 242.666667,468.618631 242.666667,448 C242.666667,427.381369 225.951964,410.666667 205.333333,410.666667 Z M699.713037,429.333333 L340.512035,429.333333 C330.203246,429.333333 321.852802,437.690685 321.852802,448 C321.852802,458.311582 330.206825,466.666667 340.512035,466.666667 L699.713037,466.666667 C710.021827,466.666667 718.372271,458.309315 718.372271,448 C718.372271,437.688418 710.018247,429.333333 699.713037,429.333333 Z M205.333333,242.666667 C184.714703,242.666667 168,259.381369 168,280 C168,300.618631 184.714703,317.333333 205.333333,317.333333 C225.951964,317.333333 242.666667,300.618631 242.666667,280 C242.666667,259.381369 225.951964,242.666667 205.333333,242.666667 Z M699.713037,261.333333 L340.512035,261.333333 C330.203246,261.333333 321.852802,269.690685 321.852802,280 C321.852802,290.311582 330.206825,298.666667 340.512035,298.666667 L699.713037,298.666667 C710.021827,298.666667 718.372271,290.309315 718.372271,280 C718.372271,269.688418 710.018247,261.333333 699.713037,261.333333 Z" id="Combined-Shape" fill="#333333"></path>
    </g>
</svg>