<?xml version="1.0" encoding="UTF-8"?>
<svg width="807px" height="896px" viewBox="0 0 807 896" version="1.1" xmlns="http://www.w3.org/2000/svg" xmlns:xlink="http://www.w3.org/1999/xlink">
    <title>0204申请售后</title>
    <g id="0204申请售后" stroke="none" stroke-width="1" fill="none" fill-rule="evenodd">
        <g id="申请售后" fill="#333333" fill-rule="nonzero">
            <path d="M472.030545,11.8094546 C487.776486,27.555394 487.776486,53.0846059 472.030545,68.8305453 C410.345731,130.51536 327.782057,166.52106 240.949862,169.967418 L227.206465,170.24 L199.608889,170.24 C136.43129,170.24 84.7556483,219.485734 80.8740567,281.685109 L80.64,289.208889 L80.64,696.391109 C80.64,759.56871 129.885734,811.244354 192.085109,815.125942 L199.608889,815.36 L606.791109,815.36 C669.96871,815.36 721.644354,766.114268 725.525942,703.914893 L725.76,696.391109 L725.76,289.208889 C725.76,226.03129 676.514268,174.355648 614.314893,170.474057 L606.791109,170.24 L566.968891,170.24 C544.700769,170.24 526.648891,152.188121 526.648891,129.92 C526.648891,109.364811 542.030371,92.4021603 561.911235,89.9141501 L566.968891,89.6 L606.791109,89.6 C713.882315,89.6 801.27622,173.934157 806.182738,279.81238 L806.4,289.208889 L806.4,696.391109 C806.4,803.482315 722.065841,890.87622 616.187618,895.782738 L606.791109,896 L199.608889,896 C92.5176851,896 5.12377882,811.665841 0.217262721,705.787618 L1.76214598e-12,696.391109 L1.76214598e-12,289.208889 C1.76214598e-12,182.117685 84.3341574,94.7237787 190.21238,89.8172625 L199.608889,89.6 L227.206465,89.6 C297.64625,89.6 365.201005,61.6179043 415.009455,11.8094546 C430.755394,-3.93648486 456.284604,-3.93648486 472.030545,11.8094546 Z M525.570116,402.173458 C534.400388,402.173458 540.859567,403.778433 544.947657,406.988384 C549.035747,410.198335 551.079791,413.729281 551.079791,417.581222 L551.079791,417.581222 L551.079791,582.733191 L558.717703,576.834908 C571.095526,567.606301 581.713203,561.387021 590.570727,558.17707 C601.199756,554.325126 610.111788,556.0906 617.306825,563.473487 C624.501862,570.856375 627.772333,578.720755 627.11824,587.066628 C626.791191,593.165534 624.747146,598.140955 620.986106,601.992899 C617.225065,605.844839 608.476552,612.023996 594.740577,620.530364 C581.004601,629.036733 568.413288,639.388826 556.966637,651.586638 C545.51999,663.784451 536.444433,675.500771 529.73997,686.735603 C523.035502,697.97043 517.966275,705.192817 514.532278,708.402769 C511.098282,711.61272 505.374961,714.180678 497.362307,716.106653 C489.349652,718.032623 481.582286,715.946152 474.0602,709.847246 C466.538119,703.74834 462.777078,696.204956 462.777078,687.217095 C463.104123,682.402166 464.16703,678.229229 465.965786,674.698286 C467.764546,671.167338 474.387249,662.66097 485.833896,649.179176 L485.833896,649.179176 L382.323494,648.697683 L384.994379,652.496123 C386.593276,654.778755 387.828787,656.562063 388.700912,657.846045 L388.700912,657.846045 L405.380314,676.624256 L407.710524,680.205357 C409.672807,683.756367 410.531305,687.217095 410.28602,690.587542 C410.28602,696.686449 407.669644,702.143366 402.43689,706.958291 C397.204137,711.773216 391.317289,714.341179 384.776348,714.662171 C375.619029,714.662171 365.317046,709.365754 353.870398,698.772915 C342.42375,688.18008 334.656382,678.871222 330.568293,670.846342 C326.480204,662.821466 324.599684,658.006541 324.926731,656.401563 L324.926731,656.401563 L326.889013,648.697683 L216.510622,649.179176 L211.400511,648.931741 C203.360603,648.106964 197.705414,645.220236 194.434943,640.27156 C190.510378,634.333155 188.548096,629.277479 188.548096,625.104543 C188.875143,617.079667 191.98209,611.141256 197.868938,607.289316 C203.755785,603.437377 209.96968,601.511407 216.510622,601.511407 L216.510622,601.511407 L343.568415,601.511407 L343.568415,585.140658 L245.454289,585.140658 L241.34576,584.779539 C237.298552,584.0573 233.435308,582.251699 229.756029,579.362744 C224.850322,575.510804 221.988661,570.374883 221.171043,563.95498 C220.353425,557.535077 222.642754,551.997914 228.039031,547.343485 C233.435308,542.689056 239.403918,540.361844 245.944859,540.361844 L245.944859,540.361844 L343.568415,540.361844 L343.568415,523.509598 L245.454289,523.509598 L240.617263,523.211073 C234.521105,522.415009 229.83779,520.026801 226.56732,516.046465 C222.479231,511.071039 220.353425,505.854872 220.189902,500.397955 C220.026378,494.941037 222.560993,490.126112 227.793746,485.953176 C233.0265,481.780239 238.913347,479.693769 245.454289,479.693769 L245.454289,479.693769 L343.568415,479.693769 L343.568415,465.24899 L204.246356,465.24899 L200.253111,464.960097 C195.098849,464.189708 190.624845,461.878543 186.831098,458.026603 C182.088916,453.211678 179.554301,447.514014 179.227254,440.933614 C178.900207,434.353215 181.516583,428.81605 187.076384,424.322119 C192.636184,419.828188 198.359508,417.581222 204.246356,417.581222 L204.246356,417.581222 L494.664168,417.581222 L494.664168,415.173759 L495.007569,413.430755 C495.923299,411.093911 498.670493,408.705708 503.249156,406.266145 C508.972477,403.216692 516.412799,401.852463 525.570116,402.173458 Z M495.154737,585.140658 L400.474608,585.140658 L400.474608,601.992899 L495.154737,601.992899 L495.154737,585.140658 Z M495.154737,523.509598 L400.474608,523.509598 L400.474608,540.361844 L495.154737,540.361844 L495.154737,523.509598 Z M479.94705,465.24899 L400.474608,465.24899 L400.474608,479.693769 L495.154737,479.693769 L495.154737,473.915859 L494.882201,471.026904 C494.518815,469.314931 493.792042,468.030949 492.701888,467.174964 C491.066652,465.890983 486.815038,465.24899 479.94705,465.24899 L479.94705,465.24899 Z M508.890717,268.8 L517.165264,268.973036 C535.748183,269.78054 549.260593,273.414304 557.702495,279.874331 C567.350385,287.257217 572.174328,298.492045 572.174328,313.578815 L572.174328,313.578815 L572.174328,347.283298 L571.948205,353.678122 C570.892968,368.072746 566.144396,378.780941 557.702495,385.802708 C548.054604,393.827586 531.784015,397.840024 508.890717,397.840024 L508.890717,397.840024 L284.699939,397.840024 L277.155499,397.642537 C240.650146,395.667665 222.39747,378.881252 222.39747,347.283298 L222.39747,347.283298 L222.39747,319.356726 L222.658085,312.645922 C223.179316,306.205958 224.482394,300.578514 226.56732,295.763587 C229.34722,289.343686 233.844117,283.244779 240.058012,277.466867 C246.271906,271.688956 262.787784,268.8 289.605646,268.8 L289.605646,268.8 L508.890717,268.8 Z M491.720746,314.541799 L301.37934,314.541799 C293.203163,314.541799 287.725125,315.665282 284.945225,317.912248 C282.165324,320.159214 280.775374,324.97414 280.775374,332.357027 L280.775374,332.357027 L280.775374,335.727475 L281.075167,339.525917 C281.474892,342.022546 282.27434,344.447841 283.473512,346.801805 C285.272271,350.332752 291.404404,352.098225 301.869911,352.098225 L301.869911,352.098225 L491.720746,352.098225 L496.599197,351.984539 C504.139449,351.605586 508.727193,350.279252 510.362429,348.005537 C512.324709,345.277079 513.305852,341.184392 513.305852,335.727475 L513.305852,335.727475 L513.305852,332.357027 L513.167881,328.279386 C512.891935,324.457538 512.202069,321.40307 511.098282,319.115979 C509.626571,316.066526 503.167392,314.541799 491.720746,314.541799 L491.720746,314.541799 Z" id="Path-Copy-4" transform="translate(403.200000, 448.000000) rotate(-180.000000) translate(-403.200000, -448.000000) "></path>
        </g>
    </g>
</svg>