<?xml version="1.0" encoding="UTF-8"?>
<svg width="807px" height="896px" viewBox="0 0 807 896" version="1.1" xmlns="http://www.w3.org/2000/svg" xmlns:xlink="http://www.w3.org/1999/xlink">
    <title>0199立即支付</title>
    <g id="0199立即支付" stroke="none" stroke-width="1" fill="none" fill-rule="evenodd">
        <g id="立即支付" transform="translate(0.000000, 0.210694)" fill="#333333" fill-rule="nonzero">
            <path d="M600.431651,4.26552802 C620.348866,14.2241345 628.421911,38.4432715 618.463306,58.3604847 C585.667725,123.95164 520.117414,166.434498 447.384411,170.00467 L437.424154,170.248832 L174.72,170.248832 C125.020135,170.248832 84.3212971,208.786807 80.8762183,257.610023 L80.64,264.328832 L80.64,721.069315 C80.64,770.76918 119.177975,811.468018 168.001191,814.913093 L174.72,815.149315 L631.68,815.149315 C681.379866,815.149315 722.078703,776.611338 725.523783,727.788123 L725.76,721.069315 L725.76,439.048832 C725.76,389.348968 687.222028,348.650129 638.398808,345.205051 L631.68,344.968832 L224,344.968832 C201.731879,344.968832 183.68,326.916954 183.68,304.648832 C183.68,284.093643 199.061483,267.130993 218.942345,264.642982 L224,264.328832 L631.68,264.328832 C725.159716,264.328832 801.493105,337.740982 806.172653,430.057764 L806.4,439.048832 L806.4,721.069315 C806.4,814.54903 732.987853,890.88242 640.671069,895.561968 L631.68,895.789315 L174.72,895.789315 C81.2402833,895.789315 4.9068927,822.377163 0.22734458,730.060383 L0,721.069315 L0,264.328832 C0,170.849116 73.4121494,94.5157253 165.728932,89.8361771 L174.72,89.6088323 L437.424154,89.6088323 C483.546444,89.6088323 525.710183,63.5502076 546.336694,22.2971802 C556.295304,2.37996718 580.51444,-5.69307849 600.431651,4.26552802 Z M548.8,526.189315 C579.727944,526.189315 604.8,551.261366 604.8,582.189315 C604.8,613.117259 579.727944,638.189315 548.8,638.189315 C517.872056,638.189315 492.8,613.117259 492.8,582.189315 C492.8,551.261366 517.872056,526.189315 548.8,526.189315 Z" id="Shape"></path>
        </g>
    </g>
</svg>