<?xml version="1.0" encoding="UTF-8"?>
<svg width="896px" height="896px" viewBox="0 0 896 896" version="1.1" xmlns="http://www.w3.org/2000/svg" xmlns:xlink="http://www.w3.org/1999/xlink">
    <title>0140可取餐</title>
    <g id="0140可取餐" stroke="none" stroke-width="1" fill="none" fill-rule="evenodd">
        <path d="M448,896 C695.423568,896 896,695.423568 896,448 C896,200.576432 695.423568,0 448,0 C200.576432,0 0,200.576432 0,448 C0,695.423568 200.576432,896 448,896 Z M715.250816,592.728593 L190.475558,592.728593 C174.565083,592.728593 161.667096,578.360547 161.667096,560.636665 C161.667096,542.912784 174.565083,528.544739 190.475558,528.544739 L198.82493,528.544739 C208.065528,382.811688 308.727063,266.44471 434.686884,256.133491 L437.235475,256.133491 L437.235475,224.363791 L400.757787,224.363791 C392.122522,224.363791 385.122258,216.565666 385.122258,206.946192 C385.122258,197.326717 392.122522,189.528593 400.757787,189.528593 L504.984223,189.528593 C513.619487,189.528593 520.619752,197.326717 520.619752,206.946192 C520.619752,216.565666 513.619487,224.363791 504.984223,224.363791 L468.506533,224.363791 L468.506533,256.133491 L471.086395,256.133491 C597.030581,266.479545 697.660846,382.79427 706.932714,528.544739 L715.266451,528.544739 C731.176925,528.549549 744.067096,542.921493 744.067096,560.645374 C744.067096,578.369255 731.16129,592.7334 715.250816,592.728593 Z M500.715723,329.84477 C500.715723,329.84477 487.034635,326.047733 482.469061,340.922363 C482.469061,340.922363 477.997299,356.267267 491.60021,363.060131 C491.60021,363.060131 579.862771,382.672348 606.505712,490.435032 C606.505712,490.435032 611.399633,507.312685 627.269694,501.84356 C627.269694,501.84356 639.246509,496.409269 636.541563,481.447551 C636.541563,481.447551 627.754396,426.198927 584.756691,382.097566 C584.756691,382.097566 549.326582,342.106759 500.715723,329.84477 Z" id="kequcan" fill="#333333"></path>
    </g>
</svg>