<?xml version="1.0" encoding="UTF-8"?>
<svg width="896px" height="896px" viewBox="0 0 896 896" version="1.1" xmlns="http://www.w3.org/2000/svg" xmlns:xlink="http://www.w3.org/1999/xlink">
    <title>011定位</title>
    <g id="011定位" stroke="none" stroke-width="1" fill="none" fill-rule="evenodd">
        <path d="M447.997434,0 C695.42612,0 896,200.57388 896,447.997434 C896,695.42612 695.42612,896 447.997434,896 C200.57388,896 0,695.42612 0,447.997434 C0,200.57388 200.57388,0 447.997434,0 Z M476.000481,56.9915394 L476.000481,196.082922 C476.000481,211.501022 463.574642,223.998717 448.002566,223.998717 C432.538273,223.998717 419.999519,211.311119 419.999519,196.082922 L419.999519,196.082922 L419.999519,56.9915394 C225.820763,70.6953767 70.6953767,225.820763 56.9915394,419.999519 L56.9915394,419.999519 L196.082922,419.999519 C211.501022,419.999519 223.998717,432.425358 223.998717,447.997434 C223.998717,463.461727 211.316252,476.000481 196.082922,476.000481 L196.082922,476.000481 L56.9915394,476.000481 C70.6953767,670.179237 225.820763,825.304623 419.999519,839.008461 L419.999519,839.008461 L419.999519,699.917078 C419.999519,684.498978 432.43049,672.001283 448.002566,672.001283 C463.461727,672.001283 476.000481,684.683748 476.000481,699.917078 L476.000481,699.917078 L476.000481,839.008461 C670.179237,825.304623 825.304623,670.179237 839.008461,476.000481 L839.008461,476.000481 L699.917078,476.000481 C684.498978,476.000481 672.001283,463.574642 672.001283,448.002566 C672.001283,432.538273 684.683748,419.999519 699.917078,419.999519 L699.917078,419.999519 L839.008461,419.999519 C825.304623,225.820763 670.179237,70.6953767 476.000481,56.9915394 L476.000481,56.9915394 Z M447.997263,358.4 C497.48215,358.4 537.6,398.513601 537.6,448 C537.6,497.486399 497.48215,537.6 447.997263,537.6 C398.512376,537.6 358.4,497.486399 358.4,448 C358.4,398.513601 398.512376,358.4 447.997263,358.4 Z" id="Combined-Shape" fill="#333333"></path>
    </g>
</svg>