<?xml version="1.0" encoding="UTF-8"?>
<svg width="896px" height="740px" viewBox="0 0 896 740" version="1.1" xmlns="http://www.w3.org/2000/svg" xmlns:xlink="http://www.w3.org/1999/xlink">
    <title>0160待支付</title>
    <g id="0160待支付" stroke="none" stroke-width="1" fill="none" fill-rule="evenodd">
        <path d="M858.043478,233.684211 L858.043478,136.315789 C858.043478,82.5350188 814.445584,38.9473684 760.652174,38.9473684 L137.347826,38.9473684 C83.554416,38.9473684 39.9565217,82.5350188 39.9565217,136.315789 L39.9565217,603.684211 C39.9565217,657.464981 83.554416,701.052632 137.347826,701.052632 L760.652174,701.052632 C814.445584,701.052632 858.043478,657.464981 858.043478,603.684211 L858.043478,506.315789 L624.304348,506.315789 C581.274162,506.315789 546.391304,471.441128 546.391304,428.421053 L546.391304,311.578947 C546.391304,268.558872 581.274162,233.684211 624.304348,233.684211 L858.043478,233.684211 Z M897,603.684211 C897,678.975019 835.960677,740 760.652174,740 L137.347826,740 C62.0393231,740 1,678.975019 1,603.684211 L1,136.315789 C1,61.0249812 62.0393231,0 137.347826,0 L760.652174,0 C835.960677,0 897,61.0249812 897,136.315789 L897,603.684211 Z M858.043478,467.368421 L858.043478,272.631579 L624.304348,272.631579 C602.789255,272.631579 585.347826,290.06891 585.347826,311.578947 L585.347826,428.421053 C585.347826,449.93109 602.789255,467.368421 624.304348,467.368421 L858.043478,467.368421 Z" id="Combined-Shape" fill="#333333" fill-rule="nonzero"></path>
    </g>
</svg>