<?xml version="1.0" encoding="UTF-8"?>
<svg width="896px" height="832px" viewBox="0 0 896 832" version="1.1" xmlns="http://www.w3.org/2000/svg" xmlns:xlink="http://www.w3.org/1999/xlink">
    <title>015会员权益</title>
    <g id="015会员权益" stroke="none" stroke-width="1" fill="none" fill-rule="evenodd">
        <path d="M480,384 L480,576 L768,576 L768,640 L480,640 L480,768 L416,768 L416,640 L128,640 L128,576 L416,576 L416,384 L480,384 Z" id="Combined-Shape" fill="#333333"></path>
        <path d="M832,320 L832,735.812523 C832,788.898497 789.241112,832 736.28304,832 L736.28304,832 L159.71696,832 C106.609996,832 64,789.404846 64,735.812523 L64,735.812523 L64,320 L832,320 Z M768,384 L128,384 L128,735.812523 C128,754.05363 141.95123,768 159.71696,768 L159.71696,768 L736.28304,768 C753.780046,768 768,753.666106 768,735.812523 L768,735.812523 L768,384 Z" id="Combined-Shape" fill="#333333"></path>
        <path d="M800.095851,192 C853.139122,192 896,234.810999 896,288 C896,341.000967 853.052157,384 800.095851,384 L800.095851,384 L95.9041491,384 C42.8608777,384 0,341.189001 0,288 C0,234.999033 42.9478428,192 95.9041491,192 L95.9041491,192 Z M800.095851,256 L95.9041491,256 C78.3111443,256 64,270.328202 64,288 C64,305.826084 78.1904301,320 95.9041491,320 L95.9041491,320 L800.095851,320 C817.688856,320 832,305.671798 832,288 C832,270.173916 817.80957,256 800.095851,256 L800.095851,256 Z" id="Combined-Shape" fill="#333333"></path>
        <path d="M544,0 C614.692448,0 672,57.307552 672,128 C672,198.692448 614.692448,256 544,256 C473.307552,256 416,198.692448 416,128 C416,57.307552 473.307552,0 544,0 Z M544,64 C508.653776,64 480,92.653776 480,128 C480,163.346224 508.653776,192 544,192 C579.346224,192 608,163.346224 608,128 C608,92.653776 579.346224,64 544,64 Z" id="Combined-Shape" fill="#333333"></path>
        <path d="M352,0 C422.692448,0 480,57.307552 480,128 C480,198.692448 422.692448,256 352,256 C281.307552,256 224,198.692448 224,128 C224,57.307552 281.307552,0 352,0 Z M352,64 C316.653776,64 288,92.653776 288,128 C288,163.346224 316.653776,192 352,192 C387.346224,192 416,163.346224 416,128 C416,92.653776 387.346224,64 352,64 Z" id="Combined-Shape" fill="#333333"></path>
    </g>
</svg>