<?xml version="1.0" encoding="UTF-8"?>
<svg width="851px" height="896px" viewBox="0 0 851 896" version="1.1" xmlns="http://www.w3.org/2000/svg" xmlns:xlink="http://www.w3.org/1999/xlink">
    <title>0232线型-设置</title>
    <g id="0232线型-设置" stroke="none" stroke-width="1" fill="none" fill-rule="evenodd">
        <path d="M453.095169,1.02721823e-05 C484.85095,-0.0131249469 515.260752,12.5714166 537.395874,34.8862738 C557.687333,55.3415595 569.440492,82.3761054 570.516231,108.409213 L570.543278,115.478626 L570.923642,122.095241 C571.69654,128.611512 573.862076,134.899728 577.371562,140.696361 C584.211004,152.126441 595.408903,160.420522 608.495433,163.750114 C619.712459,166.604919 631.527137,165.610541 642.964743,160.514855 L655.985074,153.910332 C708.956045,129.506576 772.080355,147.215455 804.022663,194.816739 L807.703421,200.671594 L835.166674,247.374068 L836.186316,249.246388 L837.079649,251.182068 L839.627576,256.186085 C863.168437,305.41954 848.097972,363.595859 805.727887,395.683819 L800.047466,399.718377 L788.52499,406.814412 C782.500034,410.930538 777.477208,416.307551 773.70096,422.768075 C766.878761,434.242753 765.006359,447.907765 768.497588,460.739618 C771.552414,471.96749 778.493998,481.744985 788.88814,488.946972 L801.030325,496.567451 C823.618841,512.050816 839.935924,534.872461 847.053285,561.029779 C854.415261,588.081746 851.409911,616.747654 838.606,641.941955 L834.871512,648.723235 L805.327925,696.95418 L800.873108,703.757292 C767.549134,750.718714 704.102773,766.370627 653.575535,741.806552 L647.330031,738.525939 L641.234074,735.448727 C634.874397,732.661397 628.012641,731.1309 621.766567,730.958592 C608.178971,730.894737 595.128955,736.155189 585.520468,745.571296 C577.113042,753.809503 571.951701,764.631074 570.816514,777.170265 L570.215659,790.335816 C565.425747,847.665169 518.088649,892.564567 459.872125,895.811807 L453.108354,896 L397.778156,896 C335.121825,896 283.919967,847.940618 280.522649,789.225177 L280.343232,782.895165 L279.962868,776.278551 C279.188956,769.763293 277.024434,763.475077 273.33643,757.377412 C266.64812,745.918952 255.565851,737.553921 242.552351,734.141216 C231.397922,731.21604 219.618269,732.137069 208.029068,737.248339 L194.279669,744.057016 C169.062081,755.170861 140.617997,757.224363 113.965172,749.800943 C86.4000655,742.123707 62.7376219,724.868431 47.5568711,701.827806 L43.6303966,695.40341 L15.0848826,647.099488 L11.2853056,639.942639 C-13.7104228,588.237667 4.16819588,526.483164 51.5550968,495.771256 L62.0988157,489.343706 C75.9146294,479.972195 84.1984375,464.523292 84.1984375,448.00001 C84.1984375,431.830041 76.2758935,416.76514 62.2179992,406.831542 L50.3653649,399.350449 C2.3683777,366.641229 -13.5790527,304.318502 12.7556924,252.834639 L16.1194711,246.711191 L45.2015511,199.883033 C76.3457455,146.909723 143.962987,127.350276 198.155089,153.639514 L210.312747,159.993807 C216.396534,162.730458 223.004714,164.18291 229.367433,164.249806 C255.773664,164.251714 277.574274,144.695127 280.402,118.799594 L280.706352,113.873124 L281.08773,105.181723 C283.385125,78.2733457 295.300136,52.9846608 314.777786,33.8047897 C334.923269,13.9692204 361.700467,2.09348252 390.020178,0.251939885 L397.778156,1.02721823e-05 L453.095169,1.02721823e-05 Z M453.122973,67.2000087 L398.603921,67.2000087 L393.721868,67.3568087 L391.54517,67.5722552 C381.213765,68.811772 371.564493,73.1039927 363.93956,79.8055576 L361.911232,81.6925095 C354.510984,88.9796209 349.795649,98.2744743 348.343106,108.183151 L348.126184,109.984008 L347.762659,118.017745 L347.360753,124.523274 L347.189016,126.095993 C340.625275,186.204929 289.92693,231.45418 228.661282,231.446092 C214.372555,231.295864 200.064482,228.388462 186.727795,222.978974 L182.756922,221.28132 L180.952201,220.469508 L168.330039,213.875205 L166.646772,213.107951 C144.574103,203.735416 117.620616,211.783178 104.390881,231.895966 L102.271303,235.342195 L74.2049605,280.515204 L72.335,283.908804 L71.4997781,285.662758 C62.458925,305.760491 68.403344,328.922376 86.1712881,342.362529 L87.7313816,343.481602 L99.5525745,350.935366 L100.982958,351.946104 C132.572657,374.268035 151.382647,409.640733 151.382647,448.00001 C151.382647,485.66975 133.185498,520.860976 102.786811,542.872141 L99.8071135,544.96075 L98.456635,545.876803 L87.6977895,552.417598 L86.1371784,553.504861 C68.9680447,565.937857 62.5042056,588.851406 70.7882157,608.517894 L71.4280132,609.929596 L73.7122763,614.241596 L100.951992,660.353019 L103.967566,665.291195 L105.173576,667.012223 C110.988324,674.794423 119.460539,680.911668 129.277682,684.229343 L131.987444,685.0639 C142.69088,688.045051 154.089608,687.540199 164.405195,683.693602 L166.269724,682.931195 L179.55787,676.362565 L180.923312,675.760354 C206.105595,664.654027 233.427827,662.277113 259.590953,669.138222 C289.784637,677.056318 315.641632,696.573491 330.820131,722.593643 C338.595302,735.448939 343.749312,749.360412 346.06763,763.952454 L346.67784,768.350109 L346.918969,770.380075 L347.416654,779.037563 L347.500458,780.990775 L347.6335,785.926392 L347.77345,787.451453 C350.19829,809.144604 370.370579,827.611919 395.346563,828.744942 L397.778156,828.800002 L452.026566,828.800002 L456.628684,828.665591 L458.551609,828.525451 C481.782201,826.158663 500.106039,808.712176 503.018908,787.000229 L503.187342,785.332792 L503.770664,772.605607 L503.906068,771.109941 C506.459117,742.909147 518.523272,717.147237 538.502491,697.570147 C559.89161,676.609277 588.461863,664.597987 618.340945,663.800458 L622.082223,663.759336 L623.618808,663.784138 C637.209603,664.159061 651.019771,667.043706 663.929476,672.123991 L668.197824,673.898308 L669.872081,674.632104 L678.566634,679.030934 L683.509763,681.620795 L685.175861,682.379464 C705.446973,690.93172 730.630406,684.501665 744.583042,666.867402 L745.68875,665.380795 L748.700842,660.755195 L776.761447,614.958396 L778.967329,610.948796 L779.949382,608.872903 C783.779569,600.073668 784.776931,590.580999 782.882306,581.415857 L782.2271,578.677161 C779.539745,568.800748 773.575317,559.979501 765.196246,553.555443 L763.705316,552.462398 L751.886238,545.057486 L750.63059,544.187461 C727.486729,528.151332 710.963236,505.1878 703.671024,478.385609 C695.39281,447.959408 699.836239,415.532799 715.701882,388.851036 C723.743112,375.093848 734.390484,363.224211 747.111738,353.824769 L751.946044,350.425369 L763.022276,343.582402 L765.642461,341.734402 L766.996661,340.653279 C782.418571,327.702389 787.781744,306.020065 779.977485,287.32326 L779.191276,285.577604 L776.624231,280.52394 L776.268763,279.753604 L750.134105,235.334405 L747.928224,231.840005 L746.834561,230.285294 C733.304182,212.181122 708.109808,205.202171 686.40323,213.949549 L684.853447,214.603205 L671.844371,221.21306 L670.300597,221.900843 C645.316487,233.031771 618.051275,235.523388 591.933259,228.876185 C561.71267,221.187192 535.713637,201.929648 519.903473,175.505929 C512.230955,162.8332 507.115202,148.914212 504.813231,134.387747 L504.20731,130.012222 L503.96721,127.98795 L503.366454,117.537486 L503.332908,110.454408 L503.218666,108.975371 C502.299618,100.782682 498.176402,91.6451707 491.566988,84.2026865 L489.703319,82.2169269 C480.858161,73.299947 468.7568,67.9415871 455.890775,67.2714444 L453.122973,67.2000087 Z M425.5,279.999997 C518.262037,279.999997 593.460526,355.216156 593.460526,447.999997 C593.460526,540.783823 518.262037,615.999982 425.5,615.999982 C332.737963,615.999982 257.539474,540.783823 257.539474,447.999997 C257.539474,355.216156 332.737963,279.999997 425.5,279.999997 Z M425.5,347.199994 C369.842778,347.199994 324.723684,392.329689 324.723684,447.99999 C324.723684,503.67029 369.842778,548.799985 425.5,548.799985 C481.157222,548.799985 526.276316,503.67029 526.276316,447.99999 C526.276316,392.329689 481.157222,347.199994 425.5,347.199994 Z" id="Combined-Shape" fill="#333333" fill-rule="nonzero"></path>
    </g>
</svg>