<?xml version="1.0" encoding="UTF-8"?>
<svg width="896px" height="896px" viewBox="0 0 896 896" version="1.1" xmlns="http://www.w3.org/2000/svg" xmlns:xlink="http://www.w3.org/1999/xlink">
    <title>0123减一</title>
    <g id="0123减一" stroke="none" stroke-width="1" fill="none" fill-rule="evenodd">
        <path d="M448,861.538462 C676.390986,861.538462 861.538462,676.390986 861.538462,448 C861.538462,219.609014 676.390986,34.4615385 448,34.4615385 C219.609014,34.4615385 34.4615385,219.609014 34.4615385,448 C34.4615385,676.390986 219.609014,861.538462 448,861.538462 Z M448,896 C200.576432,896 0,695.423568 0,448 C0,200.576432 200.576432,0 448,0 C695.423568,0 896,200.576432 896,448 C896,695.423568 695.423568,896 448,896 Z M275.692308,413.538462 C256.659726,413.538462 241.230769,428.967418 241.230769,448 C241.230769,467.032582 256.659726,482.461538 275.692308,482.461538 L620.307692,482.461538 C639.340274,482.461538 654.769231,467.032582 654.769231,448 C654.769231,428.967418 639.340274,413.538462 620.307692,413.538462" id="减一" fill="#333333" fill-rule="nonzero"></path>
    </g>
</svg>