<?xml version="1.0" encoding="UTF-8"?>
<svg width="896px" height="896px" viewBox="0 0 896 896" version="1.1" xmlns="http://www.w3.org/2000/svg" xmlns:xlink="http://www.w3.org/1999/xlink">
    <title>0213钟</title>
    <g id="0213钟" stroke="none" stroke-width="1" fill="none" fill-rule="evenodd">
        <g id="clock" fill="#222222" fill-rule="nonzero">
            <path d="M448,0 C695.423568,0 896,200.576432 896,448 C896,695.423568 695.423568,896 448,896 C200.576432,896 0,695.423568 0,448 C0,200.576432 200.576432,0 448,0 Z M448,61.0909091 C234.316009,61.0909091 61.0909091,234.316009 61.0909091,448 C61.0909091,661.683991 234.316009,834.909091 448,834.909091 C661.683991,834.909091 834.909091,661.683991 834.909091,448 C834.909091,234.316009 661.683991,61.0909091 448,61.0909091 Z M448,224 C464.267296,224 477.564547,236.716276 478.493602,252.750677 L478.545455,254.545455 L478.545455,431.067636 L627.139408,523.913704 C640.916181,532.521839 645.461254,550.315117 637.796725,564.396498 L636.858002,566.004065 C628.249868,579.780837 610.45659,584.325911 596.375208,576.661383 L594.767641,575.72266 L431.814116,473.904478 C423.439678,468.671881 418.146594,459.740403 417.517672,449.965401 L417.454545,448 L417.454545,254.545455 C417.454545,237.675666 431.130212,224 448,224 Z" id="Combined-Shape"></path>
        </g>
    </g>
</svg>