<?xml version="1.0" encoding="UTF-8"?>
<svg width="896px" height="896px" viewBox="0 0 896 896" version="1.1" xmlns="http://www.w3.org/2000/svg" xmlns:xlink="http://www.w3.org/1999/xlink">
    <title>0197查看物流</title>
    <g id="0197查看物流" stroke="none" stroke-width="1" fill="none" fill-rule="evenodd">
        <g id="查看物流" fill="#333333" fill-rule="nonzero">
            <path d="M721.28,0 C814.759716,0 891.093105,73.4121494 895.772653,165.728932 L896,174.72 L896,766.08 C896,788.348122 877.948122,806.4 855.68,806.4 C835.12481,806.4 818.162159,791.018516 815.674151,771.137656 L815.36,766.08 L815.36,174.72 C815.36,125.020135 776.822028,84.3212971 727.998808,80.8762183 L721.28,80.64 L403.2,80.64 C353.500135,80.64 312.801297,119.177975 309.356218,168.001191 L309.12,174.72 L309.12,221.940824 C309.12,290.691792 268.847113,352.733164 206.784501,380.963052 L198.188093,384.600462 L140.372565,407.273217 C106.59354,420.519894 83.650862,451.893057 80.9149766,487.652807 L80.64,494.859174 L80.64,716.8 C80.64,723.162321 85.0608685,728.492092 90.9983312,729.885041 L94.08,730.24 L149.979886,730.242097 C166.770813,680.741945 213.625431,645.12 268.8,645.12 C323.974569,645.12 370.829187,680.741945 387.620114,730.242097 L508.379885,730.242097 C525.170813,680.741945 572.025431,645.12 627.2,645.12 C696.478599,645.12 752.64,701.281401 752.64,770.56 C752.64,839.838599 696.478599,896 627.2,896 C572.041985,896 525.19893,860.399425 508.395005,810.922452 L387.604993,810.922452 C370.80107,860.399425 323.958015,896 268.8,896 C213.641985,896 166.79893,860.399425 149.995007,810.922452 L94.08,810.88 C44.3801355,810.88 3.68129723,772.342028 0.236218406,723.518808 L0,716.8 L0,494.859174 C0,426.108208 40.2728865,364.066836 102.335499,335.836948 L110.931907,332.199538 L168.747435,309.526783 C202.52646,296.280106 225.469138,264.906943 228.205023,229.147191 L228.48,221.940824 L228.48,174.72 C228.48,81.2402833 301.892149,4.9068927 394.208932,0.22734458 L403.2,0 L721.28,0 Z M268.8,725.76 C244.057643,725.76 224,745.817645 224,770.56 C224,795.302355 244.057643,815.36 268.8,815.36 C293.542357,815.36 313.6,795.302355 313.6,770.56 C313.6,745.817645 293.542357,725.76 268.8,725.76 Z M627.2,725.76 C602.457645,725.76 582.4,745.817645 582.4,770.56 C582.4,795.302355 602.457645,815.36 627.2,815.36 C651.942355,815.36 672,795.302355 672,770.56 C672,745.817645 651.942355,725.76 627.2,725.76 Z M627.2,210.56 C647.75519,210.56 664.717841,225.941483 667.205849,245.822345 L667.52,250.88 L667.52,340.48 C667.52,409.670233 613.433439,466.227875 545.233786,470.179454 L537.6,470.4 L448,470.4 C425.731879,470.4 407.68,452.348122 407.68,430.08 C407.68,409.524811 423.061483,392.56216 442.942345,390.07415 L448,389.76 L537.6,389.76 C563.002151,389.76 583.915311,370.540321 586.590829,345.849599 L586.88,340.48 L586.88,250.88 C586.88,228.611879 604.931878,210.56 627.2,210.56 Z" id="Path-21"></path>
        </g>
    </g>
</svg>