<?xml version="1.0" encoding="UTF-8"?>
<svg width="837px" height="836px" viewBox="0 0 837 836" version="1.1" xmlns="http://www.w3.org/2000/svg" xmlns:xlink="http://www.w3.org/1999/xlink">
    <title>0228特价</title>
    <g id="0228特价" stroke="none" stroke-width="1" fill="none" fill-rule="evenodd">
        <path d="M824.308105,71.7460919 L835.960418,398.010861 C836.577885,415.299934 829.980581,432.067649 817.747566,444.300664 L469.626077,792.422153 C412.84034,849.20789 320.772469,849.20789 263.986732,792.422153 L43.5778472,572.013268 C-13.2078897,515.227531 -13.2078897,423.15966 43.5778472,366.373923 L391.699336,18.2524344 C403.932351,6.01941919 420.700066,-0.577885042 437.989139,0.0395818641 L764.253908,11.691895 C796.925403,12.8587341 823.141266,39.0745972 824.308105,71.7460919 Z M587.534771,264.143472 L586.47209,262.855783 C583.183044,259.181873 578.676533,256.782846 573.758145,256.122885 L571.896016,255.957825 L447.653526,250.58479 C414.733467,248.876495 381.052415,258.292028 352.666307,279.682495 C290.34364,326.645993 276.473213,414.055122 320.062532,477.818165 L322.115179,480.744052 L322.830142,481.709553 L298.178394,497.47017 L296.902649,498.35337 C288.2721,504.812102 285.964358,516.937839 291.863954,526.166288 C295.205703,531.393622 300.689466,534.828534 306.788558,535.591343 L308.466055,535.73247 L432.750598,541.140327 C465.61431,542.800476 499.316618,533.386342 527.718206,511.98421 C590.355551,464.783585 604.050133,376.727865 559.657316,312.884505 L557.567137,309.955317 L582.183678,294.220125 L583.459422,293.336925 C591.635733,287.218127 594.137279,276.013152 589.361703,267.00396 L588.498118,265.524008 L587.534771,264.143472 L586.47209,262.855783 L587.534771,264.143472 Z M390.177428,329.461434 C426.833627,301.839007 478.941748,309.162326 506.564175,345.818525 C534.186602,382.474723 526.863283,434.582845 490.207085,462.205271 C453.550886,489.827698 401.442765,482.504379 373.820338,445.848181 C346.197911,409.191982 353.52123,357.083861 390.177428,329.461434 Z" id="形状" fill="#222222"></path>
    </g>
</svg>