<?xml version="1.0" encoding="UTF-8"?>
<svg width="896px" height="896px" viewBox="0 0 896 896" version="1.1" xmlns="http://www.w3.org/2000/svg" xmlns:xlink="http://www.w3.org/1999/xlink">
    <title>024全局关闭</title>
    <g id="024全局关闭" stroke="none" stroke-width="1" fill="none" fill-rule="evenodd">
        <path d="M448,0 C695.423568,0 896,200.576432 896,448 C896,695.423568 695.423568,896 448,896 C200.576432,896 0,695.423568 0,448 C0,200.576432 200.576432,0 448,0 Z M448,40.7272727 C223.069484,40.7272727 40.7272727,223.069484 40.7272727,448 C40.7272727,672.930516 223.069484,855.272727 448,855.272727 C672.930516,855.272727 855.272727,672.930516 855.272727,448 C855.272727,223.069484 672.930516,40.7272727 448,40.7272727 Z M260.800498,260.798589 C269.182894,252.416193 282.828815,252.471567 290.968665,260.611416 L290.968665,260.611416 L458.147,427.79 L625.326006,260.611416 C633.51304,252.424383 647.052004,252.655095 655.220867,260.53024 L655.494172,260.798589 C663.876568,269.180984 663.821194,282.826906 655.681345,290.966755 L655.681345,290.966755 L488.502,458.145 L655.681345,625.324096 C663.868379,633.51113 663.637666,647.050094 655.762521,655.218957 L655.494172,655.492263 C647.111777,663.874658 633.465855,663.819285 625.326006,655.679435 L625.326006,655.679435 L458.147,488.5 L290.968665,655.679435 C282.781631,663.866469 269.242667,663.635757 261.073804,655.760611 L260.800498,655.492263 C252.418103,647.109868 252.473476,633.463946 260.613326,625.324096 L260.613326,625.324096 L427.792,458.145 L260.613326,290.966755 C252.426292,282.779722 252.657004,269.240757 260.53215,261.071895 Z" id="全局关闭" fill="#333333"></path>
    </g>
</svg>