<?xml version="1.0" encoding="UTF-8"?>
<svg width="896px" height="896px" viewBox="0 0 896 896" version="1.1" xmlns="http://www.w3.org/2000/svg" xmlns:xlink="http://www.w3.org/1999/xlink">
    <title>0136配送员电话</title>
    <g id="0136配送员电话" stroke="none" stroke-width="1" fill="none" fill-rule="evenodd">
        <path d="M448,0 C200.610442,0 0,200.610442 0,448 C0,695.389558 200.610442,896 448,896 C695.389558,896 896,695.389558 896,448 C896,200.610442 695.389558,0 448,0 Z M622.322178,654.008032 C590.736278,685.593931 472.988844,655.607318 356.740741,539.359215 C240.392682,423.011156 210.506024,305.263722 242.091923,273.677822 C269.479697,246.290049 302.864793,198.511379 352.842481,260.783579 C402.920125,323.055779 378.231147,340.448014 350.04373,368.735386 C330.252566,388.426595 371.434181,438.404284 414.614904,481.485051 C457.795627,524.565819 507.67336,565.747434 527.364569,546.056225 C555.651941,517.768853 573.044177,493.17983 635.316377,543.257474 C697.488621,593.235163 649.709951,626.620259 622.322178,654.008032 L622.322178,654.008032 Z" id="Shape" fill="#333333" fill-rule="nonzero"></path>
    </g>
</svg>