<?xml version="1.0" encoding="UTF-8"?>
<svg width="567px" height="896px" viewBox="0 0 567 896" version="1.1" xmlns="http://www.w3.org/2000/svg" xmlns:xlink="http://www.w3.org/1999/xlink">
    <title>0245收银机</title>
    <g id="0245收银机" stroke="none" stroke-width="1" fill="none" fill-rule="evenodd">
        <path d="M541.319394,758.606965 C536.788728,745.574925 524.017352,736.783549 509.634272,736.79602 L349.006635,736.79602 L349.006635,662.288557 L430.359369,662.288557 C448.779589,662.288557 463.712127,648.032947 463.712127,630.447761 L463.712127,31.8407963 C463.712127,14.2556104 448.779589,0 430.359369,0 L137.213292,0 C118.793072,0 103.860533,14.2556104 103.860533,31.8407963 L103.860533,630.447761 C103.860533,648.032947 118.793072,662.288557 137.213292,662.288557 L218.168754,662.288557 L218.168754,736.79602 L57.3708592,736.79602 C42.9877798,736.783549 30.2164038,745.574925 25.6857379,758.606965 L1.67175159,827.383084 C0.557378905,830.619664 0,834.006009 0,837.412936 L0,864.159204 C0,881.74439 14.9366525,896 33.3568728,896 L533.648259,896 C552.068479,896 566.999843,881.74439 566.999843,864.159204 L566.999843,837.412936 C567.010792,834.006009 566.447753,830.619664 565.33338,827.383084 L541.319394,758.606965 Z M193.65693,426.66578 C188.549469,426.723548 183.633954,424.764213 180.022192,421.230944 C176.410431,417.697676 174.407569,412.888987 174.46662,407.892524 L174.46662,402.772546 C174.407569,397.776084 176.410431,392.967395 180.022192,389.434126 C183.633954,385.900857 188.549469,383.941523 193.65693,383.999291 L242.504991,383.999291 C247.612451,384.057059 252.527967,382.097724 256.139728,378.564456 C259.75149,375.031187 261.754352,370.222498 261.6953,365.226036 L261.6953,360.106056 C261.754352,355.109594 259.75149,350.300905 256.139728,346.767636 C252.527967,343.234368 247.612451,341.275033 242.504991,341.332801 L193.65693,341.332801 C188.549469,341.39057 183.633954,339.431235 180.022192,335.897966 C176.410431,332.364697 174.407569,327.556008 174.46662,322.559546 L174.46662,317.439568 C174.407569,312.443105 176.410431,307.634416 180.022192,304.101148 C183.633954,300.567879 188.549469,298.608544 193.65693,298.666313 C199.535238,298.636429 205.075289,295.972563 208.690156,291.437771 C212.305022,286.902978 213.595901,280.99755 212.193024,275.413076 L202.161726,236.58657 C200.758849,231.002096 202.049728,225.096668 205.664594,220.561875 C209.279461,216.027083 214.819512,213.363217 220.69782,213.333333 L225.059254,213.333333 C233.793301,213.353305 241.411855,219.140327 243.595349,227.413275 L257.988081,284.586371 C260.171575,292.859318 267.790128,298.646341 276.524175,298.666313 L290.480764,298.666313 C299.214811,298.646341 306.833365,292.859318 309.016859,284.586371 L323.409591,227.413275 C325.593085,219.140327 333.211638,213.353305 341.945685,213.333333 L346.30712,213.333333 C352.185428,213.363217 357.725479,216.027083 361.340345,220.561875 C364.955212,225.096668 366.24609,231.002096 364.843214,236.58657 L354.811915,275.413076 C353.409039,280.99755 354.699918,286.902978 358.314784,291.437771 C361.92965,295.972563 367.469702,298.636429 373.34801,298.666313 C378.45547,298.608544 383.370986,300.567879 386.982747,304.101148 C390.594509,307.634416 392.597371,312.443105 392.538319,317.439568 L392.538319,322.559546 C392.597371,327.556008 390.594509,332.364697 386.982747,335.897966 C383.370986,339.431235 378.45547,341.39057 373.34801,341.332801 L324.499949,341.332801 C319.392488,341.275033 314.476973,343.234368 310.865211,346.767636 C307.25345,350.300905 305.250588,355.109594 305.30964,360.106056 L305.30964,365.226036 C305.250588,370.222498 307.25345,375.031187 310.865211,378.564456 C314.476973,382.097724 319.392488,384.057059 324.499949,383.999291 L373.34801,383.999291 C378.45547,383.941523 383.370986,385.900857 386.982747,389.434126 C390.594509,392.967395 392.597371,397.776084 392.538319,402.772546 L392.538319,407.892524 C392.597371,412.888987 390.594509,417.697676 386.982747,421.230944 C383.370986,424.764213 378.45547,426.723548 373.34801,426.66578 L324.499949,426.66578 C319.392488,426.608011 314.476973,428.567346 310.865211,432.100615 C307.25345,435.633883 305.250588,440.442572 305.30964,445.439035 L305.30964,493.225503 C305.368691,498.221965 303.365829,503.030654 299.754068,506.563923 C296.142306,510.097191 291.226791,512.056526 286.11933,512 L280.88561,512 C275.778149,512.056526 270.862633,510.097191 267.250872,506.563923 C263.639111,503.030654 261.636248,498.221965 261.6953,493.225503 L261.6953,445.439035 C261.754352,440.442572 259.75149,435.633883 256.139728,432.100615 C252.527967,428.567346 247.612451,426.608011 242.504991,426.66578 L193.65693,426.66578 Z M83.3860116,800.477612 C74.1759021,800.477611 66.7096336,793.349806 66.7096336,784.557214 C66.7096336,775.764621 74.1759021,768.636817 83.3860116,768.636816 L483.61912,768.636816 C492.82923,768.636817 500.295498,775.764621 500.295498,784.557214 C500.295498,793.349806 492.82923,800.477611 483.61912,800.477612 L83.3860116,800.477612 Z" id="收银机-忙" fill="#000000" fill-rule="nonzero"></path>
    </g>
</svg>