<?xml version="1.0" encoding="UTF-8"?>
<svg width="806px" height="896px" viewBox="0 0 806 896" version="1.1" xmlns="http://www.w3.org/2000/svg" xmlns:xlink="http://www.w3.org/1999/xlink">
    <title>071新安卓分享</title>
    <g id="071新安卓分享" stroke="none" stroke-width="1" fill="none" fill-rule="evenodd">
        <path d="M660.472222,0 C740.844995,0 806,65.1873404 806,145.6 C806,226.01266 740.844995,291.2 660.472222,291.2 C620.713447,291.2 584.678581,275.248139 558.412629,249.392423 L346.008137,382.826354 C353.893961,403.025427 358.222222,425.007003 358.222222,448 C358.222222,470.992997 353.893961,492.974573 346.008137,513.173646 L558.411628,646.608562 C584.677666,620.752266 620.712943,604.8 660.472222,604.8 C740.844995,604.8 806,669.98734 806,750.4 C806,830.81266 740.844995,896 660.472222,896 C580.09945,896 514.944444,830.81266 514.944444,750.4 C514.944444,733.990536 517.657681,718.215097 522.659795,703.498253 L310.249572,570.059536 C277.548133,605.212485 230.896078,627.2 179.111111,627.2 C80.1907759,627.2 0,546.969427 0,448 C0,349.030573 80.1907759,268.8 179.111111,268.8 C230.896078,268.8 277.548133,290.787515 310.249572,325.940464 L522.659795,192.501747 C517.657681,177.784903 514.944444,162.009464 514.944444,145.6 C514.944444,65.1873404 580.09945,0 660.472222,0 Z M660.472222,672 C617.194576,672 582.111111,707.100876 582.111111,750.4 C582.111111,793.699124 617.194576,828.8 660.472222,828.8 C703.749869,828.8 738.833333,793.699124 738.833333,750.4 C738.833333,707.100876 703.749869,672 660.472222,672 Z M179.111111,336 C117.285902,336 67.1666667,386.144108 67.1666667,448 C67.1666667,509.855892 117.285902,560 179.111111,560 C240.936321,560 291.055556,509.855892 291.055556,448 C291.055556,386.144108 240.936321,336 179.111111,336 Z M660.472222,67.2 C617.194576,67.2 582.111111,102.300876 582.111111,145.6 C582.111111,188.899124 617.194576,224 660.472222,224 C703.749869,224 738.833333,188.899124 738.833333,145.6 C738.833333,102.300876 703.749869,67.2 660.472222,67.2 Z" id="形状结合" fill="#222222" fill-rule="nonzero"></path>
    </g>
</svg>