<?xml version="1.0" encoding="UTF-8"?>
<svg width="896px" height="896px" viewBox="0 0 896 896" version="1.1" xmlns="http://www.w3.org/2000/svg" xmlns:xlink="http://www.w3.org/1999/xlink">
    <title>0133加</title>
    <g id="0133加" stroke="none" stroke-width="1" fill="none" fill-rule="evenodd">
        <path d="M448,0 C695.423568,0 896,200.576432 896,448 C896,695.423568 695.423568,896 448,896 C200.576432,896 0,695.423568 0,448 C0,200.576432 200.576432,0 448,0 Z M448,57 C232.056663,57 57,232.056663 57,448 C57,663.943337 232.056663,839 448,839 C663.943337,839 839,663.943337 839,448 C839,232.056663 663.943337,57 448,57 Z M448,198 C464.016258,198 477,210.983742 477,227 L476.999,418.999 L669,419 C685.016258,419 698,431.983742 698,448 C698,464.016258 685.016258,477 669,477 L476.999,476.999 L477,669 C477,685.016258 464.016258,698 448,698 C431.983742,698 419,685.016258 419,669 L418.999,476.999 L227,477 C210.983742,477 198,464.016258 198,448 C198,431.983742 210.983742,419 227,419 L418.999,418.999 L419,227 C419,210.983742 431.983742,198 448,198 Z" id="Combined-Shape" fill="#333333"></path>
    </g>
</svg>