<?xml version="1.0" encoding="UTF-8"?>
<svg width="896px" height="896px" viewBox="0 0 896 896" version="1.1" xmlns="http://www.w3.org/2000/svg" xmlns:xlink="http://www.w3.org/1999/xlink">
    <title>0235新-电话</title>
    <g id="0235新-电话" stroke="none" stroke-width="1" fill="none" fill-rule="evenodd">
        <path d="M448,0 C695.423568,0 896,200.576432 896,448 C896,695.423568 695.423568,896 448,896 C200.576432,896 0,695.423568 0,448 C0,200.576432 200.576432,0 448,0 Z M448,61.0909091 C234.31601,61.0909091 61.0909091,234.31601 61.0909091,448 C61.0909091,661.68399 234.31601,834.909091 448,834.909091 C661.68399,834.909091 834.909091,661.68399 834.909091,448 C834.909091,234.31601 661.68399,61.0909091 448,61.0909091 Z M615.125192,255.016484 C685.370891,317.265994 654.193086,425.802319 558.890378,543.545966 C463.587671,661.289614 351.118044,708.577224 276.377386,640.823336 C241.613177,609.248222 226.598099,567.815269 266.431092,526.132116 C311.285051,479.194784 346.144897,484.448963 385.97789,526.132116 C415.864589,557.406991 461.77056,524.280644 485.632101,494.857242 C515.949169,457.427472 560.372759,416.645036 505.572507,369.757744 C460.622911,331.277138 465.739513,286.341399 505.572507,244.658246 C545.4055,202.975093 591.215833,233.799609 615.125192,255.016484 Z" id="Combined-Shape" fill="#222222" fill-rule="nonzero"></path>
    </g>
</svg>