<?xml version="1.0" encoding="UTF-8"?>
<svg width="813px" height="896px" viewBox="0 0 813 896" version="1.1" xmlns="http://www.w3.org/2000/svg" xmlns:xlink="http://www.w3.org/1999/xlink">
    <title>0119问卷</title>
    <g id="0119问卷" stroke="none" stroke-width="1" fill="none" fill-rule="evenodd">
        <path d="M636.221602,0 C740.330592,0 809.736585,80.9290323 809.736585,202.322581 L809.736585,375.741935 C809.736585,381.522581 806.843705,387.303226 803.952752,393.083871 L572.599442,682.116129 C563.922729,693.677419 549.464111,696.568705 537.896446,690.78806 L390.407747,615.639673 C376.091806,609.916834 370.279912,592.862775 378.584112,578.498946 L378.840081,578.064516 C384.623914,563.61194 401.975412,557.831295 416.435958,566.503226 L523.437828,618.529032 C535.005493,624.309677 549.466039,621.420318 558.140824,609.857101 L749.007305,372.850649 C751.900185,367.070004 754.791138,361.289359 754.791138,355.508714 L754.791138,202.320654 C754.791138,132.952912 722.979094,57.8045247 639.114483,57.8045247 L176.407863,57.8045247 C92.5432519,57.8045247 60.7312078,132.952912 60.7312078,202.320654 L60.7312078,693.675492 C60.7312078,774.604525 124.353368,838.191622 205.327027,838.191622 L639.114483,838.191622 C708.520476,838.191622 746.116353,809.288396 754.791138,748.590658 C757.655089,734.282607 769.021198,722.808306 783.277416,722.580251 L783.710301,722.576791 C801.0618,722.576791 815.522346,737.029368 812.629465,754.371303 C798.168919,846.861626 737.439639,896 636.221602,896 L202.434146,896 C89.6484436,896 0,806.399037 0,693.677419 L0,202.322581 C0,80.9290323 69.405993,0 173.514982,0 L636.221602,0 Z M404.868292,404.643234 C422.219791,404.643234 433.787456,416.204525 433.787456,433.54646 C433.787456,450.888396 422.219791,462.449686 404.868292,462.449686 L404.868292,462.449686 L202.434146,462.449686 C185.082648,462.449686 173.514982,450.888396 173.514982,433.54646 C173.514982,416.204525 185.082648,404.643234 202.434146,404.643234 L202.434146,404.643234 Z M520.544947,289.030331 C537.896446,289.030331 549.464111,300.591622 549.464111,317.933557 C549.464111,335.275492 537.896446,346.836783 520.544947,346.836783 L520.544947,346.836783 L202.434146,346.836783 C185.082648,346.836783 173.514982,335.275492 173.514982,317.933557 C173.514982,300.591622 185.082648,289.030331 202.434146,289.030331 L202.434146,289.030331 Z M607.302439,173.417428 C624.653937,173.417428 636.221602,184.978718 636.221602,202.320654 C636.221602,219.662589 624.653937,231.22388 607.302439,231.22388 L607.302439,231.22388 L202.434146,231.22388 C185.082648,231.22388 173.514982,219.662589 173.514982,202.320654 C173.514982,184.978718 185.082648,173.417428 202.434146,173.417428 L202.434146,173.417428 Z" id="Combined-Shape" fill="#333333" fill-rule="nonzero"></path>
    </g>
</svg>