<?xml version="1.0" encoding="UTF-8"?>
<svg width="896px" height="896px" viewBox="0 0 896 896" version="1.1" xmlns="http://www.w3.org/2000/svg" xmlns:xlink="http://www.w3.org/1999/xlink">
    <title>054新iOS分享</title>
    <g id="054新iOS分享" stroke="none" stroke-width="1" fill="none" fill-rule="evenodd">
        <path d="M526.381078,0 C544.937178,0 559.97987,15.0432324 559.97987,33.6 C559.97987,52.1567676 544.937178,67.2 526.381078,67.2 L526.381078,67.2 L190.393156,67.2 C122.35412,67.2 67.1975844,122.358519 67.1975844,190.4 L67.1975844,190.4 L67.1975844,705.6 C67.1975844,773.641481 122.35412,828.8 190.393156,828.8 L190.393156,828.8 L705.570673,828.8 C773.60967,828.791974 828.767964,773.63529 828.780421,705.597812 L828.780421,705.597812 L828.802416,367.950953 C828.803625,349.394186 843.847296,334.351933 862.403397,334.353142 C880.959497,334.354351 896,349.398563 896,367.955331 L896,367.955331 L895.978005,705.606153 C895.958753,810.753229 810.721897,895.987597 705.574636,896 L705.574636,896 L190.393156,896 C85.2419194,896 -5.68434189e-14,810.755016 -5.68434189e-14,705.6 L-5.68434189e-14,705.6 L-5.68434189e-14,190.4 C-5.68434189e-14,85.2449836 85.2419194,0 190.393156,0 L190.393156,0 Z M831.290657,42.6552926 C849.212201,37.8439708 867.640689,48.4724274 872.451838,66.3946149 C874.904767,75.5321114 873.344431,84.8013876 868.850373,92.3305089 L869.156158,92.3227539 L782.844031,207.640965 C778.502222,213.441884 771.622684,216.784209 764.379076,216.611898 C752.011841,216.317706 742.224697,206.053231 742.518878,193.685551 L742.518878,193.685551 L743.593587,148.315222 C572.606311,236.8397 459.183493,415.182813 459.183493,616 C459.183493,634.556768 444.140802,649.6 425.584701,649.6 C407.028601,649.6 391.985909,634.556768 391.985909,616 C391.985909,345.802674 574.047086,111.716399 831.290657,42.6552926 Z" id="形状结合" fill="#222222" fill-rule="nonzero"></path>
    </g>
</svg>