<?xml version="1.0" encoding="UTF-8"?>
<svg width="896px" height="652px" viewBox="0 0 896 652" version="1.1" xmlns="http://www.w3.org/2000/svg" xmlns:xlink="http://www.w3.org/1999/xlink">
    <title>0211睁眼</title>
    <g id="0211睁眼" stroke="none" stroke-width="1" fill="none" fill-rule="evenodd">
        <g id="openeyes" fill="#222222" fill-rule="nonzero">
            <path d="M448,0 C568.408333,0 679.437963,52.3276177 771.626269,138.086759 C775.200918,141.412114 778.733607,144.782366 782.219362,148.189554 L782.219362,148.189554 L789.126818,155.050817 C792.547782,158.503712 795.918494,161.988236 799.233979,165.496425 L799.233979,165.496425 L805.789841,172.542001 C813.348999,180.793149 820.589421,189.144249 827.447905,197.494161 L827.447905,197.494161 L833.231598,204.64858 C836.075201,208.223285 838.845337,211.792463 841.53703,215.348156 L841.53703,215.348156 L846.81435,222.439198 C852.84576,230.685596 858.432031,238.829666 863.509965,246.770271 L863.509965,246.770271 L867.736513,253.524316 C885.49932,282.555475 896,308.380963 896,325.818182 C896,343.255401 885.49932,369.080888 867.736513,398.112048 L867.736513,398.112048 L863.509965,404.866093 C857.706613,413.941069 851.239308,423.281798 844.202391,432.737307 L844.202391,432.737307 L838.819374,439.8481 C836.990417,442.223967 835.127334,444.604648 833.231598,446.987784 L833.231598,446.987784 L827.447905,454.142202 C820.589421,462.492115 813.348999,470.843215 805.789841,479.094362 L805.789841,479.094362 L799.233979,486.139938 C795.918494,489.648128 792.547782,493.132651 789.126818,496.585547 L789.126818,496.585547 L782.219362,503.44681 C778.733607,506.853997 775.200918,510.224249 771.626269,513.549605 C679.437963,599.308746 568.408333,651.636364 448,651.636364 C327.591667,651.636364 216.562037,599.308746 124.373731,513.549605 C120.799082,510.224249 117.266393,506.853997 113.780638,503.44681 L113.780638,503.44681 L106.873182,496.585547 C103.452218,493.132651 100.081506,489.648128 96.7660207,486.139938 L96.7660207,486.139938 L90.2101587,479.094362 C82.6510007,470.843215 75.4105795,462.492115 68.5520945,454.142202 L68.5520945,454.142202 L62.7684023,446.987784 C59.9247982,443.413079 57.1546625,439.8439 54.4629701,436.288208 L54.4629701,436.288208 L49.1856506,429.197166 C43.1542404,420.950768 37.5679683,412.806697 32.4900354,404.866093 L32.4900354,404.866093 L28.2634868,398.112048 C10.5006803,369.080888 0,343.255401 0,325.818182 C0,308.380963 10.5006803,282.555475 28.2634868,253.524316 L28.2634868,253.524316 L32.4900354,246.770271 C38.2933873,237.695295 44.7606925,228.354566 51.7976098,218.899057 L51.7976098,218.899057 L57.180626,211.788263 C59.0095827,209.412397 60.8726662,207.031716 62.7684023,204.64858 L62.7684023,204.64858 L68.5520945,197.494161 C75.4105795,189.144249 82.6510007,180.793149 90.2101587,172.542001 L90.2101587,172.542001 L96.7660207,165.496425 C100.081506,161.988236 103.452218,158.503712 106.873182,155.050817 L106.873182,155.050817 L113.780638,148.189554 C117.266393,144.782366 120.799082,141.412114 124.373731,138.086759 C216.562037,52.3276177 327.591667,0 448,0 Z M448,61.0909091 C344.675521,61.0909091 247.708056,106.79111 165.983661,182.816089 C133.956414,212.609772 106.246448,245.542904 86.0590864,276.44192 C85.4973697,277.30169 84.9439289,278.157172 84.398888,279.007787 L84.398888,279.007787 L81.2304589,284.048394 C80.7195231,284.877208 80.2172387,285.69999 79.7237321,286.516159 L79.7237321,286.516159 L76.869016,291.329175 L74.2309639,295.955586 L71.8155943,300.367492 L69.6289247,304.536991 L67.6769734,308.436182 L65.9657569,312.037163 L64.5012948,315.312033 C64.2781145,315.829119 64.0654662,316.331454 63.8634762,316.818457 L63.8634762,316.818457 L62.7804271,319.551848 C62.6215683,319.975199 62.4736183,320.382056 62.3367014,320.771838 L62.3367014,320.771838 L61.648606,322.900968 C61.2794825,324.177583 61.0909091,325.162389 61.0909091,325.818182 C61.0909091,326.637923 61.3855556,327.971745 61.9591769,329.74699 L61.9591769,329.74699 L62.7804271,332.084516 C62.9392858,332.507867 63.1090534,332.947713 63.2896035,333.403471 L63.2896035,333.403471 L64.5012948,336.324331 L65.9657569,339.5992 L67.6769734,343.200182 L69.6289247,347.099373 L71.8155943,351.268871 L74.2309639,355.680777 L76.869016,360.307189 C77.3269137,361.094583 77.7938387,361.889752 78.2696666,362.692115 L78.2696666,362.692115 L81.2304589,367.58797 C81.7413948,368.416783 82.2609811,369.251628 82.7890947,370.091923 L82.7890947,370.091923 L86.0590864,375.194444 C106.246448,406.09346 133.956414,439.026592 165.983661,468.820275 C247.708056,544.845254 344.675521,590.545455 448,590.545455 C551.324479,590.545455 648.291944,544.845254 730.016339,468.820275 C762.043586,439.026592 789.753552,406.09346 809.940914,375.194444 C810.50263,374.334674 811.056071,373.479191 811.601112,372.628577 L811.601112,372.628577 L814.769541,367.58797 C815.280477,366.759156 815.782761,365.936374 816.276268,365.120205 L816.276268,365.120205 L819.130984,360.307189 L821.769036,355.680777 L824.184406,351.268871 L826.371075,347.099373 L828.323027,343.200182 L830.034243,339.5992 L831.498705,336.324331 C831.721886,335.807245 831.934534,335.30491 832.136524,334.817906 L832.136524,334.817906 L833.219573,332.084516 C833.378432,331.661165 833.526382,331.254307 833.663299,330.864526 L833.663299,330.864526 L834.351394,328.735396 C834.720518,327.45878 834.909091,326.473974 834.909091,325.818182 C834.909091,324.998441 834.614444,323.664618 834.040823,321.889374 L834.040823,321.889374 L833.219573,319.551848 C833.060714,319.128496 832.890947,318.688651 832.710397,318.232892 L832.710397,318.232892 L831.498705,315.312033 L830.034243,312.037163 L828.323027,308.436182 L826.371075,304.536991 L824.184406,300.367492 L821.769036,295.955586 L819.130984,291.329175 C818.673086,290.541781 818.206161,289.746612 817.730333,288.944249 L817.730333,288.944249 L814.769541,284.048394 C814.258605,283.219581 813.739019,282.384736 813.210905,281.54444 L813.210905,281.54444 L809.940914,276.44192 C789.753552,245.542904 762.043586,212.609772 730.016339,182.816089 C648.291944,106.79111 551.324479,61.0909091 448,61.0909091 Z M448,162.909091 C537.972207,162.909091 610.909091,235.845975 610.909091,325.818182 C610.909091,415.790388 537.972207,488.727273 448,488.727273 C358.027793,488.727273 285.090909,415.790388 285.090909,325.818182 C285.090909,235.845975 358.027793,162.909091 448,162.909091 Z M448,224 C391.767371,224 346.181818,269.585553 346.181818,325.818182 C346.181818,382.050811 391.767371,427.636364 448,427.636364 C504.232629,427.636364 549.818182,382.050811 549.818182,325.818182 C549.818182,269.585553 504.232629,224 448,224 Z" id="Combined-Shape"></path>
        </g>
    </g>
</svg>