<?xml version="1.0" encoding="UTF-8"?>
<svg width="896px" height="770px" viewBox="0 0 896 770" version="1.1" xmlns="http://www.w3.org/2000/svg" xmlns:xlink="http://www.w3.org/1999/xlink">
    <title>0192声音开</title>
    <g id="0192声音开" stroke="none" stroke-width="1" fill="none" fill-rule="evenodd">
        <path d="M369.479065,36.5352352 C416.862673,-10.8450737 493.686704,-10.8450778 541.070327,36.5352194 C550.45403,45.9182643 558.234762,56.7770605 564.102562,68.679028 C605.072899,151.781308 625.333333,255.677993 625.333333,380.254824 C625.333333,508.047189 604.011888,615.504904 560.958121,702.472632 C531.229642,762.523688 458.445507,787.106634 398.390256,757.380183 C387.542435,752.010673 377.559195,745.048291 368.772141,736.724297 L358.74315,727.223815 C302.730644,674.163059 237.170479,632.19559 165.531779,603.542121 L142.902667,594.483682 L112.027491,592.119659 C49.7856962,587.332165 1.50535219,536.159304 0.0345349323,474.070478 L0,471.152205 L0,289.357443 C0,225.96082 48.8131681,173.252288 112.027491,168.389989 L144.629333,165.871096 L160.959099,161.524844 C233.549299,142.168816 299.920192,104.513116 353.744804,52.2053211 L358.201011,47.8124994 L369.479065,36.5352352 Z M499.708545,74.4304674 C474.085967,50.6311297 434.011434,51.1977829 409.077051,76.1304306 L397.798989,87.4076994 C336.233673,148.968696 259.514907,193.197992 175.388208,215.630204 L177.333333,215.094415 L177.333333,547.953721 L186.329657,551.551075 C262.014192,581.822765 331.484059,625.70663 391.306854,681.005465 L397.25685,686.573317 L407.285841,696.0738 C412.017333,700.555952 417.392926,704.304928 423.234063,707.196204 C455.57151,723.202756 494.76296,709.965788 510.770608,677.630592 C549.675462,599.043584 569.333333,499.970098 569.333333,380.254824 C569.333333,263.695659 550.697174,168.128346 513.874321,93.4386264 C510.714736,87.0298743 506.525111,81.18283 501.472347,76.1304204 L499.708545,74.4304674 Z M808.899129,216.790399 C862.713691,251.770037 896,313.072978 896,380.155849 C896,447.39505 862.557637,508.821374 808.539039,543.754762 C795.554045,552.152052 778.2198,548.433721 769.821921,535.449638 C761.424041,522.465555 765.142633,505.132527 778.127627,496.735237 C816.194793,472.117511 840,428.392539 840,380.155849 C840,332.030144 816.305063,288.391501 778.378169,263.738899 C765.412789,255.31136 761.734621,237.969711 770.162752,225.00524 C778.590882,212.040769 795.933748,208.36286 808.899129,216.790399 Z M121.333333,223.829802 L116.322495,224.221121 C82.2840137,226.839282 56,255.2208 56,289.357443 L56,471.152205 C56,505.288848 82.2840137,533.670366 116.322495,536.288527 L121.333333,536.670513 L121.333333,223.829802 Z M706.812127,263.919885 C743.126381,289.097893 765.333333,332.722682 765.333333,380.18884 C765.333333,427.766526 743.021335,471.480949 706.56628,496.627816 C693.837318,505.408314 676.399955,502.208175 667.618841,489.480105 C659.162953,477.223445 661.817462,460.601004 673.392061,451.545951 L674.767053,450.535399 C695.865599,435.981523 709.333333,409.595082 709.333333,380.18884 C709.333333,351.860991 696.83564,326.332881 677.050352,311.485731 L674.902851,309.936196 C662.194905,301.12531 659.036216,283.681574 667.847719,270.974521 C676.659223,258.267468 694.104183,255.109001 706.812127,263.919885 Z" id="Combined-Shape" fill="#222222" fill-rule="nonzero"></path>
    </g>
</svg>