<?xml version="1.0" encoding="UTF-8"?>
<svg width="854px" height="896px" viewBox="0 0 854 896" version="1.1" xmlns="http://www.w3.org/2000/svg" xmlns:xlink="http://www.w3.org/1999/xlink">
    <title>021配送</title>
    <g id="021配送" stroke="none" stroke-width="1" fill="none" fill-rule="evenodd">
        <path d="M811.3,591.263106 L811.3,304.736894 C811.3,263.713549 788.451907,225.523494 752.064725,205.485568 L481.480487,56.7669703 C447.475069,38.039746 406.097931,38.039746 372.086803,56.7701136 L101.865178,205.477149 C65.4966614,225.504788 42.7,263.675653 42.7,304.736894 L42.7,591.263106 C42.7,632.289075 65.5296601,670.46002 101.913925,690.514432 L372.498163,839.23303 C406.503581,857.960254 447.880719,857.960254 481.891847,839.229886 L752.112385,690.523448 C788.498533,670.46522 811.3,632.305782 811.3,591.263106 Z M772.710657,727.944607 L502.476963,876.65829 C455.651281,902.445798 398.733019,902.445798 351.923025,876.66692 L81.3320428,727.944607 C31.3748597,700.409048 0,647.950622 0,591.263106 L0,304.736894 C0,248.022038 31.3365377,195.551953 81.2804471,168.048534 L351.501687,19.3417105 C398.327369,-6.44579817 455.245631,-6.44579817 502.055625,19.3330797 L772.639478,168.051466 C822.601175,195.564681 854,248.047086 854,304.736894 L854,591.263106 C854,647.963141 822.656265,700.415429 772.710657,727.944607 Z M787.626461,226.880814 L808.072539,264.385424 L426.999706,472.331021 L45.948357,264.385176 L66.395343,226.880814 L427.000294,423.668979 L787.626461,226.880814 Z M405.65,448 L448.35,448 L448.35,853.844494 L405.65,853.844494 L405.65,448 Z M118.55199,424.384703 L137.64801,386.174351 L308.44801,471.615297 L289.35199,509.825649 L118.55199,424.384703 Z" id="配送" fill="#333333" fill-rule="nonzero"></path>
    </g>
</svg>