<?xml version="1.0" encoding="UTF-8"?>
<svg width="896px" height="886px" viewBox="0 0 896 886" version="1.1" xmlns="http://www.w3.org/2000/svg" xmlns:xlink="http://www.w3.org/1999/xlink">
    <title>0110新编辑</title>
    <g id="0110新编辑" stroke="none" stroke-width="1" fill="none" fill-rule="evenodd">
        <path d="M862.125562,818.263834 C880.833897,818.263834 896,833.427092 896,852.131917 C896,870.836743 880.833897,886 862.125562,886 L862.125562,886 L410.466388,886 C391.758052,886 376.59195,870.836743 376.59195,852.131917 C376.59195,833.427092 391.758052,818.263834 410.466388,818.263834 L410.466388,818.263834 Z M726.122861,3.34379796 L729.147483,3.99196975 L853.626567,32.4388566 C860.713221,34.0583515 866.58684,38.9895811 869.407794,45.688073 C874.247737,57.180755 868.852878,70.4202276 857.358039,75.2592626 L838.42737,83.2332057 C876.837254,148.180545 868.129038,233.266328 812.302723,289.082169 L282.678709,818.606818 C274.040906,827.243001 262.834508,832.845149 250.741583,834.572386 L64.4416784,861.181664 C33.5744995,865.590434 4.9770224,844.14635 0.567425424,813.284962 C-0.189141808,807.989985 -0.189141808,802.614372 0.567425424,797.319395 L27.1816975,611.054443 C28.9092582,598.963787 34.5124571,587.759491 43.1502607,579.123308 L572.774275,49.5986589 C614.433326,7.94742326 672.394501,-7.4708637 726.122861,3.34379796 Z M532.859671,185.299178 L93.7173777,624.359082 L69.7645328,791.997539 L237.434447,768.049188 L676.57674,328.989284 L532.859671,185.299178 Z M620.679965,97.4953608 L580.765361,137.402476 L724.48243,281.092582 L764.397034,241.185467 C804.083407,201.50654 804.083407,137.174288 764.397034,97.4953608 C724.710661,57.8164337 660.366337,57.8164337 620.679965,97.4953608 Z" id="形状结合" fill="#222222" fill-rule="nonzero"></path>
    </g>
</svg>