<?xml version="1.0" encoding="UTF-8"?>
<svg width="896px" height="896px" viewBox="0 0 896 896" version="1.1" xmlns="http://www.w3.org/2000/svg" xmlns:xlink="http://www.w3.org/1999/xlink">
    <title>091已完成</title>
    <g id="091已完成" stroke="none" stroke-width="1" fill="none" fill-rule="evenodd">
        <path d="M448,0 C695.423568,0 896,200.576432 896,448 C896,695.423568 695.423568,896 448,896 C200.576432,896 0,695.423568 0,448 C0,200.576432 200.576432,0 448,0 Z M448,29.8666667 C217.071337,29.8666667 29.8666667,217.071337 29.8666667,448 C29.8666667,678.928663 217.071337,866.133333 448,866.133333 C678.928663,866.133333 866.133333,678.928663 866.133333,448 C866.133333,217.071337 678.928663,29.8666667 448,29.8666667 Z M710.963662,282.250351 C716.795491,288.08218 716.715342,297.617594 710.759875,303.573061 L400.888994,613.443942 C397.770863,616.562073 393.915039,617.983432 390.075848,617.965525 C386.15377,617.880532 382.364574,616.446019 379.566284,613.647729 L189.316624,423.398069 C183.479711,417.561156 183.646146,407.931216 189.307419,402.269942 C195.139249,396.438112 204.741061,396.584661 210.435546,402.279146 L390.125745,581.969345 L689.640952,282.454138 C695.58533,276.50976 705.302388,276.589077 710.963662,282.250351 Z" id="已完成" fill="#333333"></path>
    </g>
</svg>