<?xml version="1.0" encoding="UTF-8"?>
<svg width="896px" height="747px" viewBox="0 0 896 747" version="1.1" xmlns="http://www.w3.org/2000/svg" xmlns:xlink="http://www.w3.org/1999/xlink">
    <title>089微信支付</title>
    <g id="089微信支付" stroke="none" stroke-width="1" fill="none" fill-rule="evenodd">
        <path d="M326.037195,471.624889 C321.921577,473.614867 317.705579,474.562476 312.586153,474.562476 C301.142729,474.562476 291.807305,468.687302 286.587497,459.87454 L284.479498,455.989344 L202.468295,287.314982 C201.464486,285.325003 201.464486,283.429786 201.464486,281.439807 C201.464486,273.574654 207.688102,267.69948 216.019718,267.69948 C219.131526,267.69948 222.243334,268.647089 225.355142,270.637067 L321.921577,335.358747 C329.149003,339.243943 337.480618,342.18153 346.816043,342.18153 C352.03585,342.18153 357.155277,341.233921 362.375084,339.243943 L815.193368,149.058861 C734.185974,58.8465051 600.27784,0 448.602285,0 C201.464486,0 0,157.871622 0,352.889509 C0,458.73741 60.2285458,554.82494 154.686982,619.546619 C161.914407,624.474185 167.134215,633.286947 167.134215,642.099708 C167.134215,645.037295 166.130406,647.974883 165.026216,650.91247 C157.79879,677.350755 145.251176,720.561715 145.251176,722.456933 C144.247367,725.39452 143.143177,729.279716 143.143177,733.259673 C143.143177,741.124826 149.366794,747 157.698409,747 C160.810217,747 163.922026,746.052391 166.030025,744.062413 L263.600269,690.143473 C270.827694,686.258277 279.15931,683.32069 287.490925,683.32069 C291.606543,683.32069 296.82635,684.268299 300.941967,685.310669 C346.615281,698.008626 396.504593,704.92617 447.397715,704.92617 C694.535514,704.92617 896,547.054548 896,352.036661 C896,293.190156 877.329151,237.375999 845.106879,188.289864 L329.149003,469.634911 L326.037195,471.624889 L326.037195,471.624889 Z" id="微信" fill="#333333" fill-rule="nonzero"></path>
    </g>
</svg>