<?xml version="1.0" encoding="UTF-8"?>
<svg width="896px" height="896px" viewBox="0 0 896 896" version="1.1" xmlns="http://www.w3.org/2000/svg" xmlns:xlink="http://www.w3.org/1999/xlink">
    <title>0230线型-客服中心</title>
    <g id="0230线型-客服中心" stroke="none" stroke-width="1" fill="none" fill-rule="evenodd">
        <path d="M448,0 C622.09622,0 763.828425,138.566819 768.92477,311.428613 L769.066667,321.066667 L769.066667,350.933333 L828.8,350.933333 L834.311445,351.156099 C868.50161,353.931513 895.456201,382.299768 895.991874,417.07752 L896,418.133333 L896,522.666667 L895.777234,528.178111 C893.00182,562.368277 864.633566,589.322868 829.855813,589.858541 L828.8,589.866667 L776.533333,589.866667 L771.021889,589.643901 C768.553238,589.443506 766.12231,589.109687 763.736324,588.649665 L763.746231,588.652893 C743.080896,700.868012 664.067816,792.649826 559.333386,831.371941 C554.430863,867.859046 523.168434,896 485.333333,896 L410.666667,896 C369.429405,896 336,862.570595 336,821.333333 C336,780.096072 369.429405,746.666667 410.666667,746.666667 L485.333333,746.666667 C508.471709,746.666667 529.151881,757.191489 542.847641,773.714925 C637.646232,736.782054 705.56745,646.103257 709.181797,539.117591 L709.333333,530.133333 L709.333333,321.066667 C709.333333,176.736252 592.330415,59.7333333 448,59.7333333 C306.676469,59.7333333 191.553649,171.911913 186.818203,312.082409 L186.666667,321.066667 L186.666667,522.666667 C186.666667,557.924525 159.513632,586.840453 124.978111,589.643901 L119.466667,589.866667 L67.2,589.866667 C31.9421416,589.866667 3.02621416,562.713632 0.222766062,528.178111 L0,522.666667 L0,418.133333 C0,382.875475 27.1530345,353.959547 61.6885552,351.156099 L67.2,350.933333 L126.896,350.896 L126.933333,321.066667 C126.933333,146.970447 265.500152,5.23824215 438.361946,0.141896261 L448,0 Z M126.896,410.629333 L67.2,410.666667 C63.7635616,410.666667 60.8693353,412.988153 60.0000499,416.148398 L59.7333333,418.133333 L59.7333333,522.666667 C59.7333333,526.103105 62.0548198,528.997331 65.2150642,529.866617 L67.2,530.133333 L119.466667,530.133333 C122.903105,530.133333 125.797331,527.811847 126.666617,524.651602 L126.933333,522.666667 L126.896,410.629333 Z M828.8,410.666667 L769.066667,410.666667 L769.066667,522.666667 L769.333383,524.651602 C770.179793,527.728683 772.94597,530.010569 776.263189,530.128537 L776.533333,530.133333 L828.8,530.133333 L830.784936,529.866617 C833.862016,529.020207 836.143902,526.25403 836.261871,522.936811 L836.266667,522.666667 L836.266667,418.133333 L835.99995,416.148398 C835.153541,413.071317 832.387364,410.789431 829.070144,410.671463 L828.8,410.666667 Z" id="Combined-Shape" fill="#333333"></path>
    </g>
</svg>