<?xml version="1.0" encoding="UTF-8"?>
<svg width="896px" height="896px" viewBox="0 0 896 896" version="1.1" xmlns="http://www.w3.org/2000/svg" xmlns:xlink="http://www.w3.org/1999/xlink">
    <title>0164写评价</title>
    <g id="0164写评价" stroke="none" stroke-width="1" fill="none" fill-rule="evenodd">
        <path d="M1.49101291,849.709907 L69.5895422,603.696694 L653.248172,20.225065 C680.367055,-6.89212921 715.320282,-6.59082667 742.288505,20.225065 L875.773675,153.701922 C902.591237,180.517814 902.892558,215.468865 875.773675,242.73671 L292.416366,826.35899 L46.0865101,894.453278 C12.1879061,901.533879 -5.43936798,883.907703 1.49101291,849.709907 Z M586.656248,175.998281 L720.141417,309.324486 L809.18175,220.289698 C832.232801,197.390734 830.726197,197.541386 809.18175,175.847631 L720.141417,86.9634935 C699.048952,64.2151809 697.090366,64.2151809 675.696581,86.9634935 L586.656248,175.998281 Z M163.601671,598.875861 L297.08684,732.352716 L675.545921,353.917206 L542.060751,220.440349 L163.601671,598.875861 Z M68.8362395,827.112246 L252.642004,776.794784 L119.156835,643.317929 L68.8362395,827.112246 Z" id="笔" fill="#333333" fill-rule="nonzero"></path>
    </g>
</svg>