<?xml version="1.0" encoding="UTF-8"?>
<svg width="896px" height="896px" viewBox="0 0 896 896" version="1.1" xmlns="http://www.w3.org/2000/svg" xmlns:xlink="http://www.w3.org/1999/xlink">
    <title>051iOS-返回</title>
    <g id="051iOS-返回" stroke="none" stroke-width="1" fill="none" fill-rule="evenodd">
        <path d="M448,0 C695.423568,0 896,200.576432 896,448 C896,695.423568 695.423568,896 448,896 C200.576432,896 0,695.423568 0,448 C0,200.576432 200.576432,0 448,0 Z M532.789445,258.683935 C521.73445,247.628939 503.900046,247.680427 492.863421,258.717052 L492.863421,258.717052 L310.537789,441.042684 C305.958314,445.622159 303.152536,451.569381 302.44891,457.897117 C301.392268,466.463859 304.302835,475.113101 310.537789,481.348055 L310.537789,481.348055 L492.863421,663.673688 C503.844427,674.654693 521.779162,674.717087 532.789445,663.706805 C543.844441,652.651809 543.792953,634.817405 532.756328,623.780781 L532.756328,623.780781 L370.170917,461.19537 L532.756328,298.609959 C543.737334,287.628953 543.799728,269.694218 532.789445,258.683935 Z" id="Combined-Shape" fill="#333333"></path>
    </g>
</svg>