<?xml version="1.0" encoding="UTF-8"?>
<svg width="896px" height="896px" viewBox="0 0 896 896" version="1.1" xmlns="http://www.w3.org/2000/svg" xmlns:xlink="http://www.w3.org/1999/xlink">
    <title>019京东支付</title>
    <g id="019京东支付" stroke="none" stroke-width="1" fill="none" fill-rule="evenodd">
        <path d="M176.621932,238.590624 L384.597096,238.590624 L384.597096,270.130883 L176.621932,270.130883 L176.621932,238.590624 Z M731.218581,0 L164.781419,0 C74.1512249,0 0,74.1512249 0,164.781419 L0,731.218581 C0,821.848775 74.1522589,896 164.781419,896 L731.218581,896 C821.848775,896 896,821.847741 896,731.218581 L896,164.782452 C896,74.1522579 821.847741,0 731.218581,0 Z M460.551419,174.222624 L528.881067,174.222624 L537.149484,155.877527 L580.919806,155.877527 L572.65139,174.222624 L778.528967,174.222624 L778.528967,198.039011 L561.917534,198.039011 L529.696336,269.529505 L601.517484,269.529505 L601.517484,216.061721 L645.502732,215.846795 L645.502732,269.528472 L765.012452,269.528472 L765.012452,293.022472 L645.501699,293.022472 L645.501699,374.943033 C645.501699,374.943033 647.325462,385.241872 628.872902,407.01957 C611.556966,427.457087 571.585031,423.648367 571.585031,423.648367 L571.585031,400.154367 C571.585031,400.154367 582.098795,401.334389 591.002687,394.146797 C599.906579,386.959206 601.516451,380.092969 601.516451,380.092969 L601.516451,293.023505 L475.436015,293.023505 L475.454614,292.982173 L475.355418,292.982173 L518.146178,198.040045 L460.550386,198.040045 L460.550386,174.222624 L460.551419,174.222624 Z M555.708472,309.823828 C555.708472,309.823828 541.118364,382.559441 488.98043,420.536086 L462.160257,420.536086 C462.160257,420.536086 495.192592,388.831534 508.71944,309.823828 L555.708472,309.823828 Z M303.065054,293.088603 L303.065054,374.943033 C303.065054,374.943033 304.888817,385.241872 286.436257,407.01957 C269.120321,427.457087 229.148386,423.648367 229.148386,423.648367 L229.148386,400.154367 C229.148386,400.154367 239.66215,401.334389 248.566042,394.146797 C257.469934,386.959206 259.079806,380.092969 259.079806,380.092969 L259.066373,293.05347 L259.079806,293.05347 L259.079806,293.037972 L134.99776,293.037972 L134.99776,216.307645 L426.221268,216.307645 L426.221268,293.037972 L302.957591,293.037972 L302.957591,293.088603 L303.065054,293.088603 L303.065054,293.088603 Z M393.287097,309.823828 C406.813945,388.832567 439.846279,420.536086 439.846279,420.536086 L413.026107,420.536086 C360.888171,382.559441 346.298063,309.823828 346.298063,309.823828 L393.287097,309.823828 L393.287097,309.823828 Z M125.516257,175.510108 L259.079806,175.510108 L258.758451,155.877527 L303.172516,155.877527 L303.49387,175.831463 L437.057419,175.831463 L437.057419,199.325463 L124.872515,199.325463 L125.516257,175.510108 L125.516257,175.510108 Z M168.857763,309.823828 L215.846795,309.823828 C215.846795,309.823828 201.256687,382.559441 149.118753,420.536086 L122.29858,420.536086 C122.29858,420.537119 155.329881,388.832567 168.857763,309.823828 Z M439.953741,539.188172 L302.527741,539.188172 L302.527741,581.027269 L403.37101,581.027269 L403.37101,607.632516 C381.209959,643.769898 347.904836,670.531173 311.910048,690.321848 C342.179355,702.416551 382.000429,712.89415 434.267526,718.558666 L434.267526,743.662537 C434.267526,743.662537 351.756953,743.084926 273.336159,708.701043 C197.560596,739.916847 122.942322,745.164946 122.942323,745.164947 L122.942323,720.061075 C171.615624,714.785078 210.155414,704.403575 240.641712,692.01645 C210.832221,674.418424 183.543967,650.864493 164.137677,619.218839 L220.138065,619.003914 C220.138065,619.003914 230.711759,647.008241 277.726624,673.960674 C329.864559,643.658302 346.039739,610.318047 347.274527,607.632516 L145.685117,607.632516 L145.685117,581.027269 L257.899784,581.027269 L257.899784,539.188172 L121.976192,539.188172 L121.976192,515.371785 L257.899784,515.371785 L257.899784,481.041634 L302.528774,481.041634 L302.528774,515.371785 L439.953741,515.371785 L439.953741,539.188172 Z M540.689548,744.843592 L500.781678,744.843592 L500.781678,574.269528 L501.801538,573.348864 C490.10052,579.686054 476.482742,584.795692 460.552452,587.894539 L460.552452,567.833141 C460.552452,567.833141 509.783732,555.332354 523.311614,476.323614 L570.300646,476.323614 C570.300646,476.323614 565.659091,510.048256 540.691614,540.958205 L540.691614,744.843592 L540.689548,744.843592 Z M611.17258,651.188947 C611.17258,651.188947 593.793613,580.38456 584.459871,577.809593 L621.792773,577.809593 C621.792773,577.809593 646.574258,605.166045 648.183095,651.188947 L611.17258,651.188947 L611.17258,651.188947 Z M778.850322,547.878173 L739.049914,547.878173 L739.049914,696.139292 C739.049914,696.139292 740.873677,706.438131 722.422151,728.215829 C705.106215,748.653346 665.13428,744.844626 665.13428,744.844626 L665.13428,731.649465 C665.13428,731.649465 678.008087,729.396884 686.911978,722.209293 C695.815871,715.021701 695.065699,701.289228 695.065699,701.289228 L695.065699,547.878173 L564.505935,547.878173 L564.505935,520.521722 L695.065699,520.521722 L695.065699,475.463914 L739.049914,475.248989 L739.049914,520.521722 L778.850322,520.521722 L778.850322,547.878173 L778.850322,547.878173 Z M752.888817,420.537119 C700.750881,382.560474 686.160773,309.824861 686.160773,309.824861 L733.148774,309.824861 C746.675622,388.8336 779.707956,420.537119 779.707956,420.537119 L752.888817,420.537119 L752.888817,420.537119 Z" id="jingdong" fill="#333333"></path>
    </g>
</svg>