<?xml version="1.0" encoding="UTF-8"?>
<svg width="875px" height="896px" viewBox="0 0 875 896" version="1.1" xmlns="http://www.w3.org/2000/svg" xmlns:xlink="http://www.w3.org/1999/xlink">
    <title>0169新客服</title>
    <g id="0169新客服" stroke="none" stroke-width="1" fill="none" fill-rule="evenodd">
        <path d="M418.712585,1.85845014 C433.255668,7.31343051 440.878138,23.1377847 436.330364,37.7802761 L435.774706,39.401769 L431.632932,50.4438782 L437.5,50.3982473 L437.5,50.3982473 C618.319051,50.3982473 768.797922,180.264436 800.705095,351.789452 C842.040708,353.598694 875,387.681924 875,429.461102 L875,536.376266 C875,579.319986 840.177703,614.132749 797.222222,614.132749 L789.332049,614.136116 C753.098683,749.17726 643.182592,854.070515 505.309527,883.10265 C498.202805,891.019453 487.877641,896 476.388889,896 L398.611111,896 C377.133371,896 359.722222,878.593618 359.722222,857.121758 C359.722222,835.649899 377.133371,818.243517 398.611111,818.243517 L476.388889,818.243517 C488.696104,818.243517 499.668037,823.958973 506.793856,832.879741 C630.653939,802.039034 726.469432,700.28667 748.621283,573.237359 L748.611111,419.741542 C748.611111,247.966663 609.321922,108.71561 437.5,108.71561 C267.396297,108.71561 129.177926,245.195567 126.430569,414.598159 L126.388889,419.741542 L126.388889,575.254508 C126.388889,591.358403 113.330527,604.413189 97.2222222,604.413189 L77.7777778,604.413189 C34.8222972,604.413189 0,569.600425 0,526.656706 L0,419.741542 C0,377.309905 33.9967698,342.816466 76.244621,341.999864 C98.5433576,237.962417 164.676751,150.165644 254.383998,98.8862825 L392.036188,5.0671346 C399.876718,-0.277217956 409.827804,-1.47415217 418.712585,1.85845014 Z M516.330143,696.010157 C517.127352,698.452506 516.924917,701.111057 515.767093,703.404623 C496.745188,741.085644 470.656157,759.926155 437.5,759.926155 L434.592797,759.877261 C402.815307,758.801591 377.695344,739.977379 359.232907,703.404623 C358.075083,701.111057 357.872648,698.452506 358.669857,696.010157 C360.216614,691.271471 365.059478,688.529931 369.830451,689.495778 L370.928636,689.785255 L376.075906,691.414115 C396.544469,697.687763 415.56487,701.065881 433.13711,701.548469 L437.5,701.608792 C456.27512,701.608792 476.749818,698.210567 498.924094,691.414115 L504.071364,689.785255 C509.175962,688.119973 514.664404,690.906956 516.330143,696.010157 Z M281.944444,487.778464 C303.422185,487.778464 320.833333,505.184846 320.833333,526.656706 C320.833333,548.128566 303.422185,565.534947 281.944444,565.534947 C260.466704,565.534947 243.055556,548.128566 243.055556,526.656706 C243.055556,505.184846 260.466704,487.778464 281.944444,487.778464 Z M593.055556,487.778464 C614.533296,487.778464 631.944444,505.184846 631.944444,526.656706 C631.944444,548.128566 614.533296,565.534947 593.055556,565.534947 C571.577815,565.534947 554.166667,548.128566 554.166667,526.656706 C554.166667,505.184846 571.577815,487.778464 593.055556,487.778464 Z M437.5,147.593851 L444.055244,147.67121 L449.124103,147.837486 L449.124103,147.837486 L454.454772,148.11311 L454.454772,148.11311 L459.509179,148.470454 L459.509179,148.470454 L466.564882,149.126795 L466.564882,149.126795 L471.306105,149.671839 L471.306105,149.671839 L476.434129,150.356358 L476.434129,150.356358 L481.655858,151.155805 L484.116552,151.568673 L484.116552,151.568673 L489.709594,152.594046 L489.709594,152.594046 L494.470012,153.562852 L494.470012,153.562852 L498.167979,154.377129 L498.167979,154.377129 L502.947312,155.510389 L502.947312,155.510389 L508.65221,156.984091 L508.65221,156.984091 L513.722713,158.406215 C516.923365,159.337653 520.099417,160.326177 523.249855,161.370656 L529.368101,163.480738 L529.368101,163.480738 L533.991602,165.185257 L533.991602,165.185257 L540.307446,167.670421 L540.307446,167.670421 L545.323778,169.776395 L545.323778,169.776395 L549.95814,171.82873 L553.885532,173.650128 L557.903593,175.593386 L557.903593,175.593386 L562.601784,177.970482 C648.753408,222.614885 708.010281,311.931168 709.685752,415.241082 L709.715288,419.582828 C706.489831,419.688363 703.251127,419.741542 700,419.741542 C620.142913,419.741542 547.781645,387.656915 495.110478,335.678606 C441.610505,398.978365 361.612524,439.180662 272.222222,439.180662 C234.473242,439.180662 198.399215,432.0113 165.288187,418.96027 C165.679211,279.504887 270.976044,164.731701 406.432366,149.346786 L409.07159,149.062561 L415.177778,148.495443 L419.753452,148.163044 L419.753452,148.163044 L423.263097,147.960045 L423.263097,147.960045 L425.893835,147.836786 L425.893835,147.836786 L430.809623,147.674435 C433.033244,147.620815 435.263472,147.593851 437.5,147.593851 Z" id="Shape" fill="#222222" fill-rule="nonzero"></path>
    </g>
</svg>