<?xml version="1.0" encoding="UTF-8"?>
<svg width="896px" height="896px" viewBox="0 0 896 896" version="1.1" xmlns="http://www.w3.org/2000/svg" xmlns:xlink="http://www.w3.org/1999/xlink">
    <title>025扫码</title>
    <g id="025扫码" stroke="none" stroke-width="1" fill="none" fill-rule="evenodd">
        <path d="M33.6,548.8 C52.1567676,548.8 67.2,563.843232 67.2,582.4 L67.2,582.4 L67.2,705.6 L67.2415229,708.830164 C68.95431,775.378648 123.438542,828.8 190.4,828.8 L190.4,828.8 L313.6,828.8 L315.574255,828.857038 C333.212096,829.878998 347.2,844.505974 347.2,862.4 C347.2,880.956768 332.156768,896 313.6,896 L313.6,896 L190.4,896 L186.781956,895.966312 C83.2965912,894.037715 0,809.546338 0,705.6 L0,705.6 L0,582.4 L0.0570381662,580.425745 C1.07899815,562.787904 15.7059741,548.8 33.6,548.8 Z M862.4,548.8 C880.294026,548.8 894.921002,562.787904 895.942962,580.425745 L896,582.4 L896,705.6 C896,809.546338 812.703409,894.037715 709.218044,895.966312 L705.6,896 L582.4,896 C563.843232,896 548.8,880.956768 548.8,862.4 C548.8,844.505974 562.787904,829.878998 580.425745,828.857038 L582.4,828.8 L705.6,828.8 C772.561458,828.8 827.04569,775.378648 828.758477,708.830164 L828.8,705.6 L828.8,582.4 C828.8,563.843232 843.843232,548.8 862.4,548.8 Z M851.2,414.4 C869.756768,414.4 884.8,429.443232 884.8,448 C884.8,465.894026 870.812096,480.521002 853.174255,481.542962 L851.2,481.6 L44.8,481.6 C26.2432324,481.6 11.2,466.556768 11.2,448 C11.2,430.105974 25.1879036,415.478998 42.8257448,414.457038 L44.8,414.4 L851.2,414.4 Z M313.6,0 C332.156768,0 347.2,15.0432324 347.2,33.6 C347.2,51.4940259 333.212096,66.1210018 315.574255,67.1429618 L313.6,67.2 L190.4,67.2 C123.438542,67.2 68.95431,120.621352 67.2415229,187.169836 L67.2,190.4 L67.2,313.6 C67.2,332.156768 52.1567676,347.2 33.6,347.2 C15.7059741,347.2 1.07899815,333.212096 0.0570381662,315.574255 L0,313.6 L0,190.4 C0,86.453662 83.2965912,1.96228527 186.781956,0.0336879343 L190.4,0 L313.6,0 Z M705.6,0 L709.218044,0.0336879343 C812.703409,1.96228527 896,86.453662 896,190.4 L896,190.4 L896,313.6 L895.942962,315.574255 C894.921002,333.212096 880.294026,347.2 862.4,347.2 C843.843232,347.2 828.8,332.156768 828.8,313.6 L828.8,313.6 L828.8,190.4 L828.758477,187.169836 C827.04569,120.621352 772.561458,67.2 705.6,67.2 L705.6,67.2 L582.4,67.2 L580.425745,67.1429618 C562.787904,66.1210018 548.8,51.4940259 548.8,33.6 C548.8,15.0432324 563.843232,0 582.4,0 L582.4,0 L705.6,0 Z" id="Combined-Shape" fill="#333333" fill-rule="nonzero"></path>
    </g>
</svg>