<?xml version="1.0" encoding="UTF-8"?>
<svg width="692px" height="896px" viewBox="0 0 692 896" version="1.1" xmlns="http://www.w3.org/2000/svg" xmlns:xlink="http://www.w3.org/1999/xlink">
    <title>014关于我们</title>
    <g id="014关于我们" stroke="none" stroke-width="1" fill="none" fill-rule="evenodd">
        <path d="M346.173757,0 C499.122946,0 623.112763,123.989816 623.112763,276.939006 C623.112763,429.888195 499.122946,553.878011 346.173757,553.878011 C193.224568,553.878011 69.2347514,429.888195 69.2347514,276.939006 C69.2347514,123.989816 193.224568,0 346.173757,0 Z M346.173757,69.2347514 C231.461865,69.2347514 138.469503,162.227114 138.469503,276.939006 C138.469503,391.650898 231.461865,484.64326 346.173757,484.64326 C460.885649,484.64326 553.878011,391.650898 553.878011,276.939006 C553.878011,162.227114 460.885649,69.2347514 346.173757,69.2347514 Z" id="Combined-Shape" fill="#333333"></path>
        <path d="M498.454088,415.408508 L516.766698,420.645629 C619.871235,450.131918 692.347514,544.896083 692.347514,653.67837 L692.347514,723.057606 C692.347514,818.535174 614.860185,896 519.44122,896 L172.906294,896 C77.4905462,896 0,818.388345 0,723.057606 L0,653.67837 C0,544.882151 72.5454679,450.187155 175.584148,420.667078 L193.902249,415.419032 L208.135182,428.08862 C245.916596,461.720127 294.532614,480.591492 346.173757,480.591492 C397.8225,480.591492 446.445158,461.714534 484.22867,428.074075 L498.454088,415.408508 Z M514.38182,492.909055 C466.603171,529.49898 407.931555,549.826243 346.173757,549.826243 C284.42867,549.826243 225.768362,529.50737 177.994783,492.931321 C113.391414,518.825154 69.2347514,582.00536 69.2347514,653.67837 L69.2347514,723.057606 C69.2347514,780.175231 115.752068,826.765249 172.906294,826.765249 L519.44122,826.765249 C576.627388,826.765249 623.112763,780.293374 623.112763,723.057606 L623.112763,653.67837 C623.112763,581.998021 579.000395,518.781234 514.38182,492.909055 Z" id="Combined-Shape" fill="#333333"></path>
    </g>
</svg>