<?xml version="1.0" encoding="UTF-8"?>
<svg width="896px" height="815px" viewBox="0 0 896 815" version="1.1" xmlns="http://www.w3.org/2000/svg" xmlns:xlink="http://www.w3.org/1999/xlink">
    <title>03待配送</title>
    <g id="03待配送" stroke="none" stroke-width="1" fill="none" fill-rule="evenodd">
        <path d="M732.701641,0 C822.888834,0 896,73.0023187 896,162.87773 L896,162.87773 L896,651.667725 C896,741.622611 822.676559,814.545455 732.701641,814.545455 L732.701641,814.545455 L163.298359,814.545455 C73.1111655,814.545455 0,741.543136 0,651.667725 L0,651.667725 L0,162.87773 C0,72.9228435 73.3234406,0 163.298359,0 L163.298359,0 Z M40.7272727,285.090909 L40.7272727,651.940199 C40.7272727,718.717214 95.3242154,773.818182 162.672957,773.818182 L733.327043,773.818182 C800.563294,773.818182 855.272727,719.25155 855.272727,651.940199 L855.272727,285.090909 L570.181818,285.090909 L570.181818,529.454545 C570.181818,529.454545 498.451705,448 448,448 C397.548295,448 325.818182,529.454545 325.818182,529.454545 L325.818182,285.090909 L40.7272727,285.090909 Z M529.454545,40.7272727 L366.545455,40.7272727 L366.545455,440.560014 C366.545455,440.560014 405.956913,407.272727 448,407.272727 C490.043087,407.272727 529.454545,440.560014 529.454545,440.560014 L529.454545,440.560014 L529.454545,40.7272727 Z M224.387784,366.545455 C235.420143,366.545455 244.363636,375.991477 244.363636,386.909091 C244.363636,398.155617 235.604936,407.272727 224.387784,407.272727 L224.387784,407.272727 L101.430398,407.272727 C90.3980392,407.272727 81.4545455,397.826705 81.4545455,386.909091 C81.4545455,375.662565 90.2132457,366.545455 101.430398,366.545455 L101.430398,366.545455 Z M733.327043,40.7272727 L570.181,40.727 L570.181818,244.363636 L855.272727,244.363636 L855.272727,162.605256 C855.272727,95.8282401 800.675785,40.7272727 733.327043,40.7272727 Z M40.7272727,244.363636 L325.818182,244.363636 L325.818,40.727 L162.672957,40.7272727 C95.4367055,40.7272727 40.7272727,95.2939044 40.7272727,162.605256 L40.7272727,244.363636 Z" id="distribution" fill="#333333"></path>
    </g>
</svg>