<?xml version="1.0" encoding="UTF-8"?>
<svg width="896px" height="896px" viewBox="0 0 896 896" version="1.1" xmlns="http://www.w3.org/2000/svg" xmlns:xlink="http://www.w3.org/1999/xlink">
    <title>0239消息入口</title>
    <g id="0239消息入口" stroke="none" stroke-width="1" fill="none" fill-rule="evenodd">
        <path d="M449.505902,0 C695.502214,0 896,199.839194 896,448 C896,696.160806 695.502214,896 449.505902,896 C416.778218,896 384.490454,892.464784 353.042557,885.517495 C338.102823,882.217094 328.414211,866.165324 331.402437,849.664862 C334.390663,833.164401 348.924146,822.463637 363.86388,825.764037 C391.750656,831.924624 420.413753,835.062972 449.505902,835.062972 C666.222044,835.062972 840.826816,661.031739 840.826816,448 C840.826816,234.968261 666.222044,60.9370277 449.505902,60.9370277 C232.78976,60.9370277 58.1849874,234.968261 58.1849874,448 C58.1849874,535.372064 87.5358139,618.353625 140.881684,685.936741 C146.258322,692.748326 148.619916,701.844481 147.328479,710.767874 C140.900909,755.180209 118.915617,791.915622 82.7951158,820.320241 L80.376868,822.108212 L85.6347754,822.51268 C131.147702,824.932986 177.54113,809.629924 204.062803,779.695322 L209.096032,773.51423 C218.785142,760.528093 236.171312,758.675877 247.929132,769.37719 C259.686951,780.078504 261.363971,799.280977 251.674862,812.267114 C213.611604,863.282608 147.337407,886.80155 82.9813461,883.379196 C54.8846355,881.885057 30.9055944,875.093956 16.5113537,862.701415 C-10.2211221,839.686425 -2.46243845,806.498741 25.2328042,787.626363 L30.0307801,784.617715 C62.4318053,765.950728 81.7945778,743.141376 89.7892082,715.421977 C90.0148933,714.491116 89.8251316,713.508126 89.2691785,712.728156 L81.5480899,701.895923 C33.6518312,632.14618 6.17385522,549.886643 3.26857474,463.319585 L3.01180367,448 C3.01180367,199.839194 203.509589,0 449.505902,0 Z M268.8,392 C299.727946,392 324.8,417.072054 324.8,448 C324.8,478.927946 299.727946,504 268.8,504 C237.872054,504 212.8,478.927946 212.8,448 C212.8,417.072054 237.872054,392 268.8,392 Z M448,392 C478.927946,392 504,417.072054 504,448 C504,478.927946 478.927946,504 448,504 C417.072054,504 392,478.927946 392,448 C392,417.072054 417.072054,392 448,392 Z M627.2,392 C658.127946,392 683.2,417.072054 683.2,448 C683.2,478.927946 658.127946,504 627.2,504 C596.272054,504 571.2,478.927946 571.2,448 C571.2,417.072054 596.272054,392 627.2,392 Z" id="消息入口" fill="#333333" fill-rule="nonzero"></path>
    </g>
</svg>