<?xml version="1.0" encoding="UTF-8"?>
<svg width="843px" height="896px" viewBox="0 0 843 896" version="1.1" xmlns="http://www.w3.org/2000/svg" xmlns:xlink="http://www.w3.org/1999/xlink">
    <title>039验证码</title>
    <g id="039验证码" stroke="none" stroke-width="1" fill="none" fill-rule="evenodd">
        <path d="M667.003618,27.6792339 C694.495955,-5.14280697 743.139197,-9.39644822 776.03384,18.2542534 L776.03384,18.2542534 L815.709914,51.6053153 C848.365851,79.055364 852.585524,128.322942 825.377407,160.805663 L825.377407,160.805663 L627.719707,396.781564 C656.484237,447.114611 671.912473,504.307894 671.912473,563.740834 C671.912473,685.271991 607.046695,795.509075 503.953116,855.250967 C491.598689,862.410257 475.789943,858.181053 468.643293,845.804776 C461.496643,833.428498 465.71838,817.591792 478.072807,810.432502 C565.354443,759.853502 620.226898,666.599716 620.226898,563.740834 C620.226898,507.814882 604.130664,454.346831 574.331962,408.523635 L574.331962,408.523635 L563.878383,392.44856 L785.78396,127.524056 C794.668496,116.917151 793.246373,100.312887 782.487067,91.2687903 L782.487067,91.2687903 L742.810993,57.9177284 C731.779735,48.6450329 715.738017,50.0478119 706.597065,60.9608412 L706.597065,60.9608412 L657.088532,120.067168 L632.084941,99.0495568 C621.07417,89.794082 604.960867,91.2406434 595.718107,102.275218 C586.466156,113.320765 587.891575,129.491392 598.862094,138.713032 L598.862094,138.713032 L623.865685,159.730643 L487.876326,322.083091 L469.392082,312.219799 C428.669086,290.489791 383.170603,278.967392 335.956237,278.967392 C178.957885,278.967392 51.6855749,406.464805 51.6855749,563.740834 C51.6855749,703.335048 152.64151,821.734889 288.546503,844.575754 C302.622364,846.941412 312.118745,860.29008 309.757263,874.390836 C307.395781,888.491593 294.070681,898.004769 279.99482,895.639111 C119.291903,868.630585 0,728.726552 0,563.740834 C0,377.869163 150.412731,227.190402 335.956237,227.190402 C384.503668,227.190402 431.606043,237.532344 474.770667,257.178735 L474.770667,257.178735 L552.557853,164.311616 C532.246808,136.17684 532.748623,96.9013588 556.124659,68.9936107 C579.465358,41.1280513 617.97464,33.7256898 649.212738,48.9190789 L649.212738,48.9190789 Z M335.956237,414.215375 C421.591701,414.215375 491.012961,483.759418 491.012961,569.546343 C491.012961,655.333268 421.591701,724.877311 335.956237,724.877311 C250.320772,724.877311 180.899512,655.333268 180.899512,569.546343 C180.899512,483.759418 250.320772,414.215375 335.956237,414.215375 Z M335.956237,465.992364 C278.865927,465.992364 232.585087,512.35506 232.585087,569.546343 C232.585087,626.737626 278.865927,673.100322 335.956237,673.100322 C393.046546,673.100322 439.327386,626.737626 439.327386,569.546343 C439.327386,512.35506 393.046546,465.992364 335.956237,465.992364 Z" id="验证码" fill="#333333" fill-rule="nonzero"></path>
    </g>
</svg>