<?xml version="1.0" encoding="UTF-8"?>
<svg width="811px" height="896px" viewBox="0 0 811 896" version="1.1" xmlns="http://www.w3.org/2000/svg" xmlns:xlink="http://www.w3.org/1999/xlink">
    <title>0152全部订单</title>
    <g id="0152全部订单" stroke="none" stroke-width="1" fill="none" fill-rule="evenodd">
        <path d="M149.739892,43.7073171 C88.4353041,43.7073171 43.7196765,84.2780149 43.7196765,142.04878 L43.7196765,732.097561 C43.7196765,795.139564 93.7050222,852.292683 149.739892,852.292683 L661.260108,852.292683 C717.294978,852.292683 767.280323,795.139564 767.280323,732.097561 L767.280323,347.602747 C731.820743,311.052034 637.914803,213.216016 613.698042,188.578178 C601.526361,176.194858 589.980732,164.595554 578.638332,153.369119 C540.234405,115.357838 502.936285,80.4317819 461.206458,43.7073171 L149.739892,43.7073171 Z M477.656496,0 L483.838735,5.41052011 C528.772389,44.7351791 568.492585,81.8221881 609.397949,122.309332 C620.889281,133.683175 632.575318,145.42354 644.882147,157.944358 C670.923373,184.438386 775.984494,293.938054 804.791809,323.475665 L811,329.841241 L811,732.097561 C811,818.070558 742.843962,896 661.260108,896 L149.739892,896 C68.1560379,896 -5.68434189e-14,818.070558 -5.68434189e-14,732.097561 L-5.68434189e-14,142.04878 C-5.68434189e-14,59.1424487 65.1847725,0 149.739892,0 L477.656496,0 Z M597.320081,597.15122 L149.739892,597.15122 L149.739892,639.765854 L597.320081,639.765854 L597.320081,597.15122 Z M469.440027,426.692683 L149.739892,426.692683 L149.739892,469.307317 L469.440027,469.307317 L469.440027,426.692683 Z M426.266846,21.8536585 L469.986523,21.8536585 L469.986523,218.536585 C469.986523,276.593773 525.681522,327.804878 586.66341,327.804878 L767.826819,327.804878 L767.826819,371.512195 L586.66341,371.512195 C502.314588,371.512195 426.266846,301.586906 426.266846,218.536585 L426.266846,21.8536585 Z" id="全部订单" fill="#333333" fill-rule="nonzero"></path>
    </g>
</svg>