<?xml version="1.0" encoding="UTF-8"?>
<svg width="896px" height="855px" viewBox="0 0 896 855" version="1.1" xmlns="http://www.w3.org/2000/svg" xmlns:xlink="http://www.w3.org/1999/xlink">
    <title>0121购物车01</title>
    <g id="0121购物车01" stroke="none" stroke-width="1" fill="none" fill-rule="evenodd">
        <path d="M745.847246,744.285027 C776.362143,744.285027 801.207675,769.125974 801.207675,799.653306 C801.207675,830.158154 776.349549,855 745.847246,855 C715.318854,855 690.457129,830.16355 690.457129,799.653306 C690.457129,769.125974 715.30626,744.285027 745.847246,744.285027 Z M311.519138,744.285027 C342.035835,744.285027 366.879568,769.125974 366.879568,799.653306 C366.879568,830.158154 342.021441,855 311.519138,855 C280.991646,855 256.129921,830.16355 256.129921,799.653306 C256.129921,769.125974 280.978152,744.285027 311.519138,744.285027 Z M79.8335203,-5.68434189e-14 C131.772719,-5.68434189e-14 177.281478,39.2884822 186.342387,90.2833792 L186.342387,90.2833792 L847.828357,90.2833792 C860.93393,90.2833792 872.475973,95.5524802 881.232814,105.507925 C892.23329,117.907714 897.724532,137.037996 895.519579,155.367884 L895.519579,155.367884 L840.353466,471.090368 C837.187726,497.211942 812.620174,518.605805 784.586411,518.765884 L784.586411,518.765884 L357.46601,550.295954 L258.604759,558.630829 L268.695727,629.642735 C269.357842,635.211308 274.3471,639.377846 277.272644,639.377846 L277.272644,639.377846 L812.981819,639.377846 C824.323249,639.377846 833.501108,648.552683 833.501108,659.890378 C833.501108,671.228074 824.323249,680.40291 812.981819,680.40291 L812.981819,680.40291 L277.272644,680.40291 C253.106321,680.40291 231.003711,660.029772 227.998102,634.970291 L227.998102,634.970291 L176.198343,270.369903 L146.982488,101.801837 C142.734512,67.2671478 113.318043,41.025064 79.8335212,41.025064 L79.8335212,41.025064 L20.5192893,41.025064 C9.17785933,41.025064 0,31.8502271 0,20.512532 C0,9.17483693 9.17785933,-5.68434189e-14 20.5192893,-5.68434189e-14 L20.5192893,-5.68434189e-14 Z" id="Combined-Shape" fill="#333333" fill-rule="nonzero"></path>
    </g>
</svg>