<?xml version="1.0" encoding="UTF-8"?>
<svg width="896px" height="896px" viewBox="0 0 896 896" version="1.1" xmlns="http://www.w3.org/2000/svg" xmlns:xlink="http://www.w3.org/1999/xlink">
    <title>092时间</title>
    <g id="092时间" stroke="none" stroke-width="1" fill="none" fill-rule="evenodd">
        <path d="M448,0 C695.423568,0 896,200.576432 896,448 C896,695.423568 695.423568,896 448,896 C200.576432,896 0,695.423568 0,448 C0,200.576432 200.576432,0 448,0 Z M448,29.8666667 C217.071337,29.8666667 29.8666667,217.071337 29.8666667,448 C29.8666667,678.928663 217.071337,866.133333 448,866.133333 C678.928663,866.133333 866.133333,678.928663 866.133333,448 C866.133333,217.071337 678.928663,29.8666667 448,29.8666667 Z M433.066667,238.933333 C441.314119,238.933333 448,245.826465 448,253.879683 L448,448 L701.578468,448 C709.985088,448 716.8,454.927083 716.8,462.933333 C716.8,471.180786 710.00077,477.866667 701.578468,477.866667 L433.354866,477.866667 L433.210632,477.865987 L433.066667,477.866667 C428.945162,477.866667 425.21363,476.14524 422.511574,473.41786 C419.798346,470.584433 418.133333,466.890713 418.133333,462.933333 L418.133333,253.879683 C418.133333,245.625042 425.060417,238.933333 433.066667,238.933333 Z" id="时间" fill="#333333"></path>
    </g>
</svg>