<?xml version="1.0" encoding="UTF-8"?>
<svg width="753px" height="896px" viewBox="0 0 753 896" version="1.1" xmlns="http://www.w3.org/2000/svg" xmlns:xlink="http://www.w3.org/1999/xlink">
    <title>0258语音</title>
    <g id="0258语音" stroke="none" stroke-width="1" fill="none" fill-rule="evenodd">
        <path d="M409.720588,804.944 L409.720588,862.4 C409.720588,880.956768 394.847224,896 376.5,896 C358.152776,896 343.279412,880.956768 343.279412,862.4 L343.279412,804.944 C150.898986,787.919999 0,624.5792 0,425.6 L0,403.2 C0,384.643232 14.873364,369.6 33.2205882,369.6 C51.5678125,369.6 66.4411764,384.643232 66.4411764,403.2 L66.4411764,425.6 C66.4411764,598.7968 205.258941,739.2 376.5,739.199999 C547.741059,739.199998 686.558824,598.7968 686.558824,425.6 L686.558824,403.2 C686.558824,384.643232 701.432188,369.6 719.779412,369.6 C738.126636,369.6 753,384.643232 753,403.2 L753,425.6 C753,624.590401 602.101014,787.92 409.720588,804.944 L409.720588,804.944 Z M155.029412,223.888 C155.029412,100.24 254.17072,0 376.5,0 C498.773911,0 597.970588,100.3184 597.970588,223.888 L597.970588,425.712 C597.970588,549.36 498.82928,649.6 376.5,649.6 C254.226089,649.6 155.029412,549.2816 155.029412,425.712 L155.029412,223.888 Z M221.470589,223.888 L221.470589,425.712 C221.470589,512.176 290.912691,582.4 376.5,582.4 C462.142676,582.4 531.529411,512.2544 531.529411,425.712 L531.529411,223.888 C531.529411,137.424 462.087309,67.1999999 376.5,67.1999999 C290.857324,67.1999999 221.470589,137.3456 221.470589,223.888 Z" id="形状" fill="#000000" fill-rule="nonzero"></path>
    </g>
</svg>