<?xml version="1.0" encoding="UTF-8"?>
<svg width="896px" height="896px" viewBox="0 0 896 896" version="1.1" xmlns="http://www.w3.org/2000/svg" xmlns:xlink="http://www.w3.org/1999/xlink">
    <title>087md-user-商家</title>
    <g id="087md-user-商家" stroke="none" stroke-width="1" fill="none" fill-rule="evenodd">
        <path d="M448,0 C695.423568,0 896,200.576432 896,448 C896,695.423568 695.423568,896 448,896 C200.576432,896 0,695.423568 0,448 C0,200.576432 200.576432,0 448,0 Z M607.359375,509.006867 C524.691779,473.789704 439.270382,471.078667 353.848985,487.33361 C229.851417,511.714144 202.294277,546.931308 205.051904,668.833981 C207.80953,704.051144 216.07476,717.59505 254.650931,717.59505 L254.650931,717.59505 L454.1051,717.59598 C523.658465,717.608334 640.617152,717.784822 643.181744,720.306087 C656.958402,720.306087 679.004114,714.887773 684.511717,698.63283 C703.803627,622.783949 681.757915,541.512993 607.359375,509.006867 Z M444.785635,175.801215 C378.652324,173.093938 331.807098,221.855007 331.807098,294.99661 C331.807098,373.556529 384.163752,427.735912 444.785635,427.735912 C508.16132,427.735912 557.760347,378.974843 557.760347,294.99661 C557.760347,219.14397 513.672748,178.512252 444.785635,175.801215 Z" id="md-s-user" fill="#333333"></path>
    </g>
</svg>