<?xml version="1.0" encoding="UTF-8"?>
<svg width="896px" height="896px" viewBox="0 0 896 896" version="1.1" xmlns="http://www.w3.org/2000/svg" xmlns:xlink="http://www.w3.org/1999/xlink">
    <title>0122加一</title>
    <g id="0122加一" stroke="none" stroke-width="1" fill="none" fill-rule="evenodd">
        <path d="M448,0 C695.423568,0 896,200.576432 896,448 C896,695.423568 695.423568,896 448,896 C200.576432,896 0,695.423568 0,448 C0,200.576432 200.576432,0 448,0 Z M448,241.230769 C428.967418,241.230769 413.538462,256.659726 413.538462,275.692308 L413.538462,413.538462 L275.692308,413.538462 C256.659726,413.538462 241.230769,428.967418 241.230769,448 C241.230769,467.032582 256.659726,482.461538 275.692308,482.461538 L413.538462,482.461538 L413.538462,620.307692 C413.538462,639.340274 428.967418,654.769231 448,654.769231 C467.032582,654.769231 482.461538,639.340274 482.461538,620.307692 L482.461538,482.461538 L620.307692,482.461538 C639.340274,482.461538 654.769231,467.032582 654.769231,448 C654.769231,428.967418 639.340274,413.538462 620.307692,413.538462 L482.461538,413.538462 L482.461538,275.692308 C482.461538,256.659726 467.032582,241.230769 448,241.230769 Z" id="Combined-Shape" fill="#333333"></path>
    </g>
</svg>