<?xml version="1.0" encoding="UTF-8"?>
<svg width="896px" height="896px" viewBox="0 0 896 896" version="1.1" xmlns="http://www.w3.org/2000/svg" xmlns:xlink="http://www.w3.org/1999/xlink">
    <title>0141跳转</title>
    <g id="0141跳转" stroke="none" stroke-width="1" fill="none" fill-rule="evenodd">
        <path d="M448,0 C695.423568,0 896,200.576432 896,448 C896,695.423568 695.423568,896 448,896 C200.576432,896 0,695.423568 0,448 C0,200.576432 200.576432,0 448,0 Z M448,44.8 C225.318789,44.8 44.8,225.318789 44.8,448 C44.8,670.681211 225.318789,851.2 448,851.2 C670.681211,851.2 851.2,670.681211 851.2,448 C851.2,225.318789 670.681211,44.8 448,44.8 Z M374.239203,286.560808 L532.63113,444.952735 C541.378874,453.700479 541.378874,467.883374 532.63113,476.631118 L374.239192,635.023056 C365.491448,643.7708 351.308552,643.7708 342.560808,635.023056 C333.813064,626.275312 333.813064,612.092417 342.560808,603.344673 L485.113554,460.791927 L342.560819,318.239192 C333.813075,309.491448 333.813075,295.308552 342.560819,286.560808 C351.308564,277.813064 365.491459,277.813064 374.239203,286.560808 Z" id="Combined-Shape" fill="#333333"></path>
    </g>
</svg>