<?xml version="1.0" encoding="UTF-8"?>
<svg width="734px" height="896px" viewBox="0 0 734 896" version="1.1" xmlns="http://www.w3.org/2000/svg" xmlns:xlink="http://www.w3.org/1999/xlink">
    <title>0217健康-首页</title>
    <g id="0217健康-首页" stroke="none" stroke-width="1" fill="none" fill-rule="evenodd">
        <path d="M400.933048,2.12490211 C416.459397,8.21514431 424.187641,25.6245189 418.371607,41.1894716 L418.191212,41.6605587 L402.603226,81.4004009 C588.585568,99.3641115 734,256.600533 734,447.913557 C734,582.230591 662.322868,699.750714 555.252482,764.06907 L360.576859,891.02822 C352.314991,896.41634 341.957654,897.476927 332.775218,893.875098 C317.248869,887.784856 309.520625,870.375481 315.336659,854.810528 L315.517054,854.339441 L331.181231,814.405831 C145.302093,796.341503 0,639.152669 0,447.913557 C0,313.72801 71.5368679,196.306503 178.433179,131.947086 L373.131407,4.97178045 C381.393276,-0.416339747 391.750612,-1.47692737 400.933048,2.12490211 Z M366.932543,250.292909 L349.303771,263.37296 C348.404344,264.061384 326.863064,279.895131 292.235119,294.26024 C259.091229,308.028716 227.566308,308.625349 227.251509,308.625349 L197.615385,309.084299 L197.615385,466.395647 C197.615385,506.37012 220.056092,551.16356 259.226143,589.348132 C276.090402,605.778513 294.888429,619.776463 313.596514,629.82745 C333.02414,640.245596 351.462396,645.707091 367.022486,645.707091 C382.492632,645.707091 401.110774,640.107911 420.808228,629.55208 C439.381399,619.546988 458.044512,605.640828 474.773857,589.348132 C492.582514,572.045748 507.513004,552.540408 518.036302,532.943278 C530.22354,510.179399 536.384615,487.828574 536.384615,466.395647 L536.339644,323.587093 L536.339644,309.084299 L506.793463,308.625349 C503.330668,308.487665 472.795117,307.064922 441.809852,294.26024 C407.181907,279.941026 385.011028,263.602435 384.831143,263.46475 L366.932543,250.292909 Z M438.697192,378.375253 C444.396199,372.354703 453.771986,372.354703 459.516953,378.375253 C465.215961,384.444356 465.215961,394.300579 459.516953,400.369682 L459.516953,400.369682 L348.524185,517.624747 C345.628722,520.635022 341.860023,522.140159 338.091325,522.140159 C334.322626,522.140159 330.553928,520.635022 327.704424,517.624747 L327.704424,517.624747 L274.483047,461.400579 C268.784039,455.380029 268.784039,445.475253 274.483047,439.406151 C280.182054,433.385601 289.557841,433.385601 295.302808,439.406151 L295.302808,439.406151 L338.137284,484.657381 Z" id="Combined-Shape" fill="#333333" fill-rule="nonzero"></path>
    </g>
</svg>