<?xml version="1.0" encoding="UTF-8"?>
<svg width="734px" height="896px" viewBox="0 0 734 896" version="1.1" xmlns="http://www.w3.org/2000/svg" xmlns:xlink="http://www.w3.org/1999/xlink">
    <title>0220自营-首页</title>
    <g id="0220自营-首页" stroke="none" stroke-width="1" fill="none" fill-rule="evenodd">
        <path d="M400.933048,2.12490211 C416.459397,8.21514431 424.187641,25.6245189 418.371607,41.1894716 L418.191212,41.6605587 L402.603226,81.4004009 C588.585568,99.3641115 734,256.600533 734,447.913557 C734,582.230591 662.322868,699.750714 555.252482,764.06907 L360.576859,891.02822 C352.314991,896.41634 341.957654,897.476927 332.775218,893.875098 C317.248869,887.784856 309.520625,870.375481 315.336659,854.810528 L315.517054,854.339441 L331.181231,814.405831 C145.302093,796.341503 0,639.152669 0,447.913557 C0,313.72801 71.5368679,196.306503 178.433179,131.947086 L373.131407,4.97178045 C381.393276,-0.416339747 391.750612,-1.47692737 400.933048,2.12490211 Z M477.1,278.536779 L256.9,278.536779 C224.105523,278.536779 197.615385,307.793944 197.615385,343.771008 L197.615385,552.228992 C197.615385,588.206056 224.105523,617.463221 256.9,617.463221 L477.1,617.463221 C509.894477,617.463221 536.384615,588.206056 536.384615,552.228992 L536.384615,343.771008 C536.384615,307.793944 509.894477,278.536779 477.1,278.536779 Z M293.961235,326.954842 C293.961235,367.568077 326.712097,400.407399 367,400.407399 C405.84905,400.407399 437.689804,369.871856 439.914591,331.275371 L440.038765,326.954842 L463.791209,326.954842 C463.791209,380.387402 420.504559,423.790968 367,423.790968 C315.167458,423.790968 272.924185,383.057739 270.334598,331.933744 L270.208791,326.954842 L293.961235,326.954842 Z" id="Combined-Shape" fill="#333333" fill-rule="nonzero"></path>
    </g>
</svg>