<?xml version="1.0" encoding="UTF-8"?>
<svg width="896px" height="896px" viewBox="0 0 896 896" version="1.1" xmlns="http://www.w3.org/2000/svg" xmlns:xlink="http://www.w3.org/1999/xlink">
    <title>0251全场通用礼券</title>
    <g id="0251全场通用礼券" stroke="none" stroke-width="1" fill="none" fill-rule="evenodd">
        <path d="M149.333333,0 L248.888889,0 C331.363412,-1.5150324e-14 398.222222,66.8588107 398.222222,149.333333 L398.222222,248.888889 C398.222222,331.363412 331.363412,398.222222 248.888889,398.222222 L149.333333,398.222222 C66.8588107,398.222222 1.0100216e-14,331.363412 0,248.888889 L0,149.333333 C-1.0100216e-14,66.8588107 66.8588107,1.5150324e-14 149.333333,0 Z M149.333333,497.777778 L248.888889,497.777778 C331.363412,497.777778 398.222222,564.636588 398.222222,647.111111 L398.222222,746.666667 C398.222222,829.141189 331.363412,896 248.888889,896 L149.333333,896 C66.8588107,896 1.0100216e-14,829.141189 0,746.666667 L0,647.111111 C-1.0100216e-14,564.636588 66.8588107,497.777778 149.333333,497.777778 Z M647.111111,497.777778 L746.666667,497.777778 C829.141189,497.777778 896,564.636588 896,647.111111 L896,746.666667 C896,829.141189 829.141189,896 746.666667,896 L647.111111,896 C564.636588,896 497.777778,829.141189 497.777778,746.666667 L497.777778,647.111111 C497.777778,564.636588 564.636588,497.777778 647.111111,497.777778 Z M647.111111,0 L746.666667,0 C829.141189,-1.5150324e-14 896,66.8588107 896,149.333333 L896,248.888889 C896,331.363412 829.141189,398.222222 746.666667,398.222222 L647.111111,398.222222 C564.636588,398.222222 497.777778,331.363412 497.777778,248.888889 L497.777778,149.333333 C497.777778,66.8588107 564.636588,1.5150324e-14 647.111111,0 Z" id="Combined-Shape" fill="#333333" fill-rule="nonzero"></path>
    </g>
</svg>