<?xml version="1.0" encoding="UTF-8"?>
<svg width="733px" height="896px" viewBox="0 0 733 896" version="1.1" xmlns="http://www.w3.org/2000/svg" xmlns:xlink="http://www.w3.org/1999/xlink">
    <title>010新定位</title>
    <g id="010新定位" stroke="none" stroke-width="1" fill="none" fill-rule="evenodd">
        <path d="M366.5,0 C568.912361,0 733,164.10799 733,366.545455 C733,476.944798 676.18692,603.54815 586.196615,719.581692 C507.609831,820.911528 417.420998,896 366.5,896 C315.579002,896 225.390169,820.911528 146.803385,719.581692 C56.8130795,603.54815 0,476.944798 0,366.545455 C0,164.10799 164.087639,0 366.5,0 Z M366.5,61.0909091 C197.823033,61.0909091 61.0833333,197.847567 61.0833333,366.545455 C61.0833333,460.984162 112.619801,575.82901 195.069367,682.139519 C229.877691,727.021389 267.948874,767.068948 302.51428,795.847051 C332.724634,820.99927 357.764921,834.909091 366.5,834.909091 C374.143194,834.909091 394.270063,824.259385 419.420932,804.746936 L419.420932,804.746936 L424.884584,800.430694 L430.48572,795.847051 C465.051126,767.068948 503.122309,727.021389 537.930633,682.139519 C620.380199,575.82901 671.916667,460.984162 671.916667,366.545455 C671.916667,197.847567 535.176967,61.0909091 366.5,61.0909091 Z M366.5,224 C445.215918,224 509.027778,287.819774 509.027778,366.545455 C509.027778,445.271135 445.215918,509.090909 366.5,509.090909 C287.784082,509.090909 223.972222,445.271135 223.972222,366.545455 C223.972222,287.819774 287.784082,224 366.5,224 Z M366.5,285.090909 C321.519475,285.090909 285.055556,321.559351 285.055556,366.545455 C285.055556,411.531558 321.519475,448 366.5,448 C411.480525,448 447.944444,411.531558 447.944444,366.545455 C447.944444,321.559351 411.480525,285.090909 366.5,285.090909 Z" id="形状结合" fill="#222222" fill-rule="nonzero"></path>
    </g>
</svg>