<?xml version="1.0" encoding="UTF-8"?>
<svg width="896px" height="896px" viewBox="0 0 896 896" version="1.1" xmlns="http://www.w3.org/2000/svg" xmlns:xlink="http://www.w3.org/1999/xlink">
    <title>0149礼品卡</title>
    <g id="0149礼品卡" stroke="none" stroke-width="1" fill="none" fill-rule="evenodd">
        <path d="M723.689344,0 C818.832,0 896.000896,77.1697921 896,172.266752 L896,172.266752 L896,613.406976 L893.313792,754.14528 C878.919552,834.73152 808.418688,896 723.689344,896 L723.689344,896 L172.255104,896 C77.1133443,896 0,818.831105 0,723.733248 L0,723.733248 L0,172.266752 C0,77.1778563 77.1635193,0 172.255104,0 L172.255104,0 Z M417.212239,284.737581 L195.534398,284.737581 L195.534398,333.988824 L344.875084,333.988824 C312.206288,412.189581 256.969684,477.051793 179.2,528.648067 L179.2,528.648067 L179.2,575.554279 C219.634512,556.791934 253.870343,537.260245 281.872069,516.922213 L281.872069,516.922213 L281.872069,716.272217 L351.875342,716.272217 L351.875342,502.850628 C376.741607,523.187963 407.878099,542.72035 445.21327,561.482695 L445.21327,561.482695 L445.21327,514.576483 C410.978134,489.583992 384.544138,462.210167 365.876552,432.49131 C386.075053,404.347444 403.211723,371.513514 417.212239,333.988824 L417.212239,333.988824 L417.212239,284.737581 Z M557.218092,183.890761 L480.214561,183.890761 L480.214561,631.842013 C480.214561,677.172537 504.316064,699.855601 552.551716,699.855601 L552.551716,699.855601 L643.555068,699.855601 C693.324415,701.394986 717.423834,680.28761 715.892224,636.532774 L715.892224,636.532774 L715.892224,594.317322 L657.556278,594.317322 L657.556278,624.805522 C659.087889,645.143555 648.988986,654.525077 627.221365,652.949389 L627.221365,652.949389 L587.553005,652.949389 C567.318384,652.949389 557.218092,642.02918 557.218092,620.11546 L557.218092,620.11546 L557.218092,183.890761 Z M326.207499,179.2 L263.204483,179.2 C277.204999,212.034627 285.736867,242.522827 288.872327,270.666694 L288.872327,270.666694 L356.542412,270.666694 C351.875342,239.407755 341.739625,208.918857 326.207499,179.2 L326.207499,179.2 Z" id="Combined-Shape" fill="#333333"></path>
    </g>
</svg>