<?xml version="1.0" encoding="UTF-8"?>
<svg width="807px" height="896px" viewBox="0 0 807 896" version="1.1" xmlns="http://www.w3.org/2000/svg" xmlns:xlink="http://www.w3.org/1999/xlink">
    <title>0200联系配送员</title>
    <g id="0200联系配送员" stroke="none" stroke-width="1" fill="none" fill-rule="evenodd">
        <g id="联系骑手" fill="#333333" fill-rule="nonzero">
            <path d="M170.470818,89.6 C213.862464,89.6 252.282019,113.983673 287.751097,159.295545 C366.825657,260.235586 370.499866,335.006657 309.332881,406.874781 L303.773745,413.111371 L304.769372,415.401267 L306.719025,419.324513 L309.216367,423.840028 C321.36807,444.821426 345.450251,474.156328 380.969241,510.616194 L398.289149,528.00401 C401.082094,530.74319 403.826699,533.402796 406.520732,535.982572 L422.060228,550.501146 L436.278929,563.091146 C440.786466,566.96498 445.056022,570.51529 449.069752,573.739967 L460.325613,582.435016 C467.29407,587.577657 473.167834,591.409379 477.804123,593.913389 L480.705532,595.366831 C523.144321,553.544687 557.250391,532.553916 603.018774,529.940204 L613.011992,529.660575 C656.259305,529.660575 698.652877,548.192207 742.203701,584.11571 C783.44241,618.148241 806.086673,658.052752 806.402932,702.416167 C806.712283,750.504263 782.059734,792.387823 740.504545,833.631917 L735.841183,838.201414 L726.646019,846.825172 L710.359489,861.119347 C708.226808,862.945194 705.955076,864.879649 703.512934,866.952119 C680.111085,886.815691 647.959666,896 610.166632,896 C568.371673,896 519.733128,884.34351 469.23662,862.745605 C448.534858,853.891235 438.929711,829.929063 447.782918,809.224591 C456.636127,788.520123 480.595158,778.913713 501.29692,787.768083 C542.34247,805.323707 580.439767,814.453933 610.166632,814.453933 C630.228695,814.453933 643.984956,810.524346 650.757072,804.776152 L662.350931,794.850847 L675.362101,783.188703 C677.948759,780.768034 680.443976,778.357628 683.071137,775.750134 C710.527014,748.499804 725.000788,723.909518 724.863503,702.968766 C724.739313,685.215969 714.291142,666.803845 690.317757,647.019641 C660.22802,622.199702 635.07993,611.206642 613.011992,611.206642 C587.132703,611.206642 565.615142,624.949602 530.164652,661.324796 C518.700945,673.099764 503.808408,678.98734 487.467236,678.987335 C453.760604,678.9907 413.979059,654.615718 361.663721,605.927737 L342.668532,587.734314 C339.412423,584.533855 336.110314,581.249299 332.760892,577.880648 L322.569372,567.522458 C316.52722,561.320252 310.726867,555.26262 305.174207,549.34445 L289.265204,532.003235 C221.071615,455.804612 199.094686,404.09317 237.840046,364.308432 C282.866361,318.108193 283.460271,286.040332 223.55943,209.57587 C202.078165,182.133482 184.766107,171.146067 170.470818,171.146067 C159.636246,171.146067 149.156084,176.236431 133.611912,190.166473 L123.63438,199.615255 L112.181402,211.365526 L92.167738,232.655065 C76.6019045,248.630792 76.6140937,299.596935 101.278329,366.712154 C108.586948,386.600442 120.738349,407.406467 139.271897,432.601343 L153.552707,451.348518 L194.144717,501.756837 C235.146206,552.871903 260.307056,590.02897 280.172255,633.849758 C290.168657,655.900896 298.920842,687.48353 307.057946,729.507905 C311.338601,751.615505 296.889352,773.007872 274.784644,777.28909 C252.679936,781.570303 231.290373,767.119163 227.009718,745.011559 C219.981678,708.714984 212.739666,682.581876 205.912816,667.522477 C190.987898,634.599486 171.559807,604.919168 140.289662,565.061401 L95.1951087,509.014262 L83.6929466,494.334176 L73.5956888,480.925939 C50.8961224,450.067695 35.108183,423.035071 24.7481975,394.84337 C-8.18129563,305.237101 -9.57116003,227.067648 28.5717091,181.501613 L46.0137297,162.734401 C94.8057613,110.06735 122.423207,89.6 170.470818,89.6 Z M719.879816,147.584686 C767.581244,147.584686 806.4,187.768646 806.4,237.168318 L806.4,242.441189 C806.39121,268.8 766.292522,268.8 719.881071,268.8 L668.918678,268.8 C620.578668,268.8 582.4,268.8 582.4,242.441189 L582.4,237.168318 C582.4,187.768646 621.217251,147.584686 668.918929,147.584686 L719.879816,147.584686 Z M691.847672,0 C729.722493,0 760.523174,31.9096743 760.523174,71.1427073 C760.523174,110.377588 729.715213,142.296503 691.847672,142.296503 C653.971347,142.296503 623.172175,110.377588 623.172175,71.1427073 C623.172175,31.9096743 653.972856,0 691.847672,0 Z" id="Path"></path>
        </g>
    </g>
</svg>