<?xml version="1.0" encoding="UTF-8"?>
<svg width="896px" height="815px" viewBox="0 0 896 815" version="1.1" xmlns="http://www.w3.org/2000/svg" xmlns:xlink="http://www.w3.org/1999/xlink">
    <title>05待自提</title>
    <g id="05待自提" stroke="none" stroke-width="1" fill="none" fill-rule="evenodd">
        <path d="M366.545455,448 L366.54477,610.909 L570.18177,610.909 L570.181818,448 L610.909091,448 L610.90877,610.909 L753.32923,610.909091 L748.803977,651.636364 L610.90877,651.636 L610.909091,773.818182 L570.181818,773.818182 L570.18177,651.636 L366.54477,651.636 L366.545455,773.818182 L325.818182,773.818182 L325.81777,651.636 L147.196023,651.636364 L142.67077,610.909091 L325.81777,610.909 L325.818182,448 L366.545455,448 Z" id="Combined-Shape" fill="#333333"></path>
        <path d="M814.905687,285.090909 C859.69284,285.090909 896,321.245716 896,366.545455 C896,411.531558 859.766006,448 814.905687,448 L81.0943127,448 C36.3071605,448 0,411.845193 0,366.545455 C0,321.559351 36.2339935,285.090909 81.0943127,285.090909 L814.905687,285.090909 Z M814.905687,325.818182 L81.0943127,325.818182 C58.798537,325.818182 40.7272727,343.981041 40.7272727,366.545455 C40.7272727,389.259934 58.7082279,407.272727 81.0943127,407.272727 L814.905687,407.272727 C837.201463,407.272727 855.272727,389.109868 855.272727,366.545455 C855.272727,343.830975 837.291772,325.818182 814.905687,325.818182 Z" id="Combined-Shape" fill="#333333"></path>
        <path d="M160.536854,771.703842 C160.632717,772.566614 162.029177,773.818182 162.871493,773.818182 L162.871493,773.818182 L733.128507,773.818182 C733.967598,773.818182 735.367575,772.563981 735.463146,771.703842 L735.463146,771.703842 L771.43024,448 L814.545455,448 L775.94132,776.201416 C773.554905,797.679153 754.728232,814.545455 733.128507,814.545455 L733.128507,814.545455 L162.871493,814.545455 C141.26493,814.545455 122.44499,797.678204 120.05868,776.201416 L120.05868,776.201416 L81.4545455,448 L124.56976,448 Z" id="Combined-Shape" fill="#333333"></path>
        <path d="M448,-1.8189894e-12 C492.986103,-1.8189894e-12 529.454545,36.4684422 529.454545,81.4545455 C529.454545,126.440649 492.986103,162.909091 448,162.909091 C403.013897,162.909091 366.545455,126.440649 366.545455,81.4545455 C366.545455,36.4684422 403.013897,-1.8189894e-12 448,-1.8189894e-12 Z M448,40.7272727 C425.506948,40.7272727 407.272727,58.9614938 407.272727,81.4545455 C407.272727,103.947597 425.506948,122.181818 448,122.181818 C470.493052,122.181818 488.727273,103.947597 488.727273,81.4545455 C488.727273,58.9614938 470.493052,40.7272727 448,40.7272727 Z" id="Combined-Shape" fill="#333333"></path>
        <path d="M176.029573,285.206531 L176,285.176958 L367.176958,94 C369.467099,108.956848 375.825447,122.574145 385.087065,133.686955 L233.567489,285.206531 L176.029573,285.206531 Z" id="Path" fill="#333333"></path>
        <path d="M502.029573,287.206531 L502,287.176958 L693.176958,96 C695.467099,110.956848 701.825447,124.574145 711.087065,135.686955 L559.567489,287.206531 L502.029573,287.206531 Z" id="Path-Copy" fill="#333333" transform="translate(606.543533, 191.603266) scale(-1, 1) translate(-606.543533, -191.603266) "></path>
    </g>
</svg>