<?xml version="1.0" encoding="UTF-8"?>
<svg width="896px" height="657px" viewBox="0 0 896 657" version="1.1" xmlns="http://www.w3.org/2000/svg" xmlns:xlink="http://www.w3.org/1999/xlink">
    <title>022拼团</title>
    <g id="022拼团" stroke="none" stroke-width="1" fill="none" fill-rule="evenodd">
        <path d="M450.45764,0 C508.22322,0 562.528949,21.8428794 603.37424,61.5055778 C644.220555,101.16927 666.714708,153.903681 666.714708,209.994787 C666.714708,266.085893 644.220555,318.821298 603.37424,358.483997 C590.448451,371.035546 576.168628,381.798848 560.861502,390.654553 C580.478591,399.62364 598.861481,410.963797 615.721341,424.522851 C660.531428,460.558331 691.921022,510.592468 704.340842,565.671095 C706.212111,570.297863 707.160549,574.99823 707.160549,579.69959 C707.160549,591.660362 701.534451,608.858571 674.73341,622.886072 C661.006671,630.067905 642.148537,636.341692 618.682391,641.536362 C573.431884,651.551742 513.689539,657.066667 450.459688,657.066667 C387.22574,657.066667 327.48442,651.551742 282.234937,641.536362 C258.767767,636.341692 239.909633,630.067905 226.184943,622.886072 C199.381853,608.858571 193.756779,591.659367 193.756779,579.69959 C193.756779,574.999224 194.702144,570.295874 196.575462,565.671095 C208.994257,510.594458 240.384876,460.56032 285.194963,424.522851 C302.053799,410.965785 320.438737,399.625629 340.052753,390.654553 C324.746652,381.797854 310.46683,371.036541 297.540015,358.483997 C256.694724,318.821298 234.200572,266.087882 234.200572,209.995781 C234.200572,153.903681 256.694724,101.168276 297.540015,61.5055778 C338.38633,21.8428794 392.693084,0 450.45764,0 Z M450.457641,419.990569 C355.208294,419.990569 271.82978,485.000037 250.566753,575.164324 C258.261797,579.478794 276.06907,586.571117 309.857413,592.730526 C349.122315,599.886501 399.053557,603.828006 450.457641,603.828006 C501.861724,603.828006 551.795013,599.8865 591.058892,592.730526 C624.845187,586.570121 642.653484,579.478794 650.34648,575.164324 C629.085502,484.999043 545.708012,419.990569 450.457641,419.990569 Z M690.942884,53.6175946 C786.623431,59.2578359 862.694061,136.602036 862.694061,230.903759 C862.694061,292.785286 829.933022,347.368614 780.377673,379.186097 C794.033739,386.064585 806.980014,394.352387 818.943027,403.972921 C856.581452,434.244832 882.974849,476.236828 893.487552,522.474668 C895.158072,526.719519 896.003062,531.048908 895.999992,535.393218 C895.999992,546.523519 890.924929,562.444692 866.751039,575.094705 C855.062519,581.212342 839.12037,586.53034 819.36706,590.901502 C805.268526,594.023477 784.820786,597.776012 767.398625,598.955579 C766.670396,599.032161 765.936024,599.075922 765.190384,599.095814 L765.190384,599.095814 L764.896429,599.115705 L764.896429,599.115705 L764.898478,599.10377 C764.741771,599.107749 764.587112,599.115705 764.429381,599.115705 C749.327101,599.115705 737.084473,587.227538 737.084473,572.56152 C737.084473,558.116296 748.960426,546.377315 763.748267,546.022252 C773.92195,544.856609 783.600928,543.474147 792.591625,541.884815 C818.493391,537.305788 832.109513,532.362745 838.790569,529.199993 C820.473229,458.887444 754.704311,408.554934 679.743948,408.554934 C675.089844,408.554934 670.476709,408.785676 665.902496,409.176544 L665.902496,409.176544 L665.902496,409.158641 C665.37092,409.187484 664.835247,409.207375 664.296502,409.207375 C648.730246,409.207375 636.113774,396.953203 636.113774,381.838631 C636.113774,366.72207 648.73127,354.469887 664.296502,354.469887 C665.849235,354.469887 667.369194,354.596199 668.85228,354.830918 C672.443232,355.137248 676.073106,355.314283 679.743948,355.314283 C750.390252,355.314283 807.866999,299.503648 807.866999,230.903759 C807.866999,165.997726 756.40863,112.576062 691.030968,107.004448 L691.030968,107.004448 L691.030968,106.907974 C676.490991,106.291336 664.896701,94.6538017 664.896701,80.3836249 C664.896701,66.1343337 676.457191,54.5087344 690.96849,53.8612658 C690.956199,53.7826944 690.959272,53.6931822 690.942884,53.6175946 Z M205.057114,53.6175946 C205.04175,53.6931822 205.043799,53.7826944 205.031508,53.8612658 C219.541783,54.5087344 231.102273,66.1343337 231.102273,80.3836249 C231.102273,94.6538017 219.507983,106.291336 204.968006,106.907974 L204.968006,107.004448 C139.591368,112.576062 88.1340241,165.997726 88.1340241,230.903759 C88.1340241,299.503648 145.608723,355.314283 216.255027,355.314283 C219.926893,355.314283 223.555742,355.137248 227.147718,354.830918 C228.631829,354.596199 230.151786,354.469887 231.702472,354.469887 C247.268729,354.469887 259.888273,366.72207 259.888273,381.838631 C259.888273,396.953203 247.268728,409.207375 231.702472,409.207375 C231.164751,409.207375 230.629078,409.187484 230.097502,409.158641 L230.097502,409.176544 C225.524313,408.785676 220.912203,408.554934 216.255027,408.554934 C141.295688,408.554934 75.52677,458.887444 57.2084055,529.199993 C63.89151,532.362745 77.5076317,537.305788 103.408374,541.884815 C112.400094,543.474147 122.079074,544.856609 132.25378,546.022252 C147.040597,546.377315 158.917574,558.116296 158.917574,572.56152 C158.917574,587.227538 146.674946,599.115705 131.570618,599.115705 C131.413911,599.115705 131.259252,599.107749 131.102545,599.10377 L131.104593,599.115705 L131.104593,599.115705 C131.007292,599.109738 130.906917,599.101781 130.809615,599.095814 C130.064999,599.075922 129.328578,599.032161 128.60035,598.955579 C111.178189,597.776012 90.7304494,594.023477 76.6319154,590.901502 C56.8786048,586.53034 40.9364559,581.212342 29.2489608,575.094705 C5.07404672,562.444692 8.35493422e-06,546.523519 8.35493422e-06,535.393218 C-0.00306341737,531.048908 0.84090227,526.719519 2.51142193,522.474668 C13.0241247,476.236828 39.418547,434.244832 77.0559471,403.972921 C89.0189598,394.352387 101.965235,386.064585 115.622326,379.186097 C66.0680023,347.368614 33.3069622,292.785286 33.3069622,230.903759 C33.3069622,136.602036 109.377592,59.2578359 205.057114,53.6175946 Z M450.456617,53.2366713 C361.44381,53.2366713 289.025587,123.559166 289.025587,209.993792 C289.025587,296.430408 361.44381,366.751907 450.457642,366.751907 C539.470448,366.751907 611.887647,296.431401 611.887647,209.993792 C611.887647,123.559165 539.469424,53.2366713 450.456617,53.2366713 Z" id="Fight-groups" fill="#333333"></path>
    </g>
</svg>