<?xml version="1.0" encoding="UTF-8"?>
<svg width="604px" height="897px" viewBox="0 0 604 897" version="1.1" xmlns="http://www.w3.org/2000/svg" xmlns:xlink="http://www.w3.org/1999/xlink">
    <title>0190回到顶部</title>
    <g id="0190回到顶部" stroke="none" stroke-width="1" fill="none" fill-rule="evenodd">
        <rect id="Rectangle" x="-238" y="-92" width="1080" height="1080"></rect>
        <path d="M566.25,823.491743 C587.098749,823.491743 604,839.947127 604,860.245872 C604,880.341629 587.435084,896.670508 566.874265,896.995076 L566.25,897 L37.75,897 C16.9012507,897 0,880.544616 0,860.245872 C0,840.150114 16.5649158,823.821235 37.1257347,823.496667 L37.75,823.491743 L566.25,823.491743 Z M302.536562,0.105525617 C322.835307,0.105525617 339.29069,17.0067763 339.29069,37.8555256 L339.29069,37.8555256 L339.29069,566.355526 C339.29069,566.851315 339.281385,567.344872 339.262943,567.836022 L541.177194,360.449519 C555.530574,345.707227 578.802001,345.707227 593.155381,360.449519 C607.508761,375.191811 607.508761,399.093789 593.155381,413.836081 L380.503842,632.249519 C337.443702,676.476395 267.629421,676.476395 224.569282,632.249519 L11.9177434,413.836081 C-2.43563661,399.093789 -2.43563661,375.191811 11.9177434,360.449519 C26.2711234,345.707227 49.5425504,345.707227 63.8959304,360.449519 L265.810181,567.836022 C265.791739,567.344872 265.782433,566.851315 265.782433,566.355526 L265.782433,566.355526 L265.782433,37.8555256 C265.782433,17.0067763 282.237817,0.105525617 302.536562,0.105525617 Z" id="形状结合" fill="#222222" fill-rule="nonzero" transform="translate(302.000000, 448.500000) scale(1, -1) translate(-302.000000, -448.500000) "></path>
    </g>
</svg>