<?xml version="1.0" encoding="UTF-8"?>
<svg width="806px" height="896px" viewBox="0 0 806 896" version="1.1" xmlns="http://www.w3.org/2000/svg" xmlns:xlink="http://www.w3.org/1999/xlink">
    <title>0215删除订单</title>
    <g id="0215删除订单" stroke="none" stroke-width="1" fill="none" fill-rule="evenodd">
        <path d="M693.45045,347.934269 C713.995443,347.934269 730.94968,363.314278 733.436456,383.193235 L733.75045,388.250405 L733.75045,719.349105 C733.75045,813.861901 659.556703,891.038879 566.257051,895.770143 L557.170257,896 L248.829743,896 C154.354775,896 77.2086845,821.776546 72.4793146,728.439537 L72.2495495,719.349105 L72.2495495,388.250405 C72.2495495,365.984418 90.2924741,347.934269 112.54955,347.934269 C133.094542,347.934269 150.048779,363.314278 152.535555,383.193235 L152.84955,388.250405 L152.84955,719.349105 C152.84955,770.073091 192.1659,811.610574 241.975229,815.126642 L248.829743,815.367728 L557.170257,815.367728 C607.873941,815.367728 649.3948,776.035636 652.909461,726.206363 L653.15045,719.349105 L653.15045,388.250405 C653.15045,365.984418 671.193375,347.934269 693.45045,347.934269 Z M306.183183,382.193247 C326.728176,382.193247 343.682413,397.573255 346.169189,417.452212 L346.483183,422.509382 L346.483183,695.1789 C346.483183,717.444887 328.440259,735.495036 306.183183,735.495036 C285.63819,735.495036 268.683954,720.115028 266.197177,700.236071 L265.883183,695.1789 L265.883183,422.509382 C265.883183,400.243395 283.926108,382.193247 306.183183,382.193247 Z M499.816817,382.193247 C520.36181,382.193247 537.316046,397.573255 539.802823,417.452212 L540.116817,422.509382 L540.116817,695.1789 C540.116817,717.444887 522.073892,735.495036 499.816817,735.495036 C479.271824,735.495036 462.317587,720.115028 459.830811,700.236071 L459.516817,695.1789 L459.516817,422.509382 C459.516817,400.243395 477.559741,382.193247 499.816817,382.193247 Z M423.987423,4.71757812 C431.907923,-0.418465528 441.822025,-1.41082798 450.603381,2.05342588 C465.612433,7.97451219 472.979685,24.9417417 467.058599,39.9507938 L467.058599,39.9507938 L454.979,70.57 L576.638856,70.5709406 C660.516849,70.5709406 729.042779,136.327255 733.517976,219.121716 L733.713,226.382 L765.7,226.382094 C787.957075,226.382094 806,244.432242 806,266.698229 C806,287.251448 790.626147,304.212473 770.755146,306.700245 L765.7,307.014365 L40.3,307.014365 C18.0429246,307.014365 0,288.964216 0,266.698229 C0,246.145011 15.3738529,229.183985 35.2448536,226.696213 L40.3,226.382094 L72.26,226.382 L72.2692198,225.23275 C73.5658526,142.469204 138.807159,75.2357272 220.74087,70.8035077 L229.361144,70.5709406 L322.433,70.57 Z M576.638856,151.203212 L229.361144,151.203212 C189.328967,151.203212 156.477545,181.959988 153.130393,221.141085 L152.907,226.382 L653.138555,226.38193 C652.450086,186.953556 621.960581,154.79458 583.240569,151.484168 L576.638856,151.203212 Z" id="路径-15" fill="#333333"></path>
    </g>
</svg>