<?xml version="1.0" encoding="UTF-8"?>
<svg width="896px" height="896px" viewBox="0 0 896 896" version="1.1" xmlns="http://www.w3.org/2000/svg" xmlns:xlink="http://www.w3.org/1999/xlink">
    <title>056iOS-个人中心-选中</title>
    <g id="056iOS-个人中心-选中" stroke="none" stroke-width="1" fill="none" fill-rule="evenodd">
        <path d="M447.982415,0 C695.018701,0 896,200.946377 896,447.982965 C896,695.019553 695.018701,896 447.982415,896 C200.94613,896 0,695.019553 0,447.982965 C0,200.946377 200.94613,0 447.982415,0 Z M447.982415,34.6283804 C220.026445,34.6283804 34.6283379,220.026715 34.6283379,447.982965 C34.6283379,547.619901 70.0649871,639.143634 128.999622,710.606672 L128.676207,711.379167 C169.029172,615.1147 251.634856,540.948262 353.296434,512.07668 C309.075146,481.815469 280.057627,430.963103 280.057627,373.333333 C280.057627,280.549495 355.273789,205.333333 448.057627,205.333333 C540.841465,205.333333 616.057627,280.549495 616.057627,373.333333 C616.057627,430.963103 587.040108,481.815469 542.818819,512.07668 C644.182484,540.863655 726.601775,614.680407 767.083202,710.533444 C825.988735,639.092284 861.405732,547.597714 861.405732,447.982965 C861.371662,220.026715 675.904315,34.6283804 447.982415,34.6283804 Z" id="Combined-Shape" fill="#333333"></path>
    </g>
</svg>