<?xml version="1.0" encoding="UTF-8"?>
<svg width="896px" height="348px" viewBox="0 0 896 348" version="1.1" xmlns="http://www.w3.org/2000/svg" xmlns:xlink="http://www.w3.org/1999/xlink">
    <title>095次日达</title>
    <g id="095次日达" stroke="none" stroke-width="1" fill="none" fill-rule="evenodd">
        <path d="M199.36,125.937778 L283.484444,125.937778 C278.257778,146.595556 271.537778,165.013333 263.573333,181.191111 L281.742222,186.417778 C290.702222,164.515556 297.671111,142.364444 303.146667,119.964444 L303.146667,107.768889 L204.337778,107.768889 C207.075556,96.8177778 209.315556,85.12 211.306667,72.1777778 L193.386667,69.1911111 C187.911111,111.751111 175.466667,145.102222 156.053333,169.244444 L171.235556,179.946667 C182.684444,166.008889 192.142222,147.84 199.36,125.937778 Z M102.542222,78.6488889 L87.1111111,88.3555556 C105.777778,109.511111 120.462222,128.675556 131.413333,145.848889 L146.346667,135.395556 C136.142222,119.217778 121.457778,100.302222 102.542222,78.6488889 Z M130.915556,182.186667 C118.72,217.031111 104.284444,251.128889 87.36,284.48 L105.528889,292.444444 C120.96,260.088889 135.146667,225.493333 147.591111,188.657778 L130.915556,182.186667 Z M221.511111,142.862222 C221.511111,175.217778 217.528889,201.848889 209.564444,222.755556 C199.36,247.395556 178.453333,267.804444 147.093333,284.231111 L159.537778,299.413333 C195.128889,280.497778 218.026667,256.106667 227.982222,226.24 C229.226667,222.506667 230.471111,218.524444 231.466667,214.293333 C246.897778,248.142222 270.293333,276.266667 301.155556,299.164444 L314.346667,283.484444 C277.511111,259.342222 251.875556,226.488889 237.191111,184.924444 C238.684444,171.982222 239.68,158.044444 239.68,142.862222 L221.511111,142.862222 Z M530.650256,80.3911111 L376.836923,80.3911111 L376.836923,297.671111 L394.756923,297.671111 L394.756923,278.506667 L512.481367,278.506667 L512.481367,297.422222 L530.650256,297.422222 L530.650256,80.3911111 Z M394.756923,261.084444 L394.756923,186.168889 L512.481367,186.168889 L512.481367,261.084444 L394.756923,261.084444 Z M394.756923,168.746667 L394.756923,97.8133333 L512.481367,97.8133333 L512.481367,168.746667 L394.756923,168.746667 Z M609.069401,74.4177778 L596.624957,86.1155556 C615.042735,100.302222 629.229401,113.493333 639.682735,125.937778 L652.624957,112.746667 C640.67829,100.053333 626.242735,87.36 609.069401,74.4177778 Z M760.642735,294.186667 L813.407179,294.186667 L817.887179,276.017778 C811.664957,276.515556 802.953846,276.764444 791.753846,277.013333 C780.304957,277.013333 769.104957,277.262222 758.153846,277.262222 C737.744957,277.262222 720.820512,277.013333 707.131624,276.764444 C691.700512,276.266667 679.753846,274.524444 671.789401,271.288889 C664.571624,267.804444 657.851624,262.577778 651.380512,255.608889 C649.140512,253.12 647.149401,251.377778 645.15829,249.884444 L645.15829,156.302222 L592.144957,156.302222 L592.144957,173.724444 L627.984957,173.724444 L627.984957,248.888889 C617.531624,253.368889 605.833846,266.311111 592.393846,287.715556 L605.833846,299.662222 C619.771624,276.266667 629.976068,264.817778 635.949401,264.817778 C639.184957,264.817778 642.669401,266.808889 646.153846,271.04 C654.11829,280 663.07829,286.222222 673.531624,289.208889 C683.984957,291.946667 697.424957,293.44 714.349401,293.688889 C731.024957,293.937778 746.456068,294.186667 760.642735,294.186667 Z M846.229508,0 C873.716992,0 896,22.3268298 896,49.9235933 L896,298.520851 C896,326.09289 873.851562,348.444444 846.229508,348.444444 L49.7704922,348.444444 C22.2830084,348.444444 0,326.117615 0,298.520851 L0,49.9235933 C0,22.3515541 22.1484375,0 49.7704922,0 L846.229508,0 Z M846.229508,24.8888889 L49.7704922,24.8888889 C35.9682713,24.8888889 24.8888889,36.023148 24.8888889,49.9235933 L24.8888889,298.520851 C24.8888889,312.378505 36.0354756,323.555556 49.7704922,323.555556 L846.229508,323.555556 C860.031729,323.555556 871.111111,312.421296 871.111111,298.520851 L871.111111,49.9235933 C871.111111,36.0659393 859.964524,24.8888889 846.229508,24.8888889 Z M743.469401,70.6844444 L743.469401,82.1333333 C743.469401,97.5644444 742.473846,112.248889 740.980512,125.937778 L740.980512,125.937778 L802.704957,125.937778 L802.704957,143.36 L745.211624,143.36 C752.67829,175.715556 774.580512,208.817778 810.91829,242.417778 L810.91829,242.417778 L798.722735,255.36 C765.869401,223.253333 744.464957,191.395556 734.509401,160.035556 C723.55829,202.844444 702.900512,234.702222 672.03829,255.36 L672.03829,255.36 L661.087179,240.675556 C691.949401,221.013333 711.860512,188.657778 720.322735,143.36 L720.322735,143.36 L667.807179,143.36 L667.807179,125.937778 L723.060512,125.937778 C724.553846,113.244444 725.300512,99.8044444 725.549401,85.8666667 L725.549401,85.8666667 L725.549401,70.6844444 L743.469401,70.6844444 Z" id="次日达" fill="#333333"></path>
    </g>
</svg>