<?xml version="1.0" encoding="UTF-8"?>
<svg width="752px" height="896px" viewBox="0 0 752 896" version="1.1" xmlns="http://www.w3.org/2000/svg" xmlns:xlink="http://www.w3.org/1999/xlink">
    <title>0221轮播切换</title>
    <g id="0221轮播切换" stroke="none" stroke-width="1" fill="none" fill-rule="evenodd">
        <path d="M387.349184,4.5291314 C395.30642,-0.50451261 405.2014,-1.39621916 413.93036,2.13371389 C428.894252,8.18501134 436.119337,25.2211879 430.068039,40.1850792 L430.068039,40.1850792 L412.476139,83.6866704 C603.019447,101.538265 752,257.794127 752,447.914097 C752,581.388338 678.57076,698.171705 568.88167,762.090548 L364.351928,891.470869 C356.394692,896.504513 346.499712,897.396219 337.770752,893.866286 C322.806861,887.814989 315.581776,870.778812 321.633073,855.814921 L321.633073,855.814921 L339.303337,812.120799 C148.865618,794.169353 0,637.960716 0,447.914097 C0,314.571494 73.2844721,197.886859 182.793894,133.926919 Z" id="形状结合备份-7" fill="#333333" fill-rule="nonzero" transform="translate(376.000000, 448.000000) rotate(-180.000000) translate(-376.000000, -448.000000) "></path>
    </g>
</svg>