<?xml version="1.0" encoding="UTF-8"?>
<svg width="896px" height="896px" viewBox="0 0 896 896" version="1.1" xmlns="http://www.w3.org/2000/svg" xmlns:xlink="http://www.w3.org/1999/xlink">
    <title>066ios-睁眼</title>
    <g id="066ios-睁眼" stroke="none" stroke-width="1" fill="none" fill-rule="evenodd">
        <path d="M448,836.266667 C662.433759,836.266667 836.266667,662.433759 836.266667,448 C836.266667,233.566241 662.433759,59.7333333 448,59.7333333 C233.566241,59.7333333 59.7333333,233.566241 59.7333333,448 C59.7333333,662.433759 233.566241,836.266667 448,836.266667 Z M448,896 C200.576432,896 0,695.423568 0,448 C0,200.576432 200.576432,0 448,0 C695.423568,0 896,200.576432 896,448 C896,695.423568 695.423568,896 448,896 Z M448,657.066667 C596.454141,657.066667 716.8,513.706667 716.8,477.866667 C716.8,442.026667 596.454141,298.666667 448,298.666667 C299.545859,298.666667 179.2,442.026667 179.2,477.866667 C179.2,513.706667 299.545859,657.066667 448,657.066667 Z M448,537.6 C480.989809,537.6 507.733333,510.856476 507.733333,477.866667 C507.733333,444.876858 480.989809,418.133333 448,418.133333 C415.010191,418.133333 388.266667,444.876858 388.266667,477.866667 C388.266667,510.856476 415.010191,537.6 448,537.6 Z M448,597.333333 C382.020382,597.333333 328.533333,543.846285 328.533333,477.866667 C328.533333,411.887049 382.020382,358.4 448,358.4 C513.979618,358.4 567.466667,411.887049 567.466667,477.866667 C567.466667,543.846285 513.979618,597.333333 448,597.333333 Z" id="ios-睁眼" fill="#333333"></path>
    </g>
</svg>