<?xml version="1.0" encoding="UTF-8"?>
<svg width="771px" height="896px" viewBox="0 0 771 896" version="1.1" xmlns="http://www.w3.org/2000/svg" xmlns:xlink="http://www.w3.org/1999/xlink">
    <title>0219通知-首页</title>
    <g id="0219通知-首页" stroke="none" stroke-width="1" fill="none" fill-rule="evenodd">
        <path d="M418.391624,2.4883374 C435.110519,9.34739115 443.190759,28.3385492 436.628134,45.103876 L436.424778,45.6112201 L422.425176,79.7319763 C617.565485,97.7523796 770.140468,255.490407 770.140468,447.413839 C770.140468,582.158154 694.935206,700.052247 582.594269,764.575979 L381.475409,889.980538 C372.454377,895.605556 361.278284,896.547881 351.442747,892.512777 C334.723851,885.653724 326.643611,866.662566 333.206237,849.897239 L333.409592,849.389895 L347.487826,815.074632 C152.45643,796.952705 0,639.262693 0,447.413839 C0,312.804837 75.0542929,195.012231 187.207867,130.446248 L388.358961,5.02057634 C397.379994,-0.60444085 408.556087,-1.54676617 418.391624,2.4883374 Z M431.14296,280.862755 C419.930253,274.63348 406.609173,274.775055 395.540219,281.287478 L395.540219,281.287478 L299.896787,337.445328 C295.680042,339.946476 290.984122,341.267837 286.33612,341.267837 L286.33612,341.267837 L219.826558,341.267837 C192.99273,341.267837 171.142326,365.09953 171.142326,394.452625 L171.142326,394.452625 L171.142326,500.586243 C171.142326,529.892146 192.99273,553.771031 219.826558,553.771031 L219.826558,553.771031 L286.33612,553.771031 C290.457029,553.771031 294.482103,554.762052 298.315507,556.696902 C298.698848,556.980051 299.178023,557.2632 299.609281,557.546348 L299.609281,557.546348 L395.252714,613.704199 C400.906985,617.054793 407.184184,618.706495 413.413466,618.706495 C419.40316,618.706495 425.344936,617.196368 430.855454,614.128922 C443.361935,607.097393 451.172496,593.270292 451.172496,578.027447 L451.172496,578.027447 L451.316249,378.596291 L451.460001,316.96423 C451.460001,301.721385 443.697358,287.894284 431.14296,280.862755 Z M554.434819,341.503795 C547.870115,335.038563 537.184501,335.038563 530.619796,341.503795 C524.055092,347.969026 524.055092,358.492724 530.619796,364.957956 C552.997293,386.996373 565.312103,416.302276 565.312103,447.495838 C565.312103,478.689401 552.997293,507.995304 530.619796,530.033721 C524.055092,536.498952 524.055092,547.02265 530.619796,553.487882 C533.926107,556.744093 538.238687,558.348603 542.551267,558.348603 C546.863846,558.348603 551.176426,556.744093 554.434819,553.487882 C583.18535,525.172999 598.998142,487.561397 598.998142,447.495838 C598.998142,407.430279 583.18535,369.818677 554.434819,341.503795 Z M497.652521,379.776078 C491.087816,373.310846 480.402202,373.310846 473.837498,379.776078 C467.272793,386.241309 467.272793,396.765007 473.837498,403.230239 C498.610872,427.628229 498.610872,467.316256 473.837498,491.714246 C467.272793,498.179478 467.272793,508.703176 473.837498,515.168408 C477.143809,518.424619 481.456389,520.029129 485.768968,520.029129 C490.081548,520.029129 494.394127,518.424619 497.652521,515.168408 C535.555304,477.839954 535.555304,417.104531 497.652521,379.776078 Z" id="Combined-Shape" fill="#333333" fill-rule="nonzero"></path>
    </g>
</svg>