<?xml version="1.0" encoding="UTF-8"?>
<svg width="899px" height="840px" viewBox="0 0 899 840" version="1.1" xmlns="http://www.w3.org/2000/svg" xmlns:xlink="http://www.w3.org/1999/xlink">
    <title>0189展开全部-上</title>
    <g id="0189展开全部-上" stroke="none" stroke-width="1" fill="none" fill-rule="evenodd">
        <path d="M390.702749,767.867036 L392.718271,767.92413 C411.396828,768.985142 426.221181,784.701411 426.221181,803.933518 C426.221181,823.852486 410.319037,840 390.702749,840 L390.702749,840 L35.5184317,840 L33.5029093,839.942906 C14.8243526,838.881894 1.53477231e-12,823.165625 1.53477231e-12,803.933518 C1.53477231e-12,784.01455 15.9021435,767.867036 35.5184317,767.867036 L35.5184317,767.867036 L390.702749,767.867036 Z M756.236541,639.969281 L758.466594,642.086096 L888.440572,770.085047 C902.525409,783.955858 902.525409,806.444885 888.440572,820.315695 C874.897459,833.653013 853.263374,834.165987 839.097878,821.854616 L837.434864,820.315695 L707.460886,692.316744 C703.712502,688.625319 697.829249,688.3177 693.725054,691.393888 L692.652778,692.316744 L562.678799,820.315695 C548.593962,834.186506 525.757929,834.186506 511.673091,820.315695 C498.129978,806.978377 497.609089,785.673034 510.110424,771.722791 L511.673091,770.085047 L641.64707,642.086096 C673.172735,611.039481 723.840768,610.333876 756.236541,639.969281 Z M860.462652,383.933518 L862.478175,383.990612 C881.156731,385.051624 895.981084,400.767893 895.981084,420 C895.981084,439.918968 880.078941,456.066482 860.462652,456.066482 L860.462652,456.066482 L35.5184317,456.066482 L33.5029093,456.009388 C14.8243526,454.948376 0,439.232107 0,420 C0,400.081032 15.9021435,383.933518 35.5184317,383.933518 L35.5184317,383.933518 L860.462652,383.933518 Z M860.462652,0 L862.478175,0.0570936758 C881.156731,1.11810614 895.981084,16.834375 895.981084,36.066482 C895.981084,55.98545 880.078941,72.132964 860.462652,72.132964 L860.462652,72.132964 L35.5184317,72.132964 L33.5029093,72.0758703 C14.8243526,71.0148578 0,55.298589 0,36.066482 C0,16.147514 15.9021435,0 35.5184317,0 L35.5184317,0 L860.462652,0 Z" id="Combined-Shape" fill="#333333" fill-rule="nonzero"></path>
    </g>
</svg>