<?xml version="1.0" encoding="UTF-8"?>
<svg width="854px" height="896px" viewBox="0 0 854 896" version="1.1" xmlns="http://www.w3.org/2000/svg" xmlns:xlink="http://www.w3.org/1999/xlink">
    <title>0194地图</title>
    <g id="0194地图" stroke="none" stroke-width="1" fill="none" fill-rule="evenodd">
        <path d="M781.097561,253.688195 C820.521656,253.688195 852.636711,284.984335 853.957727,324.0898 L854,326.596273 L854,710.589163 C854,745.610058 834.491568,777.616515 803.58531,793.717888 L800.828914,795.096993 L614.133988,884.717489 C582.211529,900.041454 545.066577,899.714576 513.492524,883.98744 L510.246557,882.305569 L295.462507,766.643675 C292.949357,765.290335 290.011419,765.037127 287.332754,765.899932 L286.018194,766.424409 L104.449584,853.584083 C94.6043194,858.310174 83.8231397,860.763845 72.902439,860.763845 C33.4783442,860.763845 1.36328933,829.467705 0.0422731906,790.36224 L0,787.855767 L0,403.862877 C0,367.811955 20.6728624,334.9554 53.1710851,319.355047 L108.434001,292.826796 C123.99026,285.359214 142.654302,291.917358 150.121306,307.474821 C157.58831,323.032283 151.030674,341.697769 135.474415,349.16535 L80.2114995,375.693601 C70.015979,380.587829 63.3121448,390.577315 62.558737,401.754242 L62.4878049,403.862877 L62.4878049,787.855767 C62.4878049,793.608056 67.1505954,798.271207 72.902439,798.271207 C74.0725146,798.271207 75.2313792,798.074037 76.3310343,797.69062 L77.409175,797.245527 L258.97778,710.085855 C279.078879,700.436582 302.433991,700.538985 322.388585,710.23857 L325.087964,711.620713 L539.872015,827.282608 C553.717608,834.738504 570.141829,835.516178 584.569223,829.509403 L587.093574,828.378935 L773.7885,738.758439 C783.984021,733.864211 790.687855,723.874725 791.441263,712.697798 L791.512195,710.589163 L791.512195,326.596273 C791.512195,320.843984 786.849405,316.180833 781.097561,316.180833 C779.53746,316.180833 777.99729,316.531358 776.590827,317.206512 L750.058346,329.943089 C734.502087,337.41067 715.838045,330.852526 708.371041,315.295064 C700.904037,299.737602 707.461674,281.072116 723.017933,273.604534 L749.550416,260.867957 C759.395681,256.141866 770.17686,253.688195 781.097561,253.688195 Z M427,-1.30739863e-11 C565.133153,-1.30739863e-11 676.95122,113.247381 676.95122,252.749262 C676.95122,395.394025 525.084369,605.53211 427,605.53211 C328.915631,605.53211 177.04878,395.394025 177.04878,252.749262 C177.04878,113.247381 288.866847,-1.30739863e-11 427,-1.30739863e-11 Z M427,62.4926378 C323.555722,62.4926378 239.536585,147.585749 239.536585,252.749262 C239.536585,308.618848 269.35781,381.642773 316.192508,446.447921 C317.026317,447.601662 317.862512,448.74789 318.700838,449.886444 L318.700838,449.886444 L323.754283,456.624393 C328.829165,463.267678 333.962179,469.623109 339.097746,475.655915 L339.097746,475.655915 L344.232104,481.579891 C347.652833,485.455798 351.066462,489.183164 354.456523,492.751687 L354.456523,492.751687 L359.52188,497.984053 C367.087226,505.650041 374.491575,512.48581 381.547344,518.37401 L381.547344,518.37401 L386.19749,522.157808 C403.043577,535.507562 417.557711,543.039473 427,543.039473 C436.442289,543.039473 450.956423,535.507562 467.80251,522.157808 L467.80251,522.157808 L472.452656,518.37401 C479.508425,512.48581 486.912774,505.650041 494.47812,497.984053 L494.47812,497.984053 L499.543477,492.751687 C502.933538,489.183164 506.347167,485.455798 509.767896,481.579891 L509.767896,481.579891 L514.902254,475.655915 C520.037821,469.623109 525.170835,463.267678 530.245717,456.624393 L530.245717,456.624393 L535.299162,449.886444 L537.807492,446.447921 C584.64219,381.642773 614.463415,308.618848 614.463415,252.749262 C614.463415,147.585749 530.444278,62.4926378 427,62.4926378 Z M427,135.759868 C490.07194,135.759868 541.20185,186.893733 541.20185,249.970551 C541.20185,313.047369 490.07194,364.181234 427,364.181234 C363.92806,364.181234 312.79815,313.047369 312.79815,249.970551 C312.79815,186.893733 363.92806,135.759868 427,135.759868 Z M427,198.252506 C398.439121,198.252506 375.285955,221.407463 375.285955,249.970551 C375.285955,278.533639 398.439121,301.688596 427,301.688596 C455.560879,301.688596 478.714045,278.533639 478.714045,249.970551 C478.714045,221.407463 455.560879,198.252506 427,198.252506 Z" id="Combined-Shape" fill="#222222" fill-rule="nonzero"></path>
    </g>
</svg>