<?xml version="1.0" encoding="UTF-8"?>
<svg width="896px" height="418px" viewBox="0 0 896 418" version="1.1" xmlns="http://www.w3.org/2000/svg" xmlns:xlink="http://www.w3.org/1999/xlink">
    <title>093好礼标签</title>
    <g id="093好礼标签" stroke="none" stroke-width="1" fill="none" fill-rule="evenodd">
        <path d="M14.9333333,59.908312 L14.9333333,358.225021 C14.9333333,383.106029 34.8914643,403.2 59.4829619,403.2 L836.517038,403.2 C860.983893,403.2 881.066667,383.016761 881.066667,358.225021 L881.066667,59.908312 C881.066667,35.0273045 861.108536,14.9333333 836.517038,14.9333333 L59.4829619,14.9333333 C35.0161071,14.9333333 14.9333333,35.1165727 14.9333333,59.908312 Z M836.517038,0 C869.368571,0 896,26.7921958 896,59.908312 L896,358.225021 C896,391.311468 869.1845,418.133333 836.517038,418.133333 L59.4829619,418.133333 C26.6314292,418.133333 0,391.341138 0,358.225021 L0,59.908312 C0,26.8218649 26.8155003,0 59.4829619,0 L836.517038,0 Z M212.949333,81.2373333 C209.664,101.845333 206.08,121.856 201.898667,141.568 L165.76,141.568 L165.76,162.176 L197.418667,162.176 C190.250667,192.64 182.186667,221.013333 172.928,247.296 C189.653333,259.541333 205.184,271.189333 218.922667,282.24 C204.885333,305.536 186.666667,325.248 163.968,341.674667 L178.602667,359.594667 C201.6,341.973333 220.714667,320.768 235.648,295.978667 C250.581333,308.522667 263.424,319.872 273.578667,330.624 L288.213333,313.6 C277.162667,302.848 263.125333,290.602667 245.802667,277.162667 C262.528,242.218667 272.384,201.002667 275.072,153.813333 L275.072,141.568 L223.402667,141.568 C226.986667,123.648 230.570667,103.936 234.154667,83.0293333 L212.949333,81.2373333 Z M528.042667,82.432 L506.837333,88.4053333 C512.810667,100.650667 517.888,113.493333 522.069333,126.634667 L470.698667,126.634667 L470.698667,147.541333 L565.674667,147.541333 C548.352,179.797333 513.109333,212.650667 460.544,246.698667 L466.816,268.501333 C486.826667,255.36 504.746667,242.218667 520.576,229.077333 L520.576,358.997333 L542.378667,358.997333 L542.378667,226.986667 C557.610667,236.544 572.842667,248.490667 588.074667,262.528 L600.021333,244.010667 C583.296,229.674667 565.077333,217.130667 545.365333,206.08 C565.077333,185.770667 579.413333,165.461333 588.672,145.152 L588.672,126.634667 L532.821333,126.634667 L542.08,123.050667 C538.794667,110.506667 534.016,97.0666667 528.042667,82.432 Z M423.210667,100.053333 L293.888,100.053333 L293.888,120.96 L398.72,120.96 C384.085333,141.269333 368.853333,158.293333 352.725333,172.330667 L352.725333,209.962667 L285.226667,209.962667 L285.226667,230.869333 L352.725333,230.869333 L352.725333,319.872 C352.725333,330.026667 349.141333,335.104 342.272,335.104 C327.936,335.104 314.496,334.805333 302.250667,334.805333 L307.925333,355.114667 L350.933333,355.114667 C366.464,355.114667 374.528,345.557333 374.528,326.442667 L374.528,230.869333 L435.456,230.869333 L435.456,209.962667 L374.528,209.962667 L374.528,178.901333 C392.448,160.981333 408.874667,141.568 423.210667,120.96 L423.210667,100.053333 Z M638.848,86.016 L617.045333,86.016 L617.045333,323.456 C617.045333,343.765333 626.602667,353.92 645.717333,353.92 L695.296,353.92 C708.437333,353.92 717.696,350.336 722.773333,343.168 C727.850667,335.701333 731.136,314.794667 732.629333,280.448 L712.32,273.877333 C711.125333,303.445333 709.333333,320.768 706.645333,325.845333 C703.658667,330.624 698.581333,333.013333 691.712,333.013333 L650.794667,333.013333 C642.730667,333.013333 638.848,328.832 638.848,320.469333 L638.848,86.016 Z M253.866667,162.176 C251.178667,200.405333 242.816,234.453333 228.48,264.021333 C218.624,256.853333 207.872,249.088 196.522667,241.024 C204.288,220.117333 211.754667,193.834667 218.922667,162.176 L253.866667,162.176 Z" id="好礼标签" fill="#333333" fill-rule="nonzero"></path>
    </g>
</svg>