<?xml version="1.0" encoding="UTF-8"?>
<svg width="734px" height="897px" viewBox="0 0 734 897" version="1.1" xmlns="http://www.w3.org/2000/svg" xmlns:xlink="http://www.w3.org/1999/xlink">
    <title>0222新人-券</title>
    <g id="0222新人-券" stroke="none" stroke-width="1" fill="none" fill-rule="evenodd">
        <path d="M400.933048,2.12490211 C416.459397,8.21514431 424.187641,25.6245189 418.371607,41.1894716 L418.191212,41.6605587 L402.603226,81.4004009 C588.585568,99.3641115 734,256.600533 734,447.913557 C734,582.230591 662.322868,699.750714 555.252482,764.06907 L360.576859,891.02822 C352.314991,896.41634 341.957654,897.476927 332.775218,893.875098 C317.248869,887.784856 309.520625,870.375481 315.336659,854.810528 L315.517054,854.339441 L331.181231,814.405831 C145.302093,796.341503 0,639.152669 0,447.913557 C0,313.72801 71.5368679,196.306503 178.433179,131.947086 L373.131407,4.97178045 C381.393276,-0.416339747 391.750612,-1.47692737 400.933048,2.12490211 Z M524.397275,278.536779 L209.602725,278.536779 C188.004111,278.536779 169.384615,296.189198 169.384615,316.666004 L169.384615,382.333002 L169.386885,383.029285 C169.455847,393.326914 171.168813,402.258897 184.280212,409.164679 C193.962349,414.107356 216.305744,425.404904 216.305744,448.706097 C216.305744,474.12558 200.665368,482.598741 185.769771,486.835321 L184.280212,486.835321 C170.874175,494.602386 169.384615,507.312127 169.384615,513.666998 L169.384615,579.333996 C169.384615,599.810802 188.004111,617.463221 209.602725,617.463221 L523.652494,617.463221 C545.251109,617.463221 563.870605,599.810802 563.870605,579.333996 L563.870605,513.666998 C563.870605,500.957257 558.657146,496.014579 548.975008,488.247515 C525.142054,476.24387 517.694256,467.064612 517.694256,448.706097 C517.694256,431.053678 525.142054,421.87442 549.719788,409.164679 C563.125825,401.397614 564.615385,394.336647 564.615385,382.333002 L564.615385,316.666004 C564.615385,296.189198 545.995889,278.536779 524.397275,278.536779 Z M444.056769,351.264744 C449.4122,356.207422 449.4122,363.974486 444.056769,368.917164 L400.448264,409.164679 L440.231462,409.164679 C447.882077,409.164679 454.002569,414.813453 454.002569,421.87442 C454.002569,428.935388 447.882077,434.584162 440.231462,434.584162 L383.616911,434.584162 L383.616911,464.946322 L437.936277,464.946322 C445.586892,464.946322 451.707384,470.595096 451.707384,477.656064 C451.707384,484.717031 445.586892,490.365805 437.936277,490.365805 L385.147034,490.365805 L385.147034,539.086481 C385.147034,546.147449 379.026542,551.796223 371.375927,551.796223 C363.725312,551.796223 357.60482,546.147449 357.60482,539.086481 L357.60482,490.365805 L304.815577,490.365805 C297.164962,490.365805 291.04447,484.717031 291.04447,477.656064 C291.04447,470.595096 297.164962,464.946322 304.815577,464.946322 L357.60482,464.946322 L357.60482,434.584162 L300.990269,434.584162 C293.339654,434.584162 287.219163,428.935388 287.219163,421.87442 C287.219163,414.813453 293.339654,409.164679 300.990269,409.164679 L342.30359,409.164679 L298.695085,368.917164 C293.339654,363.974486 293.339654,356.207422 298.695085,351.264744 C304.050515,346.322067 312.466192,346.322067 317.821622,351.264744 L371.375927,400.691517 L424.930232,351.264744 C430.285662,346.322067 438.701339,346.322067 444.056769,351.264744 Z" id="形状结合" fill="#333333" fill-rule="nonzero"></path>
    </g>
</svg>