<?xml version="1.0" encoding="UTF-8"?>
<svg width="875px" height="896px" viewBox="0 0 875 896" version="1.1" xmlns="http://www.w3.org/2000/svg" xmlns:xlink="http://www.w3.org/1999/xlink">
    <title>0129购物袋</title>
    <g id="0129购物袋" stroke="none" stroke-width="1" fill="none" fill-rule="evenodd">
        <path d="M437.150323,0 C529.850862,0 607.599701,63.5626573 626.289326,155.541562 C628.532081,166.010705 629.279666,174.984257 630.027251,183.957808 L630.027251,183.957808 L630.027,227.47 L243.525,227.47 L243.525811,245.277078 C243.525811,247.520466 244.273396,249.016058 244.273396,251.259446 L246.516151,272.197733 L630.027251,272.197733 L630.027,227.47 L732.446395,227.470404 C756.129887,227.470404 776.882548,245.793275 780.196757,269.378474 L780.291834,270.094774 L874.487543,831.689547 C876.730298,850.384446 871.497203,868.331549 861.031013,880.296285 C851.312409,890.017632 839.351049,896 826.642104,896 L826.642104,896 L47.6585432,896 C34.9495983,896 22.9882385,890.765428 14.0172186,880.296285 C2.80344372,867.583753 -1.68206623,850.384446 0.560688743,831.689547 L0.560688743,831.689547 L94.0088126,270.094774 C96.9991526,246.165303 117.931532,227.470404 141.854252,227.470404 L141.854252,227.470404 L243.525,227.47 L243.525811,187.696788 C244.26592,98.1183091 311.682462,18.8006376 400.076435,1.98594269 L402.761414,1.49559194 C414.722774,0.747795969 425.936549,0 437.150323,0 Z M732.446395,273.085958 L141.854252,273.085958 C141.106667,273.085958 139.611497,274.58155 139.611497,276.077142 L139.611497,276.077142 L45.4157882,836.924118 C44.6682032,845.149874 47.6585432,849.63665 48.4061282,850.384446 L48.4061282,850.384446 L825.894519,850.384446 C827.389689,849.63665 829.632444,845.149874 828.884859,837.671914 L828.884859,837.671914 L734.68915,276.077142 C734.68915,274.58155 733.19398,273.085958 732.446395,273.085958 L732.446395,273.085958 Z M437.150323,45.6155541 C428.179304,45.6155541 419.955869,46.3633501 410.984849,47.858942 C342.954615,59.8236775 290.623665,120.395151 289.87608,189.19238 L289.87608,189.19238 L289.87608,226.582179 L584.424567,226.582179 L584.424567,183.957808 C584.424567,177.975441 583.676982,171.993073 582.181812,164.515113 C567.230112,94.2222921 508.170898,45.6155541 437.150323,45.6155541 Z M584.143875,226.500077 L630.026628,226.515527 L630.026628,227.440563 L657.719177,227.440563 L657.574361,272.725963 L638.534263,272.724796 C659.565434,287.155886 673.387181,311.369541 673.387181,338.751574 C673.387181,382.871536 637.503101,418.765743 593.395587,418.765743 C549.288072,418.765743 513.403993,382.871536 513.403993,338.751574 C513.403993,311.369541 527.225739,287.155886 548.25691,272.724796 L311.839685,272.724839 C332.870821,287.155934 346.69254,311.369568 346.69254,338.751574 C347.440125,382.871536 311.556045,418.765743 266.700946,418.765743 C222.593431,418.765743 186.709352,382.871536 186.709352,338.751574 C186.709352,303.237773 209.959506,273.053637 242.033735,262.629317 L242.146974,227.470692 L243.527105,227.470692 L243.527105,226.500077 L584.143875,226.500077 Z M266.700946,304.352959 C248.011321,304.352959 232.312036,320.056675 232.312036,338.751574 C232.312036,357.446473 248.011321,373.150188 266.700946,373.150188 C285.39057,373.150188 301.089855,357.446473 301.089855,338.751574 C301.83744,320.056675 286.138155,304.352959 266.700946,304.352959 Z M593.395587,304.352959 C574.705962,304.352959 559.006677,320.056675 559.006677,338.751574 C559.006677,357.446473 574.705962,373.150188 593.395587,373.150188 C612.085211,373.150188 627.784496,357.446473 627.784496,338.751574 C627.784496,320.056675 612.832796,304.352959 593.395587,304.352959 Z" id="Combined-Shape" fill="#333333" fill-rule="nonzero"></path>
    </g>
</svg>