<?xml version="1.0" encoding="UTF-8"?>
<svg width="758px" height="896px" viewBox="0 0 758 896" version="1.1" xmlns="http://www.w3.org/2000/svg" xmlns:xlink="http://www.w3.org/1999/xlink">
    <title>0256服务</title>
    <g id="0256服务" stroke="none" stroke-width="1" fill="none" fill-rule="evenodd">
        <path d="M319.644943,16.7466106 C356.219229,-5.58220566 401.780654,-5.58220338 438.354939,16.7466165 C479.373252,41.7885424 520.245748,62.7439668 560.971619,79.6346012 C601.01217,96.2410052 640.916889,108.921018 680.709022,117.700784 C726.000486,127.693948 758,168.675935 758,215.719676 L758,509.376979 C758,572.843513 736.303456,634.132365 696.955063,682.550534 L683.869356,697.523739 L668.628272,713.858949 L642.076144,741.131169 L633.482486,749.618006 C624.772812,758.131198 616.177201,766.26408 607.538498,774.158102 L599.21218,781.675114 C514.366064,857.34168 439.097746,896 369.933014,896 C310.247468,896 247.904537,867.291829 181.115899,811.365536 L173.463294,804.850754 C156.512764,790.191732 139.210919,773.739098 121.381939,755.332838 L103.005814,735.856597 L84.4676604,715.233902 L63.6567293,690.976563 C22.5760538,641.978277 0,579.371823 0,514.639508 L0,215.719801 C0,168.675985 31.9994795,127.693933 77.2910039,117.700778 C117.083111,108.921018 156.987832,96.2410052 197.028381,79.6346012 C234.818638,63.9614824 272.749834,44.7823917 310.551879,22.2335449 L319.644943,16.7466106 Z M402.453517,75.5765 C387.922571,66.70527 370.077306,66.7052691 355.395104,75.6683069 L345.99946,81.3378448 C305.240771,105.650892 264.342402,126.330269 223.422758,143.301269 C179.698266,161.43555 135.93475,175.341723 92.1351839,185.005692 C78.8153812,187.944583 68.9090909,200.631667 68.9090909,215.719801 L68.9090909,514.639508 C68.9090909,563.241869 85.8257594,610.154081 116.457657,646.689764 L136.217781,669.724406 L144.010474,678.505546 L163.291752,699.454281 L171.011446,707.517964 C187.335442,724.369739 203.174008,739.430913 218.327444,752.537201 L225.561976,758.696216 C280.830522,804.974809 328.827683,827.076923 369.933014,827.076923 C418.857511,827.076923 479.932339,795.70848 553.195157,730.372877 L561.21028,723.136808 L573.15192,712.029951 L601.720843,683.963673 L622.87,661.933137 L635.913179,647.854429 C670.019582,610.571181 689.090909,560.989433 689.090909,509.376979 L689.090909,215.719676 C689.090909,200.631647 679.184611,187.944588 665.864826,185.005694 C622.06525,175.341723 578.301735,161.43555 534.577242,143.301269 C499.30987,128.67449 464.070276,111.298045 428.8578,91.1794667 L402.453517,75.5765 Z M608.338595,296.80158 C631.642815,320.110528 633.332721,357.484772 610.858015,382.813547 L416.703494,577.097025 C381.490942,612.316725 325.72957,614.405805 286.264364,583.945227 L276.574509,575.452371 L170.234826,469.091105 C145.959907,444.811259 145.252084,405.457469 169.530117,381.174508 C192.862646,357.837242 230.307313,357.489983 255.536486,380.070819 L346.061455,470.537846 L520.439839,296.096727 C544.717872,271.813766 584.063677,272.521734 608.338595,296.80158 Z" id="Combined-Shape" fill="#000000" fill-rule="nonzero"></path>
    </g>
</svg>