<?xml version="1.0" encoding="UTF-8"?>
<svg width="809px" height="896px" viewBox="0 0 809 896" version="1.1" xmlns="http://www.w3.org/2000/svg" xmlns:xlink="http://www.w3.org/1999/xlink">
    <title>0243一键清除</title>
    <g id="0243一键清除" stroke="none" stroke-width="1" fill="none" fill-rule="evenodd">
        <path d="M404.472508,0 C464.854475,0 514.224678,50.789659 515.206044,113.441162 L515.220933,115.343283 L515.220933,234.029851 L701.40669,234.029851 C760.793526,234.029851 808.945016,285.850745 808.945016,349.373134 C810.534015,402.330747 777.514612,448.734854 731.690102,461.011587 L730.297583,461.373135 L762.398576,745.552238 C771.932571,818.368955 723.261528,884.632167 653.762519,894.060112 L651.650152,894.328358 L645.229953,894.328358 C643.680251,895.942357 640.634282,895.998012 637.536719,895.999931 L637.204705,896 L174.950411,896 C104.328226,896 48.1514895,837.492538 48.1514895,763.940298 C48.1514895,759.098301 48.1514895,754.256304 49.596159,747.909699 L49.7565389,747.22388 L81.8575316,464.716418 C33.7060421,448 0,402.865671 0,349.373134 C0,286.48597 47.1932748,235.067439 105.760129,234.045357 L107.538326,234.029851 L293.724083,234.029851 L293.724083,115.343283 C293.724084,51.8208959 343.480623,0 404.472508,0 Z M664.53382,464.64699 L142.604172,464.64699 L108.34085,754.391934 L108.34085,760.597015 C108.34085,798.883562 138.189061,829.970149 174.950411,829.970149 L203.302637,829.971454 C208.001192,790.117135 214.863441,731.909705 223.889044,655.349123 C225.914998,638.167781 240.930463,625.94969 257.427452,628.05893 L260.613579,628.466743 C277.110523,630.576353 288.841889,646.214796 286.816319,663.396184 C278.207021,736.422394 271.660997,791.94739 267.178249,829.971171 L642.019854,829.970149 L643.271357,829.929457 C680.776393,827.488139 706.58969,793.136017 702.071795,753.140631 L664.53382,464.64699 Z M406.077558,62.6865666 C378.946506,62.6865666 355.518494,87.0865863 355.518494,115.343283 L355.518494,275.820896 C355.518494,287.683601 346.845513,296.716417 335.455374,296.716417 L110.748425,296.716417 C82.0123235,296.716417 60.1893617,319.444795 60.1893617,349.373134 C60.1893617,377.168802 81.5024641,402.02985 107.538326,402.02985 L701.40669,402.02985 C727.442553,402.02985 748.755654,377.168802 748.755654,349.373134 C748.755654,321.577465 727.442553,296.716417 701.40669,296.716417 L476.699741,296.716417 C465.309602,296.716418 456.636621,287.683602 456.636621,275.820896 L456.636621,115.343283 C456.636621,87.0865863 433.20861,62.6865666 406.077558,62.6865666 Z" id="Combined-Shape" fill="#000000" fill-rule="nonzero"></path>
    </g>
</svg>