<?xml version="1.0" encoding="UTF-8"?>
<svg width="896px" height="401px" viewBox="0 0 896 401" version="1.1" xmlns="http://www.w3.org/2000/svg" xmlns:xlink="http://www.w3.org/1999/xlink">
    <title>0196旋风头</title>
    <g id="0196旋风头" stroke="none" stroke-width="1" fill="none" fill-rule="evenodd">
        <g id="626新增旋风头" transform="translate(0.000000, 0.000000)" fill="#000000" fill-rule="nonzero">
            <path d="M444.318747,6.67460581 C455.221358,-0.388041885 469.040066,-1.94985556 481.368822,2.48714352 C502.311312,10.0241415 512.888321,32.3413078 504.993233,52.3339295 L504.993233,52.3339295 L482.899617,108.282659 C649.212703,118.972747 799.018202,205.32969 889.43162,340.111048 C901.605007,358.258186 896.373074,382.583446 877.745784,394.443038 C859.118502,406.302629 834.149623,401.205565 821.976237,383.058427 C739.985304,260.832661 600.528318,185.665102 447.865634,185.665102 C295.362498,185.665102 156.032436,260.67442 74.0015153,382.691386 C61.8093882,400.826576 36.8352572,405.89915 18.2202323,394.021296 C-0.394792514,382.143442 -5.60157994,357.813063 6.59054711,339.677873 C50.1636186,274.865068 107.477753,221.27614 173.754138,181.944395 L444.318747,6.67460581 Z" id="Path"></path>
        </g>
    </g>
</svg>