<?xml version="1.0" encoding="UTF-8"?>
<svg width="800px" height="896px" viewBox="0 0 800 896" version="1.1" xmlns="http://www.w3.org/2000/svg" xmlns:xlink="http://www.w3.org/1999/xlink">
    <title>088md-user</title>
    <g id="088md-user" stroke="none" stroke-width="1" fill="none" fill-rule="evenodd">
        <path d="M394.711703,414.661372 C294.97613,414.661372 208.838574,325.525047 208.838574,196.277685 C208.838574,75.9445748 285.908687,-4.27749888 394.711703,0.17653359 C508.045294,4.63675222 580.57854,71.4843562 580.57854,196.277685 C580.57854,334.439298 498.977851,414.661372 394.711703,414.661372 Z M385.644261,891.539781 L81.9006732,891.539781 C18.4348692,891.539781 4.83685196,869.257247 0.299984552,811.317708 C-4.23688285,610.762523 41.1003289,552.822984 245.10205,512.711948 C385.637968,485.969194 526.173886,490.429413 662.179228,548.368952 C784.580261,601.848272 820.850031,735.555853 789.110836,860.342996 C780.049686,887.085749 743.779917,896 721.114457,896 C716.57759,891.539781 494.440984,891.539781 385.644261,891.539781 Z" id="md-user" fill="#333333"></path>
    </g>
</svg>