<?xml version="1.0" encoding="UTF-8"?>
<svg width="896px" height="717px" viewBox="0 0 896 717" version="1.1" xmlns="http://www.w3.org/2000/svg" xmlns:xlink="http://www.w3.org/1999/xlink">
    <title>033物流</title>
    <g id="033物流" stroke="none" stroke-width="1" fill="none" fill-rule="evenodd">
        <path d="M695.300095,232.82814 C690.106423,225.149846 681.356166,220.550736 672.001379,220.550736 L644.000999,220.550736 C628.519268,220.550736 616.00062,232.886052 616.00062,248.129002 L616.00062,413.534132 C616.00062,428.779268 628.519267,441.111306 644.000999,441.111306 L756.00031,441.111306 C771.480939,441.111306 783.999586,428.779268 783.999586,413.534132 L783.999586,372.178206 C783.999586,366.743192 782.363602,361.410892 779.300129,356.888271 L695.300095,232.82814 Z M644.000999,413.534132 L644.000999,248.118075 L672.001379,248.118075 L756.001413,372.179299 L756.001413,413.534132 L644.000999,413.534132 Z M881.888391,340.087152 L769.88908,174.673281 C754.2507,151.604523 728.112453,137.84981 699.999552,137.84981 L588.000242,137.84981 L588.000242,82.7031114 C588.000242,37.090086 550.319643,0 503.999104,0 L84.0000346,0 C37.6695668,0 -3.06954462e-12,37.090086 -3.06954462e-12,82.7031114 L-3.06954462e-12,385.966793 C-3.06954462e-12,431.579818 37.6695668,468.681924 84.0000346,468.681924 L84.0110664,551.383943 C84.0110664,596.995876 121.691665,634.097981 168.011101,634.097981 L199.970717,634.097981 C212.467302,681.532512 255.948309,716.8 307.999759,716.8 C360.017011,716.8 403.486987,681.533605 416.017769,634.097981 L563.937037,634.097981 C576.466715,681.532512 619.937795,716.8 672.000276,716.8 C724.006496,716.8 767.487504,681.533605 780.006151,634.097981 L811.999965,634.097981 C858.318298,634.097981 896,596.995876 896,551.383943 L896,385.966793 C896,369.59947 891.13176,353.711837 881.888391,340.087152 Z M44.5135649,385.9657 L44.5135649,82.7031114 C44.5135649,67.4689032 57.0664102,43.7565548 72.512841,43.7565548 L515.488504,43.7565548 C530.969132,43.7565548 543.48778,67.4689032 543.48778,82.7031114 L543.48778,385.966793 C543.48778,401.201001 530.969133,424.91335 515.488504,424.91335 L72.512841,424.91335 C57.0664102,424.912257 44.5135649,401.201001 44.5135649,385.9657 Z M310.154228,671.297334 L304.421111,671.253627 C269.500616,671.253627 241.242097,643.220804 241.242097,608.652634 C241.242097,574.073538 269.500616,546.039622 304.421111,546.039622 C339.275416,546.039622 367.601227,574.072445 367.601227,608.652634 C367.602331,643.219711 341.049296,671.297334 310.154228,671.297334 Z M677.744424,671.297334 L672.001379,671.253627 C637.07978,671.253627 608.832294,643.220804 608.832294,608.652634 C608.832294,574.073538 637.078677,546.039622 672.001379,546.039622 C706.865612,546.039622 735.180392,574.072445 735.180392,608.652634 C735.179289,643.219711 708.638389,671.297334 677.744424,671.297334 Z M812.001069,578.961116 L780.007254,578.961116 C767.487504,531.515658 724.006496,496.249263 672.001379,496.249263 C619.938898,496.249263 576.467819,531.515658 563.93814,578.961116 L416.017768,578.961116 C403.48809,531.515658 360.01701,496.249263 307.999758,496.249263 C255.947205,496.249263 212.467301,531.515658 199.970717,578.961116 L168.0111,578.961116 C152.530472,578.961116 140.010721,566.629077 140.010721,551.383942 L140.010721,468.681923 L503.999103,468.681923 C550.318539,468.681923 588.000241,431.579818 588.000241,385.966792 L588.000242,192.983396 L699.999552,192.983396 C709.35434,192.983396 718.105699,197.583598 723.299372,205.260801 L835.299785,370.67795 C838.362154,375.200571 850.051226,392.790608 850.051226,398.223436 L850.051226,546.139056 L851.487538,551.383942 C851.487538,566.629077 827.480595,578.961116 812.001069,578.961116 Z" id="logistics" fill="#333333" transform="translate(448.000000, 358.400000) scale(-1, 1) translate(-448.000000, -358.400000) "></path>
    </g>
</svg>