<?xml version="1.0" encoding="UTF-8"?>
<svg width="896px" height="896px" viewBox="0 0 896 896" version="1.1" xmlns="http://www.w3.org/2000/svg" xmlns:xlink="http://www.w3.org/1999/xlink">
    <title>034物流信息</title>
    <g id="034物流信息" stroke="none" stroke-width="1" fill="none" fill-rule="evenodd">
        <path d="M131.049243,131.049243 C305.813111,-43.7146253 590.19872,-43.6515337 764.899496,131.049243 C939.69491,305.844657 939.69491,590.167174 764.931042,764.931042 C590.135628,939.726456 305.813111,939.663364 131.049243,764.899496 C-43.6515337,590.19872 -43.7146253,305.813111 131.049243,131.049243 Z M750.81254,145.154311 C583.794635,-21.8291439 312.183833,-21.8635947 145.131477,145.188762 C-21.8175271,312.172216 -21.851978,583.817469 145.165928,750.835374 C312.149382,917.85328 583.897987,917.85328 750.81254,750.869825 C917.864897,583.817469 917.830446,312.172216 750.81254,145.154311 Z M617.442073,258.844444 C625.742487,258.844444 630.48558,264.50101 630.48558,271.288889 C630.48558,278.076768 625.742487,282.60202 617.442073,282.60202 L419.417921,282.60202 L419.417921,482.844444 C419.417921,490.763636 413.489054,495.288889 406.374414,495.288889 L248.666556,495.288889 L248.666556,582.4 L277.125117,582.4 C283.053984,554.117172 310.326771,532.622222 342.342652,532.622222 C374.358533,532.622222 400.445547,554.117172 407.560187,582.4 L515.465564,582.4 C521.394431,554.117172 548.667218,532.622222 580.683099,532.622222 C612.69898,532.622222 638.785994,554.117172 645.900634,582.4 L683.845382,582.4 C692.145795,582.4 696.888889,588.056566 696.888889,594.844444 C696.888889,602.763636 690.960022,607.288889 683.845382,607.288889 L642.343314,607.288889 C636.414447,635.571717 609.14166,657.066667 577.125779,657.066667 C545.109898,657.066667 519.022884,635.571717 511.908244,607.288889 L404.002867,607.288889 C398.074001,635.571717 370.801213,657.066667 338.785332,657.066667 C306.769451,657.066667 280.682437,635.571717 273.567797,607.288889 L232.065729,607.288889 C223.765316,607.288889 219.022222,601.632323 219.022222,594.844444 L219.022222,470.4 C222.579542,468.137374 223.765316,467.006061 223.765316,465.874747 L328.113372,325.591919 C331.670692,322.19798 335.228012,322.19798 337.599559,322.19798 L393.330907,322.19798 L393.330907,271.288889 C393.330907,263.369697 399.259774,258.844444 406.374414,258.844444 L617.442073,258.844444 Z M578.311552,559.773737 C556.967632,559.773737 539.181031,576.743434 539.181031,597.107071 C539.181031,617.470707 555.781858,634.440404 578.311552,634.440404 C600.841246,634.440404 617.442073,617.470707 617.442073,597.107071 C617.442073,575.612121 599.655473,559.773737 578.311552,559.773737 Z M341.156879,559.773737 C318.627185,559.773737 302.026358,576.743434 302.026358,597.107071 C302.026358,617.470707 318.627185,634.440404 341.156879,634.440404 C363.686573,634.440404 380.2874,617.470707 380.2874,597.107071 C380.2874,575.612121 362.5008,559.773737 341.156879,559.773737 Z M696.888889,483.975758 C696.888889,490.763636 690.960022,497.551515 683.845382,497.551515 L498.864737,497.551515 C490.564323,497.551515 485.82123,491.894949 485.82123,485.107071 C485.82123,477.187879 491.750096,472.662626 498.864737,472.662626 L683.845382,472.662626 C690.960022,471.531313 696.888889,477.187879 696.888889,483.975758 Z M393.330907,345.955556 L344.714199,345.955556 L251.038103,471.531313 L393.330907,471.531313 L393.330907,345.955556 Z M696.888889,408.177778 C696.888889,416.09697 690.960022,421.753535 683.845382,421.753535 L498.864737,421.753535 C490.564323,421.753535 485.82123,416.09697 485.82123,409.309091 C485.82123,401.389899 491.750096,396.864646 498.864737,396.864646 L683.845382,396.864646 C690.960022,395.733333 696.888889,402.521212 696.888889,408.177778 Z M669.616101,332.379798 C669.616101,340.29899 664.873008,345.955556 657.758368,345.955556 L472.777723,345.955556 C464.477309,345.955556 459.734216,340.29899 459.734216,333.511111 C459.734216,326.723232 465.663082,322.19798 472.777723,322.19798 L657.758368,322.19798 C664.873008,321.066667 669.616101,326.723232 669.616101,332.379798 Z" id="物流信息" fill="#333333"></path>
    </g>
</svg>