<?xml version="1.0" encoding="UTF-8"?>
<svg width="896px" height="896px" viewBox="0 0 896 896" version="1.1" xmlns="http://www.w3.org/2000/svg" xmlns:xlink="http://www.w3.org/1999/xlink">
    <title>0233新-全局关闭</title>
    <g id="0233新-全局关闭" stroke="none" stroke-width="1" fill="none" fill-rule="evenodd">
        <path d="M448,0 C695.423568,0 896,200.576432 896,448 C896,695.423568 695.423568,896 448,896 C200.576432,896 0,695.423568 0,448 C0,200.576432 200.576432,0 448,0 Z M448,61.0909091 C234.31601,61.0909091 61.0909091,234.31601 61.0909091,448 C61.0909091,661.68399 234.31601,834.909091 448,834.909091 C661.68399,834.909091 834.909091,661.68399 834.909091,448 C834.909091,234.31601 661.68399,61.0909091 448,61.0909091 Z M612.285787,281.176015 L613.591552,282.408448 C625.043144,293.860041 625.501208,312.142136 614.965743,324.140169 L613.591552,325.606244 L491.197796,448 L613.591552,570.393756 C625.094267,581.896471 625.505078,600.290812 614.823985,612.285787 L613.591552,613.591552 C602.139959,625.043144 583.857864,625.501208 571.859831,614.965743 L570.393756,613.591552 L448,491.197796 L325.606244,613.591552 C314.103529,625.094267 295.709188,625.505078 283.714213,614.823985 L282.408448,613.591552 C270.956856,602.139959 270.498792,583.857864 281.034257,571.859831 L282.408448,570.393756 L404.802204,448 L282.408448,325.606244 C270.905733,314.103529 270.494922,295.709188 281.176015,283.714213 L282.408448,282.408448 C293.860041,270.956856 312.142136,270.498792 324.140169,281.034257 L325.606244,282.408448 L448,404.802204 L570.393756,282.408448 C581.896471,270.905733 600.290812,270.494922 612.285787,281.176015 Z" id="Combined-Shape" fill="#222222" fill-rule="nonzero"></path>
    </g>
</svg>