<?xml version="1.0" encoding="UTF-8"?>
<svg width="896px" height="777px" viewBox="0 0 896 777" version="1.1" xmlns="http://www.w3.org/2000/svg" xmlns:xlink="http://www.w3.org/1999/xlink">
    <title>0144邀请好友</title>
    <g id="0144邀请好友" stroke="none" stroke-width="1" fill="none" fill-rule="evenodd">
        <path d="M448,-1 C694.806522,-1 896,173.517852 896,388.411306 C896,472.087719 864.688504,554.078554 807.361282,621.026559 C818.840879,644.440992 835.315387,663.103812 856.473145,676.854808 C870.592555,685.966148 877.276996,702.093668 873.648249,718.244072 C870.036845,734.108651 857.067862,745.849326 840.728056,748.143017 C826.679574,750.08979 812.357986,751.036994 797.67656,751.036994 C753.099407,751.036994 712.308967,741.883703 676.20695,723.7447 C607.174495,759.31421 528.699996,778 448.180525,778 C201.259948,778 0,603.362233 0,388.411306 C0,173.464217 201.074955,-1 448,-1 Z M448.180525,48.5355208 C228.842879,48.5355208 50.3038405,201.08937 50.3038405,388.588694 C50.3038405,576.088018 228.662354,728.641867 447.819475,728.996644 C525.264619,728.996644 600.362941,709.838719 665.171348,673.651526 C668.60132,671.700256 672.392341,670.813315 676.183362,670.813315 C680.154907,670.813315 684.126453,671.700256 687.556425,673.828915 C721.675614,693.873781 762.293697,703.452743 806.883325,701.85625 C783.595624,681.279219 765.904193,655.025766 753.989555,623.628055 C751.101158,615.822974 752.906406,607.308341 758.502676,601.277142 C815.729041,540.255602 846.057209,466.816889 846.057209,388.588694 C846.057209,201.08937 667.518171,48.5355208 448.180525,48.5355208 Z M529.770519,218.593141 C565.891999,218.593141 599.962055,232.489398 625.588907,257.657006 C651.306774,282.726851 665.442504,316.370627 665.442504,352.120231 C665.442504,387.66792 651.268445,421.18457 625.604775,446.388277 L479.44226,589.931167 C470.99391,598.2281 459.789791,602.781195 447.817068,602.781195 C436.053569,602.781195 424.475928,598.066747 416.189206,589.928543 L270.395225,446.56793 C244.731555,421.364223 230.557496,387.847573 230.557496,352.299884 C230.557496,316.597264 244.713778,283.073352 270.395225,257.852185 C295.980594,232.91283 329.995175,218.969466 366.04655,218.593141 C395.889021,218.593141 424.322232,228.017194 447.817769,245.576776 C471.30072,228.039355 499.890535,218.593141 529.770519,218.593141 Z M530.319314,268.761156 C507.63577,268.761156 486.232748,277.384509 470.134749,293.193988 L470.134749,293.193988 L464.097999,299.122543 C459.890568,303.254566 454.03675,305.590058 448.182932,305.590058 C442.146182,305.590058 436.475296,303.254566 432.267864,299.122543 L432.267864,299.122543 L426.414047,293.373642 C410.498979,277.564162 389.095958,268.940809 366.412413,268.940809 C343.728869,268.940809 322.508779,277.564162 306.41078,293.373642 C290.312781,309.003468 281.532054,330.02289 281.532054,352.299884 C281.532054,374.576879 290.312781,395.596301 306.41078,411.226127 L306.41078,411.226127 L448,550.277688 L590.320947,411.046474 C606.236015,395.236994 615.199673,374.397225 615.199673,352.120231 C615.199673,329.843237 606.418947,309.003468 590.320947,293.193988 C574.222948,277.384509 553.002858,268.761156 530.319314,268.761156 Z" id="Combined-Shape" fill="#333333"></path>
    </g>
</svg>