<?xml version="1.0" encoding="UTF-8"?>
<svg width="896px" height="896px" viewBox="0 0 896 896" version="1.1" xmlns="http://www.w3.org/2000/svg" xmlns:xlink="http://www.w3.org/1999/xlink">
    <title>0195刷新</title>
    <g id="0195刷新" stroke="none" stroke-width="1" fill="none" fill-rule="evenodd">
        <path d="M869.614185,478.838868 C886.472164,481.285242 898.135293,496.799527 895.664514,513.490993 C863.313912,732.037005 673.255499,896 447.999528,896 C222.774384,896 32.7333371,732.080993 0.346664616,513.572835 C-2.127231,496.881822 9.53300195,481.365403 26.3905238,478.915943 C43.2480457,476.466483 58.919256,488.011543 61.3931516,504.702556 C89.3500374,693.323589 253.498524,834.909091 447.999528,834.909091 C610.773948,834.909091 752.287992,735.74715 810.511606,592.844317 L729.850638,579.104036 C723.25019,577.97988 717.624094,573.682943 714.802512,567.611014 C710.063057,557.411901 714.488985,545.301799 724.688098,540.562344 L724.688098,540.562344 L852.564159,481.139254 L852.562784,481.165671 C857.731004,478.875424 863.596855,477.965653 869.614185,478.838868 Z M447.999528,0 C673.270022,0 863.336615,163.983719 895.67022,382.547565 C898.139531,399.239243 886.475037,414.752522 869.616843,417.197443 C852.758649,419.642364 837.09061,408.093084 834.621299,391.401406 C806.710219,202.732285 642.539692,61.0909091 447.999528,61.0909091 C285.232447,61.0909091 143.724727,160.243697 85.4959951,303.134713 L166.148418,316.873404 C172.748866,317.99756 178.374962,322.294497 181.196544,328.366426 C185.935999,338.565539 181.510071,350.675641 171.310958,355.415096 L171.310958,355.415096 L45.0780351,414.075718 C39.5270359,416.936961 33.0478637,418.157736 26.3826855,417.19099 C9.52452968,414.74581 -2.13972209,399.232353 0.329849993,382.540712 C32.666476,163.980036 222.731615,0 447.999528,0 Z" id="Combined-Shape" fill="#222222" fill-rule="nonzero"></path>
    </g>
</svg>