<?xml version="1.0" encoding="UTF-8"?>
<svg width="896px" height="896px" viewBox="0 0 896 896" version="1.1" xmlns="http://www.w3.org/2000/svg" xmlns:xlink="http://www.w3.org/1999/xlink">
    <title>062iOS-扶뒬못</title>
    <g id="062iOS-扶뒬못" stroke="none" stroke-width="1" fill="none" fill-rule="evenodd">
        <path d="M679.375529,425.642714 L470.861176,208.929302 C464.633098,202.424518 456.398902,198.446322 447.853961,198.550635 C439.343059,198.481459 430.521412,202.459655 424.293333,208.929302 L215.77898,425.642714 C212.354196,429.171812 210.312941,434.430322 209.136941,436.506714 C209.621176,436.540753 210.209725,438.92789 210.797176,438.92789 L241.831059,438.92789 L241.831059,439.13542 C242.21098,439.13542 242.522824,438.92789 242.903843,438.92789 C261.862588,438.92789 277.223059,454.288361 277.223059,473.248204 C277.223059,475.115969 276.462118,476.776204 276.150275,478.57589 L276.150275,644.950792 C276.150275,663.910635 291.545882,679.271106 310.505725,679.271106 L344.824941,679.271106 L344.824941,541.921773 C344.824941,504.004282 375.582118,473.248204 413.499608,473.248204 L482.174275,473.248204 C520.091765,473.248204 550.847843,503.970243 550.847843,541.921773 L550.847843,679.271106 L585.203294,679.271106 C604.162039,679.271106 619.52251,663.910635 619.52251,644.950792 L619.52251,473.248204 C619.52251,454.288361 634.884078,438.92789 653.876863,438.92789 L684.357333,438.92789 C684.944784,438.92789 685.498196,436.540753 686.017569,436.506714 C684.841569,434.430322 682.800314,429.171812 679.375529,425.642714 M447.982415,0 C695.018701,0 896,200.946377 896,447.982965 C896,695.019553 695.018701,896 447.982415,896 C200.94613,896 0,695.019553 0,447.982965 C0,200.946377 200.94613,0 447.982415,0 Z M447.982415,34.6283804 C220.026445,34.6283804 34.6283379,220.026715 34.6283379,447.982965 C34.6283379,675.905144 220.060516,861.372719 448.017585,861.372719 C675.938385,861.372719 861.405732,675.939215 861.405732,447.982965 C861.371662,220.026715 675.904315,34.6283804 447.982415,34.6283804 Z M447.577255,164.230322 C466.156078,164.230322 483.45349,171.6344 496.427922,185.091969 L704.942275,401.943733 C726.42651,424.328361 723.658353,443.668125 720.095216,451.762871 C717.708078,457.160831 709.473882,470.964282 688.058824,472.659655 C688.058824,472.867184 688.162039,473.040675 688.162039,473.282243 L653.842824,473.282243 L653.842824,644.985929 C653.842824,682.90342 623.086745,713.660596 585.168157,713.660596 L516.49349,713.660596 L516.49349,541.95691 C516.49349,522.998165 501.097882,507.636596 482.139137,507.636596 L413.464471,507.636596 C394.505725,507.636596 379.145255,522.998165 379.145255,541.95691 L379.145255,713.660596 L310.505725,713.660596 C272.587137,713.660596 241.831059,682.90342 241.831059,644.985929 L241.831059,507.636596 C241.831059,507.56742 241.865098,507.498243 241.865098,507.429067 L241.831059,507.429067 L241.831059,473.31738 L208.548392,473.31738 C208.548392,473.179027 208.617569,473.109851 208.617569,472.971498 C185.888157,471.96789 177.480471,457.368361 175.059294,451.832047 C171.496157,443.737302 168.728,424.397537 190.247373,402.01291 L398.761725,185.161145 C411.70102,171.6344 429.033569,164.230322 447.577255,164.230322 Z" id="Combined-Shape" fill="#333333"></path>
    </g>
</svg>