<?xml version="1.0" encoding="UTF-8"?>
<svg width="787px" height="896px" viewBox="0 0 787 896" version="1.1" xmlns="http://www.w3.org/2000/svg" xmlns:xlink="http://www.w3.org/1999/xlink">
    <title>0115个人中心</title>
    <g id="0115个人中心" stroke="none" stroke-width="1" fill="none" fill-rule="evenodd">
        <path d="M482.99551,490.956105 C650.6549,490.956105 787,625.199224 787,790.262225 L787,807.925794 C787,896 646.146616,896 482.99551,896 L304.00449,896 C134.151881,896 0,896 0,807.925794 L0,790.262225 C0,625.199224 136.3451,490.956105 304.00449,490.956105 L482.99551,490.956105 Z M483.004061,537.50586 L300.723213,537.50586 C159.747985,537.50586 46.6668216,653.217298 46.6668216,791.60222 L46.6668216,809.509423 C46.6668216,845.323831 196.049388,849.399377 304.00449,849.399377 L486.285338,849.399377 C575.598079,849.399377 740.455024,845.323831 740.455024,809.509423 L740.455024,791.60222 C740.455024,653.217298 624.101136,537.50586 483.004061,537.50586 Z M386.595883,0 C515.475649,0 619.953343,104.453879 619.953343,233.304268 C619.953343,362.154657 515.475649,466.608536 386.595883,466.608536 C257.716116,466.608536 153.238422,362.154657 153.238422,233.304268 C153.238422,104.453879 257.716116,0 386.595883,0 Z M386.595883,44.6515345 C282.3821,44.6515345 197.900137,129.11424 197.900137,233.304268 C197.900137,337.494296 282.3821,421.957001 386.595883,421.957001 C490.809665,421.957001 575.291628,337.494296 575.291628,233.304268 C575.291628,129.11424 490.809665,44.6515345 386.595883,44.6515345 Z" id="Combined-Shape" fill="#333333" fill-rule="nonzero"></path>
    </g>
</svg>