<?xml version="1.0" encoding="UTF-8"?>
<svg width="896px" height="896px" viewBox="0 0 896 896" version="1.1" xmlns="http://www.w3.org/2000/svg" xmlns:xlink="http://www.w3.org/1999/xlink">
    <title>0244清单</title>
    <g id="0244清单" stroke="none" stroke-width="1" fill="none" fill-rule="evenodd">
        <path d="M448,0 C695.423568,-4.54509721e-14 896,200.576432 896,448 C896,695.423568 695.423568,896 448,896 C200.576432,896 -1.97073027e-13,695.423568 0,448 C-3.0300648e-14,200.576432 200.576432,4.54509721e-14 448,0 Z M560.608822,186.666667 L329.663085,186.666667 L327.971589,186.680233 C272.259304,187.574489 227.262352,232.565849 226.359097,288.275947 L226.359097,288.275947 L226.345256,289.984496 L226.345256,606.015504 L226.358822,607.707 C227.253079,663.419285 272.244438,708.416237 327.954536,709.319492 L327.954536,709.319492 L329.663085,709.333333 L470.495879,709.333333 L471.300854,709.32849 C481.223275,709.209089 490.932404,706.883994 499.750301,702.592795 C473.255686,681.391598 446.372297,636.260256 460.188499,581.21467 C474.0047,526.169083 522.377957,501.487244 543.96369,496.428482 C565.333565,491.420309 611.44587,486.469395 652.740633,521.685459 L652.740633,521.685459 L653.990484,522.764948 L653.990484,287.197744 L653.97982,285.507061 C653.276476,229.848321 617.831687,187.528853 562.31441,186.679678 L562.31441,186.679678 L560.608822,186.666667 Z M574.878614,516.111023 C522.535202,516.111023 480.102483,558.543742 480.102483,610.887154 C480.102483,663.230565 522.535202,705.663284 574.878614,705.663284 C627.222025,705.663284 669.654744,663.230565 669.654744,610.887154 C669.654744,558.543742 627.222025,516.111023 574.878614,516.111023 Z M575.902008,564.075395 C580.323349,564.075395 583.924297,566.853967 584.066566,570.324101 L584.066566,570.324101 L584.070932,570.537404 L584.070545,604.424395 L617.958673,604.425145 L618.171976,604.429511 C621.571291,604.568877 624.306983,608.027191 624.417228,612.324422 L624.417228,612.324422 L624.420682,612.594069 L624.417228,612.863716 C624.306983,617.160947 621.571291,620.619261 618.171976,620.758627 L618.171976,620.758627 L617.958673,620.762994 L584.070545,620.762395 L584.070932,656.697523 L584.066566,656.910827 C583.9272,660.310141 580.468886,663.045833 576.171655,663.156078 L576.171655,663.156078 L575.902008,663.159532 L575.632361,663.156078 C571.33513,663.045833 567.876816,660.310141 567.73745,656.910827 L567.73745,656.910827 L567.733084,656.697523 L567.732545,620.762395 L531.798554,620.762994 L531.585251,620.758627 C528.185936,620.619261 525.450244,617.160947 525.339999,612.863716 L525.339999,612.863716 L525.336545,612.594069 L525.339999,612.324422 C525.450244,608.027191 528.185936,604.568877 531.585251,604.429511 L531.585251,604.429511 L531.798554,604.425145 L567.732545,604.424395 L567.733084,570.537404 L567.73745,570.324101 C567.876816,566.924786 571.33513,564.189095 575.632361,564.07885 L575.632361,564.07885 Z M475.52355,429.767442 L476.594852,429.798393 L476.927909,429.820723 C486.341266,430.537769 493.756109,438.40297 493.756109,448 C493.756109,458.069564 485.593114,466.232558 475.52355,466.232558 L475.52355,466.232558 L329.663085,466.232558 L328.591784,466.201607 L328.258727,466.179277 C318.845369,465.462231 311.430527,457.59703 311.430527,448 C311.430527,438.04232 319.413129,429.949077 329.328148,429.770457 L329.328148,429.770457 L329.663085,429.767442 L475.52355,429.767442 Z M536.298744,320.372093 L537.370045,320.403044 L537.703103,320.425375 C547.11646,321.14242 554.531302,329.007621 554.531302,338.604651 C554.531302,348.674215 546.368308,356.837209 536.298744,356.837209 L536.298744,356.837209 L329.663085,356.837209 L328.591784,356.806258 L328.258727,356.783928 C318.845369,356.066883 311.430527,348.201681 311.430527,338.604651 C311.430527,328.646971 319.413129,320.553728 329.328148,320.375108 L329.328148,320.375108 L329.663085,320.372093 L536.298744,320.372093 Z" id="形状结合" fill="#000000" fill-rule="nonzero"></path>
    </g>
</svg>