<?xml version="1.0" encoding="UTF-8"?>
<svg width="728px" height="896px" viewBox="0 0 728 896" version="1.1" xmlns="http://www.w3.org/2000/svg" xmlns:xlink="http://www.w3.org/1999/xlink">
    <title>0153设备信息</title>
    <g id="0153设备信息" stroke="none" stroke-width="1" fill="none" fill-rule="evenodd">
        <path d="M323.555556,788.748492 C308.664322,788.748492 296.592593,776.592345 296.592593,761.596977 C296.592593,746.601609 308.664322,734.445462 323.555556,734.445462 L404.444444,734.445462 C419.335678,734.445462 431.407407,746.601609 431.407407,761.596977 C431.407407,776.592345 419.335678,788.748492 404.444444,788.748492 L323.555556,788.748492 Z M80.8888889,814.545455 L647.111111,814.545455 L647.111111,81.4545455 L80.8888889,81.4545455 L80.8888889,814.545455 Z M67.4074074,0 L660.592593,0 C697.820676,0 728,30.3903685 728,67.8787879 L728,828.121212 C728,865.609632 697.820676,896 660.592593,896 L67.4074074,896 C30.1793243,896 0,865.609632 0,828.121212 L0,67.8787879 C0,30.3903685 30.1793243,0 67.4074074,0 Z M40.4444444,705.939394 C18.1075946,705.939394 0,687.705173 0,665.212121 C0,642.71907 18.1075946,624.484848 40.4444444,624.484848 L660.592593,624.484848 C682.929442,624.484848 701.037037,642.71907 701.037037,665.212121 C701.037037,687.705173 682.929442,705.939394 660.592593,705.939394 L40.4444444,705.939394 Z" id="shebeixinxi" fill="#333333" fill-rule="nonzero"></path>
    </g>
</svg>