<?xml version="1.0" encoding="UTF-8"?>
<svg width="832px" height="896px" viewBox="0 0 832 896" version="1.1" xmlns="http://www.w3.org/2000/svg" xmlns:xlink="http://www.w3.org/1999/xlink">
    <title>0142超级会员</title>
    <g id="0142超级会员" stroke="none" stroke-width="1" fill="none" fill-rule="evenodd">
        <path d="M703.485114,556.344214 C742.976672,499.181009 766.069184,430.053412 766.069184,355.608308 C766.069184,159.525222 605.425583,0 407.96782,0 C210.510056,0 49.8664515,159.525222 49.8664524,355.608308 C49.8664524,434.373887 75.6363642,507.15727 119.47868,565.982196 L0,752.759642 L133.200322,785.661722 L220.884956,890.35015 L339.694287,704.569734 C361.782783,708.890208 384.540627,711.216614 407.633146,711.216614 C435.076428,711.216614 461.515688,707.893178 487.285599,702.243322 L611.115044,896 L698.79968,791.311571 L832,758.409498 L703.485114,556.344214 Z M124.800212,365.292518 C124.800212,213.408044 249.004711,89.6002106 402.133544,89.6002106 C555.262378,89.6002106 679.46688,213.069772 679.46688,365.292518 C679.46688,517.515263 554.922093,640.984826 402.133544,640.984826 C249.344996,640.984826 124.800212,517.515264 124.800212,365.292518 Z M504.871492,309.392654 C510.299424,297.036963 514.987114,289.280452 518.9347,286.122886 C521.155218,284.338176 526.027948,282.965342 533.553036,282.004344 C544.162176,280.494204 549.466667,274.65966 549.466667,264.500536 C549.466667,255.988838 545.426619,249.982691 537.346401,246.481912 C529.266184,242.981132 515.418996,241.230769 495.804423,241.230769 C456.451914,241.230769 436.775955,249.399131 436.775955,265.736099 C436.775955,271.502088 439.983322,276.238365 446.39815,279.945072 C452.196169,283.239923 455.095135,287.221141 455.095135,291.888847 C455.095135,294.2227 454.293293,297.551821 452.689586,301.876313 C451.085878,306.200804 445.411308,320.306673 435.665702,344.194341 C430.23777,357.51103 425.920161,366.43445 422.712746,370.96487 C419.505332,375.49529 415.866205,377.760466 411.795255,377.760466 C407.600944,377.760466 403.838456,373.50468 400.50768,364.992982 L377.377402,306.921528 C375.156884,301.292825 374.046643,296.968398 374.046643,293.948118 C374.046643,290.653267 376.513848,287.152541 381.448332,283.445834 C387.86316,278.503558 391.070527,273.149505 391.070527,267.383517 C391.070527,258.459962 385.149235,251.87036 373.306474,247.614511 C361.463713,243.358662 342.959676,241.230769 317.793808,241.230769 C293.614837,241.230769 275.04912,244.0794 262.0961,249.776746 C249.14308,255.474092 242.666667,263.608132 242.666667,274.179112 C242.666667,282.828095 246.367474,287.907581 253.7692,289.417721 C260.060667,290.65329 264.902556,293.158712 268.295014,296.934061 C271.687472,300.709411 275.480799,307.813827 279.67511,318.247521 L355.357379,503.787878 C358.441431,511.475863 361.001156,516.795594 363.03663,519.747231 C365.072105,522.698868 367.87855,525.272932 371.456051,527.4695 C376.143811,530.352493 381.448301,531.793969 387.369683,531.793969 C394.524684,531.793969 400.445976,529.563114 405.133736,525.101337 C409.821495,520.63956 414.755905,512.505519 419.937113,500.69897 L504.871492,309.392654 Z" id="Shape" fill="#333333" fill-rule="nonzero"></path>
    </g>
</svg>