<?xml version="1.0" encoding="UTF-8"?>
<svg width="896px" height="896px" viewBox="0 0 896 896" version="1.1" xmlns="http://www.w3.org/2000/svg" xmlns:xlink="http://www.w3.org/1999/xlink">
    <title>0156登录返回</title>
    <g id="0156登录返回" stroke="none" stroke-width="1" fill="none" fill-rule="evenodd">
        <path d="M418.057121,19.6960131 C445.34467,-6.51523842 489.445364,-6.65083592 516.98465,19.8022223 C544.333266,46.0721314 543.885918,89.0937729 517.09522,114.82777 L517.09522,114.82777 L236.869,384 L832,384 C867.346224,384 896,412.653776 896,448 C896,483.346224 867.346224,512 832,512 L236.613,512 L517.09522,781.419695 C544.109895,807.368834 544.518398,849.146574 517.802525,875.64691 L516.98465,876.445242 C489.636034,902.715151 444.847818,902.285448 418.057121,876.551451 L418.057121,876.551451 L31.2757121,505.025796 C27.5193521,502.603323 23.9462143,499.792797 20.61535,496.593312 C9.07307337,485.506295 2.48180887,471.435463 0.732357498,456.939696 C-2.34034432,436.711756 4.24996084,415.374044 20.61535,399.654152 C23.8893953,396.509245 27.4133802,393.746989 31.1265044,391.364991 L31.1265044,391.364991 Z" id="Combined-Shape" fill="#333333"></path>
    </g>
</svg>