<?xml version="1.0" encoding="UTF-8"?>
<svg width="479px" height="896px" viewBox="0 0 479 896" version="1.1" xmlns="http://www.w3.org/2000/svg" xmlns:xlink="http://www.w3.org/1999/xlink">
    <title>0125手电筒-开</title>
    <g id="0125手电筒-开" stroke="none" stroke-width="1" fill="none" fill-rule="evenodd">
        <path d="M436.102113,199.570248 C459.755351,199.570248 479,218.806155 479,242.466002 L479,314.760621 C479,439.431253 410.866462,514.461424 380.58436,540.574633 L380.58436,852.718017 C380.58436,876.577778 361.243828,896 337.387262,896 L180.642654,896 C156.788809,896 138.332307,876.577098 138.332307,852.718017 L138.332307,540.604552 C108.050205,514.616459 39.9166667,440.177189 39.9166667,314.760621 L39.9166667,242.466002 C39.9166667,218.806155 59.1613161,199.570248 82.8145538,199.570248 L436.102113,199.570248 Z M326.182525,786.05158 L192.734822,786.05158 L192.734822,847.249632 L326.182525,847.249632 L326.182525,786.05158 Z M428.084642,359.025172 L90.7837426,359.025172 C107.034931,453.465326 178.870515,509.150113 179.685182,509.707695 C188.307873,515.613988 187.139593,523.315422 187.139593,533.491299 L187.139593,752.525247 L331.781833,752.525247 L331.781833,533.492658 C331.781833,523.359621 330.096056,515.692185 338.658226,509.777733 C341.897175,507.490966 411.882416,453.464646 428.084642,359.025172 Z M259.458673,569.364916 C270.453964,569.364916 279.369065,579.160005 279.369065,591.24118 L279.369065,646.636297 C279.369065,658.718152 270.453964,668.512561 259.458673,668.512561 C248.463382,668.512561 239.548282,658.717472 239.548282,646.636297 L239.548282,591.24118 C239.548282,579.160005 248.463382,569.364916 259.458673,569.364916 Z M428.185966,246.488754 L90.7313812,246.488754 L90.7313812,317.91912 L428.185966,317.91912 L428.185966,246.488754 Z M467.459926,3.36645038 C477.196132,10.4706631 481.318367,22.9915191 477.706618,34.4896963 L429.847636,103.669585 C427.69794,109.62676 422.94205,114.273991 416.936532,116.285708 C410.931014,118.297424 404.335217,117.452758 399.030521,113.992642 C393.107165,111.708504 388.52032,106.888696 386.532442,100.859791 C384.544564,94.8308862 385.365177,88.2283398 388.768422,82.8693958 L436.642811,13.6895071 C438.792507,7.73233226 443.548398,3.08510029 449.553916,1.0733837 C455.559434,-0.938332896 462.15523,-0.0936667137 467.459926,3.36645038 Z M31.0321399,1.1391778 C36.9601378,3.15456494 41.7082598,7.66456504 44.0254718,13.4808843 L91.8998606,82.660773 C95.0325021,88.0776602 95.7048626,94.5737449 93.7480581,100.517333 C91.7912535,106.460921 87.3912223,111.287244 81.6531695,113.78402 C76.2695362,116.977167 69.7583605,117.65554 63.8320597,115.64073 C57.9057589,113.62592 53.1574984,109.119589 50.8360545,103.306887 L2.94625631,34.1269986 C-0.185490878,28.7081365 -0.855631962,22.210392 1.10422212,16.2664795 C3.06407621,10.322567 7.46761953,5.49752151 13.2083559,3.00375183 C18.5908395,-0.194842547 25.104142,-0.876209349 31.0321399,1.1391778 Z M272.393419,6.96351664 C276.917091,11.5364079 279.365226,17.7656119 279.165406,24.1946353 L279.165406,89.9848634 C279.386072,98.6810242 274.872545,106.812723 267.375582,111.22575 C259.878618,115.638777 250.577805,115.638777 243.080841,111.22575 C235.583878,106.812723 231.070351,98.6810242 231.291017,89.9848634 L231.291017,24.1946353 C231.095513,17.764156 233.54718,11.5351052 238.073255,6.96272991 C242.59933,2.39035462 248.80335,-0.124828004 255.235916,0.0047855269 C261.667155,-0.12501837 267.869746,2.39062533 272.393419,6.96351664 Z" id="Combined-Shape" fill="#333333" fill-rule="nonzero"></path>
    </g>
</svg>