<?xml version="1.0" encoding="UTF-8"?>
<svg width="807px" height="892px" viewBox="0 0 807 892" version="1.1" xmlns="http://www.w3.org/2000/svg" xmlns:xlink="http://www.w3.org/1999/xlink">
    <title>0202取消订单</title>
    <g id="0202取消订单" stroke="none" stroke-width="1" fill="none" fill-rule="evenodd">
        <g id="取消订单" fill="#333333" fill-rule="nonzero">
            <path d="M790.110545,643.489455 C804.544321,657.923231 805.747139,680.577677 793.718988,696.381567 L790.110545,700.510545 L729.0304,761.6 L790.110545,822.689455 C805.856486,838.435396 805.856486,863.964604 790.110545,879.710545 C775.676769,894.144321 753.022323,895.347139 737.218433,883.318988 L733.089455,879.710545 L672,818.6304 L610.910545,879.710545 C595.164604,895.456486 569.635396,895.456486 553.889455,879.710545 C539.455679,865.276769 538.252861,842.622323 550.281012,826.818433 L553.889455,822.689455 L614.9696,761.6 L553.889455,700.510545 C538.143514,684.764604 538.143514,659.235396 553.889455,643.489455 C568.323231,629.055679 590.977677,627.852861 606.781567,639.881012 L610.910545,643.489455 L672,704.5696 L733.089455,643.489455 C748.835396,627.743514 774.364604,627.743514 790.110545,643.489455 Z M606.791109,0 C713.882315,0 801.27622,84.3341574 806.182738,190.21238 L806.4,199.608889 L806.4,524.16 C806.4,546.428122 788.348122,564.48 766.08,564.48 C745.52481,564.48 728.562159,549.098516 726.074151,529.217656 L725.76,524.16 L725.76,199.608889 C725.76,136.43129 676.514268,84.7556483 614.314893,80.8740567 L606.791109,80.64 L199.608889,80.64 C136.43129,80.64 84.7556483,129.885734 80.8740567,192.085109 L80.64,199.608889 L80.64,647.111109 C80.64,710.28871 129.885734,761.964354 192.085109,765.845942 L199.608889,766.08 L433.066667,766.08 C455.334786,766.08 473.386668,784.131878 473.386668,806.4 C473.386668,826.95519 458.005184,843.917841 438.124322,846.405849 L433.066667,846.72 L199.608889,846.72 C92.5176851,846.72 5.12377882,762.385841 0.217262721,656.507618 L0,647.111109 L0,199.608889 C0,92.5176851 84.3341574,5.12377882 190.21238,0.217262721 L199.608889,0 L606.791109,0 Z M448,474.88 C470.268122,474.88 488.32,492.931878 488.32,515.2 C488.32,535.75519 472.938516,552.717841 453.057656,555.205849 L448,555.52 L224,555.52 C201.731879,555.52 183.68,537.468122 183.68,515.2 C183.68,494.64481 199.061483,477.682159 218.942345,475.194151 L224,474.88 L448,474.88 Z M582.4,250.88 C604.668122,250.88 622.72,268.931879 622.72,291.2 C622.72,311.755189 607.338516,328.71784 587.457656,331.20585 L582.4,331.52 L224,331.52 C201.731879,331.52 183.68,313.468121 183.68,291.2 C183.68,270.644811 199.061483,253.68216 218.942345,251.19415 L224,250.88 L582.4,250.88 Z" id="Path"></path>
        </g>
    </g>
</svg>