<?xml version="1.0" encoding="UTF-8"?>
<svg width="896px" height="896px" viewBox="0 0 896 896" version="1.1" xmlns="http://www.w3.org/2000/svg" xmlns:xlink="http://www.w3.org/1999/xlink">
    <title>082md-cart</title>
    <g id="082md-cart" stroke="none" stroke-width="1" fill="none" fill-rule="evenodd">
        <path d="M179.201194,806.396418 C179.201194,855.681373 219.519821,896 268.798806,896 C318.077791,896 358.396418,855.681373 358.396418,806.396418 C358.396418,757.117433 318.077791,716.798806 268.798806,716.798806 C219.519821,716.798806 179.201194,757.117433 179.201194,806.396418 Z M0,0 L0,89.5976122 L89.5976122,89.5976122 L250.87809,430.079284 L188.161552,537.597612 C183.678388,551.041134 179.201194,568.961851 179.201194,582.399403 C179.201194,631.678388 219.519821,671.997015 268.798806,671.997015 L806.402388,671.997015 L806.402388,582.399403 L286.719522,582.399403 C282.236359,582.399403 277.759164,577.922209 277.759164,573.439045 L277.759164,568.961851 L318.077791,492.801791 L649.599105,492.801791 C685.440537,492.801791 712.315642,474.881075 725.759164,448 L887.039642,156.797314 C896,147.836956 896,143.359761 896,134.399403 C896,107.518329 878.079284,89.5976122 851.198209,89.5976122 L188.155583,89.5976122 L147.836956,0 L0,0 Z M627.201194,806.396418 C627.201194,855.681373 667.519821,896 716.798806,896 C766.077791,896 806.402388,855.681373 806.402388,806.396418 C806.396418,757.117433 766.077791,716.798806 716.798806,716.798806 C667.519821,716.798806 627.201194,757.117433 627.201194,806.396418 Z" id="md-cart" fill="#333333"></path>
    </g>
</svg>