<?xml version="1.0" encoding="UTF-8"?>
<svg width="896px" height="854px" viewBox="0 0 896 854" version="1.1" xmlns="http://www.w3.org/2000/svg" xmlns:xlink="http://www.w3.org/1999/xlink">
    <title>099星-空心</title>
    <g id="099星-空心" stroke="none" stroke-width="1" fill="none" fill-rule="evenodd">
        <path d="M888.939433,350.055547 C897.286014,341.298967 898.501123,327.594908 891.142894,317.452576 C887.112759,311.894679 881.252517,308.481835 874.990291,307.351473 L874.959369,307.255272 L595.781834,266.469491 L595.352365,265.887704 L595.585995,266.601195 L595.140493,266.414519 L594.918315,266.164854 L469.749388,13.3715838 L469.681818,13.3727287 C463.910905,2.74137566 451.243297,-2.6229751 439.331554,1.26514837 C432.802485,3.39531346 427.75766,7.92477627 424.757105,13.5364997 L424.654033,13.5364997 L300.26044,266.412229 L300.26044,266.413374 L298.541419,267.013484 L20.9477638,307.350327 L20.9260039,307.415606 C9.02914908,309.603033 0,319.982431 0,332.512609 C0,339.378382 2.73943696,345.581054 7.14521287,350.173506 L7.1131454,350.269707 L209.090539,547.148449 L209.091684,547.535543 L161.126333,824.829142 L161.18016,824.869226 C159.567648,836.8577 166.631549,848.662935 178.543291,852.552203 C185.068924,854.682368 191.817881,854.003234 197.549856,851.242037 L197.631169,851.30159 L447.549864,720.365184 L448.237014,720.585072 L447.691875,720.187671 L447.701036,720.18538 L448.511873,720.381217 L697.736547,851.652036 L697.790373,851.611952 C708.696586,856.844598 722.107462,853.763876 729.479434,843.632997 C733.51873,838.081972 734.952583,831.454411 734.094791,825.148666 L734.174958,825.089113 L686.696339,546.97666 L888.961193,350.119681 L888.939433,350.055547 Z M630.188573,528.101801 L673.199574,778.864545 L447.99995,660.469769 L222.801471,778.864545 L265.809036,528.101801 L83.6204127,350.51021 L335.398992,313.924061 L447.999949,85.7731293 L560.59747,313.924061 L812.379486,350.51021 L630.188573,528.101801 Z" id="Shape" fill="#333333"></path>
    </g>
</svg>