<?xml version="1.0" encoding="UTF-8"?>
<svg width="534px" height="896px" viewBox="0 0 534 896" version="1.1" xmlns="http://www.w3.org/2000/svg" xmlns:xlink="http://www.w3.org/1999/xlink">
    <title>0254上滑</title>
    <g id="0254上滑" stroke="none" stroke-width="1" fill="none" fill-rule="evenodd">
        <path d="M345.138367,890.371331 C366.468582,878.450473 374.099501,851.489552 362.182503,830.152429 C238.27375,608.296538 241.589243,374.745369 373.433414,124.244135 L463.396767,371.774864 C469.927611,389.755918 490.582856,399.375327 509.550983,393.172336 C528.51911,386.969346 538.524751,367.352398 532.011904,349.336219 L413.583406,23.2728126 C407.015579,5.27461368 386.37932,-4.29252533 367.427397,1.86947179 L24.4634635,114.032607 C5.49533658,120.235597 -4.54728712,139.8354 2.00254168,157.868724 C8.53338546,175.849777 29.1886303,185.469187 48.1567572,179.266196 L285.570348,101.586437 C149.672955,371.143045 149.0559,630.026047 284.938962,873.321675 C296.855961,894.658798 323.808152,902.292189 345.138367,890.371331 Z" id="Path" fill="#333333" fill-rule="nonzero"></path>
    </g>
</svg>