<?xml version="1.0" encoding="UTF-8"?>
<svg width="806px" height="896px" viewBox="0 0 806 896" version="1.1" xmlns="http://www.w3.org/2000/svg" xmlns:xlink="http://www.w3.org/1999/xlink">
    <title>0216查看退款</title>
    <g id="0216查看退款" stroke="none" stroke-width="1" fill="none" fill-rule="evenodd">
        <g id="查看退款" fill="#333333" fill-rule="nonzero">
            <path d="M765.792612,514.798727 C780.957536,528.453932 783.348193,551.013846 772.17285,567.428076 L768.788087,571.741005 L709.227667,637.952 L765.7,637.952 C787.957075,637.952 806,656.003879 806,678.272 C806,698.827189 790.626147,715.78984 770.755146,718.27785 L765.7,718.592 L698.532667,718.592 L698.532667,748.159 L743.311111,748.16 C765.568187,748.16 783.611111,766.211879 783.611111,788.48 C783.611111,809.035189 768.237258,825.99784 748.366257,828.48585 L743.311111,828.8 L698.532667,828.8 L698.533333,855.68 C698.533333,877.948121 680.490409,896 658.233333,896 C637.688341,896 620.734104,880.618517 618.247328,860.737655 L617.933333,855.68 L617.932667,828.8 L573.155556,828.8 C550.89848,828.8 532.855556,810.748121 532.855556,788.48 C532.855556,767.924811 548.229408,750.96216 568.100409,748.47415 L573.155556,748.16 L617.932667,748.159 L617.932667,718.592 L550.766667,718.592 C528.509591,718.592 510.466667,700.540121 510.466667,678.272 C510.466667,657.716811 525.84052,640.75416 545.71152,638.26615 L550.766667,637.952 L607.237667,637.952 L547.678579,571.741005 C532.789381,555.189241 534.130501,529.695314 550.674055,514.798727 C565.838979,501.143521 588.514076,501.13306 603.656421,513.975217 L607.588087,517.795689 L658.233333,574.112347 L708.878579,517.795689 C723.767778,501.243925 749.249058,499.902139 765.792612,514.798727 Z M606.490123,0 C713.528207,0 800.878763,84.3341574 805.782845,190.21238 L806,199.608889 L806,383.04 C806,405.308121 787.957075,423.36 765.7,423.36 C745.155007,423.36 728.20077,407.978517 725.713994,388.097655 L725.4,383.04 L725.4,199.608889 C725.4,136.43129 676.178693,84.7556482 614.010171,80.8740568 L606.490123,80.64 L199.509877,80.64 C136.363616,80.64 84.7136067,129.885734 80.8339407,192.085109 L80.6,199.608889 L80.6,647.111111 C80.6,710.28871 129.821307,761.964352 191.989829,765.845943 L199.509877,766.08 L407.477778,766.08 C429.734853,766.08 447.777778,784.131879 447.777778,806.4 C447.777778,826.955189 432.403925,843.91784 412.532924,846.40585 L407.477778,846.72 L199.509877,846.72 C92.4717932,846.72 5.12123726,762.385843 0.217154951,656.50762 L0,647.111111 L0,199.608889 C0,92.5176849 84.292325,5.12377882 190.118029,0.21726272 L199.509877,0 L606.490123,0 Z M516.925027,236.68101 L521.051959,240.289455 L610.607514,329.889455 C634.841117,354.135084 619.559566,394.809038 586.893556,398.456576 L582.111111,398.72 L223.888889,398.72 C201.631813,398.72 183.588889,380.668121 183.588889,358.4 C183.588889,337.844811 198.962742,320.88216 218.833743,318.39415 L223.888889,318.08 L484.809,318.08 L464.059152,297.310545 C449.632534,282.876768 448.430316,260.222323 460.452498,244.418434 L464.059152,240.289455 C478.48577,225.855677 501.128977,224.652862 516.925027,236.68101 Z" id="Combined-Shape"></path>
        </g>
    </g>
</svg>