<?xml version="1.0" encoding="UTF-8"?>
<svg width="896px" height="706px" viewBox="0 0 896 706" version="1.1" xmlns="http://www.w3.org/2000/svg" xmlns:xlink="http://www.w3.org/1999/xlink">
    <title>0157人脸拍照</title>
    <g id="0157人脸拍照" stroke="none" stroke-width="1" fill="none" fill-rule="evenodd">
        <path d="M584.300606,0 C631.32703,0 662.171152,51.8095385 680.96,102.044154 L816.283152,102.044154 C860.268606,102.044154 896,139.516462 896,185.569385 L896,622.474769 C896,668.527692 860.268606,706 816.283152,706 L79.7168485,706 C35.7313939,706 0,668.527692 0,622.474769 L0,185.569385 C0,139.516462 35.7313939,102.044154 79.7168485,102.044154 L214.985697,102.044154 C235.349333,51.9724615 267.279515,0 311.699394,0 L584.300606,0 Z M584.300606,54.3076923 L311.699394,54.3076923 C303.988364,54.3076923 280.692364,79.0176923 259.134061,138.430308 C255.247316,149.181804 245.043241,156.346982 233.611636,156.351846 L79.7168485,156.351846 C65.7066667,156.351846 54.3030303,169.44 54.3030303,185.569385 L54.3030303,622.474769 C54.3030303,638.604154 65.7066667,651.692308 79.7168485,651.692308 L816.283152,651.692308 C830.293333,651.692308 841.69697,638.604154 841.69697,622.474769 L841.69697,185.569385 C841.69697,169.44 830.293333,156.351846 816.283152,156.351846 L661.628121,156.351846 C649.848532,156.359075 639.407991,148.76929 635.779879,137.561385 C617.208242,80.1581538 594.509576,54.3076923 584.300606,54.3076923 Z M448,190.076923 C545.30198,190.076923 624.484848,269.26659 624.484848,366.576923 C624.484848,463.887256 545.30198,543.076923 448,543.076923 C350.69802,543.076923 271.515152,463.887256 271.515152,366.576923 C271.515152,269.26659 350.69802,190.076923 448,190.076923 Z M448,248.910256 C383.112404,248.910256 330.343434,301.683756 330.343434,366.576923 C330.343434,431.47009 383.112404,484.24359 448,484.24359 C512.887596,484.24359 565.656566,431.47009 565.656566,366.576923 C565.656566,301.683756 512.887596,248.910256 448,248.910256 Z" id="Combined-Shape" fill="#333333" fill-rule="nonzero"></path>
    </g>
</svg>