<?xml version="1.0" encoding="UTF-8"?>
<svg width="876px" height="896px" viewBox="0 0 876 896" version="1.1" xmlns="http://www.w3.org/2000/svg" xmlns:xlink="http://www.w3.org/1999/xlink">
    <title>0182待支付-会员中心</title>
    <g id="0182待支付-会员中心" stroke="none" stroke-width="1" fill="none" fill-rule="evenodd">
        <path d="M697.72312,3.65406411 C703.791042,-0.310896614 711.400815,-1.09968026 718.152964,1.53642834 C729.694294,6.0422822 735.397674,19.0510947 730.89182,30.5924242 L730.89182,30.5924242 L717.120211,65.8671304 C707.278571,91.0755861 682.985921,107.669848 655.924433,107.669848 L655.924433,107.669848 L98.55,107.669848 C80.407446,107.669848 65.7,122.375991 65.7,140.516938 C65.7,158.657884 80.407446,173.364027 98.55,173.364027 L98.55,173.364027 L722.713582,173.364027 C807.371333,173.364027 876,241.992695 876,326.650446 L876,414.242685 L656.989329,414.242685 C590.472524,414.242685 536.55,468.165209 536.55,534.682014 C536.55,600.53365 589.399466,654.041633 654.997644,655.105207 L656.989329,655.121342 L876,655.121342 L876,742.713582 C876,827.371333 807.371333,896 722.713582,896 L153.286418,896 C68.6286672,896 2.87153533e-14,827.371333 0,742.713582 L0,140.516938 L0.0132028844,138.887378 C0.883477291,85.2161409 44.6666145,41.9756687 98.55,41.9756687 L98.55,41.9756687 L619.51582,41.9756687 C632.279234,41.9756687 644.766247,38.2576608 655.450874,31.2760076 L655.450874,31.2760076 Z M657,468.987834 C693.285108,468.987834 722.7,498.40012 722.7,534.682014 C722.7,570.963907 693.285108,600.376193 657,600.376193 C620.714892,600.376193 591.3,570.963907 591.3,534.682014 C591.3,498.40012 620.714892,468.987834 657,468.987834 Z" id="Combined-Shape" fill="#333333"></path>
    </g>
</svg>