<?xml version="1.0" encoding="UTF-8"?>
<svg width="896px" height="896px" viewBox="0 0 896 896" version="1.1" xmlns="http://www.w3.org/2000/svg" xmlns:xlink="http://www.w3.org/1999/xlink">
    <title>0150md-礼品卡</title>
    <g id="0150md-礼品卡" stroke="none" stroke-width="1" fill="none" fill-rule="evenodd">
        <path d="M448,0 C695.423568,0 896,200.576432 896,448 C896,695.423568 695.423568,896 448,896 C200.576432,896 0,695.423568 0,448 C0,200.576432 200.576432,0 448,0 Z M421.974688,308.392476 L231.998455,308.392476 L231.998455,350.575949 L359.982294,350.575949 C331.985383,417.554555 284.64803,473.108755 218,517.300738 L218,517.300738 L218,557.475703 C252.65207,541.405837 281.991919,524.677031 305.989186,507.257595 L305.989186,507.257595 L305.989186,678 L365.981461,678 L365.981461,495.205345 C387.291663,512.624183 413.9754,529.353587 445.97136,545.423453 L445.97136,545.423453 L445.97136,505.248488 C416.632107,483.842529 393.978372,460.396968 377.980392,434.942897 C395.290355,410.837799 409.976352,382.715682 421.974688,350.575949 L421.974688,350.575949 L421.974688,308.392476 Z M541.958644,222.017616 L475.967201,222.017616 L475.967201,605.685901 C475.967201,644.511295 496.622007,663.939241 537.959596,663.939241 L537.959596,663.939241 L615.94878,663.939241 C658.600734,665.257717 679.253753,647.179342 677.941175,609.703517 L677.941175,609.703517 L677.941175,573.546167 L627.947711,573.546167 L627.947711,599.659177 C629.26029,617.078613 620.605606,625.113846 601.95092,623.764276 L601.95092,623.764276 L567.955436,623.764276 C550.614519,623.764276 541.958644,614.411165 541.958644,595.642159 L541.958644,595.642159 L541.958644,222.017616 Z M343.984314,218 L289.991207,218 C301.989543,246.122715 309.301289,272.235724 311.988354,296.340823 L311.988354,296.340823 L369.981105,296.340823 C365.981462,269.567678 357.295228,243.454071 343.984314,218 L343.984314,218 Z" id="Combined-Shape" fill="#333333"></path>
    </g>
</svg>