<?xml version="1.0" encoding="UTF-8"?>
<svg width="802px" height="896px" viewBox="0 0 802 896" version="1.1" xmlns="http://www.w3.org/2000/svg" xmlns:xlink="http://www.w3.org/1999/xlink">
    <title>0154通知</title>
    <g id="0154通知" stroke="none" stroke-width="1" fill="none" fill-rule="evenodd">
        <path d="M513.607182,793.6 C513.607182,849.92 461.775799,896 398.426331,896 C335.076863,896 283.24548,849.92 283.24548,793.6 L283.24548,793.6 Z M403.301711,0 C436.622611,-6.12095005e-15 463.634538,27.0119266 463.634538,60.3328267 L463.634538,70.2271733 C463.634538,83.4918121 459.353856,95.756644 452.098567,105.715593 C541.760659,117.546562 620.729578,160.435832 668.804223,223.553321 C699.446803,263.784149 715.935449,310.280683 715.935449,358.728319 L715.935,665.6 L759.340426,665.6 C782.900658,665.6 802,682.792266 802,704 C802,725.207734 782.900658,742.4 759.340426,742.4 L42.6595745,742.4 C19.0993421,742.4 0,725.207734 0,704 C0,682.792266 19.0993421,665.6 42.6595745,665.6 L87.011,665.6 L87.0114373,358.728319 C87.0114373,230.294566 203.149791,123.897775 354.198899,105.285617 C347.129888,95.411119 342.968884,83.3050734 342.968884,70.2271733 L342.968884,60.3328267 C342.968884,27.0119266 369.980811,6.12095005e-15 403.301711,0 Z M401.473443,179.2 C279.650288,179.2 168.401604,259.728005 168.401604,358.728319 L168.401,665.6 L634.545,665.6 L634.545283,358.728319 C634.545283,324.768459 610.769347,292.349144 589.354604,264.2336 C549.384029,211.755992 478.981595,179.2 401.473443,179.2 Z" id="tongzhi" fill="#333333"></path>
    </g>
</svg>