<?xml version="1.0" encoding="UTF-8"?>
<svg width="896px" height="896px" viewBox="0 0 896 896" version="1.1" xmlns="http://www.w3.org/2000/svg" xmlns:xlink="http://www.w3.org/1999/xlink">
    <title>0237列表</title>
    <g id="0237列表" stroke="none" stroke-width="1" fill="none" fill-rule="evenodd">
        <path d="M280,492.8 C348.041481,492.8 403.2,547.958519 403.2,616 L403.2,772.8 C403.2,840.841481 348.041481,896 280,896 L123.2,896 C55.1585188,896 0,840.841481 0,772.8 L0,616 C0,547.958519 55.1585188,492.8 123.2,492.8 L280,492.8 Z M280,560 L123.2,560 C92.272054,560 67.2,585.072054 67.2,616 L67.2,772.8 C67.2,803.727946 92.272054,828.8 123.2,828.8 L280,828.8 C310.927946,828.8 336,803.727946 336,772.8 L336,616 C336,585.072054 310.927946,560 280,560 Z M862.4,737.337821 C880.956768,737.337821 896,752.381054 896,770.937821 C896,789.494589 880.956768,804.537821 862.4,804.537821 L862.4,804.537821 L526.4,804.537821 C507.843232,804.537821 492.8,789.494589 492.8,770.937821 C492.8,752.381054 507.843232,737.337821 526.4,737.337821 L526.4,737.337821 Z M862.4,569.337821 C880.956768,569.337821 896,584.381054 896,602.937821 C896,621.494589 880.956768,636.537821 862.4,636.537821 L862.4,636.537821 L526.4,636.537821 C507.843232,636.537821 492.8,621.494589 492.8,602.937821 C492.8,584.381054 507.843232,569.337821 526.4,569.337821 L526.4,569.337821 Z M280,0 C348.041481,0 403.2,55.1585188 403.2,123.2 L403.2,280 C403.2,348.041481 348.041481,403.2 280,403.2 L123.2,403.2 C55.1585188,403.2 0,348.041481 0,280 L0,123.2 C0,55.1585188 55.1585188,0 123.2,0 L280,0 Z M280,67.2 L123.2,67.2 C92.272054,67.2 67.2,92.272054 67.2,123.2 L67.2,280 C67.2,310.927946 92.272054,336 123.2,336 L280,336 C310.927946,336 336,310.927946 336,280 L336,123.2 C336,92.272054 310.927946,67.2 280,67.2 Z M862.4,244.537821 C880.956768,244.537821 896,259.581054 896,278.137821 C896,296.694589 880.956768,311.737821 862.4,311.737821 L862.4,311.737821 L526.4,311.737821 C507.843232,311.737821 492.8,296.694589 492.8,278.137821 C492.8,259.581054 507.843232,244.537821 526.4,244.537821 L526.4,244.537821 Z M862.4,76.5378214 C880.956768,76.5378214 896,91.5810538 896,110.137821 C896,128.694589 880.956768,143.737821 862.4,143.737821 L862.4,143.737821 L526.4,143.737821 C507.843232,143.737821 492.8,128.694589 492.8,110.137821 C492.8,91.5810538 507.843232,76.5378214 526.4,76.5378214 L526.4,76.5378214 Z" id="形状结合-copy-2" fill="#333333" fill-rule="nonzero"></path>
    </g>
</svg>