<?xml version="1.0" encoding="UTF-8"?>
<svg width="896px" height="828px" viewBox="0 0 896 828" version="1.1" xmlns="http://www.w3.org/2000/svg" xmlns:xlink="http://www.w3.org/1999/xlink">
    <title>0241线型收藏</title>
    <g id="0241线型收藏" stroke="none" stroke-width="1" fill="none" fill-rule="evenodd">
        <path d="M615.255814,0 C770.556195,0 896,134.655142 896,299.116493 C896,344.541905 886.363314,386.443952 868.594293,427.231434 C861.702849,443.050238 843.286052,450.290125 827.459226,443.402173 C811.632401,436.514221 804.388843,418.106758 811.280287,402.287954 C825.776849,369.012161 833.488372,335.48107 833.488372,299.116493 C833.488372,168.204901 734.99573,62.4799456 615.255814,62.4799456 C559.796397,62.4799456 512.117892,84.92989 471.562641,130.600983 C459.160387,144.56772 437.34976,144.611031 424.892078,130.693661 C383.936096,84.9387955 336.298324,62.4799456 281.302326,62.4799456 C161.197082,62.4799456 62.5116279,168.19424 62.5116279,299.116493 C62.5116279,358.008114 78.0557162,398.870224 117.193309,461.587128 L123.748026,471.955304 L127.182876,477.29488 C157.435491,524.663187 203.865364,575.410515 260.577294,626.757854 L272.455575,637.389091 C290.487263,653.346054 309.470098,669.342347 329.22787,685.294904 L342.512589,695.922551 C351.443027,703.002115 360.518805,710.069392 369.724451,717.117092 L383.628389,727.673046 L397.715529,738.194165 C400.078008,739.944477 402.447636,741.693111 404.824173,743.439951 L419.164361,753.89856 L424.032347,757.51091 C431.054321,762.930074 438.669864,765.520054 447.72093,765.520054 C455.010813,765.520054 462.351617,763.320305 469.378694,758.963393 L471.99843,757.228516 L476.608715,753.816418 C495.756313,739.916176 515.289052,725.265732 534.933226,709.966546 C548.549652,699.361863 568.189099,701.797769 578.799159,715.407293 C589.409219,729.016818 586.972078,748.646311 573.355653,759.250994 C557.178332,771.850141 541.083842,784.014825 525.330229,795.608447 L513.582965,804.194455 L508.643249,807.842459 C490.005591,821.006982 469.24408,828 447.72093,828 C426.206149,828 406.290133,821.657148 389.44594,809.655809 L382.227689,804.303834 L374.711055,798.843228 L359.807335,787.888815 C354.869123,784.230298 349.96121,780.564955 345.08541,776.89345 L330.556162,765.861112 C222.336537,682.989867 131.292003,597.334583 78.0782315,516.446821 L74.586919,511.061449 C22.1238539,429.930628 0,378.05823 0,299.116493 C0,134.618107 125.66748,0 281.302326,0 C342.909649,0 398.244783,21.4670109 445.523387,63.1880898 L445.594543,63.2521608 C446.972957,64.4933183 449.039508,64.5394902 450.469127,63.3905429 L450.631181,63.2526683 C496.463887,22.6156579 550.242942,1.17626444 610.241568,0.0470620237 L615.255814,0 Z M707.057197,447.772944 C725.718937,447.772944 740.847266,462.901273 740.847266,481.563013 L740.84692,549.090944 L808.44453,549.091774 C827.096811,549.091774 842.217473,564.212436 842.217473,582.864718 C842.217473,601.517 827.096811,616.637661 808.44453,616.637661 L740.84692,616.636944 L740.847266,684.166423 C740.847266,702.828163 725.718937,717.956492 707.057197,717.956492 C688.395457,717.956492 673.267128,702.828163 673.267128,684.166423 L673.26692,616.636944 L605.669864,616.637661 C587.017582,616.637661 571.89692,601.517 571.89692,582.864718 C571.89692,564.212436 587.017582,549.091774 605.669864,549.091774 L673.26692,549.090944 L673.267128,481.563013 C673.267128,462.901273 688.395457,447.772944 707.057197,447.772944 Z" id="Path" fill="#333333" fill-rule="nonzero"></path>
    </g>
</svg>