<?xml version="1.0" encoding="UTF-8"?>
<svg width="896px" height="852px" viewBox="0 0 896 852" version="1.1" xmlns="http://www.w3.org/2000/svg" xmlns:xlink="http://www.w3.org/1999/xlink">
    <title>0114扶뒬못</title>
    <g id="0114扶뒬못" stroke="none" stroke-width="1" fill="none" fill-rule="evenodd">
        <path d="M19.5105513,427.832216 C24.5012813,427.832216 29.5507601,425.939318 33.3988209,422.12318 L400.381466,58.6847418 C406.814485,52.3140721 414.269736,47.5074412 422.206729,44.2609352 C430.41201,40.9253621 439.223384,39.2448528 447.971115,39.2448528 C456.748219,39.2448528 465.553719,40.9263415 473.760958,44.2609352 C481.697951,47.476122 489.153202,52.3140721 495.617554,58.6847418 L862.600199,422.12318 C866.418886,425.939318 871.471302,427.832216 876.489448,427.832216 C881.450804,427.832216 886.438595,425.880593 890.258261,422.063476 C894.07401,418.217976 896,413.168615 896,408.178959 C895.968667,403.192239 894.014283,398.20454 890.197554,394.388402 L523.210993,30.9509432 C512.962226,20.824818 501.207525,13.1622013 488.700836,7.99343393 C475.746676,2.67589647 461.884843,0 447.970137,0 C434.07893,0 420.222972,2.67589647 407.265874,7.99343393 C394.759186,13.1318606 383.007422,20.824818 372.755717,30.9509432 L5.80146611,394.389381 C1.95340525,398.205519 0,403.193217 0,408.179937 C0,413.169594 1.92207224,418.217975 5.71040558,422.064455 C9.5290921,425.880593 14.5482176,427.832216 19.5105513,427.832216 L19.5105513,427.832216 Z M733.51782,382.189289 C737.066261,378.672649 741.968867,376.480253 747.407068,376.480253 C752.819812,376.480253 757.747876,378.672649 761.296317,382.189289 L761.32667,382.21963 C764.843778,385.763676 767.036096,390.69265 767.036096,396.102189 L767.036096,755.243924 C767.036096,768.343485 764.424701,780.813711 759.701279,792.143697 C754.803569,803.951311 747.590168,814.619663 738.600587,823.603588 C729.64234,832.558152 718.941205,839.800886 707.155171,844.69854 C695.795067,849.386743 683.316774,851.999999 670.212803,851.999999 L581.950228,852 C575.790393,852 569.896887,850.769714 564.574224,848.574382 C558.984255,846.261601 553.905401,842.835004 549.696033,838.599963 L549.696033,838.569623 L549.574618,838.449236 L549.574618,838.481535 C545.339793,834.243557 541.911787,829.195176 539.598055,823.604568 C537.374404,818.286052 536.170049,812.397905 536.170049,806.236688 L536.170049,565.847407 C536.170049,562.21038 535.358333,558.606631 533.976752,555.269101 L534.004168,555.269101 C532.56188,551.843483 530.515455,548.779024 527.990226,546.252875 C525.465977,543.729664 522.401235,541.687017 518.972251,540.245321 L518.972251,540.273705 C515.636285,538.892692 512.028115,538.110672 508.391551,538.110672 L387.608449,538.110672 C383.967968,538.110672 380.363715,538.892692 377.023833,540.273705 L377.023833,540.245321 C373.598765,541.687017 370.532066,543.729664 368.005857,546.252875 C365.480628,548.779023 363.4391,551.843483 361.995833,555.269101 L362.025207,555.269101 C360.641667,558.605652 359.862264,562.210381 359.862264,565.847407 L359.862264,806.234729 C359.862264,812.425309 358.628534,818.345755 356.402925,823.693633 C354.089192,829.2539 350.662167,834.330665 346.394049,838.567664 C342.154328,842.833047 337.075475,846.259643 331.513901,848.573403 C326.163823,850.768734 320.270316,851.999021 314.049774,851.999021 L225.790133,851.999021 C212.684205,851.999021 200.206891,849.385763 188.842871,844.697562 C177.059774,839.799908 166.359618,832.558152 157.401371,823.60261 C148.411792,814.618683 141.199369,803.951311 136.296763,792.142718 C131.578236,780.812733 128.964884,768.342507 128.964884,755.242946 L128.964884,396.101211 C128.964884,390.691672 131.15916,385.762698 134.67529,382.218652 L134.706623,382.188311 C138.252127,378.67167 143.182148,376.479275 148.595871,376.479275 C154.034073,376.479275 158.936679,378.67167 162.480225,382.188311 L162.540932,382.218652 C166.029645,385.762698 168.221963,390.691672 168.221963,396.101211 L168.221963,755.242946 C168.221963,762.965266 169.787625,770.38809 172.641848,777.176685 C175.59007,784.23933 179.885603,790.609999 185.147558,795.867832 C190.409512,801.127623 196.783781,805.423347 203.847373,808.3684 C210.640718,811.192087 218.063658,812.755147 225.792093,812.755147 L307.49828,812.755147 L320.571896,812.755147 L320.571896,799.68397 L320.571894,565.847407 C320.571894,556.772457 322.377448,548.118369 325.653685,540.274684 C329.018046,532.132481 334.040109,524.739998 340.26163,518.519077 C346.48609,512.300112 353.878675,507.280115 362.027165,503.91518 C369.874076,500.671609 378.531724,498.837436 387.610407,498.837436 L508.393509,498.837436 C517.471213,498.837436 526.129839,500.671609 533.977731,503.91518 C542.121325,507.280115 549.516848,512.299134 555.742286,518.519077 C561.963809,524.739019 566.981954,532.131502 570.350232,540.274684 C573.627448,548.118369 575.432022,556.771479 575.432022,565.847407 L575.432022,799.684948 L575.432022,812.756126 L588.506618,812.756126 L670.210848,812.756127 C677.937323,812.756127 685.361242,811.192088 692.154588,808.369379 C699.218179,805.423348 705.59049,801.128603 710.852444,795.868811 C721.281375,785.443189 727.775101,771.050703 727.775101,755.243925 L727.775101,396.10219 C727.775101,390.692651 729.973294,385.763677 733.457111,382.219631 L733.51782,382.189289 Z" id="Shape" fill="#333333" fill-rule="nonzero"></path>
    </g>
</svg>