<?xml version="1.0" encoding="UTF-8"?>
<svg width="896px" height="567px" viewBox="0 0 896 567" version="1.1" xmlns="http://www.w3.org/2000/svg" xmlns:xlink="http://www.w3.org/1999/xlink">
    <title>0107车-实色</title>
    <g id="0107车-实色" stroke="none" stroke-width="1" fill="none" fill-rule="evenodd">
        <path d="M804.480021,388.543606 C803.457951,388.543606 802.444328,388.585633 801.427889,388.619253 C801.427889,388.619253 683.211267,89.1782951 683.188741,89.12226 C683.023924,88.7263469 682.84645,88.3357696 682.349686,87.3179266 C682.177934,86.9929222 681.986472,86.681927 681.336063,85.6172581 C681.181204,85.3847119 681.009451,85.166175 680.176028,84.0538756 C680.046509,83.8969767 679.905728,83.7512851 678.489471,82.2635507 C678.168491,81.9609601 677.84751,81.6555686 676.017357,80.2574897 C675.721716,80.055763 675.409183,79.879252 673.272128,78.7165211 C673.091928,78.6324684 672.920175,78.5372083 670.94361,77.7919402 C670.608551,77.6854735 670.262229,77.6014208 668.240614,77.1503377 C667.85769,77.085897 667.474765,77.0186553 664.920999,76.8477471 L648.753709,76.8477471 L637.803762,42.9128238 L672.230348,42.9128238 C683.115516,42.9128238 691.939688,34.1320874 691.939688,23.3005001 C691.939688,12.4689128 683.115516,3.6881764 672.230348,3.6881764 L552.853689,3.6881764 C541.968521,3.6881764 533.144349,12.4689128 533.144349,23.3005001 C533.144349,34.1320874 541.968521,42.9128238 552.853689,42.9128238 L596.402885,42.9128238 L607.352831,76.8477471 C607.352831,76.8477471 594.989444,76.8533508 592.976275,76.9654211 C592.493073,77.0196067 592.012175,77.092508 589.676369,77.61543 C589.498985,77.6658615 589.318785,77.7050864 587.328142,78.4307417 C586.973373,78.5820369 586.632684,78.7585479 584.701168,79.8148113 C584.459024,79.9633047 584.214066,80.1033926 582.465566,81.4006085 C582.214976,81.607939 581.981279,81.8348814 580.407347,83.3982631 C580.207438,83.6224037 579.996267,83.8381397 578.681373,85.5892405 C578.501173,85.8582098 578.340683,86.1411874 577.698721,87.2198647 C577.552309,87.4916358 577.428422,87.7746134 576.873744,88.9569563 C576.763935,89.2231238 576.673836,89.4976959 576.22052,90.7837044 C576.141683,91.04707 576.082555,91.3160393 575.750312,92.6832978 C575.696816,92.9634736 575.663028,93.2492531 575.446225,94.8126356 C575.446225,94.8126356 562.743587,245.126375 562.744963,245.676233 C562.744963,302.762104 516.073246,349.204086 458.707803,349.204086 C401.339544,349.204086 354.667827,302.762104 354.667827,245.676233 L354.667827,202.215324 C354.667827,191.383737 345.843655,182.603 334.958487,182.603 L93.2769251,182.603 C82.3917571,182.603 73.5675849,191.383737 73.5675849,202.215324 L73.5675849,230.527114 C33.6336461,239.489946 3.70642076,275.047089 3.70642076,317.451734 L3.70642076,353.832595 C3.70642076,396.237241 33.6308304,431.797185 73.5675849,440.757215 L73.5675849,466.553024 C73.5675849,477.384611 82.3917571,486.165348 93.2769251,486.165348 L156.307396,486.165348 C161.420562,529.539402 198.561405,563.311824 243.501517,563.311824 C288.441628,563.311824 325.582472,529.539402 330.695638,486.165348 L717.283085,486.165348 C722.396251,529.539402 759.537094,563.311824 804.477206,563.311824 C852.900239,563.311824 892.293579,524.10959 892.293579,475.924913 C892.296395,427.743037 852.903055,388.543606 804.480021,388.543606 Z M607.351143,73.1595711 L603.823861,77.9752743 L602.274117,73.1724704 C605.562407,73.160381 605.810985,73.1602685 607.351143,73.1595711 Z M637.803762,46.6010002 L641.332732,41.7852966 L642.886638,46.6010002 L637.803762,46.6010002 Z M333.932826,489.853524 C327.127992,533.827227 288.855875,567 243.501517,567 C198.147159,567 159.875041,533.827227 153.070208,489.853524 L93.2769251,489.853524 C80.3447574,489.853524 69.8611641,479.421535 69.8611641,466.553024 L69.8611641,443.658062 C29.1628766,433.159932 0,396.385109 0,353.832595 L0,317.451734 C0,274.901286 29.163459,238.127708 69.8611641,227.626501 L69.8611641,202.215324 C69.8611641,189.346813 80.3447574,178.914824 93.2769251,178.914824 L334.958487,178.914824 C347.890654,178.914824 358.374248,189.346813 358.374248,202.215324 L358.374248,245.676233 C358.374248,300.72518 403.386544,345.51591 458.707803,345.51591 C514.026667,345.51591 559.038543,300.724762 559.038554,245.685422 C559.03749,245.260282 560.815716,224.09886 565.384188,169.936716 C567.783667,141.498402 567.783667,141.498402 569.768251,117.996596 C571.355919,99.2004553 571.355919,99.2004553 571.774597,94.3084703 C571.990245,92.7333155 571.990245,92.7333155 572.084147,92.1305591 C572.487368,90.405264 572.487368,90.405264 572.64185,89.8210049 C573.195639,88.2118077 573.195639,88.2118077 573.417256,87.6243137 C574.097975,86.1445727 574.097975,86.1445727 574.396146,85.5446716 C575.199552,84.1736883 575.199552,84.1736883 575.564122,83.5934662 C576.819927,81.9064925 577.1956,81.4394571 577.632564,80.9530924 C579.478766,79.1088885 579.478766,79.1088885 580.250143,78.4437948 C581.742958,77.3362719 582.188132,77.0262764 582.752336,76.6776103 C585.034871,75.4262009 585.034871,75.4262009 586.053203,74.9676306 C588.178297,74.2053406 588.178297,74.2053406 588.654536,74.070179 C591.031128,73.531773 591.524858,73.437369 592.769247,73.2830027 C593.676234,73.232512 596.20091,73.2012219 600.006859,73.1808709 C600.895791,73.1775674 593.700172,46.6010002 593.700172,46.6010002 L552.853689,46.6010002 C539.921522,46.6010002 529.437928,36.1690109 529.437928,23.3005001 C529.437928,10.4319892 539.921522,0 552.853689,0 L672.230348,0 C685.162516,0 695.646109,10.4319892 695.646109,23.3005001 C695.646109,36.1690109 685.162516,46.6010002 672.230348,46.6010002 L642.886638,46.6010002 L651.456863,73.1609396 L665.169712,73.1678838 C667.397314,73.3169637 668.015355,73.3786975 669.051581,73.5515273 C671.261759,74.0461125 671.261759,74.0461125 672.256916,74.343055 C674.392532,75.1633255 674.392532,75.1633255 674.843797,75.3763467 C677.348962,76.7313584 677.348962,76.7313584 678.274359,77.3319792 C679.885303,78.562601 680.366942,78.9611863 681.18029,79.7271667 C682.645496,81.2631549 682.645496,81.2631549 683.035311,81.7070779 C684.041608,83.0360693 684.041608,83.0360693 684.41353,83.5617445 C685.242532,84.9087072 685.242532,84.9087072 685.616606,85.5757233 C686.297021,86.9766306 686.297021,86.9766306 686.630051,87.7524687 C701.428255,125.235234 701.428255,125.235234 745.75808,237.521805 C789.125878,347.37167 790.07646,349.779477 803.926452,384.861303 C854.950091,384.855429 896.002935,425.706197 896,475.924913 C896,526.147011 854.94674,567 804.477206,567 C759.122848,567 720.85073,533.827227 714.045897,489.853524 L333.932826,489.853524 Z M43.1251013,353.832595 C43.1251013,374.389112 55.6883977,392.073823 73.5675849,399.708621 L73.5675849,271.575707 C55.685582,279.213306 43.1251013,296.895217 43.1251013,317.451734 L43.1251013,353.832595 Z M39.4186805,353.832595 L39.4186805,317.451734 C39.4186805,295.847208 52.4550983,276.579517 72.1056774,268.186539 L77.2740056,271.575707 L77.2740056,399.708621 L72.1059359,403.0979 C52.4575636,394.707622 39.4186805,375.4367 39.4186805,353.832595 Z M243.501517,524.089978 C270.190779,524.089979 291.902025,502.482802 291.899209,475.927715 C291.89921,449.372629 270.187964,427.768253 243.501517,427.768253 C216.81507,427.768253 195.103824,449.372629 195.103824,475.927715 C195.103824,502.485603 216.812254,524.089978 243.501517,524.089978 Z M191.397403,475.927715 C191.397403,447.335705 214.76807,424.080077 243.501517,424.080077 C272.234964,424.080077 295.605631,447.335705 295.60563,475.927326 C295.608661,504.520042 272.237374,527.778155 243.501517,527.778154 C214.765724,527.778154 191.397403,504.522993 191.397403,475.927715 Z M672.230348,3.6881764 C683.115516,3.6881764 691.939688,12.4689128 691.939688,23.3005001 C691.939688,34.1320874 683.115516,42.9128238 672.230348,42.9128238 L637.803762,42.9128238 L648.753709,76.8477471 L664.920999,76.8477471 C667.474765,77.0186553 667.85769,77.085897 668.240614,77.1503377 C670.262229,77.6014208 670.608551,77.6854735 670.94361,77.7919402 C672.920175,78.5372083 673.091928,78.6324684 673.272128,78.7165211 C675.409183,79.879252 675.721716,80.055763 676.017357,80.2574897 C677.84751,81.6555686 678.168491,81.9609601 678.489471,82.2635507 C679.905728,83.7512851 680.046509,83.8969767 680.176028,84.0538756 C680.916848,85.0425862 681.134868,85.3251141 681.282933,85.5390164 L681.336063,85.6172581 L681.336063,85.6172581 C681.986472,86.681927 682.177934,86.9929222 682.349686,87.3179266 C682.84645,88.3357696 683.023924,88.7263469 683.188741,89.12226 C683.211267,89.1782951 801.427889,388.619253 801.427889,388.619253 C802.444328,388.585633 803.457951,388.543606 804.480021,388.543606 C852.903055,388.543606 892.296395,427.743037 892.293579,475.924913 C892.293579,524.10959 852.900239,563.311824 804.477206,563.311824 C759.537094,563.311824 722.396251,529.539402 717.283085,486.165348 L330.695638,486.165348 C325.582472,529.539402 288.441628,563.311824 243.501517,563.311824 C198.561405,563.311824 161.420562,529.539402 156.307396,486.165348 L93.2769251,486.165348 C82.3917571,486.165348 73.5675849,477.384611 73.5675849,466.553024 L73.5675849,440.757215 C33.6308304,431.797185 3.70642076,396.237241 3.70642076,353.832595 L3.70642076,317.451734 C3.70642076,275.047089 33.6336461,239.489946 73.5675849,230.527114 L73.5675849,202.215324 C73.5675849,191.383737 82.3917571,182.603 93.2769251,182.603 L334.958487,182.603 C345.843655,182.603 354.667827,191.383737 354.667827,202.215324 L354.667827,245.676233 C354.667827,302.762104 401.339544,349.204086 458.707803,349.204086 C516.073246,349.204086 562.744963,302.762104 562.744963,245.676233 C562.743587,245.126375 575.446225,94.8126356 575.446225,94.8126356 C575.663028,93.2492531 575.696816,92.9634736 575.750312,92.6832978 C576.082555,91.3160393 576.141683,91.04707 576.22052,90.7837044 C576.673836,89.4976959 576.763935,89.2231238 576.873744,88.9569563 C576.939001,88.8178572 576.998294,88.691206 577.052364,88.5755565 L577.199637,88.2601671 C577.487969,87.6420679 577.586759,87.4276897 577.698721,87.2198647 C577.97958,86.7479434 578.168281,86.428324 578.306795,86.1955474 L578.414209,86.0157656 C578.52747,85.8272699 578.602535,85.7069146 578.681373,85.5892405 C579.996267,83.8381397 580.207438,83.6224037 580.407347,83.3982631 C581.981279,81.8348814 582.214976,81.607939 582.465566,81.4006085 C584.214066,80.1033926 584.459024,79.9633047 584.701168,79.8148113 C586.632684,78.7585479 586.973373,78.5820369 587.328142,78.4307417 C589.318785,77.7050864 589.498985,77.6658615 589.676369,77.61543 C591.113788,77.2936318 591.848757,77.1422557 592.314089,77.0607882 L592.476795,77.0333185 C592.603259,77.0128307 592.708675,76.9979429 592.806252,76.9855878 L592.920426,76.9717809 C592.939109,76.9696169 592.95769,76.9675052 592.976275,76.9654211 C594.519704,76.8795006 602.146762,76.8561587 605.622025,76.8499437 L606.050934,76.8492265 C606.118214,76.8491219 606.183322,76.8490244 606.246152,76.8489337 L607.004643,76.8480161 C607.042069,76.8479806 607.076691,76.8479495 607.108405,76.8479222 L607.352831,76.8477471 L607.352831,76.8477471 L596.402885,42.9128238 L552.853689,42.9128238 C541.968521,42.9128238 533.144349,34.1320874 533.144349,23.3005001 C533.144349,12.4689128 541.968521,3.6881764 552.853689,3.6881764 L672.230348,3.6881764 Z M243.501517,427.768253 C216.81507,427.768253 195.103824,449.372629 195.103824,475.927715 C195.103824,502.485603 216.812254,524.089978 243.501517,524.089978 C270.190779,524.089979 291.902025,502.482802 291.899209,475.927715 C291.89921,449.372629 270.187964,427.768253 243.501517,427.768253 Z M804.480021,427.768253 C777.793574,427.768253 756.082328,449.372629 756.082328,475.927715 C756.082328,502.485603 777.790759,524.089978 804.480021,524.089978 C831.166468,524.089979 852.877713,502.482802 852.877714,475.927715 C852.877714,449.372629 831.166468,427.768253 804.480021,427.768253 Z M73.5675849,271.575707 C55.685582,279.213306 43.1251013,296.895217 43.1251013,317.451734 L43.1251013,353.832595 C43.1251013,374.389112 55.6883977,392.073823 73.5675849,399.708621 L73.5675849,271.575707 Z M334.950039,110.333329 C347.882207,110.333329 358.3658,120.765319 358.3658,133.633829 C358.3658,146.50234 347.882207,156.93433 334.950039,156.93433 L93.2769251,156.93433 C80.3447574,156.93433 69.8611641,146.50234 69.8611641,133.633829 C69.8611641,120.765319 80.3447574,110.333329 93.2769251,110.333329 L334.950039,110.333329 Z" id="Combined-Shape" fill="#333333" fill-rule="nonzero"></path>
    </g>
</svg>