<?xml version="1.0" encoding="UTF-8"?>
<svg width="896px" height="768px" viewBox="0 0 896 768" version="1.1" xmlns="http://www.w3.org/2000/svg" xmlns:xlink="http://www.w3.org/1999/xlink">
    <title>030添加购物车</title>
    <g id="030添加购物车" stroke="none" stroke-width="1" fill="none" fill-rule="evenodd">
        <path d="M367.998733,671.997686 C394.508309,671.997686 415.998567,693.487944 415.998567,719.997521 C415.998567,746.507097 394.508309,767.997355 367.998733,767.997355 C341.489156,767.997355 319.998898,746.507097 319.998898,719.997521 C319.998898,693.487944 341.489156,671.997686 367.998733,671.997686 Z M687.997631,671.997686 C714.507208,671.997686 735.997466,693.487944 735.997466,719.997521 C735.997466,746.507097 714.507208,767.997355 687.997631,767.997355 C661.488054,767.997355 639.997796,746.507097 639.997796,719.997521 C639.997796,693.487944 661.488054,671.997686 687.997631,671.997686 Z M1.02306633,10.3863259 C4.1257776,2.11242914 13.3483406,-2.07964494 21.6222373,1.02306633 L21.6222373,1.02306633 L149.621797,49.022901 C155.007122,51.042398 158.894149,55.7969828 159.802837,61.476277 C160.392315,65.1605267 161.503005,72.079774 163.063563,81.7655816 C165.6649,97.911118 168.57601,115.902479 171.726641,135.278016 C172.176715,138.045851 172.627077,140.813683 173.077658,143.581052 L174.429984,151.881302 C182.547022,201.668908 190.711963,251.156468 198.514795,297.650025 C199.246423,302.005986 199.628142,304.278661 199.994906,306.458951 L200.094814,307.05278 C200.461627,309.232726 200.843937,311.501278 201.576696,315.849334 C210.486796,368.6735 218.229079,413.370143 224.529191,448.187199 C226.765307,455.687522 232.116905,466.430417 241.894959,477.294921 C261.325452,498.884357 291.487375,511.998237 336.001928,511.998237 L336.001928,511.998237 L720.000606,511.998237 C752.074982,511.998237 780.148825,483.924393 801.68949,440.843064 C828.232569,387.756907 864.00011,270.234984 864.00011,207.999284 C864.00011,148.507351 837.63295,127.999559 784.000386,127.999559 L784.000386,127.999559 L336.001928,127.999559 C327.165403,127.999559 320.001983,120.83614 320.001983,111.999614 C320.001983,103.163089 327.165403,95.9996694 336.001928,95.9996694 L336.001928,95.9996694 L784.000386,95.9996694 C853.795968,95.9996694 896,128.825028 896,207.999284 C896,276.048849 858.878904,398.018165 830.311061,455.15385 C803.851891,508.072191 767.925955,543.998127 720.000606,543.998127 L720.000606,543.998127 L336.001928,543.998127 C294.717405,543.998127 262.159891,533.937246 237.695285,516.281302 C238.367661,519.314702 238.97825,521.931793 239.525792,524.121962 C252.763703,577.073608 291.424497,608.002243 336.00318,608.002243 L336.00318,608.002243 L784.001637,608.002243 C792.838162,608.002243 800.001582,615.165662 800.001582,624.002188 C800.001582,632.838713 792.838162,640.002133 784.001637,640.002133 L784.001637,640.002133 L336.00318,640.002133 C276.58222,640.002133 225.243324,598.931016 208.481339,531.883075 C205.24736,518.947159 200.101284,492.840697 193.310095,455.380556 C192.915567,453.910055 192.584717,452.494226 192.313132,451.136305 C192.111299,450.127137 192.009196,449.121166 192.000019,448.1286 C185.865861,414.039162 178.479863,371.311599 170.022534,321.171723 C169.322045,317.015153 168.941345,314.756147 168.588692,312.660661 L168.488446,312.064903 C168.10516,309.786734 167.722191,307.506613 166.956251,302.946372 C159.144411,256.399134 150.971734,206.864706 142.847375,157.032203 L141.493833,148.724487 L141.493833,148.724487 L140.141606,140.414018 C136.988386,121.022557 134.074815,103.015992 131.471101,86.8556964 C130.784851,82.5963982 130.185539,78.871747 129.679021,75.7202576 L129.679021,75.7202576 L10.3863259,30.9854968 C2.11242914,27.8827856 -2.07964494,18.6602226 1.02306633,10.3863259 Z M543.998127,223.999229 L543.998,319.998 L639.997796,319.998898 L639.997796,351.998788 L543.998,351.998 L543.998127,447.998457 L511.998237,447.998457 L511.998,351.998 L415.998567,351.998788 L415.998567,319.998898 L511.998,319.998 L511.998237,223.999229 L543.998127,223.999229 Z" id="Combined-Shape" fill="#333333" fill-rule="nonzero"></path>
    </g>
</svg>