<?xml version="1.0" encoding="UTF-8"?>
<svg width="896px" height="896px" viewBox="0 0 896 896" version="1.1" xmlns="http://www.w3.org/2000/svg" xmlns:xlink="http://www.w3.org/1999/xlink">
    <title>0116叹号</title>
    <g id="0116叹号" stroke="none" stroke-width="1" fill="none" fill-rule="evenodd">
        <path d="M448,0 C695.423568,0 896,200.576432 896,448 C896,695.423568 695.423568,896 448,896 C200.576432,896 0,695.423568 0,448 C0,200.576432 200.576432,0 448,0 Z M448,61.0909091 C234.31601,61.0909091 61.0909091,234.31601 61.0909091,448 C61.0909091,661.68399 234.31601,834.909091 448,834.909091 C661.68399,834.909091 834.909091,661.68399 834.909091,448 C834.909091,234.31601 661.68399,61.0909091 448,61.0909091 Z M448,590.545455 C470.493052,590.545455 488.727273,608.779676 488.727273,631.272727 C488.727273,653.765779 470.493052,672 448,672 C425.506948,672 407.272727,653.765779 407.272727,631.272727 C407.272727,608.779676 425.506948,590.545455 448,590.545455 Z M448,224 C464.267296,224 477.564547,236.716276 478.493602,252.750677 L478.545455,254.545455 L478.545455,529.454545 C478.545455,546.324334 464.869789,560 448,560 C431.732704,560 418.435453,547.283724 417.506398,531.249323 L417.454545,529.454545 L417.454545,254.545455 C417.454545,237.675666 431.130211,224 448,224 Z" id="Combined-Shape" fill="#333333"></path>
    </g>
</svg>