<?xml version="1.0" encoding="UTF-8"?>
<svg width="896px" height="896px" viewBox="0 0 896 896" version="1.1" xmlns="http://www.w3.org/2000/svg" xmlns:xlink="http://www.w3.org/1999/xlink">
    <title>01帮助</title>
    <g id="01帮助" stroke="none" stroke-width="1" fill="none" fill-rule="evenodd">
        <path d="M448,-5.68434189e-14 C695.423568,-5.68434189e-14 896,200.576432 896,448 C896,695.423568 695.423568,896 448,896 C200.576432,896 0,695.423568 0,448 C0,200.576432 200.576432,-5.68434189e-14 448,-5.68434189e-14 Z M448,65.5609756 C236.784759,65.5609756 65.5609756,236.784759 65.5609756,448 C65.5609756,659.215241 236.784759,830.439024 448,830.439024 C659.215241,830.439024 830.439024,659.215241 830.439024,448 C830.439024,236.784759 659.215241,65.5609756 448,65.5609756 Z M456.032801,627.534602 C471.63298,627.533604 484.298016,640.18666 484.298016,655.811797 C484.298016,671.447916 471.63198,684.088992 456.032801,684.088992 C440.419644,684.088992 427.754608,671.447916 427.754608,655.811797 C427.754608,640.187659 440.419644,627.534602 456.032801,627.534602 Z M456.665753,218.536585 C500.239628,218.536585 536.042367,230.537721 564.062986,254.539991 C592.096584,278.555241 606.101403,308.750261 606.101403,345.126051 C606.101403,363.319936 602.034136,381.002667 593.88762,398.112346 C585.753084,415.258965 566.451033,437.26454 535.980469,464.105113 C512.720969,484.843786 498.059237,501.199713 492.042197,513.14594 C486.002194,525.093164 482.677698,546.501728 482.043746,577.385609 C482.043746,577.385609 477.074971,596.017769 454.740939,596.017769 C432.405908,596.017769 427.474071,577.385609 427.474071,577.385609 C427.474071,552.859206 428.375579,534.932878 430.165617,523.607623 C431.967634,512.30633 435.657526,501.248632 441.272232,490.459491 C446.87396,479.669351 454.167887,469.513162 463.15601,459.988927 C472.156112,450.46569 484.79619,438.629282 501.077242,424.453745 C521.815915,406.052204 534.774465,391.622089 539.949899,381.149423 C545.13831,370.67576 547.720037,360.032377 547.720037,349.267196 C547.720037,327.041983 538.951551,307.539265 521.390619,290.716111 C503.829686,273.90394 482.470041,265.501847 457.298705,265.501847 C406.102447,265.501847 375.218567,296.805033 364.648063,359.424384 C364.648063,359.424384 354.333137,384.608699 330.86598,381.44194 C307.40082,378.287163 305.95122,353.065909 305.95122,353.065909 C310.810177,310.115003 326.568094,276.977852 353.225969,253.596553 C379.870865,230.215255 414.35878,218.536585 456.665753,218.536585 Z" id="Combined-Shape" fill="#333333" fill-rule="nonzero"></path>
    </g>
</svg>