<?xml version="1.0" encoding="UTF-8"?>
<svg width="848px" height="896px" viewBox="0 0 848 896" version="1.1" xmlns="http://www.w3.org/2000/svg" xmlns:xlink="http://www.w3.org/1999/xlink">
    <title>0132房子</title>
    <g id="0132房子" stroke="none" stroke-width="1" fill="none" fill-rule="evenodd">
        <path d="M601.002285,0 C624.018993,0 645.530429,11.4450924 658.398282,30.5373603 C712.245727,110.431794 761.641235,184.63646 806.585853,253.153226 C822.233372,276.603223 823.317906,317.269399 808.491177,350.059007 C791.107264,388.503878 755.109118,412.962497 704.376396,416.066355 L704.366294,475.514502 C785.707938,488.017912 848,558.33887 848,643.215459 C848,685.883271 821.635177,743.103163 780.858237,801.293395 C764.148335,825.139056 746.107757,847.291004 730.010254,863.854778 C721.748607,872.355726 714.087507,879.297537 707.226575,884.392414 C697.302877,891.761676 688.654402,896 678.398946,896 C668.143489,896 659.495014,891.761676 649.571317,884.392414 C642.710385,879.297537 635.049284,872.355726 626.787638,863.854778 C620.213967,857.090699 613.316265,849.394721 606.317473,841.032058 L498.401902,841.050446 C460.170034,841.050446 429.176982,810.043462 429.176982,771.794408 L429.176982,657.854312 C429.176982,648.292049 421.428718,640.540303 411.870752,640.540303 L380.764592,640.540303 C371.206626,640.540303 363.458362,648.292049 363.458362,657.854312 L363.458362,657.854312 L363.458362,771.794408 C363.458362,810.043462 332.46531,841.050446 294.233442,841.050446 L294.233442,841.050446 L157.481422,841.050446 C119.249554,841.050446 88.2565016,810.043462 88.2565016,771.794408 L88.2565016,771.794408 L88.2553481,412.258754 C51.3260693,403.536701 24.7035311,381.464514 10.5026617,350.059007 C-4.32406721,317.269399 -3.23953374,276.603223 12.4079855,253.153226 C57.3526029,184.63646 106.748112,110.431794 160.595557,30.5373603 C173.463409,11.4450924 194.974845,0 217.991553,0 L217.991553,0 L601.002285,0 Z M678.398946,525.480193 C613.404771,525.480193 560.716581,578.192067 560.716581,643.215459 C560.716581,672.256106 583.359276,721.397819 618.451775,771.476139 C633.640918,793.15162 649.946097,813.172679 664.011872,827.645875 C669.47837,833.270712 674.386754,837.822407 678.398946,841.045431 C682.411138,837.822407 687.319522,833.270712 692.786019,827.645875 C706.851794,813.172679 723.156974,793.15162 738.346117,771.476139 C773.438615,721.397819 796.08131,672.256106 796.08131,643.215459 C796.08131,578.192067 743.393121,525.480193 678.398946,525.480193 Z M593.984522,380.68666 L593.753577,381.011634 C574.317523,407.895969 541.731404,422.028986 498.415304,422.028986 C459.421777,422.028986 429.123351,410.57598 409.285409,388.677855 C389.452675,410.576009 359.154534,422.028986 320.161135,422.028986 C276.802031,422.028986 244.19396,407.867949 224.764103,380.931596 C204.298211,401.675782 175.70003,413.452539 140.177275,415.914638 L140.175192,771.794408 C140.175192,781.356671 147.923455,789.108417 157.481422,789.108417 L157.481422,789.108417 L294.233442,789.108417 C303.791409,789.108417 311.539672,781.356671 311.539672,771.794408 L311.539672,771.794408 L311.539672,657.854312 C311.539672,619.605258 342.532725,588.598274 380.764592,588.598274 L380.764592,588.598274 L417.095423,588.598274 L417.095886,588.792599 C452.887033,591.464793 481.095672,621.363832 481.095672,657.854312 L481.095672,771.794408 C481.095672,781.356671 488.843935,789.108417 498.401902,789.108417 L567.594456,789.095369 C531.601672,735.165622 508.797891,682.897259 508.797891,643.215459 C508.797891,558.334495 571.096375,488.010662 652.444177,475.512569 L652.455879,412.093359 C628.803062,406.670515 609.147809,396.153933 593.984522,380.68666 Z M678.398946,585.213527 C709.940237,585.213527 735.509505,610.794289 735.509505,642.349758 C735.509505,673.905228 709.940237,699.48599 678.398946,699.48599 C646.857655,699.48599 621.288387,673.905228 621.288387,642.349758 C621.288387,610.794289 646.857655,585.213527 678.398946,585.213527 Z M601.002285,51.942029 L217.991553,51.942029 C212.237376,51.942029 206.859517,54.8033019 203.642554,59.5763692 C149.885654,139.33646 100.587627,213.395164 55.5938067,281.985213 C55.3812407,282.301733 55.0832369,282.860529 54.75292,283.635403 C54.3096338,284.675287 53.8824652,285.935746 53.5012814,287.377658 C52.6122657,290.740557 52.0568497,294.759508 51.9376367,299.108153 C51.666156,309.011206 53.6460989,319.450043 57.8061916,328.650172 C62.3923754,338.792609 69.4154002,347.101752 79.0024947,353.124666 C90.5620018,360.386713 105.96169,364.459903 125.769282,364.459903 C169.54937,364.459903 193.332852,349.199505 203.554313,316.816994 C206.347543,307.96779 213.437788,301.668277 221.798144,299.493155 C223.782634,298.73933 225.892214,298.218586 228.097967,297.967485 C242.342993,296.345837 255.204882,306.584299 256.825801,320.835729 C258.841229,338.555765 264.589577,350.363644 273.773286,357.811941 C283.512098,365.710444 298.705202,370.086957 320.161135,370.086957 C341.616978,370.086957 356.809795,365.710487 366.548154,357.812147 C375.731373,350.364056 381.479229,338.556413 383.494075,320.83654 L383.441036,321.291859 C383.642424,319.168785 384.103059,317.109153 384.79395,315.149418 C384.823665,315.065329 384.853501,314.981648 384.883746,314.898181 C384.89275,314.874104 384.901538,314.850082 384.910361,314.826077 L384.883746,314.898181 C386.175769,311.332639 388.214907,308.159691 390.793907,305.544328 C390.804418,305.533997 390.814539,305.523724 390.824668,305.51346 L391.036171,305.301855 C391.046431,305.29172 391.056698,305.281595 391.066974,305.271478 C393.579868,302.790789 396.607719,300.809553 400.004098,299.511548 C400.047489,299.495867 400.090776,299.479381 400.134113,299.463008 C400.188535,299.441799 400.24321,299.421452 400.297977,299.401283 C400.379597,299.371527 400.461241,299.341779 400.543061,299.312434 C400.590869,299.295371 400.63857,299.278508 400.686341,299.261779 C403.384345,298.311691 406.271891,297.798753 409.253443,297.798592 L409.319878,297.798591 C412.30708,297.798658 415.199936,298.313451 417.902749,299.26679 C417.945261,299.281936 417.987616,299.296923 418.029917,299.312015 C418.080031,299.32999 418.13002,299.348091 418.179942,299.366341 C421.716199,300.652421 424.865476,302.675001 427.466325,305.230908 L427.819238,305.583969 C430.372397,308.184193 432.393187,311.332388 433.679235,314.867458 C433.691643,314.902185 433.704341,314.937149 433.716966,314.972145 C433.733427,315.017733 433.749582,315.063145 433.765616,315.108619 C434.464166,317.078972 434.929757,319.151424 435.132751,321.288168 C437.194053,338.757579 442.922352,350.427396 452.027455,357.811941 C461.766267,365.710444 476.959371,370.086957 498.415304,370.086957 C519.871148,370.086957 535.063964,365.710487 544.802323,357.812147 C553.985542,350.364056 559.733399,338.556413 561.748244,320.83654 C563.368715,306.58506 576.230282,296.346193 590.475359,297.967392 C592.393331,298.185672 594.238594,298.607825 595.992003,299.209778 C604.870181,301.073374 612.513119,307.545875 615.439525,316.816994 C625.660986,349.199505 649.444468,364.459903 693.224556,364.459903 C713.032148,364.459903 728.431837,360.386713 739.991344,353.124666 C749.578438,347.101752 756.601463,338.792609 761.187647,328.650172 C765.347739,319.450043 767.327682,309.011206 767.056202,299.108153 C766.936989,294.759508 766.381573,290.740557 765.492557,287.377658 C765.111373,285.935746 764.684204,284.675287 764.240918,283.635403 C763.910601,282.860529 763.612598,282.301733 763.400032,281.985213 C718.406212,213.395164 669.108184,139.33646 615.351284,59.5763692 C612.134321,54.8033019 606.756462,51.942029 601.002285,51.942029 Z" id="Combined-Shape" fill="#333333" fill-rule="nonzero"></path>
    </g>
</svg>