<?xml version="1.0" encoding="UTF-8"?>
<svg width="896px" height="896px" viewBox="0 0 896 896" version="1.1" xmlns="http://www.w3.org/2000/svg" xmlns:xlink="http://www.w3.org/1999/xlink">
    <title>0134客服</title>
    <g id="0134客服" stroke="none" stroke-width="1" fill="none" fill-rule="evenodd">
        <path d="M448,0 C695.423568,0 896,200.576432 896,448 C896,695.423568 695.423568,896 448,896 C200.576432,896 0,695.423568 0,448 C0,200.576432 200.576432,0 448,0 Z M449.495618,238.933333 C394.775028,238.933333 345.235953,261.056557 309.374693,296.825891 C277.366235,328.752365 256.249025,371.575325 252.098779,419.20116 L252.098779,419.20116 L246.752692,419.20116 C236.393394,419.20116 226.963729,423.439484 220.123888,430.229467 C213.317615,437.05159 209.066667,446.45658 209.066667,456.789912 L209.066667,456.789912 L209.066667,561.942185 C209.066667,590.889861 225.502611,612.019066 248.51312,626.757944 C277.101425,645.072779 316.481209,653.253644 344.47136,654.081372 C344.936643,654.11491 345.435026,654.14705 345.900309,654.14705 L345.900309,654.14705 L426.451076,654.14705 C429.571919,664.87771 436.678434,674.548673 447.170603,680.675355 L447.170603,680.675355 L447.43588,680.840715 C458.327129,687.100616 470.678563,688.391816 481.867724,685.379015 C493.090918,682.398354 503.185406,675.111827 509.46066,664.281951 L509.46066,664.281951 L509.428025,664.281951 L509.46066,664.214875 C515.735914,653.385931 516.997958,641.031954 514.00952,629.903499 C511.021548,618.709833 503.716891,608.641542 492.858743,602.382106 L492.858743,602.382106 L492.826108,602.415644 L492.793007,602.383038 C481.934859,596.123603 469.549857,594.832402 458.360696,597.812132 C447.137502,600.826331 437.077514,608.112392 430.80226,618.942733 L430.80226,618.942733 L430.80226,618.975805 C428.908495,622.254114 427.481411,625.632569 426.484177,629.076237 L426.484177,629.076237 L345.900309,629.076237 L345.136183,629.109774 C320.731691,628.413867 286.532022,621.392381 262.060862,605.694418 C245.823991,595.294942 234.20265,580.92032 234.20265,561.943117 L234.20265,561.943117 L234.20265,456.789912 C234.20265,453.379782 235.631132,450.234227 237.888545,447.982079 C240.179526,445.695927 243.334403,444.271973 246.753624,444.271973 L246.753624,444.271973 L281.020428,444.271973 C284.440582,444.271973 287.560959,445.695927 289.852405,447.982079 L289.852405,447.982079 L290.349857,448.445085 C292.34246,450.664162 293.604038,453.611751 293.604038,456.789912 L293.604038,456.789912 L293.604038,563.301859 C293.604038,570.223663 299.215868,575.853801 306.155479,575.853801 C313.095089,575.853801 318.705987,570.223663 318.705987,563.301859 L318.705987,563.301859 L318.705987,456.789912 C318.705987,446.987128 314.787916,437.912856 308.412892,431.123805 C308.17421,430.812847 307.907507,430.524396 307.61613,430.262073 C300.809391,423.473022 291.413293,419.200694 281.020428,419.200694 L281.020428,419.200694 L277.334532,419.200694 C281.418576,378.497129 299.680684,341.933605 327.139817,314.544499 C358.45175,283.313 401.715105,264.004147 449.495618,264.004147 C497.307367,264.004147 540.572587,283.313 571.883588,314.544965 C599.342254,341.967143 617.638396,378.530667 621.755075,419.20116 L621.755075,419.20116 L614.982369,419.20116 C604.622605,419.20116 595.192474,423.439484 588.352633,430.229467 C581.545894,437.05159 577.295412,446.45658 577.295412,456.789912 L577.295412,456.789912 L577.295412,574.794104 C577.295412,585.126504 581.578529,594.500286 588.386201,601.322409 L588.386201,601.322409 L588.386201,601.289337 C595.259143,608.11146 604.721443,612.385185 614.982369,612.385185 L614.982369,612.385185 L649.247775,612.385185 C659.541336,612.385185 669.004102,608.111926 675.844409,601.289337 L675.844409,601.289337 L675.811774,601.257197 C682.651148,594.434142 686.933333,585.029152 686.933333,574.794104 L686.933333,574.794104 L686.933333,456.790378 C686.933333,446.987594 683.016195,437.913322 676.641637,431.124271 C676.375894,430.825227 676.109219,430.52758 675.844409,430.262539 C669.036737,423.473488 659.607539,419.20116 649.247775,419.20116 L649.247775,419.20116 L646.891058,419.20116 C642.70771,371.542719 621.62267,328.719293 589.648245,296.825891 C553.787918,261.057023 504.214342,238.933333 449.495618,238.933333 Z M464.835024,622.021679 C469.616059,620.730944 474.861911,621.161344 479.511007,623.578852 C479.945762,623.87515 480.400646,624.140833 480.872355,624.373974 C485.421215,627.188345 488.475389,631.527282 489.771933,636.363229 C491.033045,641.099029 490.601796,646.331373 488.210579,650.967957 C487.913134,651.398358 487.646459,651.862761 487.381183,652.326234 C484.559183,656.864068 480.208931,659.910407 475.394795,661.20254 C470.61376,662.494206 465.400543,662.062874 460.718346,659.644901 C460.219962,659.314182 459.689409,658.982997 459.157924,658.751028 C454.741469,655.936192 451.753497,651.630792 450.490987,646.861921 C450.058134,645.28504 449.823993,643.660342 449.793995,642.025508 L449.793995,642.025508 L449.793995,641.065026 C449.859888,637.691649 450.773199,634.388902 452.450022,631.460207 L452.450022,631.460207 L452.482657,631.460207 C455.305589,626.625657 459.821348,623.346417 464.835024,622.021679 Z M649.247308,444.271507 C652.666996,444.271507 655.788305,445.695927 658.079752,447.982079 L658.079752,447.982079 L658.57767,448.445085 C660.568874,450.664162 661.798283,453.611751 661.798283,456.789912 L661.798283,456.789912 L661.798283,574.792706 C661.798283,578.171628 660.370733,581.317182 658.112387,583.569331 L658.112387,583.569331 L658.079286,583.601937 L658.047117,583.569331 C655.756136,585.855483 652.634827,587.312509 649.247775,587.312509 L649.247775,587.312509 L614.982369,587.312509 C611.561283,587.312509 608.407339,585.888555 606.149926,583.636406 L606.149926,583.636406 L606.116358,583.602403 L606.149926,583.602403 C603.858479,581.317648 602.430928,578.172093 602.430928,574.793172 L602.430928,574.793172 L602.430928,456.789447 C602.430928,453.378851 603.858479,450.233762 606.115892,447.981147 C608.407339,445.695461 611.561283,444.271507 614.982369,444.271507 L614.982369,444.271507 Z" id="Combined-Shape" fill="#333333"></path>
    </g>
</svg>