<?xml version="1.0" encoding="UTF-8"?>
<svg width="898px" height="747px" viewBox="0 0 898 747" version="1.1" xmlns="http://www.w3.org/2000/svg" xmlns:xlink="http://www.w3.org/1999/xlink">
    <title>0226订单条码</title>
    <g id="0226订单条码" stroke="none" stroke-width="1" fill="none" fill-rule="evenodd">
        <path d="M863.4,485.55 C881.956768,485.55 897,500.593232 897,519.15 L897,601.335 C897,679.269541 835.823209,742.909097 758.892557,746.810462 L751.4,747 L594.615,747 C576.049948,747 561,731.950052 561,713.385 C561,694.819948 576.049948,679.77 594.615,679.77 L751.4,679.77 C792.816554,679.77 826.732252,647.640684 829.603151,606.936507 L829.8,601.335 L829.8,519.15 C829.8,500.593232 844.843232,485.55 863.4,485.55 Z M34.54,485.608333 C53.1050519,485.608333 68.155,500.658281 68.155,519.223333 L68.155,601.341667 C68.155,642.75822 100.284316,676.673919 140.988493,679.544818 L146.59,679.741667 L303.475,679.741667 C322.031768,679.741667 337.075,694.784899 337.075,713.341667 C337.075,731.898434 322.031768,746.941667 303.475,746.941667 L146.59,746.941667 C68.6554594,746.941667 5.01590273,685.764876 1.11453839,608.834223 L0.925,601.341667 L0.925,519.223333 C0.925,500.658281 15.9749481,485.608333 34.54,485.608333 Z M262.333333,186.75 C280.890101,186.75 295.933333,201.793232 295.933333,220.35 L295.933333,526.65 C295.933333,545.206768 280.890101,560.25 262.333333,560.25 C243.776566,560.25 228.733333,545.206768 228.733333,526.65 L228.733333,220.35 C228.733333,201.793232 243.776566,186.75 262.333333,186.75 Z M449,186.75 C467.556768,186.75 482.6,201.793232 482.6,220.35 L482.6,526.65 C482.6,545.206768 467.556768,560.25 449,560.25 C430.443232,560.25 415.4,545.206768 415.4,526.65 L415.4,220.35 C415.4,201.793232 430.443232,186.75 449,186.75 Z M635.666667,186.75 C654.223434,186.75 669.266667,201.793232 669.266667,220.35 L669.266667,526.65 C669.266667,545.206768 654.223434,560.25 635.666667,560.25 C617.109899,560.25 602.066667,545.206768 602.066667,526.65 L602.066667,220.35 C602.066667,201.793232 617.109899,186.75 635.666667,186.75 Z M751.4,-1.0590852e-14 L758.892557,0.189538394 C835.823209,4.09090273 897,67.7304594 897,145.665 L897,145.665 L897,227.85 C897,246.406768 881.956768,261.45 863.4,261.45 C844.843232,261.45 829.8,246.406768 829.8,227.85 L829.8,227.85 L829.8,145.665 L829.603151,140.063493 C826.732252,99.3593159 792.816554,67.23 751.4,67.23 L751.4,67.23 L594.615,67.23 C576.049948,67.23 561,52.1800519 561,33.615 C561,15.0499481 576.049948,3.13382532e-14 594.615,8.60977281e-15 L594.615,8.60977281e-15 L751.4,-1.0590852e-14 Z M303.475,0.0583333333 C322.031768,0.0583333333 337.075,15.1015657 337.075,33.6583333 C337.075,52.2151009 322.031768,67.2583333 303.475,67.2583333 L303.475,67.2583333 L146.59,67.2583333 L140.988493,67.455182 C100.284316,70.326081 68.155,104.24178 68.155,145.658333 L68.155,145.658333 L68.155,227.776667 C68.155,246.341719 53.1050519,261.391667 34.54,261.391667 C15.9749481,261.391667 0.925,246.341719 0.925,227.776667 L0.925,227.776667 L0.925,145.658333 L1.11453839,138.165777 C5.01590273,61.2351245 68.6554594,0.0583333333 146.59,0.0583333333 L146.59,0.0583333333 Z" id="订单条码" fill="#333333"></path>
    </g>
</svg>