<?xml version="1.0" encoding="UTF-8"?>
<svg width="896px" height="683px" viewBox="0 0 896 683" version="1.1" xmlns="http://www.w3.org/2000/svg" xmlns:xlink="http://www.w3.org/1999/xlink">
    <title>042用户名</title>
    <g id="042用户名" stroke="none" stroke-width="1" fill="none" fill-rule="evenodd">
        <path d="M320,0 C331.782075,0 341.333333,9.55125867 341.333333,21.3333333 C341.333333,33.115408 331.782075,42.6666667 320,42.6666667 C237.525477,42.6666667 170.666667,109.525477 170.666667,192 C170.666667,274.474523 237.525477,341.333333 320,341.333333 L320,341.333333 C331.782075,341.333333 341.333333,350.884592 341.333333,362.666667 C341.333333,374.448741 331.782075,384 320,384 C166.833029,384 42.6666667,508.166363 42.6666667,661.333333 C42.6666667,673.115408 33.115408,682.666667 21.3333333,682.666667 C9.55125867,682.666667 0,673.115408 0,661.333333 C0,518.992575 92.9360815,398.358202 221.439237,356.799221 C165.467398,323.262383 128,262.006681 128,192 C128,85.961328 213.961328,0 320,0 Z M576,0 C682.038672,0 768,85.961328 768,192 C768,262.006681 730.532602,323.262383 674.556371,356.808539 C803.063919,398.358202 896,518.992575 896,661.333333 C896,673.115408 886.448741,682.666667 874.666667,682.666667 C862.884592,682.666667 853.333333,673.115408 853.333333,661.333333 C853.333333,508.166363 729.166971,384 576,384 C422.833029,384 298.666667,508.166363 298.666667,661.333333 C298.666667,673.115408 289.115408,682.666667 277.333333,682.666667 C265.551259,682.666667 256,673.115408 256,661.333333 C256,518.992575 348.936081,398.358202 477.439237,356.799221 C421.467398,323.262383 384,262.006681 384,192 C384,85.961328 469.961328,0 576,0 Z M576,42.6666667 C493.525477,42.6666667 426.666667,109.525477 426.666667,192 C426.666667,274.474523 493.525477,341.333333 576,341.333333 C658.474523,341.333333 725.333333,274.474523 725.333333,192 C725.333333,109.525477 658.474523,42.6666667 576,42.6666667 Z" id="用户名" fill="#333333"></path>
    </g>
</svg>