<?xml version="1.0" encoding="UTF-8"?>
<svg width="839px" height="896px" viewBox="0 0 839 896" version="1.1" xmlns="http://www.w3.org/2000/svg" xmlns:xlink="http://www.w3.org/1999/xlink">
    <title>028设置</title>
    <g id="028设置" stroke="none" stroke-width="1" fill="none" fill-rule="evenodd">
        <path d="M600.846847,762.070395 C567.948338,781.052311 544.164396,811.238381 533.063552,846.827535 C525.615216,870.769021 505.516192,888.350944 480.798884,891.790681 C460.479199,894.583 440.03471,896 419.500205,896 C398.9657,896 378.52121,894.583 358.165338,891.785676 C333.484217,888.350944 313.385193,870.769021 305.941545,846.842583 C294.836013,811.238381 271.052072,781.052311 238.153563,762.070395 C205.337903,743.127881 167.41246,737.591932 131.126111,745.691251 C106.763843,751.094008 81.6130578,742.488357 66.3194798,722.935724 C40.9703388,690.488652 20.2092994,654.822155 4.68947667,616.83598 C-4.75390555,593.722172 0.361597979,567.423581 17.363222,548.985303 C42.5865527,521.590026 56.8051205,485.936651 56.8051205,448 C56.8051205,410.043215 42.5871842,374.391423 17.3614164,347.012736 C0.359992762,328.542711 -4.75218677,302.252288 4.68951002,279.142605 C20.2092994,241.156512 40.9703388,205.490014 66.3270579,173.033248 C81.6206013,153.480666 106.785963,144.87894 131.144147,150.312756 C167.41478,158.389359 205.342344,152.848222 238.157112,133.906224 C271.052072,114.926356 294.836013,84.7402859 305.939262,49.1434084 C313.395314,25.2091165 333.509745,7.61371564 358.178353,4.21251633 C378.390872,1.41234208 398.849016,0 419.500205,0 C440.151393,0 460.609538,1.41234208 480.808351,4.21062215 C505.490664,7.61371564 525.605095,25.2091165 533.058864,49.1360839 C544.164396,84.7402859 567.948338,114.926356 600.846847,133.908272 C633.658065,152.848222 671.585629,158.389359 707.848256,150.314541 C732.214447,144.87894 757.379808,153.480666 772.68093,173.042942 C798.030071,205.490014 818.79111,241.156512 834.310933,279.142687 C843.752596,302.252288 838.640417,328.542711 821.632128,347.02019 C796.413225,374.391423 782.195289,410.043215 782.195289,448 C782.195289,485.936651 796.413857,521.590026 821.62652,548.973725 C838.638811,567.423581 843.754315,593.722172 834.310899,616.836062 C818.79111,654.822155 798.030071,690.488652 772.673351,722.945418 C757.387352,742.488357 732.236567,751.094008 707.845744,745.684899 C671.587949,737.591932 633.662506,743.127881 600.846847,762.070395 Z M717.113357,704.036749 C725.656396,705.931316 734.059507,703.056088 739.054856,696.669609 C762.003506,667.295182 780.782467,635.033803 794.81005,600.70002 C797.90503,593.124686 796.195791,584.33756 790.245111,577.88403 C757.844246,542.69317 739.525279,496.757954 739.525279,448 C739.525279,399.219514 757.84578,353.28045 790.243306,318.117931 C796.195746,311.651313 797.905951,302.856235 794.810083,295.278728 C780.782467,260.944863 762.003506,228.683485 739.062434,199.318752 C734.060587,192.92396 725.667285,190.055061 717.131393,191.959244 C670.534013,202.335365 621.675494,195.197239 579.517191,170.861776 C537.233069,146.464512 506.588409,107.570964 492.321865,61.8325916 C489.70925,53.445969 483.008423,47.5843203 474.96617,46.4754837 C456.692676,43.9439353 438.191104,42.6666667 419.500205,42.6666667 C400.809305,42.6666667 382.307734,43.9439353 364.020534,46.4773778 C355.991986,47.5843203 349.29116,53.445969 346.676261,61.8399161 C332.412,107.570964 301.76734,146.464512 259.486767,170.859728 C217.324915,195.197239 168.466396,202.335365 121.86101,191.957459 C113.333124,190.055061 104.939822,192.92396 99.9455534,199.309058 C76.996903,228.683485 58.2179427,260.944863 44.1903594,295.278647 C41.0944584,302.856235 42.8046637,311.651313 48.7502386,318.110477 C81.1546291,353.28045 99.4751304,399.219514 99.4751304,448 C99.4751304,496.757954 81.1561636,542.69317 48.7446302,577.895608 C42.804618,584.33756 41.0953792,593.124686 44.190326,600.699938 C58.2179427,635.033803 76.996903,667.295182 99.9379754,696.659915 C104.940903,703.056088 113.344013,705.931316 121.858498,704.043101 C168.450936,693.643377 217.315754,700.776139 259.483218,725.11689 C301.76734,749.514154 332.412,788.407703 346.680949,834.153798 C349.29193,842.54638 355.989216,848.404932 364.011066,849.521319 C382.418321,852.050833 400.922249,853.333333 419.500205,853.333333 C438.078161,853.333333 456.582089,852.050833 474.953155,849.526324 C483.011194,848.404932 489.70848,842.54638 492.324148,834.138751 C506.588209,788.408343 537.232212,749.515243 579.515416,725.117914 C621.686026,700.775939 670.550126,693.643523 717.113357,704.036749 Z M419.500205,277.333333 C513.764332,277.333333 590.180244,353.743259 590.180244,448 C590.180244,542.256741 513.764332,618.666667 419.500205,618.666667 C325.236078,618.666667 248.820165,542.256741 248.820165,448 C248.820165,353.743259 325.236078,277.333333 419.500205,277.333333 Z M419.500205,320 C348.802073,320 291.490175,377.307408 291.490175,448 C291.490175,518.692592 348.802073,576 419.500205,576 C490.198336,576 547.510234,518.692592 547.510234,448 C547.510234,377.307408 490.198336,320 419.500205,320 Z" id="设置" fill="#333333" fill-rule="nonzero"></path>
    </g>
</svg>