<?xml version="1.0" encoding="UTF-8"?>
<svg width="896px" height="896px" viewBox="0 0 896 896" version="1.1" xmlns="http://www.w3.org/2000/svg" xmlns:xlink="http://www.w3.org/1999/xlink">
    <title>037选择时间</title>
    <g id="037选择时间" stroke="none" stroke-width="1" fill="none" fill-rule="evenodd">
        <path d="M448.002249,895.990105 C200.973073,895.990105 0,695.02243 0,448.003148 C0,328.404075 46.5526272,215.940722 131.082066,131.329428 C135.625432,126.776169 141.673657,124.266569 148.111365,124.266569 C154.540078,124.266569 160.582907,126.767174 165.124473,131.311438 C174.508938,140.688706 174.517932,155.957688 165.143362,165.343951 C89.692559,240.870313 48.1393426,341.253406 48.1393426,448.002249 C48.1393426,668.481838 227.518162,847.854362 448.002249,847.854362 C668.484536,847.854362 847.858859,668.482738 847.858859,448.002249 C847.858859,235.454435 683.328055,61.4015428 472.070121,48.8562426 L472.070121,183.043377 C472.070121,196.31907 461.273445,207.117545 448.002249,207.117545 C434.728354,207.117545 423.92988,196.31817 423.92988,183.043377 L423.92988,0 L448.002249,0 C567.47899,0 679.928851,46.6524715 764.639989,131.362709 C849.350227,216.072947 896.002699,328.525507 896,448.003148 C896.000899,695.02243 695.028727,895.990105 448.002249,895.990105 Z M448.00045,507.411403 C432.136001,507.409603 417.222322,501.23185 406.007378,490.016008 C385.128228,469.135058 227.927434,239.902452 221.246861,230.153691 L230.151893,221.24866 C239.900654,227.929232 469.121566,385.127328 489.997119,406.010077 C501.218358,417.228618 507.399709,432.145895 507.399709,448.01664 C507.399709,463.887386 501.219257,478.804663 489.996219,490.018706 C478.781276,501.234549 463.865798,507.412302 448.002249,507.412302 L448.00045,507.412302 L448.00045,507.411403 Z" id="选择时间" fill="#333333"></path>
    </g>
</svg>