<?xml version="1.0" encoding="UTF-8"?>
<svg width="896px" height="896px" viewBox="0 0 896 896" version="1.1" xmlns="http://www.w3.org/2000/svg" xmlns:xlink="http://www.w3.org/1999/xlink">
    <title>0175跨境</title>
    <g id="0175跨境" stroke="none" stroke-width="1" fill="none" fill-rule="evenodd">
        <path d="M448,0 C695.423568,0 896,200.576432 896,448 C896,695.423568 695.423568,896 448,896 C200.576432,896 0,695.423568 0,448 C0,200.576432 200.576432,0 448,0 Z M448,56 C231.504378,56 56,231.504378 56,448 C56,664.495622 231.504378,840 448,840 C664.495622,840 840,664.495622 840,448 C840,231.504378 664.495622,56 448,56 Z M640.492241,294.604361 C665.249639,284.059325 729.741904,280.271566 740.276313,305.017157 C750.83906,329.763928 703.490892,373.682096 678.718145,384.246024 L678.718145,384.246024 L583.860048,424.705855 C578.274402,443.986234 574.970055,455.391308 571.705047,466.66216 L571.051905,468.916834 C563.640524,494.501516 555.663347,522.048051 521.011349,641.706193 C519.432723,647.148145 515.493831,651.593566 510.288024,653.82041 L510.288024,653.82041 L471.828337,670.223012 C466.716988,672.403807 460.909012,672.213711 455.945253,669.723566 C450.982675,667.223976 447.374386,662.674651 446.076771,657.270482 C427.578905,580.26808 421.190535,553.675777 417.70225,539.150136 L417.312102,537.52547 C414.411603,525.446793 413.503366,521.65676 408.212169,499.612096 C267.619952,559.565663 305.466843,543.427542 274.386675,556.679976 C257.929759,563.699373 238.832747,557.243181 230.006843,541.680072 C201.42192,491.263205 194.925166,479.804992 188.488186,468.454305 L187.854457,467.336822 C183.938073,460.430923 179.777959,453.095936 170.458265,436.661855 C167.807542,431.990916 167.271494,426.408458 168.991807,421.313639 C170.71212,416.229446 174.51759,412.113446 179.461277,409.99759 L179.461277,409.99759 L209.659446,397.121807 C215.918458,394.452193 223.117325,395.364892 228.521494,399.489157 C258.727928,422.584096 245.476675,412.451133 287.975614,444.942265 L287.975614,444.942265 Z M356.019494,281.738024 C360.352747,279.88547 365.222048,279.727253 369.666289,281.285807 L369.666289,281.285807 L480.89747,320.289807 L346.256096,377.714265 L309.366771,326.671614 C306.001711,322.018386 304.940241,316.098241 306.481084,310.572458 C308.012482,305.045494 311.97853,300.516241 317.261084,298.26106 L317.261084,298.26106 Z" id="Oval-Copy-2" fill="#333333" fill-rule="nonzero"></path>
    </g>
</svg>