<?xml version="1.0" encoding="UTF-8"?>
<svg width="896px" height="896px" viewBox="0 0 896 896" version="1.1" xmlns="http://www.w3.org/2000/svg" xmlns:xlink="http://www.w3.org/1999/xlink">
    <title>081md-cart-商家</title>
    <g id="081md-cart-商家" stroke="none" stroke-width="1" fill="none" fill-rule="evenodd">
        <path d="M448,0 C695.423568,0 896,200.576432 896,448 C896,695.423568 695.423568,896 448,896 C200.576432,896 0,695.423568 0,448 C0,200.576432 200.576432,0 448,0 Z M604.799304,604.799304 C576.053229,604.799304 552.53403,628.318503 552.53403,657.064577 C552.53403,685.814134 576.053229,709.333333 604.799304,709.333333 C633.545378,709.333333 657.06806,685.814134 657.06806,657.064577 C657.064577,628.318503 633.545378,604.799304 604.799304,604.799304 Z M343.46597,604.799304 C314.719896,604.799304 291.200696,628.318503 291.200696,657.064577 C291.200696,685.814134 314.719896,709.333333 343.46597,709.333333 C372.212045,709.333333 395.731244,685.814134 395.731244,657.064577 C395.731244,628.318503 372.212045,604.799304 343.46597,604.799304 Z M272.904891,186.666667 L186.666667,186.666667 L186.666667,238.93194 L238.93194,238.93194 L333.012219,437.546249 L296.427572,500.265274 C293.812393,508.107328 291.200696,518.56108 291.200696,526.399652 C291.200696,555.145726 314.719896,578.664926 343.46597,578.664926 L657.06806,578.664926 L657.06806,526.399652 L353.919721,526.399652 C351.304542,526.399652 348.692846,523.787955 348.692846,521.172776 L348.692846,518.56108 L372.212045,474.134378 L565.599478,474.134378 C586.50698,474.134378 602.184125,463.680627 610.026179,448 L704.106458,278.131766 C709.128358,273.109866 709.325295,270.502055 709.333018,265.669495 L709.333333,265.066318 L709.333333,265.066318 C709.333333,249.385692 698.879582,238.93194 683.198955,238.93194 L296.42409,238.93194 L272.904891,186.666667 Z" id="md-s-cart" fill="#333333"></path>
    </g>
</svg>