<?xml version="1.0" encoding="UTF-8"?>
<svg width="896px" height="896px" viewBox="0 0 896 896" version="1.1" xmlns="http://www.w3.org/2000/svg" xmlns:xlink="http://www.w3.org/1999/xlink">
    <title>0229线型-二维码</title>
    <g id="0229线型-二维码" stroke="none" stroke-width="1" fill="none" fill-rule="evenodd">
        <path d="M268.8,492.8 C343.02707,492.8 403.2,552.97293 403.2,627.2 L403.2,761.6 C403.2,835.82707 343.02707,896 268.8,896 L134.4,896 C60.1729296,896 0,835.82707 0,761.6 L0,627.2 C0,552.97293 60.1729296,492.8 134.4,492.8 L268.8,492.8 Z M548.8,560 C567.356768,560 582.4,575.043232 582.4,593.6 L582.4,862.4 C582.4,880.956768 567.356768,896 548.8,896 C530.243232,896 515.2,880.956768 515.2,862.4 L515.2,593.6 C515.2,575.043232 530.243232,560 548.8,560 Z M840,515.2 C858.556768,515.2 873.6,530.243232 873.6,548.8 L873.6,862.4 C873.6,880.956768 858.556768,896 840,896 C821.443232,896 806.4,880.956768 806.4,862.4 L806.4,548.8 C806.4,530.243232 821.443232,515.2 840,515.2 Z M694.4,649.6 C712.956768,649.6 728,664.643232 728,683.2 L728,862.4 C728,880.956768 712.956768,896 694.4,896 C675.843232,896 660.8,880.956768 660.8,862.4 L660.8,683.2 C660.8,664.643232 675.843232,649.6 694.4,649.6 Z M268.8,560 L134.4,560 C98.1299542,560 68.5711963,588.734439 67.2463509,624.680691 L67.2,627.2 L67.2,761.6 C67.2,797.870046 95.9344388,827.428804 131.880691,828.753649 L134.4,828.8 L268.8,828.8 C305.070046,828.8 334.628804,800.065561 335.953649,764.119309 L336,761.6 L336,627.2 C336,590.929954 307.265561,561.371196 271.319309,560.046351 L268.8,560 Z M268.8,0 C343.02707,0 403.2,60.1729296 403.2,134.4 L403.2,268.8 C403.2,343.02707 343.02707,403.2 268.8,403.2 L134.4,403.2 C60.1729296,403.2 0,343.02707 0,268.8 L0,134.4 C0,60.1729296 60.1729296,0 134.4,0 L268.8,0 Z M761.6,0 C835.82707,0 896,60.1729296 896,134.4 L896,268.8 C896,343.02707 835.82707,403.2 761.6,403.2 L627.2,403.2 C552.97293,403.2 492.8,343.02707 492.8,268.8 L492.8,134.4 C492.8,60.1729296 552.97293,0 627.2,0 L761.6,0 Z M268.8,67.2 L134.4,67.2 C98.1299542,67.2 68.5711963,95.9344388 67.2463509,131.880691 L67.2,134.4 L67.2,268.8 C67.2,305.070046 95.9344388,334.628804 131.880691,335.953649 L134.4,336 L268.8,336 C305.070046,336 334.628804,307.265561 335.953649,271.319309 L336,268.8 L336,134.4 C336,98.1299542 307.265561,68.5711963 271.319309,67.2463509 L268.8,67.2 Z M761.6,67.2 L627.2,67.2 C590.929954,67.2 561.371196,95.9344388 560.046351,131.880691 L560,134.4 L560,268.8 C560,305.070046 588.734439,334.628804 624.680691,335.953649 L627.2,336 L761.6,336 C797.870046,336 827.428804,307.265561 828.753649,271.319309 L828.8,268.8 L828.8,134.4 C828.8,98.1299542 800.065561,68.5711963 764.119309,67.2463509 L761.6,67.2 Z" id="Combined-Shape" fill="#333333" fill-rule="nonzero"></path>
    </g>
</svg>