<?xml version="1.0" encoding="UTF-8"?>
<svg width="896px" height="794px" viewBox="0 0 896 794" version="1.1" xmlns="http://www.w3.org/2000/svg" xmlns:xlink="http://www.w3.org/1999/xlink">
    <title>0183待评价-会员中心</title>
    <g id="0183待评价-会员中心" stroke="none" stroke-width="1" fill="none" fill-rule="evenodd">
        <path d="M748.359931,0 C829.89929,-5.89783262e-14 896,66.1007103 896,147.640069 L896,548.513541 C896,630.052899 829.89929,696.153609 748.359931,696.153609 L187.966,696.153 L49.1934058,788.686314 C40.798924,794.283729 30.2477773,795.536193 20.7897251,792.081879 L20.3097651,791.902178 C3.99638567,785.643617 -4.1546552,767.345444 2.10390573,751.032065 L2.10390573,751.032065 L31.2510258,675.058046 L31.2510258,147.640069 C31.2510258,66.1007103 97.3517361,-1.34431723e-14 178.891095,0 L748.359931,0 Z M221.073971,295.337895 C191.952772,295.337895 168.345375,318.949909 168.345375,348.076805 C168.345375,377.2037 191.952772,400.815715 221.073971,400.815715 C250.195171,400.815715 273.802567,377.2037 273.802567,348.076805 C273.802567,318.949909 250.195171,295.337895 221.073971,295.337895 Z M463.625513,295.337895 C434.504313,295.337895 410.896917,318.949909 410.896917,348.076805 C410.896917,377.2037 434.504313,400.815715 463.625513,400.815715 C492.746712,400.815715 516.354109,377.2037 516.354109,348.076805 C516.354109,318.949909 492.746712,295.337895 463.625513,295.337895 Z M706.177054,295.337895 C677.055855,295.337895 653.448458,318.949909 653.448458,348.076805 C653.448458,377.2037 677.055855,400.815715 706.177054,400.815715 C735.298254,400.815715 758.90565,377.2037 758.90565,348.076805 C758.90565,318.949909 735.298254,295.337895 706.177054,295.337895 Z" id="Combined-Shape" fill="#333333"></path>
    </g>
</svg>