<?xml version="1.0" encoding="UTF-8"?>
<svg width="896px" height="896px" viewBox="0 0 896 896" version="1.1" xmlns="http://www.w3.org/2000/svg" xmlns:xlink="http://www.w3.org/1999/xlink">
    <title>031推荐</title>
    <g id="031推荐" stroke="none" stroke-width="1" fill="none" fill-rule="evenodd">
        <path d="M448,896 C695.423568,896 896,695.423568 896,448 C896,200.576432 695.423568,0 448,0 C200.576432,0 0,200.576432 0,448 C0,695.423568 200.576432,896 448,896 Z M448,843.294118 C229.685087,843.294118 52.7058824,666.314913 52.7058824,448 C52.7058824,229.685087 229.685087,52.7058824 448,52.7058824 C666.314913,52.7058824 843.294118,229.685087 843.294118,448 C843.294118,666.314913 666.314913,843.294118 448,843.294118 Z M506.307907,334.750077 C515.419022,353.966381 533.114319,367.295298 553.651294,370.425165 L684.7422,390.164913 C684.7422,390.181102 685.699284,391.778414 684.771773,392.738959 L589.53387,490.166864 C575.107714,504.858353 568.531796,525.936388 571.900408,546.512566 L594.381124,684.09181 C594.469842,684.555893 477.770142,620.709303 477.770142,620.709303 C468.659027,615.688025 458.34618,613.02494 447.998383,613.02494 C437.650587,613.02494 427.367313,615.688025 418.258886,620.741681 L301.618332,685.052355 C301.572628,684.806822 324.131308,546.544944 324.131308,546.544944 C327.516051,525.96337 320.921314,504.89073 306.527419,490.199242 L211.246501,392.725468 C210.458789,391.918718 211.04218,390.618204 210.891627,390.461711 L342.40193,370.425165 C362.968478,367.276411 380.663775,353.934003 389.742629,334.674528 L448.033333,210.823529 L506.307907,334.750077 Z M354.313598,312.219106 C349.402038,322.593995 339.926846,329.800471 328.967168,331.467294 L186.97265,353.028744 C159.364699,357.22624 148.341234,392.687548 168.320901,413.034391 L271.066434,517.739896 C278.990456,525.795727 282.623386,537.451896 280.741685,548.841374 L256.494121,696.687172 C252.751014,719.396555 270.069046,737.879454 289.68339,737.879454 C294.841397,737.879454 300.173368,736.615567 305.316878,733.783416 L432.32737,663.988442 C437.224433,661.289638 442.61729,659.924292 447.981154,659.924292 C453.376911,659.924292 458.737875,661.289638 463.666831,663.988442 L590.657027,733.783416 C595.817934,736.612668 601.118011,737.879454 606.310811,737.879454 C625.928055,737.879454 643.243187,719.399454 639.517476,696.687172 L615.23802,548.841374 C613.373715,537.451896 617.000846,525.795727 624.930666,517.739896 L727.679099,413.034391 C747.658766,392.687548 736.635301,357.22624 709.02735,353.028744 L567.047329,331.467294 C556.058657,329.803369 546.600861,322.593995 541.669006,312.219106 L478.192754,177.728188 C471.996766,164.657393 460.007806,158.117647 448.018846,158.117647 C435.995093,158.117647 423.988737,164.660292 417.813045,177.728188 L354.313598,312.219106 Z" id="Recommend" fill="#333333" fill-rule="nonzero"></path>
    </g>
</svg>