<?xml version="1.0" encoding="UTF-8"?>
<svg width="896px" height="896px" viewBox="0 0 896 896" version="1.1" xmlns="http://www.w3.org/2000/svg" xmlns:xlink="http://www.w3.org/1999/xlink">
    <title>0167新门店</title>
    <g id="0167新门店" stroke="none" stroke-width="1" fill="none" fill-rule="evenodd">
        <path d="M727.29705,3.80576411 C733.591517,-0.28747531 741.461021,-1.13246209 748.481003,1.53114055 C760.636208,6.14320895 766.751129,19.7357698 762.139061,31.8909749 L762.139061,31.8909749 L748.377157,68.1607674 C738.725162,93.5988066 714.351073,110.42017 687.143448,110.42017 L687.143448,110.42017 L154.221508,110.42017 C136.148632,110.42017 121.497672,125.493716 121.497672,144.087877 C121.497672,162.682038 136.148632,177.755584 154.221508,177.755584 L154.221508,177.755584 L296.024796,177.755584 L296.024,177.761 L806.469992,177.776533 C826.901344,177.777132 844.600314,191.946178 849.072275,211.882119 L894.931839,416.323425 C900.20985,439.852723 885.414258,463.205661 861.88496,468.483671 C858.748089,469.187323 855.543099,469.542378 852.328277,469.542378 L819.606,469.542 L819.606168,743.182058 C819.606168,820.137076 762.724106,883.806578 688.711308,894.439235 L688.710825,580.540061 C688.710825,556.667196 669.551572,537.269214 645.770591,536.883641 L645.048556,536.877792 L557.84597,536.877792 C533.973105,536.877792 514.575123,556.037045 514.189551,579.818026 L514.183701,580.540061 L514.183701,896 L230.683833,896 C146.284814,896 77.865891,827.581077 77.865891,743.182058 L77.865,469.542 L43.6622864,469.542378 C19.548281,469.542378 1.72727255e-05,449.994114 1.72727255e-05,425.880109 C1.72727255e-05,423.058554 0.273518593,420.243643 0.816684497,417.474864 L56.650024,132.865308 C62.0753902,82.3641761 103.689948,43.0847556 154.221508,43.0847556 L154.221508,43.0847556 L647.472762,43.0847556 C660.148073,43.0847556 672.551044,39.406635 683.177161,32.4965598 L683.177161,32.4965598 Z M317.810198,536.877792 L230.607613,536.877792 C206.734747,536.877792 187.336765,556.037045 186.951193,579.818026 L186.945343,580.540061 L186.945343,672.776627 C186.945343,696.649492 206.104597,716.047474 229.885577,716.433046 L230.607613,716.438896 L317.810198,716.438896 C341.683064,716.438896 361.081046,697.279643 361.466618,673.498662 L361.472468,672.776627 L361.472468,580.540061 C361.472468,556.426056 341.924204,536.877792 317.810198,536.877792 Z" id="形状结合" fill="#333333"></path>
    </g>
</svg>