<?xml version="1.0" encoding="UTF-8"?>
<svg width="896px" height="896px" viewBox="0 0 896 896" version="1.1" xmlns="http://www.w3.org/2000/svg" xmlns:xlink="http://www.w3.org/1999/xlink">
    <title>0135联系电话</title>
    <g id="0135联系电话" stroke="none" stroke-width="1" fill="none" fill-rule="evenodd">
        <path d="M448.023163,0 C694.99538,0 896,200.970921 896,447.983724 C896,695.060379 694.994127,896 448.023163,896 C200.974572,896 0,695.060379 0,447.983724 C0,200.970921 200.974573,0 448.023163,0 Z M448.023163,48.421975 C227.66818,48.421975 48.3752786,227.756693 48.3752786,447.983723 C48.3752786,668.397304 227.638132,847.578023 448.023163,847.578023 C668.267966,847.578023 847.593421,668.394801 847.593421,447.983723 C847.593421,227.756692 668.267966,48.421975 448.023163,48.421975 Z M321.461405,135.493892 C331.49154,129.137373 344.778247,132.02579 351.212508,142.284863 L351.212508,142.284863 L434.646309,274.727576 L434.646309,274.788925 C440.743771,284.464556 438.597765,297.96762 427.98042,304.693486 L427.98042,304.693486 L427.98042,304.771111 L379.016681,330.526469 C359.111663,345.400499 370.468967,374.965761 384.804887,403.975127 L384.804887,403.975127 L456.126401,516.682206 C490.384867,560.5343 509.610025,581.366705 530.378954,571.399353 L530.378954,571.399353 L572.905928,535.383669 C583.014943,529.177393 596.330446,531.832933 602.720886,542.172136 L602.720886,542.172136 L686.217289,674.539728 L686.219793,674.598572 C692.344798,684.411926 690.216321,697.837365 679.536374,704.564483 L679.536374,704.564483 L679.536374,704.657132 L629.293044,728.420523 C597.105461,744.621696 468.162313,749.776273 326.27552,518.719248 C189.37312,296.130903 252.207018,192.17421 277.885217,169.736712 L277.885217,169.736712 Z" id="Combined-Shape" fill="#333333" fill-rule="nonzero"></path>
    </g>
</svg>