<?xml version="1.0" encoding="UTF-8"?>
<svg width="896px" height="896px" viewBox="0 0 896 896" version="1.1" xmlns="http://www.w3.org/2000/svg" xmlns:xlink="http://www.w3.org/1999/xlink">
    <title>083md-classity-商家</title>
    <g id="083md-classity-商家" stroke="none" stroke-width="1" fill="none" fill-rule="evenodd">
        <path d="M448,0 C695.423568,0 896,200.576432 896,448 C896,695.423568 695.423568,896 448,896 C200.576432,896 0,695.423568 0,448 C0,200.576432 200.576432,0 448,0 Z M597.333333,485.333333 C535.477441,485.333333 485.333333,535.477441 485.333333,597.333333 C485.333333,659.189225 535.477441,709.333333 597.333333,709.333333 C659.189225,709.333333 709.333333,659.189225 709.333333,597.333333 C709.333333,535.477441 659.189225,485.333333 597.333333,485.333333 Z M373.677622,485.333333 L223.655711,485.333333 C203.503073,485.333333 186.666667,501.893893 186.666667,522.322378 L186.666667,672.344289 C186.666667,692.496927 203.227226,709.333333 223.655711,709.333333 L373.677622,709.333333 C393.83026,709.333333 410.666667,692.772774 410.666667,672.344289 L410.666667,522.322378 C410.666667,502.16974 394.106107,485.333333 373.677622,485.333333 Z M672.344289,186.666667 L522.322378,186.666667 C502.16974,186.666667 485.333333,203.227226 485.333333,223.655711 L485.333333,373.677622 C485.333333,393.83026 501.893893,410.666667 522.322378,410.666667 L672.344289,410.666667 C692.496927,410.666667 709.333333,394.106107 709.333333,373.677622 L709.333333,223.655711 C709.333333,203.503073 692.772774,186.666667 672.344289,186.666667 Z M373.677622,186.666667 L223.655711,186.666667 C203.503073,186.666667 186.666667,203.227226 186.666667,223.655711 L186.666667,373.677622 C186.666667,393.83026 203.227226,410.666667 223.655711,410.666667 L373.677622,410.666667 C393.83026,410.666667 410.666667,394.106107 410.666667,373.677622 L410.666667,223.655711 C410.666667,203.503073 394.106107,186.666667 373.677622,186.666667 Z" id="md-s-classify" fill="#333333"></path>
    </g>
</svg>