<?xml version="1.0" encoding="UTF-8"?>
<svg width="896px" height="846px" viewBox="0 0 896 846" version="1.1" xmlns="http://www.w3.org/2000/svg" xmlns:xlink="http://www.w3.org/1999/xlink">
    <title>0171门店自提</title>
    <g id="0171门店自提" stroke="none" stroke-width="1" fill="none" fill-rule="evenodd">
        <path d="M686.604073,0 C779.739542,0 856.946541,73.2879156 863.225163,167.655674 L863.225163,167.655674 L895.590404,654.105674 C902.181292,753.166796 828.448307,838.89771 730.903172,845.59103 C726.93088,845.863599 722.950664,846 718.969315,846 L718.969315,846 L177.023801,846 C79.2562555,846 -1.70530257e-13,765.511991 -1.70530257e-13,666.225 C-1.70530257e-13,662.181775 0.134313637,658.139701 0.402711749,654.105674 L0.402711749,654.105674 L32.7679536,167.655674 C39.0465749,73.2879156 116.253574,0 209.389043,0 L209.389043,0 Z M686.604073,63.45 L209.389043,63.45 C149.124916,63.45 99.167446,110.871592 95.1048087,171.933083 L95.1048087,171.933083 L62.7395669,658.383083 C62.5658975,660.993336 62.4789887,663.608796 62.4789887,666.225 C62.4789887,730.469524 113.762448,782.55 177.023801,782.55 L177.023801,782.55 L718.969315,782.55 C721.545482,782.55 724.120916,782.46174 726.691223,782.285372 C789.808662,777.954401 837.518241,722.481457 833.253549,658.383083 L833.253549,658.383083 L800.888307,171.933083 C796.82567,110.871592 746.8682,63.45 686.604073,63.45 L686.604073,63.45 Z M604.19403,179.775 C621.447126,179.775 635.433524,193.978766 635.433524,211.5 C635.433524,278.986203 600.851114,338.26972 548.70126,372.071152 L549.022149,372.096361 L546.126639,373.710262 C540.703477,377.101021 535.097371,380.219148 529.326841,383.045834 L371.618392,470.690962 C362.731027,475.630239 352.036926,475.885965 342.930489,471.376972 C327.422491,463.698288 320.980316,444.706387 328.541489,428.957373 L328.541489,428.957373 L353.891514,376.156845 C298.079722,343.188923 260.559592,281.794206 260.559592,211.5 C260.559592,193.978766 274.54599,179.775 291.799086,179.775 C309.052183,179.775 323.038581,193.978766 323.038581,211.5 C323.038581,281.584935 378.984173,338.4 447.996558,338.4 C517.008943,338.4 572.954535,281.584935 572.954535,211.5 C572.954535,193.978766 586.940933,179.775 604.19403,179.775 Z" id="Combined-Shape" fill="#222222" fill-rule="nonzero"></path>
    </g>
</svg>