<?xml version="1.0" encoding="UTF-8"?>
<svg width="896px" height="838px" viewBox="0 0 896 838" version="1.1" xmlns="http://www.w3.org/2000/svg" xmlns:xlink="http://www.w3.org/1999/xlink">
    <title>0174喇叭</title>
    <g id="0174喇叭" stroke="none" stroke-width="1" fill="none" fill-rule="evenodd">
        <path d="M444.339105,32.9918852 C497.607419,-14.6970097 579.42683,-10.148819 627.087916,43.1505751 C634.62761,51.5822155 641.030475,60.966152 646.132965,71.0626939 C693.396769,164.585851 716.8,280.620949 716.8,418.98666 C716.8,557.352338 693.39678,673.387413 646.13301,766.910537 C613.878389,830.734455 536.021533,856.311101 472.234902,824.03758 C462.144243,818.932104 452.765774,812.525491 444.339046,804.981383 L444.339046,804.981383 L433.062838,794.886249 C373.378846,741.453582 304.13971,699.789144 228.990812,672.086532 L228.990812,672.086532 L162.893,647.72 L120.201271,644.669226 C53.1511962,639.877137 1.0510038,584.562673 0.0157049563,517.535164 L0,515.500482 L0,322.472839 C0,254.533266 52.4739227,198.144588 120.201271,193.304094 L120.201271,193.304094 L162.891,190.253 L228.990812,165.886788 C303.388221,138.461203 371.993472,97.3516309 431.269455,44.6865191 L433.062838,43.0870718 Z M582.572168,83.0037255 C556.90851,54.3040554 512.851897,51.8550292 484.168968,77.5336569 L484.168968,77.5336569 L472.892718,87.628828 C407.599315,146.083373 331.852726,191.663651 249.640946,221.969898 L249.640946,221.969898 L199.111111,240.588447 L199.111111,597.374912 L249.640946,616.003422 C329.200733,645.332048 402.705711,688.965178 466.541503,744.727872 L466.541503,744.727872 L472.892718,750.344492 L484.168926,760.439626 C488.706396,764.50184 493.756342,767.951556 499.189776,770.700659 C533.536428,788.078711 575.459343,774.306673 592.827222,739.939937 C635.501071,655.499112 657.066667,548.575129 657.066667,418.98666 C657.066667,289.398161 635.501061,182.474158 592.827192,98.0333236 C590.079698,92.5967257 586.632002,87.5438383 582.572168,83.0037255 Z M782.893357,215.716545 C852.645215,259.0246 896,335.29396 896,418.98666 C896,502.873719 852.44279,579.295125 782.428886,622.544425 C768.393277,631.214564 749.990735,626.858343 741.325659,612.814534 C732.660582,598.770724 737.014259,580.357431 751.049869,571.687292 C803.617682,539.214868 836.266667,481.932014 836.266667,418.98666 C836.266667,356.186852 803.769779,299.01861 751.398251,266.501784 C737.382483,257.799569 733.070878,239.376367 741.768012,225.352411 C750.465145,211.328454 768.877589,207.01433 782.893357,215.716545 Z M139.377778,251.844797 L124.457094,252.920438 C87.9885225,255.526858 59.7333333,285.889992 59.7333333,322.472839 L59.7333333,322.472839 L59.7333333,515.500482 C59.7333333,552.083329 87.9885225,582.446463 124.457094,585.052883 L124.457094,585.052883 L139.377778,586.118562 L139.377778,251.844797 Z" id="Combined-Shape" fill="#333333" fill-rule="nonzero"></path>
    </g>
</svg>