<?xml version="1.0" encoding="UTF-8"?>
<svg width="896px" height="704px" viewBox="0 0 896 704" version="1.1" xmlns="http://www.w3.org/2000/svg" xmlns:xlink="http://www.w3.org/1999/xlink">
    <title>041永辉卡</title>
    <g id="041永辉卡" stroke="none" stroke-width="1" fill="none" fill-rule="evenodd">
        <path d="M795.586207,1 C851.043214,1 896,45.963403 896,101.428571 L896,603.571429 C896,659.036597 851.043214,704 795.586207,704 L100.413793,704 C44.9567865,704 0,659.036597 0,603.571429 L0,101.428571 C0,45.963403 44.9567865,1 100.413793,1 L795.586207,1 Z M795.586207,47.3516484 L100.413793,47.3516484 C70.552328,47.3516484 46.3448276,71.5627115 46.3448276,101.428571 L46.3448276,603.571429 C46.3448276,633.437289 70.552328,657.648352 100.413793,657.648352 L795.586207,657.648352 C825.447672,657.648352 849.655172,633.437289 849.655172,603.571429 L849.655172,101.428571 C849.655172,71.5627115 825.447672,47.3516484 795.586207,47.3516484 Z M370.758621,464.516484 C383.556391,464.516484 393.931034,474.892653 393.931034,487.692308 C393.931034,500.491962 383.556391,510.868132 370.758621,510.868132 L139.034483,510.868132 C126.236712,510.868132 115.862069,500.491962 115.862069,487.692308 C115.862069,474.892653 126.236712,464.516484 139.034483,464.516484 L370.758621,464.516484 Z M756.965517,194.131868 C769.763288,194.131868 780.137931,204.508038 780.137931,217.307692 C780.137931,230.107347 769.763288,240.483516 756.965517,240.483516 L139.034483,240.483516 C126.236712,240.483516 115.862069,230.107347 115.862069,217.307692 C115.862069,204.508038 126.236712,194.131868 139.034483,194.131868 L756.965517,194.131868 Z" id="Combined-Shape" fill="#333333" fill-rule="nonzero"></path>
    </g>
</svg>