<?xml version="1.0" encoding="UTF-8"?>
<svg width="896px" height="896px" viewBox="0 0 896 896" version="1.1" xmlns="http://www.w3.org/2000/svg" xmlns:xlink="http://www.w3.org/1999/xlink">
    <title>0178货源</title>
    <g id="0178货源" stroke="none" stroke-width="1" fill="none" fill-rule="evenodd">
        <path d="M448,0 C695.423568,0 896,200.576432 896,448 C896,695.423568 695.423568,896 448,896 C200.576432,896 0,695.423568 0,448 C0,200.576432 200.576432,0 448,0 Z M623.807324,97.5392961 L623.378507,97.824097 C614.228238,103.85548 604.339415,111.291862 593.712742,119.466092 C592.08362,120.914137 590.418282,122.36222 588.745701,123.803083 L587.071779,125.24127 C580.933081,130.503828 574.826843,135.636788 570.181296,140.282335 C560.972525,150.328589 554.860803,159.600171 548.981359,168.813652 L548.029519,170.307334 L548.029519,170.307334 L547.554278,171.054005 L543.284003,177.997718 C538.787291,185.082778 533.526524,192.549528 526.738993,200.016818 C515.878178,212.686491 506.82718,219.926715 495.061935,224.452694 C484.20112,228.072327 470.625101,228.977714 447.999042,228.977714 C390.980721,228.072327 384.645884,229.882143 384.645884,265.179792 L384.645884,265.179792 L384.645884,299.571096 L385.159922,304.762565 C386.492069,312.061033 390.256794,320.749685 394.600354,329.438337 C408.176373,360.210008 425.372983,397.317474 368.354661,435.329368 L368.354661,435.329368 L366.543887,436.234756 L356.532118,431.004705 C333.736359,418.612077 326.722362,411.267881 321.744408,404.008655 L321.744408,404.008655 L315.325189,393.965216 C312.643696,390.076824 308.621456,385.249795 301.380912,379.216435 C287.713068,366.403113 265.177816,360.039359 242.14359,354.799952 L240.497552,354.427549 C239.674222,354.242231 238.85051,354.058187 238.026796,353.875171 L238.026796,353.875171 L235.800645,353.331887 C234.687808,353.06002 233.575509,352.787649 232.464553,352.514015 L230.244674,351.964839 C195.871718,343.419561 163.306899,333.175719 156.572599,298.666667 C155.925894,295.434509 154.817745,285.737255 153.907358,273.533277 L153.907358,273.533277 L152.952008,257.93861 C150.915605,241.648106 149.748849,217.53318 149.292746,201.911967 L149.292746,201.911967 L149.145094,194.315193 C91.050067,262.687009 56,351.250313 56,448 C56,664.495622 231.504378,840 448,840 C493.645024,840 537.467917,832.198527 578.208019,817.85624 C575.409164,745.667171 538.49838,699.26656 503.676337,662.560771 L503.676337,662.560771 L472.587805,630.29908 C452.198353,608.519781 437.138227,588.825759 437.138227,565.656275 C437.138227,563.981932 437.14049,562.307588 437.14694,560.634149 L437.156813,558.626515 C437.344803,527.51672 439.24731,496.845328 455.239266,472.436834 C472.434918,446.191142 506.82718,428.993574 573.801887,428.993574 L573.801887,428.993574 L600.506919,429.09655 C631.756407,429.765898 644.51554,434.786008 668.831145,472.436834 C685.021556,496.370356 702.854497,508.806163 720.626905,518.261381 L720.626905,518.261381 L741.846824,528.87148 C771.689308,544.038331 795.764705,559.99988 799.159009,624.485371 L799.054999,622.619924 C825.260374,570.038492 840,510.740558 840,448 C840,294.717663 752.022029,161.983683 623.807324,97.5392961 Z" id="Combined-Shape" fill="#333333" fill-rule="nonzero"></path>
    </g>
</svg>