<?xml version="1.0" encoding="UTF-8"?>
<svg width="896px" height="896px" viewBox="0 0 896 896" version="1.1" xmlns="http://www.w3.org/2000/svg" xmlns:xlink="http://www.w3.org/1999/xlink">
    <title>050iOS-不可选</title>
    <g id="050iOS-不可选" stroke="none" stroke-width="1" fill="none" fill-rule="evenodd">
        <path d="M448,0 C695.423568,0 896,200.576432 896,448 C896,695.423568 695.423568,896 448,896 C200.576432,896 0,695.423568 0,448 C0,200.576432 200.576432,0 448,0 Z M153.664279,196.860918 C95.9424728,264.446379 61.0909091,352.15318 61.0909091,448 C61.0909091,661.68399 234.31601,834.909091 448,834.909091 C543.84682,834.909091 631.553621,800.057527 699.139082,742.335721 Z M448,61.0909091 C352.15318,61.0909091 264.446379,95.9424728 196.860918,153.664279 L742.335721,699.139082 C800.057527,631.553621 834.909091,543.84682 834.909091,448 C834.909091,234.31601 661.68399,61.0909091 448,61.0909091 Z" id="Combined-Shape" fill="#333333"></path>
    </g>
</svg>