<?xml version="1.0" encoding="UTF-8"?>
<svg width="896px" height="896px" viewBox="0 0 896 896" version="1.1" xmlns="http://www.w3.org/2000/svg" xmlns:xlink="http://www.w3.org/1999/xlink">
    <title>0224上滑</title>
    <g id="0224上滑" stroke="none" stroke-width="1" fill="none" fill-rule="evenodd">
        <path d="M84.975982,433.693167 L412.801796,112 C432.241227,92.9242226 463.758773,92.9242226 483.198204,112 L811.024018,433.693167 C830.463449,452.768944 861.980995,452.768944 881.420426,433.693167 C900.859858,414.61739 900.859858,383.689444 881.420426,364.613666 L553.594613,42.9204992 C495.276318,-14.3068331 400.723682,-14.3068331 342.405387,42.9204992 L14.5795736,364.613666 C-4.85985785,383.689444 -4.85985785,414.61739 14.5795736,433.693167 C34.019005,452.768944 65.5365506,452.768944 84.975982,433.693167 Z M84.975982,881.693167 L412.801796,560 C432.241227,540.924223 463.758773,540.924223 483.198204,560 L811.024018,881.693167 C830.463449,900.768944 861.980995,900.768944 881.420426,881.693167 C900.859858,862.61739 900.859858,831.689444 881.420426,812.613666 L553.594613,490.920499 C495.276318,433.693167 400.723682,433.693167 342.405387,490.920499 L14.5795736,812.613666 C-4.85985785,831.689444 -4.85985785,862.61739 14.5795736,881.693167 C34.019005,900.768944 65.5365506,900.768944 84.975982,881.693167 Z" id="Shape" fill="#333333" fill-rule="nonzero"></path>
    </g>
</svg>