<?xml version="1.0" encoding="UTF-8"?>
<svg width="804px" height="896px" viewBox="0 0 804 896" version="1.1" xmlns="http://www.w3.org/2000/svg" xmlns:xlink="http://www.w3.org/1999/xlink">
    <title>096领券中心</title>
    <g id="096领券中心" stroke="none" stroke-width="1" fill="none" fill-rule="evenodd">
        <path d="M271.558419,526.505009 C179.935317,470.666286 127.004617,392.219013 123.781524,284.208204 C121.523015,208.520086 147.23026,142.845885 199.375835,88.2042226 C313.784905,-31.6813508 496.247005,-28.5163786 608.251756,92.5652372 C726.947406,220.882242 694.169955,443.368397 531.761179,526.734429 C539.683807,530.192039 546.799897,533.341717 553.949635,536.411863 C666.102235,584.560436 743.496216,665.973851 784.089234,781.297541 C793.318024,807.515627 797.181453,835.659821 803.030126,863.020927 C804.035495,867.724541 803.327862,873.131709 802.150175,877.901601 C799.211563,889.813073 790.749543,896.027798 779.268361,895.655629 C767.085664,895.260008 758.255553,887.8523 755.767624,876.016281 C751.092559,853.778881 748.525098,830.826712 741.342731,809.433576 C695.751422,673.647686 604.338366,587.66219 462.42238,562.323037 C340.851335,540.616872 235.152058,575.877154 147.645256,663.468587 C90.9112861,720.256598 59.0433561,789.572965 48.5532666,868.995017 C46.5720997,883.993969 40.5755775,892.513088 29.4951149,895.22432 C12.7423762,899.324305 -1.53874644,886.674612 0.133468319,868.9889 C6.14834355,805.352965 26.7186271,746.69085 61.3661039,693.170796 C108.327813,620.629297 172.022887,568.11563 251.874208,535.338179 C256.997915,533.234654 262.031893,530.911908 267.10054,528.67685 C268.056965,528.255737 268.98382,527.763249 271.558419,526.505009 Z M401.558854,508.195275 C527.197255,508.225864 628.381553,406.955917 630.282168,283.800346 C632.351024,149.677495 525.95533,52.5095717 407.397331,49.4302488 C283.30165,46.2071564 174.745333,145.197182 172.695849,275.161929 C170.687152,402.54596 272.483236,508.157548 401.558854,508.195275 Z" id="领券中心" fill="#333333"></path>
    </g>
</svg>