<?xml version="1.0" encoding="UTF-8"?>
<svg width="896px" height="459px" viewBox="0 0 896 459" version="1.1" xmlns="http://www.w3.org/2000/svg" xmlns:xlink="http://www.w3.org/1999/xlink">
    <title>0210闭眼</title>
    <g id="0210闭眼" stroke="none" stroke-width="1" fill="none" fill-rule="evenodd">
        <g id="closeeyes" transform="translate(-1.000000, -1.000000)" fill="#222222" fill-rule="nonzero">
            <path d="M874.186596,1.99481658 C890.506962,6.26510982 900.275477,22.9571377 896.005183,39.2775049 C884.361627,83.7772858 845.548792,140.096863 791.581609,188.385183 L877.871625,274.67383 L879.147951,276.028992 C889.784004,288.02502 889.358562,306.384689 877.871625,317.871625 C865.942884,329.800367 846.602571,329.800367 834.67383,317.871625 L834.67383,317.871625 L743.256857,226.456971 C698.862442,257.207103 649.38035,280.988226 595.704896,296.389799 L631.098528,420.253593 L631.541734,421.993559 C635.053414,437.666251 625.761219,453.546291 610.119824,458.015261 L610.119824,458.015261 L608.379858,458.458466 C592.707166,461.970147 576.827126,452.677952 572.358156,437.036556 L572.358156,437.036556 L535.984572,309.726023 C507.906294,314.275473 478.875016,316.636364 449,316.636364 C419.127311,316.636364 390.098229,314.27584 362.021989,309.727087 L325.641844,437.036556 C321.172874,452.677952 305.292834,461.970147 289.620142,458.458466 L287.880176,458.015261 C272.238781,453.546291 262.946586,437.666251 266.458266,421.993559 L266.901472,420.253593 L302.295104,296.389799 C248.61965,280.988226 199.137558,257.207103 154.743143,226.456971 L63.3261703,317.871625 C51.3974288,329.800367 32.0571167,329.800367 20.1283747,317.871625 C8.64143795,306.384689 8.21599587,288.02502 18.8520484,276.028992 L20.1283747,274.67383 L106.421498,188.387963 C52.4526974,140.099024 13.638597,83.7781391 1.99481668,39.2775049 C-2.27547655,22.9571377 7.49303791,6.26510982 23.8134045,1.99481658 C40.1337711,-2.27547665 56.8257991,7.49303811 61.0960924,23.8134042 C70.9507332,61.4762388 113.641831,118.802857 172.376817,163.744392 C248.011191,221.616625 342.083869,255.545455 449,255.545455 C555.916131,255.545455 649.988809,221.616625 725.623183,163.744392 C784.358169,118.802857 827.049267,61.4762388 836.903907,23.8134042 C841.174201,7.49303811 857.866229,-2.27547665 874.186596,1.99481658 Z" id="Combined-Shape"></path>
        </g>
    </g>
</svg>