<?xml version="1.0" encoding="UTF-8"?>
<svg width="896px" height="768px" viewBox="0 0 896 768" version="1.1" xmlns="http://www.w3.org/2000/svg" xmlns:xlink="http://www.w3.org/1999/xlink">
    <title>040意见反馈</title>
    <g id="040意见反馈" stroke="none" stroke-width="1" fill="none" fill-rule="evenodd">
        <path d="M291.953958,760.646559 C304.253362,770.719761 322.462657,770.410103 334.381459,759.925059 L397.260397,674.72139 L799.554809,674.72139 C852.564708,674.72139 896,633.28453 896,582.996233 L896,91.7251568 C896,40.9742939 852.780658,0 799.56189,0 L96.4381104,0 C43.4313148,0 0,41.437618 0,91.7251568 L0,582.996233 C0,633.613772 43.0194436,674.72139 95.7671548,674.72139 L214.935859,674.72139 L291.953958,760.646559 Z M799.56189,61.3383082 C817.58915,61.3383082 832,75.0005799 832,91.7251568 L832,582.996233 C832,599.344678 817.284547,613.383082 799.554809,613.383082 L384.800781,613.383082 C376.787373,613.383082 369.065605,616.264612 363.162057,621.458 L311.984375,696.368002 C295.154061,682.583989 262.589615,640.551136 251.411717,625.86591 L250.632528,624.840994 C248.659344,622.242337 247.534871,620.7365 247.534871,620.7365 C241.740205,615.990674 234.368307,613.383082 226.746094,613.383082 L95.7671548,613.383082 C78.3230407,613.383082 64,599.696571 64,582.996233 L64,91.7251568 C64,75.375954 78.713042,61.3383082 96.4381104,61.3383082 L799.56189,61.3383082 Z M735.382431,448 L160.617569,448 C142.569778,448 128,462.326888 128,480 C128,497.15625 142.603383,512 160.617569,512 L735.382431,512 C753.430222,512 768,497.673112 768,480 C768,462.84375 753.396617,448 735.382431,448 Z M735.382431,320 L160.617569,320 C142.569778,320 128,334.326888 128,352 C128,369.15625 142.603383,384 160.617569,384 L735.382431,384 C753.430222,384 768,369.673112 768,352 C768,334.84375 753.396617,320 735.382431,320 Z M352.609375,192 L159.390625,192 C141.763672,192 128,206.326888 128,224 C128,241.15625 142.054062,256 159.390625,256 L352.609375,256 C370.236328,256 384,241.673112 384,224 C384,206.84375 369.945938,192 352.609375,192 Z" id="意见反馈" fill="#333333" fill-rule="nonzero"></path>
    </g>
</svg>