<?xml version="1.0" encoding="UTF-8"?>
<svg width="807px" height="896px" viewBox="0 0 807 896" version="1.1" xmlns="http://www.w3.org/2000/svg" xmlns:xlink="http://www.w3.org/1999/xlink">
    <title>0201评价</title>
    <g id="0201评价" stroke="none" stroke-width="1" fill="none" fill-rule="evenodd">
        <g id="评价" fill="#333333" fill-rule="nonzero">
            <path d="M472.030545,11.8094546 C487.776486,27.555394 487.776486,53.0846059 472.030545,68.8305453 C410.345731,130.51536 327.782057,166.52106 240.949862,169.967418 L227.206465,170.24 L199.608889,170.24 C136.43129,170.24 84.7556483,219.485734 80.8740567,281.685109 L80.64,289.208889 L80.64,696.391109 C80.64,759.56871 129.885734,811.244354 192.085109,815.125942 L199.608889,815.36 L606.791109,815.36 C669.96871,815.36 721.644354,766.114268 725.525942,703.914893 L725.76,696.391109 L725.76,289.208889 C725.76,226.03129 676.514268,174.355648 614.314893,170.474057 L606.791109,170.24 L566.968891,170.24 C544.700769,170.24 526.648891,152.188121 526.648891,129.92 C526.648891,109.364811 542.030371,92.4021603 561.911235,89.9141501 L566.968891,89.6 L606.791109,89.6 C713.882315,89.6 801.27622,173.934157 806.182738,279.81238 L806.4,289.208889 L806.4,696.391109 C806.4,803.482315 722.065841,890.87622 616.187618,895.782738 L606.791109,896 L199.608889,896 C92.5176851,896 5.12377882,811.665841 0.217262721,705.787618 L1.76214598e-12,696.391109 L1.76214598e-12,289.208889 C1.76214598e-12,182.117685 84.3341574,94.7237787 190.21238,89.8172625 L199.608889,89.6 L227.206465,89.6 C297.64625,89.6 365.201005,61.6179043 415.009455,11.8094546 C430.755394,-3.93648486 456.284604,-3.93648486 472.030545,11.8094546 Z M573.44,456.96 C603.130828,456.96 627.2,481.029172 627.2,510.72 C627.2,540.410828 603.130828,564.48 573.44,564.48 L412.16,564.48 C382.469172,564.48 358.4,540.410828 358.4,510.72 C358.4,481.029172 382.469172,456.96 412.16,456.96 L573.44,456.96 Z M259.84,456.96 C289.530828,456.96 313.6,481.029172 313.6,510.72 C313.6,540.410828 289.530828,564.48 259.84,564.48 L232.96,564.48 C203.269172,564.48 179.2,540.410828 179.2,510.72 C179.2,481.029172 203.269172,456.96 232.96,456.96 L259.84,456.96 Z" id="Path" transform="translate(403.200000, 448.000000) rotate(-180.000000) translate(-403.200000, -448.000000) "></path>
        </g>
    </g>
</svg>