<?xml version="1.0" encoding="UTF-8"?>
<svg width="896px" height="611px" viewBox="0 0 896 611" version="1.1" xmlns="http://www.w3.org/2000/svg" xmlns:xlink="http://www.w3.org/1999/xlink">
    <title>079md-睁眼</title>
    <g id="079md-睁眼" stroke="none" stroke-width="1" fill="none" fill-rule="evenodd">
        <path d="M448,0 C244.363636,0 70.4581818,126.661818 0,305.454545 C70.4581818,484.247273 244.363636,610.909091 448,610.909091 C651.636364,610.909091 825.541818,484.247273 896,305.454545 C825.541818,126.661818 651.636364,0 448,0 L448,0 Z M448,509.090909 C335.592727,509.090909 244.363636,417.861818 244.363636,305.454545 C244.363636,193.047273 335.592727,101.818182 448,101.818182 C560.407273,101.818182 651.636364,193.047273 651.636364,305.454545 C651.636364,417.861818 560.407273,509.090909 448,509.090909 L448,509.090909 Z M448,183.272727 C380.392727,183.272727 325.818182,237.847273 325.818182,305.454545 C325.818182,373.061818 380.392727,427.636364 448,427.636364 C515.607273,427.636364 570.181818,373.061818 570.181818,305.454545 C570.181818,237.847273 515.607273,183.272727 448,183.272727 L448,183.272727 Z" id="md-open-eye" fill="#333333"></path>
    </g>
</svg>