<?xml version="1.0" encoding="UTF-8"?>
<svg width="793px" height="896px" viewBox="0 0 793 896" version="1.1" xmlns="http://www.w3.org/2000/svg" xmlns:xlink="http://www.w3.org/1999/xlink">
    <title>0104新垃圾桶</title>
    <g id="0104新垃圾桶" stroke="none" stroke-width="1" fill="none" fill-rule="evenodd">
        <path d="M693.875,360.53028 C710.298568,360.53028 723.6125,373.849055 723.6125,390.278598 L723.6125,390.278598 L723.6125,727.426199 C723.6125,820.526939 648.166884,896 555.1,896 L555.1,896 L237.9,896 C144.833116,896 69.3875,820.526939 69.3875,727.426199 L69.3875,727.426199 L69.3875,390.278598 C69.3875,373.849055 82.7014323,360.53028 99.125,360.53028 C115.548568,360.53028 128.8625,373.849055 128.8625,390.278598 L128.8625,390.278598 L128.8625,727.426199 C128.8625,787.667854 177.680252,836.503364 237.9,836.503364 L237.9,836.503364 L555.1,836.503364 C615.319748,836.503364 664.1375,787.667854 664.1375,727.426199 L664.1375,727.426199 L664.1375,390.278598 C664.1375,373.849055 677.451432,360.53028 693.875,360.53028 Z M297.375,400.194704 C313.798568,400.194704 327.1125,413.513479 327.1125,429.943021 L327.1125,429.943021 L327.1125,707.593987 C327.1125,724.02353 313.798568,737.342305 297.375,737.342305 C280.951432,737.342305 267.6375,724.02353 267.6375,707.593987 L267.6375,707.593987 L267.6375,429.943021 C267.6375,413.513479 280.951432,400.194704 297.375,400.194704 Z M495.625,400.194704 C512.048568,400.194704 525.3625,413.513479 525.3625,429.943021 L525.3625,429.943021 L525.3625,707.593987 C525.3625,724.02353 512.048568,737.342305 495.625,737.342305 C479.201432,737.342305 465.8875,724.02353 465.8875,707.593987 L465.8875,707.593987 L465.8875,429.943021 C465.8875,413.513479 479.201432,400.194704 495.625,400.194704 Z M418.495522,4.8406291 C426.548152,-0.419850827 436.64677,-1.45967063 445.601734,2.04959606 C460.893817,8.04224957 468.43426,25.3014471 462.443786,40.5990928 L462.443786,40.5990928 L445.887,82.879 L574.925,82.879314 C656.22166,82.879314 722.279552,148.147974 723.59258,229.161189 L723.6125,231.620903 L723.612,241.537 L763.2625,241.537009 C779.521832,241.537009 792.73341,254.590741 792.996016,270.793384 L793,271.285327 C793,287.714869 779.686068,301.033644 763.2625,301.033644 L763.2625,301.033644 L29.7375,301.033644 C13.3139323,301.033644 0,287.714869 0,271.285327 C0,254.855784 13.3139323,241.537009 29.7375,241.537009 L29.7375,241.537009 L69.387,241.537 L69.3875,231.620903 C69.3875,150.294669 134.632425,84.2127469 215.61618,82.8992411 L218.075,82.879314 L299.036,82.879 Z M574.925,142.37595 L218.075,142.37595 C168.804297,142.37595 128.8625,182.332276 128.8625,231.620903 L128.8625,231.620903 L128.862,241.537 L664.137,241.537 L664.1375,231.620903 C664.1375,182.825162 624.990545,143.176009 576.400292,142.387906 L574.925,142.37595 Z" id="形状结合" fill="#222222"></path>
    </g>
</svg>