<?xml version="1.0" encoding="UTF-8"?>
<svg width="721px" height="896px" viewBox="0 0 721 896" version="1.1" xmlns="http://www.w3.org/2000/svg" xmlns:xlink="http://www.w3.org/1999/xlink">
    <title>0148蓝牙授权定位</title>
    <g id="0148蓝牙授权定位" stroke="none" stroke-width="1" fill="none" fill-rule="evenodd">
        <path d="M360.403916,0 C363.41763,0.0507959612 363.41763,0.0507959612 364.74173,0.14774835 C367.632461,0.492316982 367.632461,0.492316982 368.918206,0.720577775 C370.881057,1.13402736 370.881057,1.13402736 372.866146,1.67282124 C374.911667,2.27726496 376.910925,3.03422018 378.851981,3.93943751 C381.61476,5.36086604 381.61476,5.36086604 382.712132,6.00979155 C382.965983,6.14473776 489.025881,73.4361063 700.891825,207.883897 C713.403575,215.812448 721,229.790994 721,244.822778 C721,259.854562 713.403575,273.833109 700.895235,281.759497 L438.975884,447.985993 L700.895235,614.212489 C713.394166,622.159912 720.975742,636.136124 720.975742,651.16173 C720.975742,666.187336 713.394166,680.163548 700.895265,688.110952 L383.660134,889.445023 C380.833033,891.093713 380.092551,891.490955 378.771538,892.102653 C376.504755,893.140347 374.852671,893.74324 373.044332,894.284423 C372.604208,894.395142 372.224791,894.49059 371.892627,894.573791 L371.428141,894.689788 C369.770569,895.102136 369.452921,895.159634 367.917619,895.437538 C364.111428,895.922025 364.049869,895.928682 361.844298,896 C358.496851,895.945908 358.400469,895.93623 356.299506,895.725264 C353.103714,895.217504 353.103714,895.217504 351.314036,894.815643 C348.121464,893.91818 348.121464,893.91818 346.317684,893.259663 C343.004592,891.880449 342.172336,891.483568 340.818888,890.730027 C338.473078,889.312036 338.473078,889.312036 336.798132,888.145225 C334.066305,886.005931 334.066305,886.005931 332.862809,884.930033 C332.325184,884.400485 331.864811,883.94476 331.465487,883.546203 L331.085914,883.166085 C329.944573,882.018814 329.361269,881.389131 328.821504,880.748141 L328.651899,880.54473 C328.538994,880.408049 328.425618,880.2684 328.30697,880.120847 C326.601541,877.829712 326.553955,877.765968 325.42302,876.003814 C323.437215,872.531651 323.437215,872.531651 322.498994,870.518371 C321.660573,868.528364 321.660573,868.528364 320.920133,866.432474 C320.279828,864.361652 320.279828,864.361652 319.754043,862.203922 C319.320792,860.066153 319.320792,860.066153 319.016572,857.86597 C318.79951,855.703883 318.79951,855.703883 318.716339,853.523099 C318.70688,853.391699 318.698743,832.303273 318.691927,790.257821 L318.691006,784.394451 C318.689941,777.402305 318.688909,769.879737 318.687911,761.826749 L318.687063,754.794289 C318.686644,751.21311 318.68623,747.534506 318.685823,743.758478 L318.685016,736.076524 C318.684617,732.170597 318.684224,728.167246 318.683837,724.066471 L318.683072,715.735021 C318.682693,711.504347 318.68232,707.176249 318.681954,702.750726 L318.681229,693.769783 C318.68111,692.251309 318.680991,690.72201 318.680873,689.181886 L318.680173,679.811246 C318.680058,678.227823 318.679943,676.633574 318.679829,675.028501 L318.679154,665.268164 C318.679043,663.619791 318.678932,661.960593 318.678822,660.290571 L318.678171,650.140537 C318.678064,648.427215 318.677958,646.703067 318.677852,644.968095 L318.677226,634.428364 C318.677123,632.650093 318.677021,630.860996 318.676919,629.061075 L318.676022,612.569509 C318.675925,610.704638 318.675828,608.828942 318.675732,606.942421 L318.675163,595.493398 C318.675069,593.563578 318.674977,591.622932 318.674884,589.671462 L318.674074,571.815958 C318.673986,569.799538 318.673899,567.772293 318.673812,565.734224 L318.673051,547.099326 C318.672968,544.996307 318.672886,542.882463 318.672805,540.757794 L318.672326,527.879883 L318.672326,527.879883 L66.1924834,688.110774 C46.2075986,700.517936 20.2014421,694.07916 7.96000509,673.746837 C-4.22538288,653.507608 1.73882881,626.986552 21.4379013,614.212457 L318.666228,425.41316 L318.666228,43.4189591 C318.745253,41.1346713 318.745805,41.1266979 318.83612,39.8229266 C319.034832,37.7106999 319.034832,37.7106999 319.37567,35.6174848 C319.773533,33.5861647 319.773533,33.5861647 320.290056,31.5950323 C320.873311,29.4627681 321.623361,27.3817382 322.531618,25.3752667 C323.453036,23.4173108 323.453036,23.4173108 324.52778,21.4598588 C326.056698,18.9695917 326.056698,18.9695917 326.752007,17.9758689 C328.578483,15.5618855 328.578483,15.5618855 329.193404,14.8419424 C330.70031,13.1780359 331.077036,12.7620593 331.329384,12.5057595 L331.390462,12.4443814 C331.450113,12.3850704 331.507229,12.3300711 331.577525,12.2623798 C332.792784,11.084485 332.792784,11.084485 333.805877,10.1801302 C335.90603,8.49247631 335.90603,8.49247631 337.067704,7.63941315 C338.838584,6.48742962 339.369848,6.14183456 339.835559,5.85699132 L339.967849,5.77661654 C340.122474,5.68327167 340.282239,5.58878667 340.490628,5.46554536 C340.970783,5.20382484 341.764166,4.79126043 342.870777,4.22785215 C344.465122,3.50277673 344.97759,3.26971678 345.446406,3.07839393 L345.594213,3.01883838 C345.767788,2.94975011 345.950271,2.87989349 346.193582,2.78675134 L346.686476,2.61274276 C348.219081,2.07179757 348.681657,1.91035479 349.085391,1.78847124 L349.205758,1.75275301 C349.326382,1.71754167 349.45081,1.68283117 349.606346,1.63944305 C350.087306,1.50680641 350.423978,1.41396075 350.678973,1.34434888 L350.909062,1.28186837 C351.324063,1.16994361 351.495839,1.12887766 351.925278,1.02621281 C354.110896,0.615097275 354.74543,0.495741154 355.350632,0.403740848 L355.516103,0.379129448 C355.710971,0.350743916 355.916876,0.32269441 356.182836,0.286463798 C359.187232,0.0380967608 359.187232,0.0380967608 360.403916,0 Z M403.660759,527.880045 L403.660759,774.418372 L597.893608,651.149208 L403.660759,527.880045 Z M68.0629153,207.709372 L211.386771,299.030013 C232.000271,312.16417 238.057855,339.513234 224.916764,360.115858 C211.775673,380.718481 184.41217,386.772869 163.79867,373.638712 L20.4748149,282.318071 C-0.138685194,269.183914 -6.19626959,241.83485 6.94482146,221.232226 C20.0859125,200.629603 47.4494152,194.575215 68.0629153,207.709372 Z M403.660759,121.553781 L403.660759,368.091775 L597.887736,244.822778 L403.660759,121.553781 Z" id="lanyadingwei" fill="#333333" fill-rule="nonzero"></path>
    </g>
</svg>