<?xml version="1.0" encoding="UTF-8"?>
<svg width="734px" height="896px" viewBox="0 0 734 896" version="1.1" xmlns="http://www.w3.org/2000/svg" xmlns:xlink="http://www.w3.org/1999/xlink">
    <title>0218配送-首页</title>
    <g id="0218配送-首页" stroke="none" stroke-width="1" fill="none" fill-rule="evenodd">
        <path d="M400.933048,2.12490211 C416.459397,8.21514431 424.187641,25.6245189 418.371607,41.1894716 L418.191212,41.6605587 L402.603226,81.4004009 C588.585568,99.3641115 734,256.600533 734,447.913557 C734,582.230591 662.322868,699.750714 555.252482,764.06907 L360.576859,891.02822 C352.314991,896.41634 341.957654,897.476927 332.775218,893.875098 C317.248869,887.784856 309.520625,870.375481 315.336659,854.810528 L315.517054,854.339441 L331.181231,814.405831 C145.302093,796.341503 0,639.152669 0,447.913557 C0,313.72801 71.5368679,196.306503 178.433179,131.947086 L373.131407,4.97178045 C381.393276,-0.416339747 391.750612,-1.47692737 400.933048,2.12490211 Z M416.145992,221.519286 C415.690913,204.146811 392.889495,197.635637 383.396874,212.442519 L383.396874,212.442519 L210.875507,481.546653 L209.070049,485.191648 L208.952759,485.526679 C205.202284,496.59609 213.31613,508.946811 225.846154,508.946811 L225.846154,508.946811 L317.822,508.893784 L317.847094,673.950961 L317.854011,674.480879 C318.309321,691.858702 341.122265,698.365712 350.608926,683.548427 L350.608926,683.548427 L523.130294,414.086056 L524.933085,410.44119 L525.05016,410.106197 C528.793626,399.038081 520.679555,386.694952 508.153846,386.694952 L508.153846,386.694952 L416.121538,386.654314 L416.152906,222.049039 Z" id="Combined-Shape" fill="#333333" fill-rule="nonzero"></path>
    </g>
</svg>