<?xml version="1.0" encoding="UTF-8"?>
<svg width="896px" height="896px" viewBox="0 0 896 896" version="1.1" xmlns="http://www.w3.org/2000/svg" xmlns:xlink="http://www.w3.org/1999/xlink">
    <title>055iOS-分享</title>
    <g id="055iOS-分享" stroke="none" stroke-width="1" fill="none" fill-rule="evenodd">
        <path d="M448,0 C695.423568,0 896,200.576432 896,448 C896,695.423568 695.423568,896 448,896 C200.576432,896 0,695.423568 0,448 C0,200.576432 200.576432,0 448,0 Z M369.694118,337.365188 L277.984227,337.365188 C253.459858,337.365188 237.176471,351.204309 237.176471,372.956149 L237.176471,677.384232 C237.176471,699.168635 257.03426,716.752459 281.558629,716.752459 L614.44137,716.752459 C638.932644,716.752459 658.823529,699.168635 658.823529,677.384232 L658.823529,382.10625 C658.823529,360.386972 642.540142,337.365188 618.048869,337.365188 L532.873575,337.583938 L532.873575,373.30515 L598.588235,373.0864 C621.886386,373.0864 622.633122,374.820279 622.64955,393.643151 L622.649907,658.983301 C622.656495,673.812183 622.408978,681.226623 598.588235,681.226623 L297.378669,681.226623 C269.544668,681.226623 274.045766,671.164769 273.284551,657.58615 L273.284497,393.64756 C273.303912,374.849667 274.080517,373.0864 297.378669,373.0864 L369.694118,373.0864 L369.694118,337.365188 Z M449.505883,179.247541 L364.415255,256.030236 L388.244602,282.76416 L429.151649,247.498826 L430.732393,490.175918 L466.939762,490.175918 L465.359017,245.349692 L506.034389,285.401734 L531.584745,260.263379 L449.505883,179.247541 Z" id="Combined-Shape" fill="#333333"></path>
    </g>
</svg>