<?xml version="1.0" encoding="UTF-8"?>
<svg width="768px" height="896px" viewBox="0 0 768 896" version="1.1" xmlns="http://www.w3.org/2000/svg" xmlns:xlink="http://www.w3.org/1999/xlink">
    <title>0126在线支付</title>
    <g id="0126在线支付" stroke="none" stroke-width="1" fill="none" fill-rule="evenodd">
        <path d="M750.636826,49.5782676 C743.752996,44.5905144 675.014456,0 384.097791,0 C93.1811265,0 24.642118,44.4907593 17.5587562,49.5782676 C7.38265884,57.0598976 0,71.9234024 0,84.6920508 L0,449.895346 C0,673.546204 348.980279,882.034291 363.845362,890.812737 C369.532005,894.104654 376.615367,896 383.998025,896 C391.380684,896 398.563812,894.104654 404.150689,890.812737 C418.916006,882.134046 768,673.645959 768,449.895346 L768,84.7918058 C768.195582,71.9234024 760.812923,57.1596526 750.636826,49.5782676 Z M383.998025,46.3861055 C525.665263,46.3861055 610.665605,57.5586729 656.956871,67.0354041 C696.164776,75.0158094 714.521657,82.8964596 720.607362,85.8891116 L720.607362,85.8891116 L720.707128,449.296816 C720.707128,633.344912 423.604992,822.879537 383.998025,847.319528 C345.787778,823.877088 47.2889229,634.142953 47.2889229,449.296816 L47.2889229,449.296816 L47.2889229,86.1883768 C61.1563496,79.4050323 140.569815,46.3861055 383.998025,46.3861055 Z M480.336033,197.135347 L398.757206,375.94182 L382.481805,375.94182 L300.902978,197.135347 L251.974802,197.135347 L333.552567,375.94182 L251.974802,375.94182 L251.974802,424.661938 L366.104431,424.661938 L366.104431,457.210345 L366.104431,506.031363 L251.974802,506.031363 L251.974802,554.751479 L366.104431,554.751479 L366.104431,636.018942 L415.134581,636.018942 L415.134581,554.751479 L529.263147,554.751479 L529.263147,506.031363 L415.134581,506.031363 L415.134581,424.661938 L464.05957,424.661938 L529.263147,424.661938 L529.263147,375.94182 L447.68432,375.94182 L529.263147,197.135347 L480.336033,197.135347 Z" id="在线支付" fill="#333333" fill-rule="nonzero"></path>
    </g>
</svg>