<?xml version="1.0" encoding="UTF-8"?>
<svg width="896px" height="773px" viewBox="0 0 896 773" version="1.1" xmlns="http://www.w3.org/2000/svg" xmlns:xlink="http://www.w3.org/1999/xlink">
    <title>0155访问相机</title>
    <g id="0155访问相机" stroke="none" stroke-width="1" fill="none" fill-rule="evenodd">
        <path d="M448,548.082845 C508.360246,548.082845 557.411402,499.7601 557.411402,440.515675 C557.411402,381.27125 508.360246,332.948505 448,332.948505 C387.639754,332.948505 338.588598,381.27125 338.588598,440.515675 C338.588598,499.7601 387.639754,548.082845 448,548.082845 Z M448,621.966305 C346.564252,621.966305 264.03698,540.664566 264.03698,440.515675 C264.03698,340.366784 346.564252,259.065046 448,259.065046 C549.435748,259.065046 631.96302,340.366784 631.96302,440.515675 C631.96302,540.664566 549.435748,621.966305 448,621.966305 Z M410.661437,173.944924 C390.123686,173.944924 373.385628,157.455428 373.385628,137.003195 C373.385628,116.550962 390.123686,100.061465 410.661437,100.061465 L783.728561,100.061465 C845.580455,100.061465 896,147.776058 896,207.484004 L896,665.577464 C896,725.159784 845.854987,773 784.377327,773 L111.622675,773 C50.0963396,773 0,725.242917 0,665.577464 L0,207.484004 C0,147.869416 50.3021855,100.061465 111.965477,100.061465 L187.535569,100.061465 C208.07332,100.061465 224.811378,116.550962 224.811378,137.003195 C224.811378,157.455428 208.07332,173.944924 187.535569,173.944924 L111.965477,173.944924 C90.966686,173.944924 74.5516179,189.241839 74.5516179,207.484004 L74.5516179,665.577464 C74.5516179,683.907186 90.7899854,699.116538 111.622675,699.116538 L784.377327,699.116538 C805.149675,699.116538 821.448379,683.83875 821.448379,665.577464 L821.448379,207.484004 C821.448379,189.211996 804.96484,173.944924 783.728561,173.944924 L410.661437,173.944924 Z M649.057352,285.015341 C649.057352,256.582104 672.362825,233.622721 701.001883,233.622721 C729.640947,233.622721 752.946415,256.582102 752.946415,285.015341 C752.946415,313.44858 729.640947,336.407961 701.001883,336.407961 C672.362825,336.407961 649.057352,313.448578 649.057352,285.015341 Z M213.290681,100.000159 C213.290681,120.452391 196.552623,136.941888 176.014872,136.941888 C155.477121,136.941888 138.739063,120.452391 138.739063,100.000159 C138.739063,36.9547221 181.815115,0 248.52204,0 L357.62761,0 C424.258356,0 467.548514,37.0370654 467.548514,100.000159 C467.548514,120.452391 450.810455,136.941888 430.272705,136.941888 C409.734953,136.941888 392.996896,120.452391 392.996896,100.000159 C392.996896,80.5972025 384.631036,73.8834593 357.62761,73.8834593 L248.52204,73.8834593 C221.451788,73.8834593 213.290681,80.4563546 213.290681,100.000159 Z" id="xiangji" fill="#333333" fill-rule="nonzero"></path>
    </g>
</svg>