<?xml version="1.0" encoding="UTF-8"?>
<svg width="896px" height="770px" viewBox="0 0 896 770" version="1.1" xmlns="http://www.w3.org/2000/svg" xmlns:xlink="http://www.w3.org/1999/xlink">
    <title>0191声音关</title>
    <g id="0191声音关" stroke="none" stroke-width="1" fill="none" fill-rule="evenodd">
        <path d="M368.184905,35.585014 C415.618163,-11.8616597 492.522727,-11.8616699 539.956022,35.5849747 C549.542852,45.174504 557.456937,56.3019064 563.370079,68.5057245 C605.247176,154.933641 625.988698,261.295649 625.988698,387.449716 C625.988698,514.062619 605.096774,619.347898 562.841751,703.177435 C532.641152,763.092127 459.601964,787.173319 399.70411,756.964275 C389.151773,751.642282 379.432405,744.808317 370.853268,736.678426 L370.853268,736.678426 L359.119122,725.558738 C303.63007,672.975367 237.294581,633.194933 164.780852,609.016887 L164.780852,609.016887 L143.883969,602.04352 L112.144899,599.611173 C49.8378729,594.816977 1.50692984,543.572471 0.0345711258,481.396718 L0,478.474358 L0,296.425074 C0,232.939693 48.8643255,180.157366 112.144899,175.288259 L112.144899,175.288259 L143.911999,172.8402 L161.689416,166.913315 C233.692127,142.905656 299.311405,102.942385 353.666233,50.0409865 L358.576414,45.1962104 L368.184905,35.585014 Z M498.550891,73.5332781 C472.901452,49.7006117 432.784913,50.2680619 407.824398,75.2356363 L407.824398,75.2356363 L398.215893,84.8468458 C336.768114,146.31192 261.857577,192.622209 179.41673,220.110226 L179.41673,220.110226 L177.519183,220.740324 L177.519183,554.149763 L182.508166,555.819976 C260.431693,581.801796 331.911329,624.05687 392.221357,679.751257 L392.221357,679.751257 L397.673185,684.851327 L409.407332,695.971016 C414.026866,700.348648 419.260369,704.028474 424.942396,706.894162 C457.195082,723.160568 496.523882,710.19377 512.785737,677.932024 C550.724863,602.664775 569.930009,505.880052 569.930009,387.449716 C569.930009,269.240544 550.796693,171.125375 512.924114,92.9621736 C509.740114,86.3908843 505.478682,80.3992051 500.316542,75.2356111 L500.316542,75.2356111 L498.550891,73.5332781 Z M121.460494,230.805691 L116.444404,231.197558 C82.3702493,233.819385 56.0586894,262.240638 56.0586894,296.425074 L56.0586894,296.425074 L56.0586894,478.474358 C56.0586894,512.658795 82.3702493,541.080048 116.444404,543.701874 L116.444404,543.701874 L121.460494,544.084396 L121.460494,230.805691 Z M849.349121,273.975014 C860.356037,264.170992 877.235188,264.548069 887.790395,275.106247 C898.736535,286.055468 898.736535,303.807662 887.790395,314.756883 L887.790395,314.756883 L815.11203,387.446533 L887.790395,460.142549 C898.736535,471.091771 898.736535,488.843965 887.790395,499.793186 C877.235188,510.351363 860.356037,510.728441 849.349121,500.924419 L848.150915,499.793186 L775.478536,427.100527 L702.806157,499.793186 L701.607951,500.924419 C690.601035,510.728441 673.721884,510.351363 663.166678,499.793186 C652.220538,488.843965 652.220538,471.091771 663.166678,460.142549 L663.166678,460.142549 L735.8357,387.446533 L663.166678,314.756883 C652.220538,303.807662 652.220538,286.055468 663.166678,275.106247 C673.721884,264.548069 690.601035,264.170992 701.607951,273.975014 L702.806157,275.106247 L775.478536,347.801885 L848.150915,275.106247 L849.349121,273.975014 Z" id="Combined-Shape" fill="#222222" fill-rule="nonzero"></path>
    </g>
</svg>